<svg xmlns="http://www.w3.org/2000/svg" width="511.094" height="509.686" viewBox="0 0 511.094 509.686">
  <g id="Grupo_1010362" data-name="Grupo 1010362" transform="translate(-542.577 -881.667)">
    <g id="Grupo_931522" data-name="Grupo 931522" transform="translate(548.124 884.486)">
      <g id="Grupo_931385" data-name="Grupo 931385" transform="translate(-25.423 -25.353)">
        <path id="Trazado_695508" data-name="Trazado 695508" d="M91.044,75.912c-74.587,54.537-72.737,178.762-70.385,265.7.882,32.608,4.192,66.192,19.568,94.961,26.775,50.1,85,75.644,141.241,83.6s113.6,2.012,170.141,7.536c21.581,2.108,43.214,5.889,64.813,3.984s43.823-10.477,56.381-28.154c9.3-13.1,12.271-29.483,17.23-44.763,13.272-40.9,42.36-78.217,40.882-121.188-1.146-33.336-20.959-64.212-20.379-97.564.6-34.217,22.463-69.274,8.915-100.7-13.125-30.444-51.083-38.844-80.835-53.472-39.066-19.206-70.922-54.947-113.877-62.011-30.448-5.007-60.979,5.47-91.129,12.044-34.146,7.447-69.4,9.993-102.791,20.3A133.424,133.424,0,0,0,91.044,75.912Z" transform="translate(0 0)" fill="#e1f2f9"/>
      </g>
      <g id="Grupo_931521" data-name="Grupo 931521">
        <g id="Grupo_931386" data-name="Grupo 931386">
          <rect id="Rectángulo_344626" data-name="Rectángulo 344626" width="225.149" height="306.453" transform="matrix(0.988, -0.156, 0.156, 0.988, 63.468, 126.415)" fill="#cbd3f9"/>
        </g>
        <g id="Grupo_931387" data-name="Grupo 931387">
          <rect id="Rectángulo_344627" data-name="Rectángulo 344627" width="225.149" height="306.453" transform="translate(207.265 113.316) rotate(13.14)" fill="#fcd936"/>
        </g>
        <g id="Grupo_931468" data-name="Grupo 931468">
          <g id="Grupo_931449" data-name="Grupo 931449">
            <g id="Grupo_931391" data-name="Grupo 931391">
              <g id="Grupo_931388" data-name="Grupo 931388">
                <rect id="Rectángulo_344628" data-name="Rectángulo 344628" width="252.366" height="330.218" rx="6.789" transform="matrix(0.999, 0.051, -0.051, 0.999, 122.762, 99.275)" fill="#315359"/>
              </g>
              <g id="Grupo_931389" data-name="Grupo 931389">
                <rect id="Rectángulo_344629" data-name="Rectángulo 344629" width="225.149" height="306.453" transform="matrix(0.999, 0.051, -0.051, 0.999, 139.942, 117.052)" fill="#1e3d44"/>
              </g>
              <g id="Grupo_931390" data-name="Grupo 931390">
                <rect id="Rectángulo_344630" data-name="Rectángulo 344630" width="225.149" height="306.453" transform="matrix(0.999, 0.051, -0.051, 0.999, 135.753, 111.83)" fill="#fff"/>
              </g>
            </g>
            <g id="Grupo_931416" data-name="Grupo 931416">
              <g id="Grupo_931402" data-name="Grupo 931402">
                <g id="Grupo_931392" data-name="Grupo 931392">
                  <rect id="Rectángulo_344631" data-name="Rectángulo 344631" width="65.043" height="68.101" transform="matrix(0.999, 0.051, -0.051, 0.999, 154.322, 139.704)" fill="#cbd3f9"/>
                </g>
                <g id="Grupo_931401" data-name="Grupo 931401">
                  <g id="Grupo_931393" data-name="Grupo 931393">
                    <path id="Rectángulo_344632" data-name="Rectángulo 344632" d="M21.712,0H38A21.712,21.712,0,0,1,59.709,21.712v.247a0,0,0,0,1,0,0H0a0,0,0,0,1,0,0v-.247A21.712,21.712,0,0,1,21.712,0Z" transform="matrix(0.999, 0.051, -0.051, 0.999, 154.532, 185.916)" fill="#44457b"/>
                  </g>
                  <g id="Grupo_931396" data-name="Grupo 931396">
                    <g id="Grupo_931394" data-name="Grupo 931394">
                      <path id="Trazado_695509" data-name="Trazado 695509" d="M199.134,165.072c-.454,8.969-7.246,18.838-14.988,18.446s-13.5-10.9-13.05-19.865,6.951-13.007,14.693-12.615S199.588,156.1,199.134,165.072Z" fill="#e8a68b"/>
                    </g>
                    <g id="Grupo_931395" data-name="Grupo 931395">
                      <path id="Rectángulo_344633" data-name="Rectángulo 344633" d="M0,0H11.466a0,0,0,0,1,0,0V7.922a5.733,5.733,0,0,1-5.733,5.733h0A5.733,5.733,0,0,1,0,7.922V0A0,0,0,0,1,0,0Z" transform="matrix(0.999, 0.051, -0.051, 0.999, 178.631, 179.064)" fill="#e8a68b"/>
                    </g>
                  </g>
                  <g id="Grupo_931399" data-name="Grupo 931399">
                    <g id="Grupo_931397" data-name="Grupo 931397">
                      <path id="Trazado_695510" data-name="Trazado 695510" d="M173.311,167.94c.979,1.914.776,3.975-.454,4.6s-3.8-.59-4.779-2.5a3.286,3.286,0,0,1,1.233-4.425C170.541,164.986,172.332,166.027,173.311,167.94Z" fill="#e8a68b"/>
                    </g>
                    <g id="Grupo_931398" data-name="Grupo 931398">
                      <path id="Trazado_695511" data-name="Trazado 695511" d="M196.5,169.114c-1.168,1.8-1.174,3.875-.013,4.626s3.839-.2,5.006-2.008a3.285,3.285,0,0,0-.779-4.527C199.552,166.455,197.665,167.309,196.5,169.114Z" fill="#e8a68b"/>
                    </g>
                  </g>
                  <g id="Grupo_931400" data-name="Grupo 931400">
                    <path id="Trazado_695512" data-name="Trazado 695512" d="M169.758,155.354a6.376,6.376,0,0,0,1.006-1.456,7.764,7.764,0,0,0,.27-1.548c.482-2.928,3.744-4.63,6.71-4.737s5.856.892,8.812,1.159c3.508.316,7.022-.4,10.544-.462s7.335.7,9.683,3.326a8.761,8.761,0,0,1,.9,9.893,3.492,3.492,0,0,0-2.717-3.09,6.258,6.258,0,0,1,.79,3.751c-.275,1.271-1.773,2.334-2.893,1.674-.545.235.021,1.015.111,1.6.123.795-.788,1.315-1.544,1.591l-4.3,1.571a11.486,11.486,0,0,0-.206-8.2c-.483-1.16-1.378-2.372-2.634-2.385a12.351,12.351,0,0,0-1.546.269c-2.042.242-3.556-1.723-5.164-3.006a9.252,9.252,0,0,0-11.012-.153,4.046,4.046,0,0,0-1.884,3.3,7.567,7.567,0,0,1,.18,1.624c-.188,1.3-1.882,1.844-2.38,3.063a4.267,4.267,0,0,0,.129,2.553c.235,1.015.3,2.637-1.015,2.945-.881.205-1.239-.877-1.458-1.525a23.733,23.733,0,0,1-1.7-7.57A6.992,6.992,0,0,1,169.758,155.354Z" fill="#44457b"/>
                  </g>
                </g>
              </g>
              <g id="Grupo_931415" data-name="Grupo 931415">
                <g id="Grupo_931404" data-name="Grupo 931404">
                  <g id="Grupo_931403" data-name="Grupo 931403">
                    <path id="Trazado_695513" data-name="Trazado 695513" d="M235.161,159.614l5.187-5.8a1.141,1.141,0,0,0-1.613-1.613c-1.661,1.605-.93,4.276.872,5.465,2.477,1.634,5.416-.209,7.122-2.084l-1.906-1.11a4.2,4.2,0,0,0,2.989,5.092,3.665,3.665,0,0,0,3.008-.464c.793-.507,2.082-2.382,3.083-2.061l-.837-1.1.011,2.856a1.181,1.181,0,0,0,.837,1.1,6.051,6.051,0,0,0,7.229-2.479l-2.084-.273a3.832,3.832,0,0,0,4.8,2.247c2.484-.695,3.529-3.365,4.28-5.566.4-1.183-1.107-1.761-1.906-1.11-1.78,1.45-1.394,4.264.24,5.67,2.076,1.786,5.011.791,6.91-.7l-1.947-.806a4.335,4.335,0,0,0,8.491,1.113l-2.084.273,1.839,3.523c.68,1.3,2.649.15,1.97-1.151l-1.84-3.524a1.155,1.155,0,0,0-2.084.273,2.069,2.069,0,0,1-4.011-.507,1.159,1.159,0,0,0-1.947-.807c-.934.735-2.533,1.434-3.658.7a1.521,1.521,0,0,1-.266-2.439l-1.906-1.11c-.428,1.253-.914,2.885-2.076,3.678-.719.489-2.245.663-2.61-.358a1.156,1.156,0,0,0-2.084-.272,3.778,3.778,0,0,1-4.654,1.43l.838,1.1-.011-2.856a1.17,1.17,0,0,0-.837-1.1c-1.789-.574-2.99.695-4.221,1.776-.682.6-1.29,1.058-2.187.622a1.83,1.83,0,0,1-1.08-2.16,1.148,1.148,0,0,0-1.906-1.109c-.883.971-2.286,2.324-3.744,1.993-.834-.19-1.8-1.393-1.024-2.148l-1.613-1.613-5.187,5.8c-.976,1.091.631,2.709,1.613,1.613Z" fill="#315359"/>
                  </g>
                </g>
                <g id="Grupo_931406" data-name="Grupo 931406">
                  <g id="Grupo_931405" data-name="Grupo 931405">
                    <path id="Trazado_695514" data-name="Trazado 695514" d="M290.823,160.537a2.262,2.262,0,0,1,1.628-.923l-1.443-1.1a3.911,3.911,0,0,0,1.117,3.1,1.148,1.148,0,0,0,1.382.179l5.8-4.04-1.676-.681.83,2.038a1.19,1.19,0,0,0,1.4.8,12.8,12.8,0,0,0,5.385-2.134l-1.675-.681a5.575,5.575,0,0,0,10.86-.021,1.146,1.146,0,0,0-2.085-.879,4.026,4.026,0,1,0,7.309,3.189h-2.2a4.035,4.035,0,0,0,4.684,2.846c2.506-.372,4.016-2.676,5.205-4.685l-2.125-.576c.436,3.767,5.65,5.775,8.247,2.715.945-1.113-.661-2.734-1.613-1.613-1.158,1.366-4.123.888-4.353-1.1a1.151,1.151,0,0,0-2.125-.576,8.182,8.182,0,0,1-2.77,3.311c-1.03.55-2.665.388-2.95-.927-.256-1.181-1.849-.981-2.2,0a1.734,1.734,0,1,1-3.139-1.431l-2.084-.879a3.325,3.325,0,0,1-6.462.021,1.149,1.149,0,0,0-1.675-.681,11.327,11.327,0,0,1-4.84,1.9l1.4.8-.83-2.039a1.156,1.156,0,0,0-1.676-.681l-5.794,4.039,1.382.179a1.737,1.737,0,0,1-.449-1.493c.07-.805-.782-1.212-1.444-1.1a4.492,4.492,0,0,0-2.991,1.97c-.854,1.2,1.123,2.338,1.969,1.152Z" fill="#315359"/>
                  </g>
                </g>
                <g id="Grupo_931408" data-name="Grupo 931408">
                  <g id="Grupo_931407" data-name="Grupo 931407">
                    <path id="Trazado_695515" data-name="Trazado 695515" d="M234.826,180.177a16.561,16.561,0,0,1,3.941-3.593l-1.382-.178c.76.816,1.5,2.088,2.722,2.136a4.284,4.284,0,0,0,2.356-.737c.506-.306,1.627-1.431,2.254-1.357.466.056.752.924,1.007,1.26a3.436,3.436,0,0,0,1.063.945c1.8,1,4.064.075,5.458-1.214,1.814-1.676,2.208-4.51,4.281-5.927l-1.382-1.791c-2.024,2.075-2.335,6,.331,7.748a4.447,4.447,0,0,0,6.591-2.348h-2.2a4.194,4.194,0,0,0,3.889,3.312c2.227.187,4.128-1.216,5.624-2.706l-1.947-.807c-.413,4.7,5.627,6.451,8.115,2.653l-1.792.231c2.576,3.3,8.337,2.633,10.182-1.082l-2.125-.576c-.451,3.4,3.564,5.265,6.375,4.254,3.825-1.375,4.92-5.638,8.048-7.833l-1.716-.984-.292,5.222a1.148,1.148,0,0,0,.838,1.1,7.554,7.554,0,0,0,6.489-1.531l-1.947-.806.105,3.113a1.156,1.156,0,0,0,1.141,1.14l5.439-.146a1.141,1.141,0,0,0,0-2.281l-5.439.147,1.14,1.14-.1-3.113a1.157,1.157,0,0,0-1.947-.807,5.081,5.081,0,0,1-4.27.945l.837,1.1.291-5.222a1.147,1.147,0,0,0-1.716-.985c-2.234,1.568-3.4,3.928-5.223,5.885-.9.968-2.136,2.027-3.545,1.969a2.147,2.147,0,0,1-2.222-2.306c.149-1.129-1.645-1.543-2.126-.575a3.994,3.994,0,0,1-6.6.62,1.15,1.15,0,0,0-1.791.231c-1.349,2.06-4.064.772-3.864-1.5a1.152,1.152,0,0,0-1.947-.806,6.2,6.2,0,0,1-3.141,2.016,2.085,2.085,0,0,1-2.56-1.615c-.192-1.162-1.91-1.006-2.2,0a2.142,2.142,0,0,1-3.262.964c-1.306-1.031-.853-3.115.152-4.145.874-.9-.28-2.545-1.382-1.791-1.836,1.254-2.63,3.135-3.739,4.98a4.7,4.7,0,0,1-2.029,1.987c-1.316.6-1.823.11-2.541-.958a2.779,2.779,0,0,0-3.8-.981c-.746.371-1.369.938-2.092,1.348a1.314,1.314,0,0,1-.872.279c-.363-.088-1.043-1.12-1.308-1.4a1.152,1.152,0,0,0-1.382-.178,18.457,18.457,0,0,0-4.4,3.949c-.91,1.134.694,2.758,1.613,1.613Z" fill="#315359"/>
                  </g>
                </g>
                <g id="Grupo_931410" data-name="Grupo 931410">
                  <g id="Grupo_931409" data-name="Grupo 931409">
                    <path id="Trazado_695516" data-name="Trazado 695516" d="M319.812,180.246q-1.613-.4-1.186.235c.107.122.12.192.041.209a1.182,1.182,0,0,0,.8,1.4c1.591.64,2.963-.553,4.094-1.515.36-.305.934-.915,1.449-.891.4.018.76.473,1.063.7a3.083,3.083,0,0,0,1.519.651c2.208.259,3.135-1.995,4.95-2.661a3.509,3.509,0,0,1,4.26,1.741c.649,1.317,2.617.162,1.969-1.151a5.711,5.711,0,0,0-4.814-3.041,5.441,5.441,0,0,0-2.93.646c-.923.508-1.581,1.369-2.456,1.938-1.022.663-1.577-.472-2.491-.865a2.906,2.906,0,0,0-2.487.13,10.128,10.128,0,0,0-1.953,1.454c-.454.384-.954.911-1.567.665l.8,1.4a2.771,2.771,0,0,0-.728-2.569,1.424,1.424,0,0,0-2.3.367c-.667,1.3,1.3,2.46,1.97,1.151Z" fill="#315359"/>
                  </g>
                </g>
                <g id="Grupo_931412" data-name="Grupo 931412">
                  <g id="Grupo_931411" data-name="Grupo 931411">
                    <path id="Trazado_695517" data-name="Trazado 695517" d="M234.811,196.061a8.85,8.85,0,0,1,4.226-2.626l-1.4-1.4a3.771,3.771,0,0,0,3.563,4.245c2.6.264,4.512-1.854,5.96-3.706l-1.791-.23,1.9,4.4a1.166,1.166,0,0,0,1.56.409,23.02,23.02,0,0,0,9.448-7.536,1.15,1.15,0,0,0-1.288-1.675c-3.012,1.233-2.512,5.235-.217,6.99,1.531,1.17,3.566,1.263,5.4,1.5.925.118,1.889.551,2.787.249a39.315,39.315,0,0,0,3.626-1.648l-1.675-.681.938,3.948a1.152,1.152,0,0,0,1.4.8,21.263,21.263,0,0,1,9.71-.612,25.241,25.241,0,0,1,4.708,1.4,4.858,4.858,0,0,0,3.605.223c1.022-.384,2.137-1.588,3.281-1.363a10.67,10.67,0,0,1,1.64.748,6.317,6.317,0,0,0,1.773.409,6.921,6.921,0,0,0,6.147-2.848l-1.56.409a38.372,38.372,0,0,0,9.571,2.959c2.281.375,5.285.732,6.59-1.674l-1.561.409a7.823,7.823,0,0,0,10.323-3.017l-1.288.524,12.691,4.707c1.378.511,1.973-1.693.606-2.2l-12.69-4.706a1.147,1.147,0,0,0-1.288.524,5.5,5.5,0,0,1-7.2,2.2,1.16,1.16,0,0,0-1.56.41c-.928,1.712-4.579.556-5.978.247a36.14,36.14,0,0,1-7.062-2.35,1.188,1.188,0,0,0-1.56.409,4.555,4.555,0,0,1-3.227,1.735,6.812,6.812,0,0,1-3.247-.9,3.68,3.68,0,0,0-3.006.056c-1.083.471-2,1.458-3.256,1.258a39.059,39.059,0,0,1-3.9-1.329,23.385,23.385,0,0,0-12.86.177l1.4.8-.937-3.949a1.158,1.158,0,0,0-1.676-.681l-3.626,1.648.879-.115c-1.946-.51-4.151-.319-5.994-1.165-.778-.357-2.578-2.684-1.1-3.289l-1.288-1.675a20.907,20.907,0,0,1-8.63,6.718l1.561.409-1.9-4.4a1.144,1.144,0,0,0-1.791-.23,9.573,9.573,0,0,1-2.717,2.708c-.826.446-3.206.495-2.994-1.029.114-.821-.482-1.664-1.4-1.4a11.058,11.058,0,0,0-5.233,3.212c-.989,1.082.62,2.7,1.613,1.613Z" fill="#315359"/>
                  </g>
                </g>
                <g id="Grupo_931414" data-name="Grupo 931414">
                  <g id="Grupo_931413" data-name="Grupo 931413">
                    <path id="Trazado_695518" data-name="Trazado 695518" d="M234.975,208.937a5.881,5.881,0,0,0,4.323,2.171,6.322,6.322,0,0,0,2.479-.459c.559-.2.788-.268,1.221.121.321.288.548.644.9.918,2.869,2.264,6.739-.1,9.085-2l-1.906-.5c.888,3.232,5.525,3.854,7.342,1.115.814-1.227-1.16-2.37-1.969-1.151a1.888,1.888,0,0,1-3.174-.57,1.156,1.156,0,0,0-1.906-.5,9.885,9.885,0,0,1-3.991,2.154,2.782,2.782,0,0,1-1.634-.057c-.632-.266-.931-.871-1.41-1.315-1.282-1.191-2.545-.482-3.983-.121a3.659,3.659,0,0,1-3.759-1.411c-.912-1.149-2.516.475-1.613,1.613Z" fill="#315359"/>
                  </g>
                </g>
              </g>
            </g>
            <g id="Grupo_931424" data-name="Grupo 931424">
              <g id="Grupo_931421" data-name="Grupo 931421">
                <g id="Grupo_931417" data-name="Grupo 931417">
                  <path id="Trazado_695519" data-name="Trazado 695519" d="M241.371,252.142A48.707,48.707,0,0,1,287.5,303.191l24.463,1.238a73.146,73.146,0,0,0-146.106-7.394l24.463,1.238A48.707,48.707,0,0,1,241.371,252.142Z" fill="#fcd936"/>
                </g>
                <g id="Grupo_931420" data-name="Grupo 931420">
                  <g id="Grupo_931418" data-name="Grupo 931418">
                    <path id="Trazado_695520" data-name="Trazado 695520" d="M202.333,237.416a73.148,73.148,0,0,0-36.475,59.619l24.464,1.238c.774-15.291,10.106-30.221,22.891-38.83Z" fill="#fe6083"/>
                  </g>
                  <g id="Grupo_931419" data-name="Grupo 931419">
                    <path id="Trazado_695521" data-name="Trazado 695521" d="M280.23,240.4l-13.063,20.745c12.356,8.5,21.154,25.859,20.335,42.048l24.463,1.238A73.168,73.168,0,0,0,280.23,240.4Z" fill="#adc436"/>
                  </g>
                </g>
              </g>
              <g id="Grupo_931422" data-name="Grupo 931422">
                <path id="Trazado_695522" data-name="Trazado 695522" d="M333.892,306.642h-.057l-189.958-9.613a1.1,1.1,0,0,1-1.046-1.158,1.128,1.128,0,0,1,1.157-1.046l189.959,9.612a1.1,1.1,0,0,1-.055,2.206Z" fill="#315359"/>
              </g>
              <g id="Grupo_931423" data-name="Grupo 931423">
                <path id="Trazado_695523" data-name="Trazado 695523" d="M238.565,301.818a1.1,1.1,0,0,1-.906-1.731l41.663-60.317a1.1,1.1,0,0,1,1.816,1.255l-41.664,60.317A1.1,1.1,0,0,1,238.565,301.818Z" fill="#315359"/>
              </g>
            </g>
            <g id="Grupo_931448" data-name="Grupo 931448">
              <g id="Grupo_931444" data-name="Grupo 931444">
                <g id="Grupo_931430" data-name="Grupo 931430">
                  <g id="Grupo_931425" data-name="Grupo 931425">
                    <path id="Trazado_695524" data-name="Trazado 695524" d="M179.992,368.75c-.088,0-.177,0-.267-.007l-13.428-.68a5.15,5.15,0,0,1-4.883-5.4l.68-13.428a5.15,5.15,0,0,1,5.4-4.883l13.427.68a5.158,5.158,0,0,1,4.884,5.4l-.68,13.427a5.151,5.151,0,0,1-5.137,4.891Zm-12.757-21.331a2.07,2.07,0,0,0-2.068,1.968l-.68,13.428a2.072,2.072,0,0,0,1.965,2.175l13.429.68a2.022,2.022,0,0,0,1.5-.533,2.058,2.058,0,0,0,.68-1.434l.68-13.427a2.077,2.077,0,0,0-1.966-2.176l-13.428-.679C167.306,347.419,167.27,347.419,167.235,347.419Z" fill="#cbd3f9"/>
                  </g>
                  <g id="Grupo_931429" data-name="Grupo 931429">
                    <g id="Grupo_931426" data-name="Grupo 931426">
                      <path id="Trazado_695525" data-name="Trazado 695525" d="M241.762,356.425l-.079,0-44.354-2.244a1.538,1.538,0,1,1,.155-3.073l44.354,2.244a1.538,1.538,0,0,1-.076,3.075Z" fill="#cbd3f9"/>
                    </g>
                    <g id="Grupo_931427" data-name="Grupo 931427">
                      <path id="Trazado_695526" data-name="Trazado 695526" d="M269.364,368.038l-.079,0-72.472-3.668a1.538,1.538,0,1,1,.156-3.073l72.472,3.669a1.538,1.538,0,0,1-.077,3.075Z" fill="#cbd3f9"/>
                    </g>
                    <g id="Grupo_931428" data-name="Grupo 931428">
                      <path id="Trazado_695527" data-name="Trazado 695527" d="M308.309,370.008l-.079,0-27.972-1.416a1.538,1.538,0,1,1,.156-3.072l27.972,1.415a1.538,1.538,0,0,1-.077,3.075Z" fill="#cbd3f9"/>
                    </g>
                  </g>
                </g>
                <g id="Grupo_931443" data-name="Grupo 931443">
                  <g id="Grupo_931436" data-name="Grupo 931436">
                    <g id="Grupo_931431" data-name="Grupo 931431">
                      <path id="Trazado_695528" data-name="Trazado 695528" d="M181.715,334.7c-.088,0-.177,0-.267-.007l-13.427-.679a5.152,5.152,0,0,1-4.884-5.4l.68-13.428a5.148,5.148,0,0,1,5.4-4.883l13.427.679a5.158,5.158,0,0,1,4.884,5.4l-.68,13.427a5.151,5.151,0,0,1-5.137,4.891Zm-12.757-21.331a2.07,2.07,0,0,0-2.068,1.968l-.68,13.428a2.076,2.076,0,0,0,1.967,2.176l13.427.679a2.033,2.033,0,0,0,1.495-.533,2.059,2.059,0,0,0,.681-1.434l.679-13.427a2.076,2.076,0,0,0-1.966-2.176l-13.427-.679C169.029,313.368,168.994,313.368,168.958,313.368Z" fill="#cbd3f9"/>
                    </g>
                    <g id="Grupo_931435" data-name="Grupo 931435">
                      <g id="Grupo_931432" data-name="Grupo 931432">
                        <path id="Trazado_695529" data-name="Trazado 695529" d="M243.485,322.374l-.079,0-44.354-2.244a1.538,1.538,0,1,1,.155-3.072l44.354,2.244a1.538,1.538,0,0,1-.076,3.075Z" fill="#cbd3f9"/>
                      </g>
                      <g id="Grupo_931433" data-name="Grupo 931433">
                        <path id="Trazado_695530" data-name="Trazado 695530" d="M271.088,333.986l-.08,0-72.472-3.668a1.538,1.538,0,0,1,.156-3.073l72.472,3.668a1.538,1.538,0,0,1-.076,3.075Z" fill="#cbd3f9"/>
                      </g>
                      <g id="Grupo_931434" data-name="Grupo 931434">
                        <path id="Trazado_695531" data-name="Trazado 695531" d="M310.032,335.957l-.079,0-27.971-1.416a1.539,1.539,0,0,1-1.459-1.614,1.561,1.561,0,0,1,1.615-1.459l27.971,1.416a1.538,1.538,0,0,1-.077,3.075Z" fill="#cbd3f9"/>
                      </g>
                    </g>
                  </g>
                  <g id="Grupo_931442" data-name="Grupo 931442">
                    <g id="Grupo_931437" data-name="Grupo 931437">
                      <path id="Trazado_695532" data-name="Trazado 695532" d="M178.264,402.8c-.087,0-.174,0-.261-.007h0l-13.428-.68a5.15,5.15,0,0,1-4.883-5.4l.68-13.429a5.149,5.149,0,0,1,5.4-4.882l13.427.679a5.158,5.158,0,0,1,4.884,5.4l-.68,13.427A5.158,5.158,0,0,1,178.264,402.8Zm-.106-3.079a2.111,2.111,0,0,0,2.175-1.967l.68-13.427a2.077,2.077,0,0,0-1.967-2.176l-13.427-.68a2.073,2.073,0,0,0-2.176,1.966l-.679,13.429a2.072,2.072,0,0,0,1.965,2.174Z" fill="#cbd3f9"/>
                    </g>
                    <g id="Grupo_931441" data-name="Grupo 931441">
                      <g id="Grupo_931438" data-name="Grupo 931438">
                        <path id="Trazado_695533" data-name="Trazado 695533" d="M240.039,390.476l-.079,0-44.354-2.244a1.538,1.538,0,0,1,.154-3.073l44.355,2.244a1.538,1.538,0,0,1-.076,3.075Z" fill="#cbd3f9"/>
                      </g>
                      <g id="Grupo_931439" data-name="Grupo 931439">
                        <path id="Trazado_695534" data-name="Trazado 695534" d="M267.641,402.089l-.079,0-72.472-3.669a1.538,1.538,0,1,1,.156-3.072l72.472,3.668a1.538,1.538,0,0,1-.077,3.075Z" fill="#cbd3f9"/>
                      </g>
                      <g id="Grupo_931440" data-name="Grupo 931440">
                        <path id="Trazado_695535" data-name="Trazado 695535" d="M306.586,404.059l-.079,0-27.972-1.415a1.538,1.538,0,0,1,.156-3.073l27.972,1.415a1.538,1.538,0,0,1-.077,3.075Z" fill="#cbd3f9"/>
                      </g>
                    </g>
                  </g>
                </g>
              </g>
              <g id="Grupo_931445" data-name="Grupo 931445">
                <path id="Trazado_695536" data-name="Trazado 695536" d="M176.334,330.711h-.1a3.837,3.837,0,0,1-2.779-1.3l-6.09-6.922a2.131,2.131,0,1,1,3.2-2.815l5.772,6.561,12.385-13.548a2.131,2.131,0,1,1,3.145,2.875L179.127,329.5A3.883,3.883,0,0,1,176.334,330.711Z" fill="#adc436"/>
              </g>
              <g id="Grupo_931446" data-name="Grupo 931446">
                <path id="Trazado_695537" data-name="Trazado 695537" d="M174.612,364.752h-.1a3.842,3.842,0,0,1-2.779-1.3l-6.089-6.922a2.131,2.131,0,0,1,3.2-2.815l5.772,6.561,12.386-13.548a2.131,2.131,0,1,1,3.145,2.875L177.4,363.544A3.88,3.88,0,0,1,174.612,364.752Z" fill="#adc436"/>
              </g>
              <g id="Grupo_931447" data-name="Grupo 931447">
                <path id="Trazado_695538" data-name="Trazado 695538" d="M172.889,398.793h-.094a3.85,3.85,0,0,1-2.782-1.3l-6.089-6.921a2.131,2.131,0,1,1,3.2-2.816l5.773,6.561,12.385-13.548a2.131,2.131,0,1,1,3.145,2.875l-12.746,13.941A3.878,3.878,0,0,1,172.889,398.793Z" fill="#adc436"/>
              </g>
            </g>
          </g>
          <g id="Grupo_931455" data-name="Grupo 931455">
            <g id="Grupo_931452" data-name="Grupo 931452">
              <g id="Grupo_931450" data-name="Grupo 931450">
                <rect id="Rectángulo_344634" data-name="Rectángulo 344634" width="98.439" height="39.819" transform="matrix(0.999, 0.051, -0.051, 0.999, 200.547, 84.997)" fill="#fcd936"/>
              </g>
              <g id="Grupo_931451" data-name="Grupo 931451">
                <circle id="Elipse_4869" data-name="Elipse 4869" cx="30.283" cy="30.283" r="30.283" transform="translate(219.42 57.201)" fill="#fcd936"/>
              </g>
            </g>
            <g id="Grupo_931453" data-name="Grupo 931453">
              <path id="Trazado_695539" data-name="Trazado 695539" d="M250.507,71.591a15.219,15.219,0,0,0-15.968,14.43l30.4,1.538A15.218,15.218,0,0,0,250.507,71.591Z" fill="#f89520"/>
            </g>
            <g id="Grupo_931454" data-name="Grupo 931454">
              <rect id="Rectángulo_344635" data-name="Rectángulo 344635" width="98.439" height="7.992" transform="matrix(0.999, 0.051, -0.051, 0.999, 198.938, 116.783)" fill="#f89520"/>
            </g>
          </g>
          <g id="Grupo_931457" data-name="Grupo 931457">
            <g id="Grupo_931456" data-name="Grupo 931456">
              <path id="Trazado_695540" data-name="Trazado 695540" d="M209.9,98.164l8.567,12.125c.589.834,1.975.036,1.38-.806l-8.567-12.126c-.589-.834-1.975-.036-1.38.807Z" fill="#f89520"/>
            </g>
          </g>
          <g id="Grupo_931459" data-name="Grupo 931459">
            <g id="Grupo_931458" data-name="Grupo 931458">
              <path id="Trazado_695541" data-name="Trazado 695541" d="M215.838,97.582l4.79,6.823a.821.821,0,0,0,1.094.287.806.806,0,0,0,.286-1.093l-4.79-6.824a.82.82,0,0,0-1.093-.287.807.807,0,0,0-.287,1.094Z" fill="#f89520"/>
            </g>
          </g>
          <g id="Grupo_931461" data-name="Grupo 931461">
            <g id="Grupo_931460" data-name="Grupo 931460">
              <path id="Trazado_695542" data-name="Trazado 695542" d="M278.458,99.837a136.028,136.028,0,0,0,8.475,11.638c.648.8,1.773-.338,1.13-1.13a132.332,132.332,0,0,1-8.225-11.315c-.558-.86-1.942-.059-1.38.807Z" fill="#f89520"/>
            </g>
          </g>
          <g id="Grupo_931463" data-name="Grupo 931463">
            <g id="Grupo_931462" data-name="Grupo 931462">
              <path id="Trazado_695543" data-name="Trazado 695543" d="M135.937,372.44a88.074,88.074,0,0,0,9.485,14.754c.639.806,1.763-.332,1.13-1.13a86.14,86.14,0,0,1-9.235-14.431c-.467-.917-1.846-.109-1.38.807Z" fill="#315359"/>
            </g>
          </g>
          <g id="Grupo_931465" data-name="Grupo 931465">
            <g id="Grupo_931464" data-name="Grupo 931464">
              <path id="Trazado_695544" data-name="Trazado 695544" d="M135.576,382.569a29.722,29.722,0,0,1,5.117,7.742.806.806,0,0,0,1.093.287.819.819,0,0,0,.287-1.094,31.033,31.033,0,0,0-5.367-8.065c-.7-.76-1.824.373-1.13,1.13Z" fill="#315359"/>
            </g>
          </g>
          <g id="Grupo_931467" data-name="Grupo 931467">
            <g id="Grupo_931466" data-name="Grupo 931466">
              <path id="Trazado_695545" data-name="Trazado 695545" d="M327.214,225.882l5.042,9.626c.478.911,1.858.1,1.38-.807l-5.042-9.626c-.477-.911-1.857-.1-1.38.807Z" fill="#315359"/>
            </g>
          </g>
        </g>
        <g id="Grupo_931480" data-name="Grupo 931480">
          <g id="Grupo_931469" data-name="Grupo 931469" opacity="0.77">
            <circle id="Elipse_4870" data-name="Elipse 4870" cx="55.022" cy="55.022" r="55.022" transform="translate(323.288 218.147)" fill="#e1f2f9"/>
          </g>
          <g id="Grupo_931473" data-name="Grupo 931473">
            <g id="Grupo_931470" data-name="Grupo 931470">
              <rect id="Rectángulo_344636" data-name="Rectángulo 344636" width="11.237" height="53.822" transform="translate(409.244 318.542) rotate(-40.158)" fill="#fcd936"/>
            </g>
            <g id="Grupo_931471" data-name="Grupo 931471">
              <path id="Rectángulo_344637" data-name="Rectángulo 344637" d="M0,0H23.316a0,0,0,0,1,0,0V40.666a9.042,9.042,0,0,1-9.042,9.042H9.042A9.042,9.042,0,0,1,0,40.666V0A0,0,0,0,1,0,0Z" transform="translate(433.303 356.42) rotate(-40.158)" fill="#fe6083"/>
            </g>
            <g id="Grupo_931472" data-name="Grupo 931472">
              <path id="Trazado_695546" data-name="Trazado 695546" d="M378.356,332.5a59.342,59.342,0,1,1,45.319-97.607h0A59.325,59.325,0,0,1,378.356,332.5Zm-.131-109.522A50.193,50.193,0,1,0,416.668,240.8h0a49.86,49.86,0,0,0-34.122-17.643Q380.379,222.976,378.225,222.976Z" fill="#6663de"/>
            </g>
          </g>
          <g id="Grupo_931475" data-name="Grupo 931475">
            <g id="Grupo_931474" data-name="Grupo 931474">
              <path id="Trazado_695547" data-name="Trazado 695547" d="M409.895,251.391l2.35,17.532c.222,1.651,1.312,3.281,3.2,3.2,1.541-.069,3.434-1.422,3.2-3.2l-2.35-17.532c-.222-1.65-1.312-3.281-3.2-3.2-1.541.069-3.434,1.421-3.2,3.2Z" fill="#fff"/>
            </g>
          </g>
          <g id="Grupo_931477" data-name="Grupo 931477">
            <g id="Grupo_931476" data-name="Grupo 931476">
              <path id="Trazado_695548" data-name="Trazado 695548" d="M409.219,284.01a12.038,12.038,0,0,0-1.259,6.61,3.549,3.549,0,0,0,.936,2.26,3.2,3.2,0,0,0,4.521,0l.5-.647a3.173,3.173,0,0,0,.437-1.613,9.229,9.229,0,0,1,.01-2.295l-.114.849a9.258,9.258,0,0,1,.629-2.3l-.322.763c.058-.135.119-.27.183-.4a2.383,2.383,0,0,0,.38-1.188,2.426,2.426,0,0,0-.057-1.275,3.263,3.263,0,0,0-1.47-1.91,3.222,3.222,0,0,0-2.463-.322,3.15,3.15,0,0,0-1.91,1.469Z" fill="#fff"/>
            </g>
          </g>
          <g id="Grupo_931479" data-name="Grupo 931479">
            <g id="Grupo_931478" data-name="Grupo 931478">
              <path id="Trazado_695549" data-name="Trazado 695549" d="M461.486,364.8a27.645,27.645,0,0,0,7.735,10.333,1.636,1.636,0,0,0,2.26,0,1.618,1.618,0,0,0,0-2.261,24.93,24.93,0,0,1-7.234-9.686,1.6,1.6,0,0,0-2.187-.573,1.65,1.65,0,0,0-.574,2.187Z" fill="#fff"/>
            </g>
          </g>
        </g>
        <g id="Grupo_931496" data-name="Grupo 931496" transform="translate(-25)">
          <g id="Grupo_931481" data-name="Grupo 931481">
            <path id="Trazado_695550" data-name="Trazado 695550" d="M78.243,282.685a1.707,1.707,0,0,1-1.017-.335l-10.8-7.962a8.874,8.874,0,0,1-3.159-9.982L88.4,183.728a1.716,1.716,0,0,1,3.276,1.02L66.533,265.46a5.463,5.463,0,0,0,1.93,6.166l10.8,7.963a1.715,1.715,0,0,1-1.019,3.1Z" fill="#6663de"/>
          </g>
          <g id="Grupo_931482" data-name="Grupo 931482">
            <path id="Trazado_695551" data-name="Trazado 695551" d="M34.9,292.309a1.714,1.714,0,0,1-1.36-2.759l51.461-67.068a8.861,8.861,0,0,1,9.956-3.146l12.731,4.234a1.716,1.716,0,0,1-1.083,3.256l-12.731-4.233a5.445,5.445,0,0,0-6.13,1.949l-51.482,67.1A1.71,1.71,0,0,1,34.9,292.309Z" fill="#6663de"/>
          </g>
          <g id="Grupo_931483" data-name="Grupo 931483">
            <circle id="Elipse_4871" data-name="Elipse 4871" cx="22.867" cy="22.867" r="22.867" transform="translate(27.628 243.72)" fill="#e1f2f9"/>
          </g>
          <g id="Grupo_931484" data-name="Grupo 931484">
            <circle id="Elipse_4872" data-name="Elipse 4872" cx="22.867" cy="22.867" r="22.867" transform="translate(57.216 186.636)" fill="#e1f2f9"/>
          </g>
          <g id="Grupo_931485" data-name="Grupo 931485">
            <path id="Trazado_695552" data-name="Trazado 695552" d="M50.224,290.78a24.376,24.376,0,1,1,7.377-1.15A24.2,24.2,0,0,1,50.224,290.78Zm.05-45.207a20.914,20.914,0,1,0,9.584,2.353A20.909,20.909,0,0,0,50.274,245.573Z" fill="#6663de"/>
          </g>
          <g id="Grupo_931486" data-name="Grupo 931486">
            <path id="Trazado_695553" data-name="Trazado 695553" d="M79.621,234.064a24.314,24.314,0,1,1,11.214-45.9h0A24.308,24.308,0,0,1,87,232.914,24.4,24.4,0,0,1,79.621,234.064Zm.051-45.207a20.883,20.883,0,0,0-9.63,39.422A20.876,20.876,0,1,0,89.255,191.21h0A20.772,20.772,0,0,0,79.672,188.857Z" fill="#6663de"/>
          </g>
          <g id="Grupo_931487" data-name="Grupo 931487">
            <path id="Trazado_695554" data-name="Trazado 695554" d="M59.674,247c-.215-.35-5.24-8.608-2.077-14.042,1.79-3.075,5.734-4.519,11.7-4.3l-.084,2.286c-5.063-.193-8.3.879-9.635,3.166-2.477,4.247,2,11.618,2.046,11.692Z" fill="#6663de"/>
          </g>
          <g id="Grupo_931489" data-name="Grupo 931489">
            <g id="Grupo_931488" data-name="Grupo 931488">
              <path id="Trazado_695555" data-name="Trazado 695555" d="M44.044,280.565a16.076,16.076,0,0,0,8.109.55,1.724,1.724,0,0,0,1.2-2.11,1.762,1.762,0,0,0-2.111-1.2c-.152.027-.305.049-.458.077-.13.019-.087.014.128-.016-.088.011-.176.022-.264.031-.264.028-.528.049-.794.063a14.068,14.068,0,0,1-1.79-.024c-.154-.011-.308-.026-.462-.042l-.132-.016q-.294-.036.061.009c-.066.072-.757-.133-.849-.152a14.306,14.306,0,0,1-1.724-.481,1.727,1.727,0,0,0-2.111,1.2,1.759,1.759,0,0,0,1.2,2.111Z" fill="#fff"/>
            </g>
          </g>
          <g id="Grupo_931491" data-name="Grupo 931491">
            <g id="Grupo_931490" data-name="Grupo 931490">
              <path id="Trazado_695556" data-name="Trazado 695556" d="M58.8,278.685l2.021-.96a1.649,1.649,0,0,0,.819-1.71,1.275,1.275,0,0,0-.2-.637,1.731,1.731,0,0,0-1.026-.789l-.456-.061a1.713,1.713,0,0,0-.866.234l-2.021.96a1.654,1.654,0,0,0-.819,1.709,1.266,1.266,0,0,0,.2.638,1.732,1.732,0,0,0,1.025.789l.456.061a1.71,1.71,0,0,0,.866-.234Z" fill="#fff"/>
            </g>
          </g>
          <g id="Grupo_931493" data-name="Grupo 931493">
            <g id="Grupo_931492" data-name="Grupo 931492">
              <path id="Trazado_695557" data-name="Trazado 695557" d="M74.454,199.457c.153-.082.31-.156.465-.235.175-.079.158-.073-.052.016.081-.033.161-.065.243-.1a8.777,8.777,0,0,1,.87-.274,3.805,3.805,0,0,1,.894-.181c-.48,0,.089,0,.192-.011.152-.012.3-.019.456-.023a8.851,8.851,0,0,1,.977.03c.083.007.523.017.062,0a3.216,3.216,0,0,1,.514.09,8.664,8.664,0,0,1,.882.232c.166.053.327.115.491.175s.161.064-.049-.022c.079.036.158.073.236.111a1.754,1.754,0,0,0,2.347-.616,1.736,1.736,0,0,0-.615-2.347,10.641,10.641,0,0,0-9.645.19,1.731,1.731,0,0,0-.616,2.347,1.753,1.753,0,0,0,2.348.615Z" fill="#fff"/>
            </g>
          </g>
          <g id="Grupo_931495" data-name="Grupo 931495">
            <g id="Grupo_931494" data-name="Grupo 931494">
              <path id="Trazado_695558" data-name="Trazado 695558" d="M87.486,201.639l2.174,1.638a1.278,1.278,0,0,0,.638.2,1.536,1.536,0,0,0,1.267-.337,1.29,1.29,0,0,0,.442-.482,1.728,1.728,0,0,0,.173-1.322l-.173-.409a1.721,1.721,0,0,0-.615-.616l-2.174-1.638a1.289,1.289,0,0,0-.638-.2,1.762,1.762,0,0,0-1.71.82,1.735,1.735,0,0,0-.173,1.321l.173.41a1.731,1.731,0,0,0,.616.616Z" fill="#fff"/>
            </g>
          </g>
        </g>
        <g id="Grupo_931504" data-name="Grupo 931504">
          <g id="Grupo_931499" data-name="Grupo 931499">
            <g id="Grupo_931497" data-name="Grupo 931497">
              <rect id="Rectángulo_344638" data-name="Rectángulo 344638" width="31.386" height="107.264" transform="translate(66.196 404.435) rotate(-60.571)" fill="#fe6083"/>
            </g>
            <g id="Grupo_931498" data-name="Grupo 931498">
              <rect id="Rectángulo_344639" data-name="Rectángulo 344639" width="11.16" height="107.264" transform="translate(71.165 395.627) rotate(-60.571)" fill="#dd436b"/>
            </g>
          </g>
          <g id="Grupo_931500" data-name="Grupo 931500">
            <rect id="Rectángulo_344640" data-name="Rectángulo 344640" width="31.386" height="6.098" transform="translate(159.619 457.139) rotate(-60.571)" fill="#fcd936"/>
          </g>
          <g id="Grupo_931501" data-name="Grupo 931501">
            <path id="Rectángulo_344641" data-name="Rectángulo 344641" d="M0,0H31.386a0,0,0,0,1,0,0V0A12.922,12.922,0,0,1,18.464,12.922H12.922A12.922,12.922,0,0,1,0,0V0A0,0,0,0,1,0,0Z" transform="translate(164.93 460.135) rotate(-60.571)" fill="#dd436b"/>
          </g>
          <g id="Grupo_931502" data-name="Grupo 931502">
            <path id="Trazado_695559" data-name="Trazado 695559" d="M66.2,404.435l-13.434-25.6L81.618,377.1Z" fill="#fcd936"/>
          </g>
          <g id="Grupo_931503" data-name="Grupo 931503">
            <path id="Trazado_695560" data-name="Trazado 695560" d="M56.255,385.493l4.009-7.107-7.5.452Z" fill="#315359"/>
          </g>
        </g>
      </g>
    </g>
  </g>
</svg>
