<svg id="ley" xmlns="http://www.w3.org/2000/svg" width="77.429" height="77.429" viewBox="0 0 77.429 77.429">
  <path id="Trazado_688823" data-name="Trazado 688823" d="M77.429,38.715a38.546,38.546,0,0,1-8.015,23.591c-.316.41-1.374.444-1.705.841C62.153,69.8,54.8,73.784,45.974,75.54c-.859.171-1.39,1.457-2.268,1.57a39.1,39.1,0,0,1-4.991.319,38.544,38.544,0,0,1-23.393-7.864c-.392-.3.181-1.563-.2-1.876a38.9,38.9,0,0,1-3.476-3.267c-.336-.354-1.646.266-1.969-.1A38.715,38.715,0,1,1,77.429,38.715Z" fill="#55a4f9"/>
  <path id="Trazado_688824" data-name="Trazado 688824" d="M144.748,120v24.2l-.286,27.221h-42.5L100,169.709V120Z" transform="translate(-84.877 -101.853)" fill="#ae583e"/>
  <path id="Trazado_688825" data-name="Trazado 688825" d="M71.41,80v57.467H69.643A38.949,38.949,0,0,1,64,132.224V81.008q.452-.512.922-1.008Z" transform="translate(-54.321 -67.902)" fill="#954c35"/>
  <path id="Trazado_688826" data-name="Trazado 688826" d="M113.906,30V43.611H72.318c-4.594,0-8.318-3.047-8.318-6.805S67.724,30,72.318,30Z" transform="translate(-54.321 -25.463)" fill="#fff68e"/>
  <path id="Trazado_688827" data-name="Trazado 688827" d="M77.762,43.611H72.318c-4.594,0-8.318-3.047-8.318-6.805S67.724,30,72.318,30h5.444c-4.594,0-8.318,3.047-8.318,6.805S73.168,43.611,77.762,43.611Zm0-8.923h25.709a.756.756,0,1,0,0-1.512H77.762a.756.756,0,0,0,0,1.512Zm26.465,5.142a.756.756,0,0,1-.756.756H77.762a.756.756,0,0,1,0-1.512h25.709A.756.756,0,0,1,104.227,39.83ZM91.372,37.561H73.225a.756.756,0,0,1,0-1.512H91.372a.756.756,0,0,1,0,1.512Zm20.416-.756a.756.756,0,0,1-.756.756H100.446a.756.756,0,0,1,0-1.512h10.586A.756.756,0,0,1,111.788,36.805Zm3.025-2.873a.756.756,0,0,1-.756.756h-6.049a.756.756,0,0,1,0-1.512h6.049A.756.756,0,0,1,114.813,33.932Z" transform="translate(-54.321 -25.463)" fill="#ffcd71"/>
  <path id="Trazado_688828" data-name="Trazado 688828" d="M110.418,39.367a.756.756,0,0,1-.756.756H68.074c-5,0-9.074-3.392-9.074-7.561S63.07,25,68.074,25h41.588a.756.756,0,0,1,0,1.512H68.074c-4.169,0-7.561,2.714-7.561,6.049s3.392,6.049,7.561,6.049h41.588A.756.756,0,0,1,110.418,39.367Z" transform="translate(-50.077 -21.219)" fill="#7c3f2c"/>
  <path id="Trazado_688829" data-name="Trazado 688829" d="M177.221,203.256a.756.756,0,0,1-.756.756h-24.2v8.7a.756.756,0,0,1-1.512,0v-8.7a.756.756,0,0,1,0-1.512h25.709A.756.756,0,0,1,177.221,203.256Z" transform="translate(-127.316 -171.876)" fill="#d29380"/>
  <path id="Trazado_688830" data-name="Trazado 688830" d="M236.512,181.756v22.533a.756.756,0,1,1-1.512,0V181.756a.756.756,0,0,1,1.512,0Z" transform="translate(-199.461 -153.628)" fill="#dba999"/>
  <path id="Trazado_688831" data-name="Trazado 688831" d="M154.328,272.2a1.134,1.134,0,0,1-1.134,1.134H142.5a1.134,1.134,0,0,1-1.134-1.134,2.646,2.646,0,0,1,2.646-2.647h2.322v-7.713a.756.756,0,0,1,.756-.756H148.6a.756.756,0,0,1,.756.756v7.713h2.322A2.647,2.647,0,0,1,154.328,272.2Zm-15.393-12.7h-6.373a1.134,1.134,0,0,0-1.134,1.134,2.646,2.646,0,0,0,2.647,2.646h3.349a2.646,2.646,0,0,0,2.646-2.646A1.134,1.134,0,0,0,138.935,259.5Z" transform="translate(-111.552 -220.256)" fill="#ffb52d"/>
  <path id="Trazado_688832" data-name="Trazado 688832" d="M146.087,266.711H130.208a1.134,1.134,0,1,1,0-2.268h15.879a1.134,1.134,0,1,1,0,2.268ZM120,251.134a1.134,1.134,0,0,0,1.134,1.134h9.83a1.134,1.134,0,0,0,0-2.268h-9.83A1.134,1.134,0,0,0,120,251.134Z" transform="translate(-101.853 -212.193)" fill="#ffcd71"/>
  <path id="Trazado_688833" data-name="Trazado 688833" d="M63.526,155.587H55.421a1.134,1.134,0,0,1,0-2.268h8.105a1.134,1.134,0,0,1,0,2.268Zm1.134,3.7a1.134,1.134,0,0,0-1.134-1.134H55.421a1.134,1.134,0,0,0,0,2.268h8.105A1.134,1.134,0,0,0,64.661,159.29Zm0,24.606a1.134,1.134,0,0,0-1.134-1.134H55.421a1.134,1.134,0,0,0,0,2.268h8.105A1.134,1.134,0,0,0,64.661,183.9Zm0,4.837a1.134,1.134,0,0,0-1.134-1.134H55.421a1.134,1.134,0,0,0,0,2.268h8.105A1.134,1.134,0,0,0,64.661,188.734Z" transform="translate(-46.077 -130.133)" fill="#ffb52d"/>
  <path id="Trazado_688834" data-name="Trazado 688834" d="M84.249,185.031H79.836a1.134,1.134,0,1,1,0-2.268h4.413a1.134,1.134,0,1,1,0,2.268ZM78.7,159.29a1.134,1.134,0,0,0,1.134,1.134h4.413a1.134,1.134,0,0,0,0-2.268H79.836A1.134,1.134,0,0,0,78.7,159.29Zm6.681,29.444a1.134,1.134,0,0,0-1.134-1.134H79.836a1.134,1.134,0,1,0,0,2.268h4.413A1.134,1.134,0,0,0,85.383,188.734ZM78.7,154.453a1.134,1.134,0,0,0,1.134,1.134h4.413a1.134,1.134,0,0,0,0-2.268H79.836A1.134,1.134,0,0,0,78.7,154.453Z" transform="translate(-66.8 -130.133)" fill="#ffc14f"/>
  <path id="Trazado_688835" data-name="Trazado 688835" d="M299.49,91.342V106.3a13.194,13.194,0,0,1-.973,4.972l-2.145,5.274a6.94,6.94,0,0,0-.512,2.616v10.74H275.9v-9.223a6.942,6.942,0,0,0-2.033-4.909,13.2,13.2,0,0,1-3.865-9.33V93.611a.753.753,0,0,1,.744-.756,3.781,3.781,0,0,1,3.793,3.781v10.359a1.134,1.134,0,0,0,2.268,0V86.805a2.269,2.269,0,0,1,2.378-2.266,2.311,2.311,0,0,1,2.159,2.33v13.547a.756.756,0,1,0,1.512,0V82.268A2.269,2.269,0,0,1,285.233,80a2.311,2.311,0,0,1,2.159,2.33v18.084a.756.756,0,1,0,1.512,0V86.805a2.269,2.269,0,0,1,2.378-2.266,2.311,2.311,0,0,1,2.159,2.33v13.547a.756.756,0,1,0,1.512,0v-9.01a2.311,2.311,0,0,1,2.159-2.33,2.268,2.268,0,0,1,2.378,2.266Z" transform="translate(-229.168 -67.902)" fill="#ffbeaa"/>
  <path id="Trazado_688836" data-name="Trazado 688836" d="M276.114,113.756a6.87,6.87,0,0,1,2,4.885v9.209L275.9,129.91v-9.223a6.942,6.942,0,0,0-2.033-4.909,13.2,13.2,0,0,1-3.865-9.33V93.615a.752.752,0,0,1,.741-.756l.138,0a1.375,1.375,0,0,1,1.332,1.374v10.154a13.194,13.194,0,0,0,3.9,9.367Zm.692-26.947V105.3a1.134,1.134,0,0,0,2.211-.356V84.75q0-.105.01-.209A2.269,2.269,0,0,0,276.805,86.81Zm20.306,2.271a2.311,2.311,0,0,0-2.159,2.33v8.646a1.1,1.1,0,0,0,2.21,0V89.079Zm-14.257-6.808v17.784a1.1,1.1,0,1,0,2.21,0V80.005a2.269,2.269,0,0,0-2.21,2.268ZM288.9,86.81v13.247a1.1,1.1,0,1,0,2.21,0V84.542A2.268,2.268,0,0,0,288.9,86.81Z" transform="translate(-229.168 -67.906)" fill="#faa68e"/>
  <path id="Trazado_688837" data-name="Trazado 688837" d="M285.112,82.025a1.134,1.134,0,0,1-1.134-1.134v-.756a1.134,1.134,0,1,1,2.268,0v.756A1.134,1.134,0,0,1,285.112,82.025Zm-4.825,3.293v-.756a1.134,1.134,0,0,0-2.268,0v.756a1.134,1.134,0,0,0,2.268,0Zm-8.018,8.3v-.378a1.512,1.512,0,0,0-1.512-1.512.756.756,0,0,0-.756.756v2.268h1.134A1.134,1.134,0,0,0,272.268,93.619Zm20.039-8.3v-.756a1.134,1.134,0,1,0-2.268,0v.756a1.134,1.134,0,1,0,2.268,0Zm6.081,4.575v-.756a1.134,1.134,0,1,0-2.268,0v.756a1.134,1.134,0,1,0,2.268,0Z" transform="translate(-229.168 -67.053)" fill="#ffdecf"/>
  <path id="Trazado_688838" data-name="Trazado 688838" d="M320.928,375.864H299.756a.756.756,0,0,1-.756-.756v-6.352a.756.756,0,0,1,.756-.756h21.172a.756.756,0,0,1,.756.756v6.352A.756.756,0,0,1,320.928,375.864Z" transform="translate(-253.783 -312.348)" fill="#dce6eb"/>
  <path id="Trazado_688839" data-name="Trazado 688839" d="M347.682,375.864H331.277a.756.756,0,0,1-.756-.756v-6.352a.756.756,0,0,1,.756-.756h16.405a.756.756,0,0,1,.756.756v6.352A.756.756,0,0,1,347.682,375.864Z" transform="translate(-280.537 -312.348)" fill="#fff5f5"/>
  <path id="Trazado_688840" data-name="Trazado 688840" d="M289,414.921V398.756a.756.756,0,0,1,.756-.756h24.2a.756.756,0,0,1,.756.756v1.36A38.678,38.678,0,0,1,289,414.921Z" transform="translate(-245.295 -337.811)" fill="#2e5aac"/>
  <path id="Trazado_688841" data-name="Trazado 688841" d="M295.007,398a.756.756,0,0,0-.756.756v15.115a38.509,38.509,0,0,1-5.251,1.05V398.756a.756.756,0,0,1,.756-.756Z" transform="translate(-245.295 -337.811)" fill="#274c91"/>
  <path id="Trazado_688842" data-name="Trazado 688842" d="M306.268,414.134A1.134,1.134,0,1,1,305.134,413,1.134,1.134,0,0,1,306.268,414.134Z" transform="translate(-258.026 -350.542)" fill="#ffb52d"/>
</svg>
