<svg xmlns="http://www.w3.org/2000/svg" xmlns:xlink="http://www.w3.org/1999/xlink" width="95" height="95" viewBox="0 0 95 95">
  <defs>
    <clipPath id="clip-path">
      <rect id="Rectángulo_344574" data-name="Rectángulo 344574" width="62" height="62" transform="translate(980 1136)" fill="#fff" stroke="#707070" stroke-width="1"/>
    </clipPath>
  </defs>
  <g id="Grupo_931527" data-name="Grupo 931527" transform="translate(-963 -2942)">
    <circle id="Elipse_4711" data-name="Elipse 4711" cx="47.5" cy="47.5" r="47.5" transform="translate(963 2942)" fill="#4db1f0"/>
    <g id="Enmascarar_grupo_74" data-name="Enmascarar grupo 74" transform="translate(0 1823)" clip-path="url(#clip-path)">
      <g id="queja" transform="translate(980 1136)">
        <g id="Grupo_931135" data-name="Grupo 931135">
          <g id="Grupo_931134" data-name="Grupo 931134">
            <path id="Trazado_694547" data-name="Trazado 694547" d="M53.624,23.148a3.531,3.531,0,0,1,3.531,3.531V57.56a3.531,3.531,0,0,1-3.531,3.531H8.376A3.531,3.531,0,0,1,4.845,57.56V26.679a3.531,3.531,0,0,1,3.531-3.531Z" fill="#dfae91"/>
            <path id="Trazado_694548" data-name="Trazado 694548" d="M13.659,56.921a3.531,3.531,0,0,1-3.531-3.531V23.148H8.376a3.531,3.531,0,0,0-3.531,3.531V57.56a3.531,3.531,0,0,0,3.531,3.531H53.624a3.531,3.531,0,0,0,3.531-3.531v-.639Z" fill="#d79c7a"/>
            <path id="Trazado_694549" data-name="Trazado 694549" d="M35.765,61.091H26.235V52.084a.78.78,0,0,1,1.028-.74l3.546,1.19a.781.781,0,0,0,.5,0l3.42-1.177a.78.78,0,0,1,1.034.738Z" fill="#fbe372"/>
            <path id="Trazado_694550" data-name="Trazado 694550" d="M26.235,56.921h9.531v4.17H26.235Z" fill="#f9de58"/>
            <path id="Trazado_694551" data-name="Trazado 694551" d="M49.1,47.182H12.9a1.632,1.632,0,0,1-1.632-1.632V31.106A1.632,1.632,0,0,1,12.9,29.474H49.1a1.632,1.632,0,0,1,1.632,1.632V45.55A1.632,1.632,0,0,1,49.1,47.182Z" fill="#f8f7f8"/>
            <path id="Trazado_694552" data-name="Trazado 694552" d="M44.506.909H30.642a3.359,3.359,0,0,0-3.359,3.359V20.551a3.359,3.359,0,0,0,3.359,3.359H32.02l1.662,1.718,1.662-1.718h9.163a3.359,3.359,0,0,0,3.359-3.359V4.269A3.359,3.359,0,0,0,44.506.909Z" fill="#f9de58"/>
            <g id="Grupo_931133" data-name="Grupo 931133">
              <path id="Trazado_694553" data-name="Trazado 694553" d="M38,4.576h-.844a1.529,1.529,0,0,0-1.525,1.644l.422,5.635a1.529,1.529,0,0,0,3.05,0l.422-5.635A1.53,1.53,0,0,0,38,4.576Z" fill="#b3adb5"/>
              <circle id="Elipse_4849" data-name="Elipse 4849" cx="1.952" cy="1.952" r="1.952" transform="translate(35.623 16.319)" fill="#b3adb5"/>
            </g>
          </g>
          <path id="Trazado_694554" data-name="Trazado 694554" d="M34.559,21.048a3.207,3.207,0,0,1-3.207-3.207V1.982A3.2,3.2,0,0,1,31.537.909h-.895a3.359,3.359,0,0,0-3.359,3.359V20.551a3.359,3.359,0,0,0,3.359,3.359H32.02l1.662,1.718,1.662-1.718h9.163a3.36,3.36,0,0,0,3.323-2.862Z" fill="#f8d448"/>
        </g>
        <g id="Grupo_931136" data-name="Grupo 931136">
          <path id="Trazado_694555" data-name="Trazado 694555" d="M53.624,22.238H51a.909.909,0,1,0,0,1.818h2.623a2.625,2.625,0,0,1,2.622,2.622V57.56a2.625,2.625,0,0,1-2.622,2.622H36.675V52.093a1.69,1.69,0,0,0-2.239-1.6l-3.378,1.163-3.5-1.176a1.69,1.69,0,0,0-2.227,1.6v8.1H8.376A2.625,2.625,0,0,1,5.755,57.56V52.47a.909.909,0,1,0-1.818,0v5.09A4.445,4.445,0,0,0,8.376,62H53.624a4.445,4.445,0,0,0,4.44-4.44V26.679a4.445,4.445,0,0,0-4.44-4.44ZM27.144,60.182V52.263L30.52,53.4a1.7,1.7,0,0,0,1.087,0l3.249-1.118v7.908Z"/>
          <path id="Trazado_694556" data-name="Trazado 694556" d="M4.845,49.5a.909.909,0,0,0,.909-.909V26.679a2.625,2.625,0,0,1,2.622-2.622H24.147a.909.909,0,1,0,0-1.818H8.376a4.445,4.445,0,0,0-4.44,4.44V48.6a.909.909,0,0,0,.909.909Z"/>
          <path id="Trazado_694557" data-name="Trazado 694557" d="M41.156,28.565H12.9a2.544,2.544,0,0,0-2.541,2.541V45.55A2.544,2.544,0,0,0,12.9,48.091H49.1a2.544,2.544,0,0,0,2.541-2.541V31.106A2.544,2.544,0,0,0,49.1,28.565H45.03a.909.909,0,0,0,0,1.818H49.1a.724.724,0,0,1,.723.723V45.55a.724.724,0,0,1-.723.723H12.9a.723.723,0,0,1-.723-.723V31.106a.723.723,0,0,1,.723-.723H41.156a.909.909,0,1,0,0-1.818Z"/>
          <path id="Trazado_694558" data-name="Trazado 694558" d="M15.968,34.554H17.32a.909.909,0,1,0,0-1.818H15.968a.909.909,0,1,0,0,1.818Z"/>
          <path id="Trazado_694559" data-name="Trazado 694559" d="M46.2,32.735H21.02a.909.909,0,1,0,0,1.818H46.2a.909.909,0,1,0,0-1.818Z"/>
          <path id="Trazado_694560" data-name="Trazado 694560" d="M46.2,37.419H15.968a.909.909,0,1,0,0,1.818H46.2a.909.909,0,0,0,0-1.818Z"/>
          <path id="Trazado_694561" data-name="Trazado 694561" d="M46.2,42.1H15.968a.909.909,0,0,0,0,1.818H46.2a.909.909,0,1,0,0-1.818Z"/>
          <path id="Trazado_694562" data-name="Trazado 694562" d="M37.574,14.178a2.449,2.449,0,0,0,2.432-2.256l.422-5.635A2.438,2.438,0,0,0,38,3.666h-.844a2.439,2.439,0,0,0-2.432,2.621l.422,5.635a2.449,2.449,0,0,0,2.432,2.256ZM36.7,5.683a.614.614,0,0,1,.455-.2H38a.62.62,0,0,1,.618.666l-.422,5.635a.62.62,0,0,1-1.237,0l-.422-5.635A.613.613,0,0,1,36.7,5.683Z"/>
          <path id="Trazado_694563" data-name="Trazado 694563" d="M37.574,21.132a2.861,2.861,0,1,0-2.861-2.861A2.864,2.864,0,0,0,37.574,21.132Zm0-3.9a1.042,1.042,0,1,1-1.042,1.042A1.044,1.044,0,0,1,37.574,17.229Z"/>
          <path id="Trazado_694564" data-name="Trazado 694564" d="M30.642,24.82h.992l1.394,1.441a.909.909,0,0,0,1.307,0l1.394-1.441h8.778a4.273,4.273,0,0,0,4.269-4.269V11.194a.909.909,0,0,0-1.818,0v9.357A2.453,2.453,0,0,1,44.507,23H35.343a.909.909,0,0,0-.654.277l-1.008,1.042-1.008-1.042A.909.909,0,0,0,32.02,23H30.642a2.453,2.453,0,0,1-2.45-2.45V4.269a2.453,2.453,0,0,1,2.45-2.45H44.507a2.453,2.453,0,0,1,2.45,2.45V7.32a.909.909,0,0,0,1.818,0V4.269A4.273,4.273,0,0,0,44.507,0H30.642a4.273,4.273,0,0,0-4.269,4.269V20.551a4.273,4.273,0,0,0,4.269,4.269Z"/>
        </g>
      </g>
    </g>
  </g>
</svg>
