<svg xmlns="http://www.w3.org/2000/svg" xmlns:xlink="http://www.w3.org/1999/xlink" width="88" height="88" viewBox="0 0 88 88">
  <defs>
    <clipPath id="clip-path">
      <rect id="Rectángulo_344595" data-name="Rectángulo 344595" width="88" height="88" transform="translate(326 3945)" fill="#fff" stroke="#707070" stroke-width="1"/>
    </clipPath>
  </defs>
  <g id="Enmascarar_grupo_86" data-name="Enmascarar grupo 86" transform="translate(-326 -3945)" clip-path="url(#clip-path)">
    <g id="trabajo-en-equipo" transform="translate(326 3945)">
      <path id="Trazado_694879" data-name="Trazado 694879" d="M88,44A43.97,43.97,0,0,1,57.342,85.938,43.12,43.12,0,0,1,51,87.444a.136.136,0,0,1-.029,0q-1.6.256-3.232.393-.348.029-.7.054c-.329.021-.659.041-.992.056Q45.029,88,44,88q-1.056,0-2.1-.05-.471-.021-.943-.056c-.235-.016-.469-.032-.7-.052q-1.673-.14-3.309-.406c-.521-.085-1.04-.176-1.554-.279a43.46,43.46,0,0,1-6.487-1.815q-1.819-.663-3.56-1.48-.592-.278-1.178-.577-1.5-.759-2.936-1.631A44,44,0,1,1,88,44Zm0,0" fill="#ffe152"/>
      <path id="Trazado_694880" data-name="Trazado 694880" d="M35.394,57.1V87.157a43.46,43.46,0,0,1-6.487-1.815q-1.819-.663-3.56-1.48-.592-.278-1.178-.577-1.5-.759-2.936-1.631a44.128,44.128,0,0,1-17.458-19.8V57.1A11.927,11.927,0,0,1,12.609,45.58c.187-.05.373-.1.564-.136a11.517,11.517,0,0,1,1.552-.23c.322-.025.647-.04.975-.04h7.767a11.856,11.856,0,0,1,2.529.27c.046.009.093.019.14.03.137.031.275.064.41.1l.011,0A11.938,11.938,0,0,1,35.394,57.1Zm0,0" fill="#2ba1cf"/>
      <path id="Trazado_694881" data-name="Trazado 694881" d="M35.394,57.1V87.157a43.46,43.46,0,0,1-6.487-1.815q-1.819-.663-3.56-1.48-.592-.278-1.178-.577-1.5-.759-2.936-1.631A44.231,44.231,0,0,1,8.893,70.526V57.1A11.927,11.927,0,0,1,17.727,45.58c.187-.05.374-.1.564-.136a11.549,11.549,0,0,1,1.552-.23c.322-.025.647-.04.976-.04h2.649a11.856,11.856,0,0,1,2.529.27c.046.009.093.019.14.03.137.031.275.064.41.1l.011,0A11.938,11.938,0,0,1,35.394,57.1Zm0,0" fill="#66baed"/>
      <path id="Trazado_694882" data-name="Trazado 694882" d="M26.586,45.443l-.028.135L22.99,62.172a3.471,3.471,0,0,1-3.376,2.752h-.06a3.47,3.47,0,0,1-3.376-2.752L12.61,45.58l-.028-.136Zm0,0" fill="#f2f0ec"/>
      <path id="Trazado_694883" data-name="Trazado 694883" d="M19.584,50.056,14.214,53.04l-1.633-7.6,3.336-1.964" fill="#d8d5d0"/>
      <path id="Trazado_694884" data-name="Trazado 694884" d="M19.584,50.056l5.369,2.984,1.633-7.6-3.336-1.964" fill="#d8d5d0"/>
      <path id="Trazado_694885" data-name="Trazado 694885" d="M3.554,42.3V24.315a16.031,16.031,0,1,1,32.063,0V42.3" fill="#cc7a3b"/>
      <path id="Trazado_694886" data-name="Trazado 694886" d="M10.148,25.017c0,6.361,3.726,13.721,5.771,17.283H3.553V24.315A16.021,16.021,0,0,1,19.467,8.284c-4.929.123-9.32,8.03-9.32,16.733Zm0,0" fill="#a35418"/>
      <path id="Trazado_694887" data-name="Trazado 694887" d="M23.84,40.58V45.8a4.255,4.255,0,0,1-8.509,0V40.58Zm0,0" fill="#eab599"/>
      <path id="Trazado_694888" data-name="Trazado 694888" d="M23.84,45.472V45.8a4.254,4.254,0,0,1-3,4.064,4.253,4.253,0,0,1-2.961-3.51q.426.026.857.026a14.7,14.7,0,0,0,5.1-.911Zm0,0" fill="#f6caae"/>
      <path id="Trazado_694889" data-name="Trazado 694889" d="M7.914,32.023A3.957,3.957,0,1,1,4.59,28.118a3.957,3.957,0,0,1,3.323,3.905Zm0,0" fill="#f6caae"/>
      <path id="Trazado_694890" data-name="Trazado 694890" d="M7.914,32.023A3.957,3.957,0,0,1,4.59,35.929a14.791,14.791,0,0,1,0-7.812A3.956,3.956,0,0,1,7.914,32.023Zm0,0" fill="#eab599"/>
      <path id="Trazado_694891" data-name="Trazado 694891" d="M5.371,32.023a1.414,1.414,0,1,1-1.415-1.414A1.414,1.414,0,0,1,5.371,32.023Zm0,0" fill="#eab599"/>
      <path id="Trazado_694892" data-name="Trazado 694892" d="M29.744,26.971v13.6a14.665,14.665,0,0,1-7.8,3.88l-.073.012a14.537,14.537,0,0,1-2.291.178A14.721,14.721,0,0,1,4.864,29.921V24.315a14.835,14.835,0,0,1,.15-2.114,9.329,9.329,0,0,0,11.724-.754,8.338,8.338,0,0,0,2.212-3.457,9.715,9.715,0,0,0,3.039,6.065,10.865,10.865,0,0,0,7.755,2.917Zm0,0" fill="#eab599"/>
      <path id="Trazado_694893" data-name="Trazado 694893" d="M29.744,26.971v13.6a14.665,14.665,0,0,1-7.8,3.88l-.073.012A14.723,14.723,0,0,1,9.448,29.921V24.315q0-.224.008-.445a9.225,9.225,0,0,0,7.283-2.424,8.335,8.335,0,0,0,2.212-3.456,9.715,9.715,0,0,0,3.039,6.065,10.865,10.865,0,0,0,7.755,2.917Zm0,0" fill="#f6caae"/>
      <path id="Trazado_694894" data-name="Trazado 694894" d="M27.491,28.678a2.445,2.445,0,1,0-4.89,0" fill="#eab599"/>
      <path id="Trazado_694895" data-name="Trazado 694895" d="M16.57,28.678a2.445,2.445,0,1,0-4.89,0" fill="#eab599"/>
      <path id="Trazado_694896" data-name="Trazado 694896" d="M15.8,29.718a1.67,1.67,0,1,1-1.67-1.67A1.67,1.67,0,0,1,15.8,29.718Zm0,0" fill="#3d4159"/>
      <path id="Trazado_694897" data-name="Trazado 694897" d="M26.716,29.718a1.67,1.67,0,1,1-1.67-1.67A1.67,1.67,0,0,1,26.716,29.718Zm0,0" fill="#3d4159"/>
      <path id="Trazado_694898" data-name="Trazado 694898" d="M21.256,33.923h-3.34a.72.72,0,1,1,0-1.441h3.34a.72.72,0,0,1,0,1.441Zm0,0" fill="#eab599"/>
      <path id="Trazado_694899" data-name="Trazado 694899" d="M19.586,38.481A7.435,7.435,0,0,1,16,37.554a.655.655,0,1,1,.631-1.147,6.11,6.11,0,0,0,5.916,0,.655.655,0,1,1,.631,1.147,7.435,7.435,0,0,1-3.589.927Zm0,0" fill="#eab599"/>
      <path id="Trazado_694900" data-name="Trazado 694900" d="M15.455,29.423a.716.716,0,1,1-.716-.716A.716.716,0,0,1,15.455,29.423Zm0,0" fill="#fff"/>
      <path id="Trazado_694901" data-name="Trazado 694901" d="M26.457,29.423a.715.715,0,1,1-.715-.716A.715.715,0,0,1,26.457,29.423Zm0,0" fill="#fff"/>
      <path id="Trazado_694902" data-name="Trazado 694902" d="M29.605,33.786a1.834,1.834,0,1,1-1.834-1.834A1.834,1.834,0,0,1,29.605,33.786Zm0,0" fill="#eab599"/>
      <path id="Trazado_694903" data-name="Trazado 694903" d="M13.232,33.786A1.834,1.834,0,1,1,11.4,31.952,1.833,1.833,0,0,1,13.232,33.786Zm0,0" fill="#eab599"/>
      <path id="Trazado_694904" data-name="Trazado 694904" d="M84.051,56.737v5.508a44.174,44.174,0,0,1-21.4,21.619A43.912,43.912,0,0,1,51,87.444a.136.136,0,0,1-.029,0V56.737A12.474,12.474,0,0,1,62.426,44.3c.338-.029.677-.041,1.02-.041h8.125a12.457,12.457,0,0,1,12.48,12.474Zm0,0" fill="#bfd5de"/>
      <path id="Trazado_694905" data-name="Trazado 694905" d="M84.051,56.737v5.508a44.174,44.174,0,0,1-21.4,21.619,43.547,43.547,0,0,1-5.309,2.074v-29.2A12.477,12.477,0,0,1,69.82,44.262h1.752A12.476,12.476,0,0,1,84.051,56.737Zm0,0" fill="#dde8ed"/>
      <path id="Trazado_694906" data-name="Trazado 694906" d="M55.3,30.5a4.137,4.137,0,1,1-3.476-4.087A4.14,4.14,0,0,1,55.3,30.5Zm0,0" fill="#d3a489"/>
      <path id="Trazado_694907" data-name="Trazado 694907" d="M70.859,48.763l-3.35,5.372-3.35-5.372" fill="#f74f4f"/>
      <path id="Trazado_694908" data-name="Trazado 694908" d="M72.016,69.311,67.51,75,63,69.311,67.51,52.737Zm0,0" fill="#f74f4f"/>
      <path id="Trazado_694909" data-name="Trazado 694909" d="M55.3,30.5a4.14,4.14,0,0,1-3.476,4.087,15.48,15.48,0,0,1,0-8.173A4.141,4.141,0,0,1,55.3,30.5Zm0,0" fill="#bf8e75"/>
      <path id="Trazado_694910" data-name="Trazado 694910" d="M52.638,30.5a1.479,1.479,0,1,1-1.48-1.479A1.48,1.48,0,0,1,52.638,30.5Zm0,0" fill="#bf8e75"/>
      <path id="Trazado_694911" data-name="Trazado 694911" d="M67.508,49.369l-5.617,3.122-1.709-7.949,3.49-2.056" fill="#bfd5de"/>
      <path id="Trazado_694912" data-name="Trazado 694912" d="M67.508,49.369l5.617,3.122,1.709-7.949-3.491-2.056" fill="#bfd5de"/>
      <path id="Trazado_694913" data-name="Trazado 694913" d="M79.72,30.5A4.137,4.137,0,1,0,83.2,26.415,4.14,4.14,0,0,0,79.72,30.5Zm0,0" fill="#d3a489"/>
      <g id="Grupo_931233" data-name="Grupo 931233">
        <path id="Trazado_694914" data-name="Trazado 694914" d="M79.72,30.5A4.14,4.14,0,0,0,83.2,34.588a15.48,15.48,0,0,0,0-8.173A4.141,4.141,0,0,0,79.72,30.5Zm0,0" fill="#bf8e75"/>
        <path id="Trazado_694915" data-name="Trazado 694915" d="M85.34,30.5a1.48,1.48,0,1,1-1.48-1.479A1.48,1.48,0,0,1,85.34,30.5Zm0,0" fill="#bf8e75"/>
        <path id="Trazado_694916" data-name="Trazado 694916" d="M82.912,28.3a15.4,15.4,0,0,1-12.931,15.2,15.215,15.215,0,0,1-2.472.2,15.4,15.4,0,0,1-15.4-15.4c0-4.025,1.4-10.067,3.926-12.811,2.814-3.055,6.994-2.592,11.477-2.592a15.221,15.221,0,0,1,2.472.2A15.4,15.4,0,0,1,82.912,28.3Zm0,0" fill="#bf8e75"/>
        <path id="Trazado_694917" data-name="Trazado 694917" d="M71.961,39.455v5.463a4.452,4.452,0,0,1-8.9,0V39.455Zm0,0" fill="#bf8e75"/>
      </g>
      <path id="Trazado_694918" data-name="Trazado 694918" d="M71.961,44.572v.346a4.451,4.451,0,0,1-3.135,4.252,4.449,4.449,0,0,1-3.1-3.672q.446.027.9.028a15.3,15.3,0,0,0,2.472-.2,15.145,15.145,0,0,0,2.865-.755Zm0,0" fill="#d3a489"/>
      <path id="Trazado_694919" data-name="Trazado 694919" d="M82.912,28.3a15.4,15.4,0,0,1-12.931,15.2,15.4,15.4,0,0,1,0-30.408A15.408,15.408,0,0,1,82.836,26.765q.076.758.076,1.536Zm0,0" fill="#d3a489"/>
      <path id="Trazado_694920" data-name="Trazado 694920" d="M67.51,35.888a7.78,7.78,0,0,1-3.755-.969.685.685,0,1,1,.66-1.2,6.4,6.4,0,0,0,6.19,0,.685.685,0,0,1,.66,1.2,7.783,7.783,0,0,1-3.755.969Zm0,0" fill="#bf8e75"/>
      <path id="Trazado_694921" data-name="Trazado 694921" d="M64.229,27.405a1.747,1.747,0,1,1-1.748-1.748A1.747,1.747,0,0,1,64.229,27.405Zm0,0" fill="#3d4159"/>
      <path id="Trazado_694922" data-name="Trazado 694922" d="M74.284,27.405a1.747,1.747,0,1,1-1.747-1.748A1.747,1.747,0,0,1,74.284,27.405Zm0,0" fill="#3d4159"/>
      <path id="Trazado_694923" data-name="Trazado 694923" d="M63.873,27.1a.749.749,0,1,1-.749-.749A.749.749,0,0,1,63.873,27.1Zm0,0" fill="#fff"/>
      <path id="Trazado_694924" data-name="Trazado 694924" d="M74.013,27.1a.749.749,0,1,1-.749-.749A.749.749,0,0,1,74.013,27.1Zm0,0" fill="#fff"/>
      <path id="Trazado_694925" data-name="Trazado 694925" d="M69.257,31.8H65.762a.754.754,0,1,1,0-1.507h3.495a.754.754,0,1,1,0,1.507Zm0,0" fill="#bf8e75"/>
      <path id="Trazado_694926" data-name="Trazado 694926" d="M72.581,56.328H79.3v2.055H72.581Zm0,0" fill="#bfd5de"/>
      <path id="Trazado_694927" data-name="Trazado 694927" d="M66.608,8.5a9.335,9.335,0,0,1,8.649,8.847l.044.891h2.684l1.445,9.613,3.5-1.084-.47-9.42A9.335,9.335,0,0,0,73.1,8.475Zm0,0" fill="#2a2f4f"/>
      <path id="Trazado_694928" data-name="Trazado 694928" d="M82.166,4.781A9.514,9.514,0,0,1,68.711,18.236Zm0,0" fill="#3d4159"/>
      <path id="Trazado_694929" data-name="Trazado 694929" d="M68.711,18.236H57.034L55.588,27.85l-3.5-1.084.469-9.42a9.337,9.337,0,0,1,9.36-8.872l16.865.064,2.23,4.013" fill="#3d4159"/>
      <path id="Trazado_694930" data-name="Trazado 694930" d="M68.411,8.5a9.335,9.335,0,0,0-8.649,8.847l-.044.891H57.033L55.587,27.85l-3.5-1.084.47-9.42a9.335,9.335,0,0,1,9.359-8.872Zm0,0" fill="#2a2f4f"/>
      <path id="Trazado_694931" data-name="Trazado 694931" d="M62.65,80.565v3.3a44.115,44.115,0,0,1-37.3,0v-3.3A14.072,14.072,0,0,1,35.771,66.973c.22-.059.44-.113.665-.162a13.91,13.91,0,0,1,1.83-.269c.381-.031.763-.047,1.151-.047h9.162a14.1,14.1,0,0,1,2.985.316c.056.011.111.023.165.036.162.038.323.077.483.12l.013,0A14.084,14.084,0,0,1,62.65,80.565Zm0,0" fill="#3d4159"/>
      <path id="Trazado_694932" data-name="Trazado 694932" d="M52.259,66.812l-.034.16L47.738,87.842q-.348.029-.7.054c-.329.021-.659.041-.992.056Q45.029,88,44,88q-1.056,0-2.1-.05-.471-.021-.943-.056c-.235-.016-.469-.032-.7-.052L35.771,66.973l-.034-.162Zm0,0" fill="#66baed"/>
      <path id="Trazado_694933" data-name="Trazado 694933" d="M47.776,71.572,44,77.63l-3.777-6.057" fill="#3d4159"/>
      <path id="Trazado_694934" data-name="Trazado 694934" d="M47.039,87.9c-.329.021-.659.041-.992.056Q45.029,88,44,88q-1.056,0-2.1-.05-.471-.021-.943-.056L44,76.053Zm0,0" fill="#3d4159"/>
      <path id="Trazado_694935" data-name="Trazado 694935" d="M44,72.255l-6.335,3.52-1.927-8.962,3.936-2.318" fill="#2ba1cf"/>
      <path id="Trazado_694936" data-name="Trazado 694936" d="M44,72.255l6.334,3.52,1.927-8.962-3.936-2.318" fill="#2ba1cf"/>
      <path id="Trazado_694937" data-name="Trazado 694937" d="M52.5,78.907h2.009L51,87.445a43.726,43.726,0,0,1-4.951.507l6.165-20.983.047-.156,4.334,1.415Zm0,0" fill="#2a2f4f"/>
      <path id="Trazado_694938" data-name="Trazado 694938" d="M41.9,87.949a43.586,43.586,0,0,1-4.955-.514l-3.506-8.529h2.009l-4.1-10.68,4.335-1.415.047.156Zm0,0" fill="#2a2f4f"/>
      <path id="Trazado_694939" data-name="Trazado 694939" d="M49.018,61.076v6.16a5.02,5.02,0,0,1-10.04,0v-6.16Zm0,0" fill="#eab599"/>
      <path id="Trazado_694940" data-name="Trazado 694940" d="M49.018,66.846v.391a5.02,5.02,0,0,1-3.536,4.8,5.019,5.019,0,0,1-3.495-4.142q.5.031,1.011.031a17.307,17.307,0,0,0,6.019-1.075Zm0,0" fill="#f6caae"/>
      <path id="Trazado_694941" data-name="Trazado 694941" d="M30.228,50.98a4.669,4.669,0,0,1-3.921,4.608,4.722,4.722,0,0,1-.747.06,4.668,4.668,0,1,1,4.668-4.668Zm0,0" fill="#f6caae"/>
      <path id="Trazado_694942" data-name="Trazado 694942" d="M30.228,50.98a4.669,4.669,0,0,1-3.921,4.608,17.463,17.463,0,0,1,0-9.217A4.669,4.669,0,0,1,30.228,50.98Zm0,0" fill="#eab599"/>
      <path id="Trazado_694943" data-name="Trazado 694943" d="M27.229,50.98a1.668,1.668,0,1,1-1.668-1.668A1.669,1.669,0,0,1,27.229,50.98Zm0,0" fill="#eab599"/>
      <path id="Trazado_694944" data-name="Trazado 694944" d="M57.768,50.98a4.67,4.67,0,1,0,3.921-4.608,4.669,4.669,0,0,0-3.921,4.608Zm0,0" fill="#f6caae"/>
      <path id="Trazado_694945" data-name="Trazado 694945" d="M57.768,50.98a4.669,4.669,0,0,0,3.921,4.608,17.464,17.464,0,0,0,0-9.217A4.669,4.669,0,0,0,57.768,50.98Zm0,0" fill="#eab599"/>
      <path id="Trazado_694946" data-name="Trazado 694946" d="M61.367,41.885V48.5A17.369,17.369,0,0,1,46.786,65.643l-.085.014a17.065,17.065,0,0,1-2.7.21A17.367,17.367,0,0,1,26.63,48.5V41.885A17.358,17.358,0,0,1,44,24.516h0A17.356,17.356,0,0,1,61.367,41.885Zm0,0" fill="#eab599"/>
      <path id="Trazado_694947" data-name="Trazado 694947" d="M64.1,50.98a1.668,1.668,0,1,1-1.668-1.668A1.668,1.668,0,0,1,64.1,50.98Zm0,0" fill="#eab599"/>
      <path id="Trazado_694948" data-name="Trazado 694948" d="M61.367,41.885V48.5A17.369,17.369,0,0,1,46.785,65.643l-.085.014A17.371,17.371,0,0,1,32.039,48.5V41.885A17.372,17.372,0,0,1,46.7,24.726,17.371,17.371,0,0,1,61.367,41.885Zm0,0" fill="#f6caae"/>
      <path id="Trazado_694949" data-name="Trazado 694949" d="M40.3,47.487a1.97,1.97,0,1,1-1.97-1.97A1.97,1.97,0,0,1,40.3,47.487Zm0,0" fill="#3d4159"/>
      <path id="Trazado_694950" data-name="Trazado 694950" d="M51.638,47.487a1.971,1.971,0,1,1-1.971-1.97A1.97,1.97,0,0,1,51.638,47.487Zm0,0" fill="#3d4159"/>
      <path id="Trazado_694951" data-name="Trazado 694951" d="M39.9,47.14a.844.844,0,1,1-.845-.845A.844.844,0,0,1,39.9,47.14Zm0,0" fill="#fff"/>
      <path id="Trazado_694952" data-name="Trazado 694952" d="M51.333,47.14a.844.844,0,1,1-.844-.845A.844.844,0,0,1,51.333,47.14Zm0,0" fill="#fff"/>
      <path id="Trazado_694953" data-name="Trazado 694953" d="M45.969,51.676H42.028a.85.85,0,0,1,0-1.7h3.941a.85.85,0,1,1,0,1.7Zm0,0" fill="#eab599"/>
      <path id="Trazado_694954" data-name="Trazado 694954" d="M44,57.053a8.774,8.774,0,0,1-4.234-1.094.773.773,0,0,1,.745-1.354,7.207,7.207,0,0,0,6.98,0,.773.773,0,0,1,.745,1.354A8.776,8.776,0,0,1,44,57.053Zm0,0" fill="#eab599"/>
      <path id="Trazado_694955" data-name="Trazado 694955" d="M61.367,35.883v6.775H58.135V37.352L34.8,33.016,29.862,32.1v10.56H26.63V35.882A13.982,13.982,0,0,1,40.612,21.9h6.773c.184,0,.368,0,.552.013a13.98,13.98,0,0,1,13.43,13.972Zm0,0" fill="#2a2f4f"/>
      <path id="Trazado_694956" data-name="Trazado 694956" d="M61.367,35.883v6.775H58.135V37.352L34.8,33.016a13.984,13.984,0,0,1,13.137-11.1,13.98,13.98,0,0,1,13.43,13.972Zm0,0" fill="#3d4159"/>
    </g>
  </g>
</svg>
