<svg xmlns="http://www.w3.org/2000/svg" xmlns:xlink="http://www.w3.org/1999/xlink" width="136" height="136" viewBox="0 0 136 136">
  <defs>
    <clipPath id="clip-path">
      <rect id="Rectángulo_344566" data-name="Rectángulo 344566" width="88" height="88" transform="translate(347 5035)" fill="#fff" stroke="#707070" stroke-width="1"/>
    </clipPath>
  </defs>
  <g id="Grupo_1010364" data-name="Grupo 1010364" transform="translate(-339 -5388.128)">
    <circle id="Elipse_4763" data-name="Elipse 4763" cx="68" cy="68" r="68" transform="translate(339 5388.128)" fill="#0098e8"/>
    <g id="Enmascarar_grupo_66" data-name="Enmascarar grupo 66" transform="translate(16 377.128)" clip-path="url(#clip-path)">
      <g id="grupo" transform="translate(347 5035)">
        <path id="Trazado_694347" data-name="Trazado 694347" d="M37.333,60.738a10.22,10.22,0,0,0-4.989-2.856l-7.071-1.695,0,0,0,0V51.871H16.637V56.2h0L9.584,57.887a10.246,10.246,0,0,0-7.866,9.965V79.406H17.353Z" fill="#78d2fa"/>
        <path id="Trazado_694348" data-name="Trazado 694348" d="M25.458,51.871V56.3L20.977,67.039,16.5,56.32V51.871Z" fill="#ffb487"/>
        <path id="Trazado_694349" data-name="Trazado 694349" d="M30.586,37v5.98A9.625,9.625,0,0,1,20.961,52.6h0a9.625,9.625,0,0,1-9.625-9.625V37Z" fill="#ffcdac"/>
        <path id="Trazado_694350" data-name="Trazado 694350" d="M30.586,38.889V36.572a9.625,9.625,0,0,0-9.625-9.625h0a9.625,9.625,0,0,0-9.625,9.625v2.317H17.97a22.95,22.95,0,0,0,11.8-3.264h0" fill="#878791"/>
        <path id="Trazado_694351" data-name="Trazado 694351" d="M50.667,60.738a10.22,10.22,0,0,1,4.989-2.856l7.071-1.695,0,0,0,0V51.871h8.635V56.2h0l7.053,1.685a10.246,10.246,0,0,1,7.866,9.965V79.406H70.647Z" fill="#a5dc69"/>
        <path id="Trazado_694352" data-name="Trazado 694352" d="M37.976,60.569l-9.849,2.36A14.271,14.271,0,0,0,17.181,76.808v9.473h53.6V76.816A14.271,14.271,0,0,0,59.828,62.935L50,60.589Z" fill="#ff5a5a"/>
        <g id="Grupo_931059" data-name="Grupo 931059">
          <path id="Trazado_694353" data-name="Trazado 694353" d="M71.5,51.871V56.32L67.023,67.039,62.542,56.3V51.871Z" fill="#ffb487"/>
          <path id="Trazado_694354" data-name="Trazado 694354" d="M44,74.377l6.413-14.559a5.293,5.293,0,0,1-.747-2.714V55.7H38.329v1.4a5.293,5.293,0,0,1-.745,2.71Z" fill="#ffb487"/>
        </g>
        <path id="Trazado_694355" data-name="Trazado 694355" d="M57.406,32.918v9.25A13.406,13.406,0,0,1,44,55.575h0A13.406,13.406,0,0,1,30.594,42.168v-9.25Z" fill="#ffcdac"/>
        <path id="Trazado_694356" data-name="Trazado 694356" d="M44,19.841h0A13.406,13.406,0,0,0,30.594,33.247v3.227h6.555a14.729,14.729,0,0,0,11.289-5.269h0l8.968,5.269V33.247A13.406,13.406,0,0,0,44,19.841Z" fill="#f5b955"/>
        <path id="Trazado_694357" data-name="Trazado 694357" d="M57.414,37v5.98A9.625,9.625,0,0,0,67.039,52.6h0a9.625,9.625,0,0,0,9.625-9.625V37Z" fill="#ffcdac"/>
        <path id="Trazado_694358" data-name="Trazado 694358" d="M57.414,38.889V36.572a9.625,9.625,0,0,1,9.625-9.625h0a9.625,9.625,0,0,1,9.625,9.625v2.317H70.03a22.95,22.95,0,0,1-11.8-3.264h0" fill="#878791"/>
        <path id="Trazado_694359" data-name="Trazado 694359" d="M43.955,84.563a1.72,1.72,0,1,0,1.215.5A1.731,1.731,0,0,0,43.955,84.563Z"/>
        <path id="Trazado_694360" data-name="Trazado 694360" d="M78.815,56.215l-5.733-1.37V52.571a11.343,11.343,0,0,0,5.3-9.594V36.572a11.337,11.337,0,0,0-19.831-7.515A15.152,15.152,0,0,0,44.018,18.122h0A15.152,15.152,0,0,0,29.474,29.087,11.337,11.337,0,0,0,9.617,36.572v6.405a11.343,11.343,0,0,0,5.3,9.594v2.274l-5.733,1.37A11.926,11.926,0,0,0,0,67.853V79.406a1.719,1.719,0,0,0,1.719,1.719H15.462v5.156A1.719,1.719,0,0,0,17.181,88H36.037a1.719,1.719,0,0,0,0-3.437H28.363V77a1.719,1.719,0,0,0-3.437,0v7.565H18.9V76.808A12.513,12.513,0,0,1,28.527,64.6l8.453-2.026L42.42,74.95a1.719,1.719,0,0,0,1.573,1.027h0a1.719,1.719,0,0,0,1.573-1.027L51,62.593l8.429,2.014a12.512,12.512,0,0,1,9.636,12.209v1.918a1.722,1.722,0,0,0,0,1.344v4.484H63.074V77a1.719,1.719,0,0,0-3.437,0v7.565H51.219a1.719,1.719,0,0,0,0,3.438H70.784A1.719,1.719,0,0,0,72.5,86.281V81.125H86.281A1.719,1.719,0,0,0,88,79.406V67.853A11.926,11.926,0,0,0,78.815,56.215Zm-9.167.08-2.624,6.284-2.589-6.2a1.718,1.718,0,0,0,.012-.188c0-.016,0-.032,0-.048V54.019a11.266,11.266,0,0,0,5.2,0V56.2C69.644,56.233,69.646,56.264,69.648,56.3Zm-33.39,1.381a11.934,11.934,0,0,0-3.513-1.464l-5.753-1.379V52.579a11.425,11.425,0,0,0,3.552-3.542,15.234,15.234,0,0,0,5.714,6.11ZM32.33,42.169V38.193h4.836a16.4,16.4,0,0,0,11.617-4.8L55.7,37.452v5.12a11.686,11.686,0,0,1-23.366-.4Zm19.393,13.01a15.233,15.233,0,0,0,5.753-6.112,11.432,11.432,0,0,0,3.533,3.512v2.254l-5.753,1.379a11.937,11.937,0,0,0-3.532,1.477V55.179Zm15.316-4.295a7.915,7.915,0,0,1-7.907-7.906V42.7c.006-.175.01-4.621.01-4.621A24.675,24.675,0,0,0,70.03,40.608h4.916v2.369A7.916,7.916,0,0,1,67.039,50.884Zm0-22.218a7.915,7.915,0,0,1,7.907,7.906v.6H70.03a21.236,21.236,0,0,1-10.579-2.823A7.921,7.921,0,0,1,67.039,28.666ZM32.33,33.247a11.688,11.688,0,0,1,23.376,0v.224l-6.379-3.748a1.719,1.719,0,0,0-2.188.378,12.98,12.98,0,0,1-9.972,4.654H32.33ZM13.054,36.572a7.907,7.907,0,0,1,15.495-2.225A21.238,21.238,0,0,1,17.97,37.171H13.054v-.6Zm0,4.036H17.97a24.674,24.674,0,0,0,10.9-2.537v4.907a7.907,7.907,0,0,1-15.813,0S13.054,40.608,13.054,40.608Zm7.907,13.713a11.336,11.336,0,0,0,2.593-.3v2.075c0,.032,0,.065,0,.1,0,.054.005.108.01.162l-2.6,6.227-2.61-6.253c0-.041.005-.082.005-.124V54.016A11.335,11.335,0,0,0,20.961,54.321Zm-5.5,22.486v.88h-5.15V70.051a1.719,1.719,0,0,0-3.437,0v7.636H3.438V67.853a8.5,8.5,0,0,1,6.546-8.294l5.448-1.3,3.556,8.517A15.956,15.956,0,0,0,15.462,76.808Zm12.264-15.55a16.157,16.157,0,0,0-2.906,1l1.674-4.008,5.449,1.306a8.518,8.518,0,0,1,1.233.4Zm16.267,8.729-4.3-9.779V56.663a15.137,15.137,0,0,0,8.59.016v3.548Zm10.8-10.022a8.533,8.533,0,0,1,1.264-.411l5.436-1.3,1.681,4.026a16.158,16.158,0,0,0-2.946-1.014ZM84.563,77.688H81.125V70.051a1.719,1.719,0,0,0-3.437,0v7.636H72.5v-.871a15.955,15.955,0,0,0-3.514-10.021l3.567-8.541,5.461,1.3a8.5,8.5,0,0,1,6.546,8.294Z"/>
        <path id="Trazado_694361" data-name="Trazado 694361" d="M38.235,39.746a1.72,1.72,0,1,0,1.215.5A1.732,1.732,0,0,0,38.235,39.746Z"/>
        <path id="Trazado_694362" data-name="Trazado 694362" d="M49.729,43.184a1.719,1.719,0,1,0-1.215-.5A1.731,1.731,0,0,0,49.729,43.184Z"/>
        <path id="Trazado_694363" data-name="Trazado 694363" d="M47.308,46.035a1.719,1.719,0,0,0-2.431,0,1.3,1.3,0,0,1-1.843,0A1.719,1.719,0,0,0,40.6,48.466a4.747,4.747,0,0,0,6.7,0A1.719,1.719,0,0,0,47.308,46.035Z"/>
        <path id="Trazado_694364" data-name="Trazado 694364" d="M69.888,12.719h1.179a1.719,1.719,0,0,0,0-3.437H69.888a1.719,1.719,0,0,0,0,3.438Z"/>
        <path id="Trazado_694365" data-name="Trazado 694365" d="M78.227,12.719h1.179a1.719,1.719,0,0,0,0-3.437H78.227a1.719,1.719,0,0,0,0,3.438Z"/>
        <path id="Trazado_694366" data-name="Trazado 694366" d="M74.647,17.478a1.719,1.719,0,0,0,1.719-1.719V14.58a1.719,1.719,0,1,0-3.437,0v1.179A1.719,1.719,0,0,0,74.647,17.478Z"/>
        <path id="Trazado_694367" data-name="Trazado 694367" d="M74.647,9.138A1.719,1.719,0,0,0,76.366,7.42V6.241a1.719,1.719,0,0,0-3.437,0V7.42A1.719,1.719,0,0,0,74.647,9.138Z"/>
        <path id="Trazado_694368" data-name="Trazado 694368" d="M8.5,12.719H9.677a1.719,1.719,0,0,0,0-3.437H8.5a1.719,1.719,0,1,0,0,3.438Z"/>
        <path id="Trazado_694369" data-name="Trazado 694369" d="M16.838,12.719h1.179a1.719,1.719,0,0,0,0-3.437H16.838a1.719,1.719,0,0,0,0,3.438Z"/>
        <path id="Trazado_694370" data-name="Trazado 694370" d="M13.257,17.478a1.719,1.719,0,0,0,1.719-1.719V14.58a1.719,1.719,0,0,0-3.437,0v1.179A1.719,1.719,0,0,0,13.257,17.478Z"/>
        <path id="Trazado_694371" data-name="Trazado 694371" d="M13.257,9.138A1.719,1.719,0,0,0,14.976,7.42V6.241a1.719,1.719,0,0,0-3.437,0V7.42A1.719,1.719,0,0,0,13.257,9.138Z"/>
        <path id="Trazado_694372" data-name="Trazado 694372" d="M44,14.506a1.719,1.719,0,0,0,1.719-1.719V8.265a1.719,1.719,0,0,0-3.437,0v4.522A1.719,1.719,0,0,0,44,14.506Z"/>
        <path id="Trazado_694373" data-name="Trazado 694373" d="M44,3.438a1.72,1.72,0,0,0,1.719-1.719,1.719,1.719,0,1,0-2.934,1.215A1.732,1.732,0,0,0,44,3.438Z"/>
        <path id="Trazado_694374" data-name="Trazado 694374" d="M35.546,9.326A1.719,1.719,0,0,0,37.977,6.9L35.461,4.38a1.719,1.719,0,0,0-2.431,2.431Z"/>
        <path id="Trazado_694375" data-name="Trazado 694375" d="M51.154,9.819a1.713,1.713,0,0,0,1.215-.5l2.6-2.6a1.719,1.719,0,0,0-2.431-2.431l-2.6,2.6a1.719,1.719,0,0,0,1.215,2.934Z"/>
      </g>
    </g>
  </g>
</svg>
