<svg xmlns="http://www.w3.org/2000/svg" xmlns:xlink="http://www.w3.org/1999/xlink" width="136" height="136" viewBox="0 0 136 136">
  <defs>
    <clipPath id="clip-path">
      <rect id="Rectángulo_344570" data-name="Rectángulo 344570" width="88" height="88" transform="translate(-3120 -6665)" fill="#fff" stroke="#707070" stroke-width="1"/>
    </clipPath>
  </defs>
  <g id="Grupo_1010368" data-name="Grupo 1010368" transform="translate(3141.087 6360.5)">
    <circle id="Elipse_4829" data-name="Elipse 4829" cx="68" cy="68" r="68" transform="translate(-3141.087 -6360.5)" fill="#0098e8"/>
    <g id="Enmascarar_grupo_70" data-name="Enmascarar grupo 70" transform="translate(2.913 329)" clip-path="url(#clip-path)">
      <g id="reunion" transform="translate(-3120.005 -6665)">
        <g id="Grupo_931096" data-name="Grupo 931096">
          <path id="Trazado_694444" data-name="Trazado 694444" d="M49.948,10.289h-11.9a5.6,5.6,0,0,0-5.6,5.6v11.5h23.1v-11.5A5.6,5.6,0,0,0,49.948,10.289Z" fill="#fe76a8"/>
          <path id="Trazado_694445" data-name="Trazado 694445" d="M44.1,10.288a5.6,5.6,0,0,0-5.6,5.6v11.5H32.45V15.89a5.6,5.6,0,0,1,5.6-5.6H44.1Z" fill="#fe5694"/>
          <path id="Trazado_694446" data-name="Trazado 694446" d="M32.45,23.829V15.89a5.6,5.6,0,0,1,5.069-5.576" fill="none" stroke="#000" stroke-linecap="round" stroke-linejoin="round" stroke-miterlimit="10" stroke-width="2.578"/>
          <path id="Trazado_694447" data-name="Trazado 694447" d="M50.481,10.314A5.6,5.6,0,0,1,55.55,15.89v7.939" fill="none" stroke="#000" stroke-linecap="round" stroke-linejoin="round" stroke-miterlimit="10" stroke-width="2.578"/>
          <path id="Trazado_694448" data-name="Trazado 694448" d="M50.839,8.128A6.839,6.839,0,1,1,37.654,5.576c2.782,1.14,3.47.512,6.346.512s3.183.825,6.346-.512A6.811,6.811,0,0,1,50.839,8.128Z" fill="#ffdfcf"/>
          <path id="Trazado_694449" data-name="Trazado 694449" d="M50.346,5.576a6.839,6.839,0,0,1-12.691,0,6.84,6.84,0,0,1,12.691,0Z" fill="#7a6d79"/>
          <circle id="Elipse_4841" data-name="Elipse 4841" cx="6.84" cy="6.84" r="6.84" transform="translate(37.16 1.289)" fill="none" stroke="#000" stroke-linecap="round" stroke-linejoin="round" stroke-miterlimit="10" stroke-width="2.578"/>
          <path id="Trazado_694450" data-name="Trazado 694450" d="M37.654,5.576a6.839,6.839,0,0,0,12.691,0" fill="none" stroke="#000" stroke-linecap="round" stroke-linejoin="round" stroke-miterlimit="10" stroke-width="2.578"/>
        </g>
        <path id="Trazado_694451" data-name="Trazado 694451" d="M49.948,77.711h-11.9a5.6,5.6,0,0,1-5.6-5.6v-11.5h23.1v11.5A5.6,5.6,0,0,1,49.948,77.711Z" fill="#8ac9fe"/>
        <path id="Trazado_694452" data-name="Trazado 694452" d="M44.1,77.712a5.6,5.6,0,0,1-5.6-5.6v-11.5H32.45v11.5a5.6,5.6,0,0,0,5.6,5.6Z" fill="#60b7ff"/>
        <path id="Trazado_694453" data-name="Trazado 694453" d="M55.55,64.171V72.11a5.6,5.6,0,0,1-5.069,5.576" fill="none" stroke="#000" stroke-linecap="round" stroke-linejoin="round" stroke-miterlimit="10" stroke-width="2.578"/>
        <path id="Trazado_694454" data-name="Trazado 694454" d="M50.839,79.872a6.839,6.839,0,1,0-13.185,2.552c2.782-1.14,3.47-.512,6.346-.512s3.183-.825,6.346.512A6.811,6.811,0,0,0,50.839,79.872Z" fill="#ffdfcf"/>
        <path id="Trazado_694455" data-name="Trazado 694455" d="M50.346,82.424a6.839,6.839,0,0,0-12.691,0,6.84,6.84,0,0,0,12.691,0Z" fill="#7a6d79"/>
        <circle id="Elipse_4842" data-name="Elipse 4842" cx="6.84" cy="6.84" r="6.84" transform="translate(37.16 73.032)" fill="none" stroke="#000" stroke-linecap="round" stroke-linejoin="round" stroke-miterlimit="10" stroke-width="2.578"/>
        <path id="Trazado_694456" data-name="Trazado 694456" d="M50.346,82.424a6.839,6.839,0,0,0-12.691,0" fill="none" stroke="#000" stroke-linecap="round" stroke-linejoin="round" stroke-miterlimit="10" stroke-width="2.578"/>
        <g id="Grupo_931099" data-name="Grupo 931099">
          <g id="Grupo_931097" data-name="Grupo 931097">
            <path id="Trazado_694457" data-name="Trazado 694457" d="M17.779,21.993,11.831,32.3a5.6,5.6,0,0,0,2.05,7.652l9.96,5.751,11.55-20.005-9.96-5.751A5.6,5.6,0,0,0,17.779,21.993Z" fill="#8ac9fe"/>
            <path id="Trazado_694458" data-name="Trazado 694458" d="M14.856,27.056a5.6,5.6,0,0,0,2.05,7.652l9.961,5.751L23.842,45.7l-9.961-5.751a5.6,5.6,0,0,1-2.05-7.652Z" fill="#60b7ff"/>
            <path id="Trazado_694459" data-name="Trazado 694459" d="M20.756,43.917l-6.875-3.969a5.6,5.6,0,0,1-2.294-7.177" fill="none" stroke="#000" stroke-linecap="round" stroke-linejoin="round" stroke-miterlimit="10" stroke-width="2.578"/>
            <path id="Trazado_694460" data-name="Trazado 694460" d="M18.068,21.544a5.6,5.6,0,0,1,7.363-1.6l6.875,3.969" fill="none" stroke="#000" stroke-linecap="round" stroke-linejoin="round" stroke-miterlimit="10" stroke-width="2.578"/>
            <path id="Trazado_694461" data-name="Trazado 694461" d="M16.353,20.141a6.839,6.839,0,1,1-8.8,10.142c2.379-1.84,2.178-2.749,3.616-5.24s2.306-2.344,2.73-5.751A6.813,6.813,0,0,1,16.353,20.141Z" fill="#ae6c6c"/>
            <path id="Trazado_694462" data-name="Trazado 694462" d="M13.9,19.292A6.839,6.839,0,0,1,7.551,30.283,6.84,6.84,0,0,1,13.9,19.292Z" fill="#7a6d79"/>
            <circle id="Elipse_4843" data-name="Elipse 4843" cx="6.84" cy="6.84" r="6.84" transform="translate(6.095 19.225)" fill="none" stroke="#000" stroke-linecap="round" stroke-linejoin="round" stroke-miterlimit="10" stroke-width="2.578"/>
            <path id="Trazado_694463" data-name="Trazado 694463" d="M7.551,30.283A6.839,6.839,0,0,0,13.9,19.292" fill="none" stroke="#000" stroke-linecap="round" stroke-linejoin="round" stroke-miterlimit="10" stroke-width="2.578"/>
          </g>
          <g id="Grupo_931098" data-name="Grupo 931098">
            <path id="Trazado_694464" data-name="Trazado 694464" d="M76.169,55.7l-5.948,10.3a5.6,5.6,0,0,1-7.652,2.05l-9.96-5.751L64.158,42.3l9.96,5.751A5.6,5.6,0,0,1,76.169,55.7Z" fill="#9be69d"/>
            <path id="Trazado_694465" data-name="Trazado 694465" d="M73.246,60.768a5.6,5.6,0,0,1-7.652,2.05l-9.961-5.751-3.025,5.239,9.961,5.751a5.6,5.6,0,0,0,7.652-2.05Z" fill="#6fd7a3"/>
            <path id="Trazado_694466" data-name="Trazado 694466" d="M69.932,66.456a5.6,5.6,0,0,1-7.363,1.6l-6.875-3.969" fill="none" stroke="#000" stroke-linecap="round" stroke-linejoin="round" stroke-miterlimit="10" stroke-width="2.578"/>
            <path id="Trazado_694467" data-name="Trazado 694467" d="M67.244,44.083l6.875,3.969a5.6,5.6,0,0,1,2.294,7.177" fill="none" stroke="#000" stroke-linecap="round" stroke-linejoin="round" stroke-miterlimit="10" stroke-width="2.578"/>
            <path id="Trazado_694468" data-name="Trazado 694468" d="M78.486,56.013A6.839,6.839,0,1,0,74.1,68.708c.4-2.98,1.292-3.261,2.73-5.751s.877-3.169,3.616-5.24A6.808,6.808,0,0,0,78.486,56.013Z" fill="#ffdfcf"/>
            <path id="Trazado_694469" data-name="Trazado 694469" d="M80.449,57.717A6.839,6.839,0,0,0,74.1,68.708a6.84,6.84,0,0,0,6.346-10.991Z" fill="#7a6d79"/>
            <circle id="Elipse_4844" data-name="Elipse 4844" cx="6.84" cy="6.84" r="6.84" transform="translate(68.226 55.096)" fill="none" stroke="#000" stroke-linecap="round" stroke-linejoin="round" stroke-miterlimit="10" stroke-width="2.578"/>
            <path id="Trazado_694470" data-name="Trazado 694470" d="M80.449,57.717A6.839,6.839,0,0,0,74.1,68.708" fill="none" stroke="#000" stroke-linecap="round" stroke-linejoin="round" stroke-miterlimit="10" stroke-width="2.578"/>
          </g>
        </g>
        <g id="Grupo_931102" data-name="Grupo 931102">
          <g id="Grupo_931100" data-name="Grupo 931100">
            <path id="Trazado_694471" data-name="Trazado 694471" d="M11.831,55.7l5.948,10.3a5.6,5.6,0,0,0,7.652,2.05l9.96-5.751L23.842,42.3l-9.96,5.751A5.6,5.6,0,0,0,11.831,55.7Z" fill="#7a6d79"/>
            <path id="Trazado_694472" data-name="Trazado 694472" d="M14.754,60.768a5.6,5.6,0,0,0,7.652,2.05l9.961-5.751,3.025,5.239-9.961,5.751a5.6,5.6,0,0,1-7.652-2.05Z" fill="#685e68"/>
            <path id="Trazado_694473" data-name="Trazado 694473" d="M32.306,64.088l-6.875,3.969a5.6,5.6,0,0,1-7.363-1.6" fill="none" stroke="#000" stroke-linecap="round" stroke-linejoin="round" stroke-miterlimit="10" stroke-width="2.578"/>
            <path id="Trazado_694474" data-name="Trazado 694474" d="M11.587,55.23a5.6,5.6,0,0,1,2.294-7.177l2.631-1.519,4.244-2.45" fill="none" stroke="#000" stroke-linecap="round" stroke-linejoin="round" stroke-miterlimit="10" stroke-width="2.578"/>
            <path id="Trazado_694475" data-name="Trazado 694475" d="M9.514,56.013A6.839,6.839,0,1,1,13.9,68.708c-.4-2.98-1.292-3.261-2.73-5.751s-.877-3.169-3.616-5.24A6.808,6.808,0,0,1,9.514,56.013Z" fill="#ffdfcf"/>
            <path id="Trazado_694476" data-name="Trazado 694476" d="M7.551,57.717A6.839,6.839,0,0,1,13.9,68.708,6.84,6.84,0,0,1,7.551,57.717Z" fill="#7a6d79"/>
            <circle id="Elipse_4845" data-name="Elipse 4845" cx="6.84" cy="6.84" r="6.84" transform="translate(6.095 55.096)" fill="none" stroke="#000" stroke-linecap="round" stroke-linejoin="round" stroke-miterlimit="10" stroke-width="2.578"/>
            <path id="Trazado_694477" data-name="Trazado 694477" d="M13.9,68.708A6.839,6.839,0,0,0,7.551,57.717" fill="none" stroke="#000" stroke-linecap="round" stroke-linejoin="round" stroke-miterlimit="10" stroke-width="2.578"/>
          </g>
          <g id="Grupo_931101" data-name="Grupo 931101">
            <path id="Trazado_694478" data-name="Trazado 694478" d="M70.221,21.993l5.948,10.3a5.6,5.6,0,0,1-2.05,7.652L64.158,45.7,52.608,25.693l9.96-5.751A5.6,5.6,0,0,1,70.221,21.993Z" fill="#ffe177"/>
            <path id="Trazado_694479" data-name="Trazado 694479" d="M73.144,27.056a5.6,5.6,0,0,1-2.05,7.652l-9.961,5.751L64.158,45.7l9.961-5.751a5.6,5.6,0,0,0,2.05-7.652Z" fill="#fece85"/>
            <path id="Trazado_694480" data-name="Trazado 694480" d="M76.413,32.77a5.6,5.6,0,0,1-2.294,7.177l-6.875,3.969" fill="none" stroke="#000" stroke-linecap="round" stroke-linejoin="round" stroke-miterlimit="10" stroke-width="2.578"/>
            <path id="Trazado_694481" data-name="Trazado 694481" d="M55.694,23.912l4.608-2.66,2.267-1.309a5.6,5.6,0,0,1,7.363,1.6" fill="none" stroke="#000" stroke-linecap="round" stroke-linejoin="round" stroke-miterlimit="10" stroke-width="2.578"/>
            <path id="Trazado_694482" data-name="Trazado 694482" d="M71.647,20.141a6.839,6.839,0,1,0,8.8,10.142c-2.379-1.84-2.178-2.749-3.616-5.24S74.527,22.7,74.1,19.292A6.813,6.813,0,0,0,71.647,20.141Z" fill="#ae6c6c"/>
            <path id="Trazado_694483" data-name="Trazado 694483" d="M74.1,19.292a6.839,6.839,0,0,0,6.346,10.991A6.84,6.84,0,0,0,74.1,19.292Z" fill="#7a6d79"/>
            <path id="Trazado_694484" data-name="Trazado 694484" d="M81.885,25.517a6.841,6.841,0,1,1-2.934-5.082" fill="none" stroke="#000" stroke-linecap="round" stroke-linejoin="round" stroke-miterlimit="10" stroke-width="2.578"/>
            <path id="Trazado_694485" data-name="Trazado 694485" d="M74.1,19.292a6.839,6.839,0,0,0,6.346,10.991" fill="none" stroke="#000" stroke-linecap="round" stroke-linejoin="round" stroke-miterlimit="10" stroke-width="2.578"/>
          </g>
        </g>
        <circle id="Elipse_4846" data-name="Elipse 4846" cx="23.241" cy="23.241" r="23.241" transform="translate(20.759 20.759)" fill="#dc8758"/>
        <path id="Trazado_694486" data-name="Trazado 694486" d="M47.642,38.407,43.8,47.521a1.107,1.107,0,0,1-1.45.59L29.5,42.693a1.107,1.107,0,0,1-.59-1.45l3.842-9.113a1.107,1.107,0,0,1,1.45-.59l12.85,5.418A1.107,1.107,0,0,1,47.642,38.407Z" fill="#d8ecfe"/>
        <path id="Trazado_694487" data-name="Trazado 694487" d="M42.508,48.163a.894.894,0,0,1-.158-.052L29.5,42.694a1.108,1.108,0,0,1-.59-1.451l3.841-9.115a1.109,1.109,0,0,1,1.451-.59l12.4,5.23h0" fill="none" stroke="#000" stroke-linecap="round" stroke-linejoin="round" stroke-miterlimit="10" stroke-width="2.578"/>
        <path id="Trazado_694488" data-name="Trazado 694488" d="M59.354,48.849l-9.07,3.942a1.107,1.107,0,0,1-1.457-.574l-5.559-12.79a1.107,1.107,0,0,1,.574-1.457l9.07-3.942a1.107,1.107,0,0,1,1.457.574l5.559,12.79A1.107,1.107,0,0,1,59.354,48.849Z" fill="#f5f8f9"/>
        <path id="Trazado_694489" data-name="Trazado 694489" d="M56.537,50.072l2.817-1.224a1.106,1.106,0,0,0,.574-1.456L54.369,34.6a1.11,1.11,0,0,0-1.458-.574l-6.3,2.741h0l-2.764,1.2a1.108,1.108,0,0,0-.574,1.458l1.8,4.149" fill="none" stroke="#000" stroke-linecap="round" stroke-linejoin="round" stroke-miterlimit="10" stroke-width="2.578"/>
        <path id="Trazado_694490" data-name="Trazado 694490" d="M57.767,55.68,48.7,59.622a1.107,1.107,0,0,1-1.457-.574L41.68,46.258a1.107,1.107,0,0,1,.574-1.457l9.07-3.942a1.107,1.107,0,0,1,1.457.574l5.559,12.79A1.107,1.107,0,0,1,57.767,55.68Z" fill="#f5f8f9"/>
        <path id="Trazado_694491" data-name="Trazado 694491" d="M51.255,58.51l6.512-2.829a1.108,1.108,0,0,0,.574-1.458l-5.56-12.789a1.1,1.1,0,0,0-1.456-.574L42.254,44.8a1.11,1.11,0,0,0-.574,1.458l5.23,12.03" fill="none" stroke="#000" stroke-linecap="round" stroke-linejoin="round" stroke-miterlimit="10" stroke-width="2.578"/>
        <path id="Trazado_694492" data-name="Trazado 694492" d="M46.011,67.07q-1,.088-2.014.088a23.241,23.241,0,0,1,0-46.482q1.018,0,2.014.088a23.241,23.241,0,0,0,0,46.307Z" fill="#c57a44"/>
        <path id="Trazado_694493" data-name="Trazado 694493" d="M27.419,27.713a23.249,23.249,0,0,1,28.275-3.8" fill="none" stroke="#000" stroke-linecap="round" stroke-linejoin="round" stroke-miterlimit="10" stroke-width="2.578"/>
        <path id="Trazado_694494" data-name="Trazado 694494" d="M20.759,44.083V44a23.13,23.13,0,0,1,3.066-11.543" fill="none" stroke="#000" stroke-linecap="round" stroke-linejoin="round" stroke-miterlimit="10" stroke-width="2.578"/>
        <path id="Trazado_694495" data-name="Trazado 694495" d="M38.275,66.529a23.388,23.388,0,0,0,11.45,0" fill="none" stroke="#000" stroke-linecap="round" stroke-linejoin="round" stroke-miterlimit="10" stroke-width="2.578"/>
        <path id="Trazado_694496" data-name="Trazado 694496" d="M21.625,50.308A23.288,23.288,0,0,0,32.45,64.171" fill="none" stroke="#000" stroke-linecap="round" stroke-linejoin="round" stroke-miterlimit="10" stroke-width="2.578"/>
        <path id="Trazado_694497" data-name="Trazado 694497" d="M60.646,27.778a23.247,23.247,0,0,1-5.1,36.393" fill="none" stroke="#000" stroke-linecap="round" stroke-linejoin="round" stroke-miterlimit="10" stroke-width="2.578"/>
        <g id="Grupo_931103" data-name="Grupo 931103">
          <path id="Trazado_694498" data-name="Trazado 694498" d="M47.69,63.186l2.035,2.035v6.889H55.55V63.89a2.622,2.622,0,0,0-.768-1.853L51.81,59.066l-2.928,1.244Z" fill="#8ac9fe"/>
          <path id="Trazado_694499" data-name="Trazado 694499" d="M46.91,62.405l.78.78,4.12-4.12-.78-.78a2.913,2.913,0,0,0-4.12,4.12Z" fill="#ffdfcf"/>
          <line id="Línea_139" data-name="Línea 139" x1="4.12" y2="4.12" transform="translate(47.691 59.065)" fill="none" stroke="#000" stroke-linecap="round" stroke-linejoin="round" stroke-miterlimit="10" stroke-width="2.578"/>
          <path id="Trazado_694500" data-name="Trazado 694500" d="M49.725,69.806V65.221l-2.814-2.815a2.913,2.913,0,0,1,0-4.118h0a2.913,2.913,0,0,1,4.12,0l3.752,3.752a2.62,2.62,0,0,1,.767,1.852v8.218" fill="none" stroke="#000" stroke-linecap="round" stroke-linejoin="round" stroke-miterlimit="10" stroke-width="2.578"/>
        </g>
        <g id="Grupo_931104" data-name="Grupo 931104">
          <path id="Trazado_694501" data-name="Trazado 694501" d="M65.481,24.987l-5.966,3.444-.674,2.515-2.3.99a1.193,1.193,0,1,1-2.329-.516l-1-1.983,1.017-3.794a2.619,2.619,0,0,1,1.221-1.591l7.117-4.109" fill="#ffe177"/>
          <path id="Trazado_694502" data-name="Trazado 694502" d="M55.674,34.435a2.95,2.95,0,0,1-.756-.1,2.915,2.915,0,0,1-2.059-3.566l.356-1.332,5.627,1.509-.356,1.33A2.913,2.913,0,0,1,55.674,34.435Z" fill="#9b5e5e"/>
          <line id="Línea_140" data-name="Línea 140" x1="5.627" y1="1.507" transform="translate(53.214 29.439)" fill="none" stroke="#000" stroke-linecap="round" stroke-linejoin="round" stroke-miterlimit="10" stroke-width="2.578"/>
          <path id="Trazado_694503" data-name="Trazado 694503" d="M63.615,26.064l-4.1,2.367-1.031,3.845a2.913,2.913,0,0,1-3.567,2.059h0a2.913,2.913,0,0,1-2.06-3.568l1.373-5.125a2.619,2.619,0,0,1,1.221-1.591l7.117-4.109" fill="none" stroke="#000" stroke-linecap="round" stroke-linejoin="round" stroke-miterlimit="10" stroke-width="2.578"/>
        </g>
        <g id="Grupo_931105" data-name="Grupo 931105">
          <path id="Trazado_694504" data-name="Trazado 694504" d="M16.794,53.1l5.966-3.444,2.513.673s2.773-.609,3.189-2.162h0c.417-1.554-1.68-3.465-1.68-3.465l-3.8-1.017A2.619,2.619,0,0,0,21,43.943l-7.117,4.109Z" fill="#7a6d79"/>
          <path id="Trazado_694505" data-name="Trazado 694505" d="M30.271,47.867a2.95,2.95,0,0,1-.1.756A2.915,2.915,0,0,1,26.6,50.682l-1.332-.356L26.782,44.7l1.33.356A2.913,2.913,0,0,1,30.271,47.867Z" fill="#ffdfcf"/>
          <path id="Trazado_694506" data-name="Trazado 694506" d="M18.973,51.839l3.787-2.186,3.845,1.03a2.913,2.913,0,0,0,3.567-2.059h0a2.913,2.913,0,0,0-2.06-3.568l-5.125-1.373A2.619,2.619,0,0,0,21,43.943l-7.117,4.109" fill="none" stroke="#000" stroke-linecap="round" stroke-linejoin="round" stroke-miterlimit="10" stroke-width="2.578"/>
          <line id="Línea_141" data-name="Línea 141" x1="1.507" y2="5.627" transform="translate(25.274 44.7)" fill="none" stroke="#000" stroke-linecap="round" stroke-linejoin="round" stroke-miterlimit="10" stroke-width="2.578"/>
        </g>
        <g id="Grupo_931106" data-name="Grupo 931106">
          <path id="Trazado_694507" data-name="Trazado 694507" d="M40.309,63.187l-2.035,2.035v6.889H32.449V63.892a2.622,2.622,0,0,1,.768-1.853l2.972-2.972,2.928,1.244Z" fill="#60b7ff"/>
          <path id="Trazado_694508" data-name="Trazado 694508" d="M41.089,62.407l-.78.78-4.12-4.12.78-.78a2.913,2.913,0,1,1,4.12,4.12Z" fill="#ffdfcf"/>
          <path id="Trazado_694509" data-name="Trazado 694509" d="M32.45,69.1V63.891a2.627,2.627,0,0,1,.767-1.853l3.752-3.752a2.913,2.913,0,0,1,4.12,4.12l-2.814,2.815v4.586" fill="none" stroke="#000" stroke-linecap="round" stroke-linejoin="round" stroke-miterlimit="10" stroke-width="2.578"/>
          <line id="Línea_142" data-name="Línea 142" x1="4.12" y1="4.12" transform="translate(36.188 59.067)" fill="none" stroke="#000" stroke-linecap="round" stroke-linejoin="round" stroke-miterlimit="10" stroke-width="2.578"/>
        </g>
        <line id="Línea_143" data-name="Línea 143" y1="4.931" transform="translate(32.45 64.171)" fill="none" stroke="#000" stroke-linecap="round" stroke-linejoin="round" stroke-miterlimit="10" stroke-width="2.578"/>
        <path id="Trazado_694510" data-name="Trazado 694510" d="M33.258,75.008a5.594,5.594,0,0,0,4.261,2.678" fill="none" stroke="#000" stroke-linecap="round" stroke-linejoin="round" stroke-miterlimit="10" stroke-width="2.578"/>
      </g>
    </g>
  </g>
</svg>
