<svg xmlns="http://www.w3.org/2000/svg" xmlns:xlink="http://www.w3.org/1999/xlink" width="136" height="136" viewBox="0 0 136 136">
  <defs>
    <clipPath id="clip-path">
      <rect id="Rectángulo_344571" data-name="Rectángulo 344571" width="88" height="88" transform="translate(-2847 -6665)" fill="#fff" stroke="#707070" stroke-width="1"/>
    </clipPath>
  </defs>
  <g id="Grupo_1010369" data-name="Grupo 1010369" transform="translate(2875.826 6334.5)">
    <circle id="Elipse_4830" data-name="Elipse 4830" cx="68" cy="68" r="68" transform="translate(-2875.826 -6334.5)" fill="#0098e8"/>
    <g id="Enmascarar_grupo_71" data-name="Enmascarar grupo 71" transform="translate(-2 355)" clip-path="url(#clip-path)">
      <g id="administracion" transform="translate(-2848.419 -6666.419)">
        <g id="Grupo_931129" data-name="Grupo 931129">
          <g id="Grupo_931107" data-name="Grupo 931107">
            <path id="Trazado_694511" data-name="Trazado 694511" d="M28.387,49.677a14.062,14.062,0,0,1-1.5,6.345,13.479,13.479,0,0,1-1.206,1.987L24.129,51.1l2.044-3.08Z" fill="#e6e9ed"/>
          </g>
          <g id="Grupo_931108" data-name="Grupo 931108">
            <path id="Trazado_694512" data-name="Trazado 694512" d="M19.246,48.017,21.29,51.1l-1.547,6.912a14.09,14.09,0,0,1-2.711-8.332Z" fill="#e6e9ed"/>
          </g>
          <g id="Grupo_931109" data-name="Grupo 931109">
            <path id="Trazado_694513" data-name="Trazado 694513" d="M28.387,42.581v7.1l-2.214-1.661-3.463-2.6Z" fill="#ccd1d9"/>
          </g>
          <g id="Grupo_931110" data-name="Grupo 931110">
            <path id="Trazado_694514" data-name="Trazado 694514" d="M22.71,45.419l-3.463,2.6-2.214,1.661v-7.1Z" fill="#ccd1d9"/>
          </g>
          <g id="Grupo_931111" data-name="Grupo 931111">
            <path id="Trazado_694515" data-name="Trazado 694515" d="M24.129,51.1l1.547,6.912v.014a13.864,13.864,0,0,1-2.966,3.009,13.864,13.864,0,0,1-2.966-3.009v-.014L21.29,51.1Z" fill="#ffeaa7"/>
          </g>
          <g id="Grupo_931112" data-name="Grupo 931112">
            <path id="Trazado_694516" data-name="Trazado 694516" d="M26.173,48.017,24.129,51.1H21.29l-2.044-3.08,3.463-2.6Z" fill="#fcd770"/>
          </g>
          <g id="Grupo_931113" data-name="Grupo 931113">
            <path id="Trazado_694517" data-name="Trazado 694517" d="M34.065,68.129H11.355v2.839h-7.1a1.424,1.424,0,0,1-1.419-1.419V55.894A12.783,12.783,0,0,1,13.1,43.361l3.932-.781v7.1a14.09,14.09,0,0,0,2.711,8.332v.014a13.864,13.864,0,0,0,2.966,3.009,13.864,13.864,0,0,0,2.966-3.009v-.014a13.479,13.479,0,0,0,1.206-1.987,14.062,14.062,0,0,0,1.5-6.345v-7.1l3.932.781a12.6,12.6,0,0,1,4.812,2.058,12.793,12.793,0,0,1,5.45,10.475V69.548a1.424,1.424,0,0,1-1.419,1.419h-7.1Z" fill="#b4dd7f"/>
          </g>
          <g id="Grupo_931114" data-name="Grupo 931114">
            <path id="Trazado_694518" data-name="Trazado 694518" d="M34.065,85.161v1.419A1.424,1.424,0,0,1,32.645,88H24.157a1.424,1.424,0,0,1-1.419-1.419V84.423a5.659,5.659,0,0,1,5.621-4.939h.028A5.676,5.676,0,0,1,34.065,85.161Z" fill="#969faa"/>
          </g>
          <g id="Grupo_931115" data-name="Grupo 931115">
            <path id="Trazado_694519" data-name="Trazado 694519" d="M22.738,85.161v1.419h-.057A1.424,1.424,0,0,1,21.262,88H12.774a1.424,1.424,0,0,1-1.419-1.419V85.161a5.676,5.676,0,0,1,5.677-5.677h.028a5.681,5.681,0,0,1,5.649,5.1c.014.185.028.355.028.539Z" fill="#969faa"/>
          </g>
          <g id="Grupo_931116" data-name="Grupo 931116">
            <path id="Trazado_694520" data-name="Trazado 694520" d="M34.065,68.129V85.161a5.676,5.676,0,0,0-5.677-5.677h-.028a5.659,5.659,0,0,0-5.621,4.939L22.71,68.129Z" fill="#d3a06c"/>
          </g>
          <g id="Grupo_931117" data-name="Grupo 931117">
            <path id="Trazado_694521" data-name="Trazado 694521" d="M22.71,68.129l.028,16.294a.6.6,0,0,0-.028.156,5.681,5.681,0,0,0-5.649-5.1h-.028a5.676,5.676,0,0,0-5.677,5.677V68.129Z" fill="#d3a06c"/>
          </g>
          <g id="Grupo_931118" data-name="Grupo 931118">
            <path id="Trazado_694522" data-name="Trazado 694522" d="M39.472,19.871l-.852,4.23a4.21,4.21,0,0,0-3.137-1.391H34.065V19.871a2.847,2.847,0,0,0-2.839-2.839h-7.1a7.11,7.11,0,0,1-5.677-2.839H17.032a5.676,5.676,0,0,0-5.677,5.677V22.71H9.935A4.21,4.21,0,0,0,6.8,24.1L5.848,19.36a8.908,8.908,0,0,1,3.818-9.2l.27-.185a11.319,11.319,0,0,1,10.489-7.1h5.11A14.2,14.2,0,0,1,39.742,17.089,15.148,15.148,0,0,1,39.472,19.871Z" fill="#656d78"/>
          </g>
          <g id="Grupo_931119" data-name="Grupo 931119">
            <path id="Trazado_694523" data-name="Trazado 694523" d="M68.129,55.355V35.484a1.424,1.424,0,0,1,1.419-1.419H86.581A1.424,1.424,0,0,1,88,35.484V55.355a1.424,1.424,0,0,1-1.419,1.419H69.548A1.424,1.424,0,0,1,68.129,55.355Z" fill="#e6e9ed"/>
          </g>
          <g id="Grupo_931120" data-name="Grupo 931120">
            <path id="Trazado_694524" data-name="Trazado 694524" d="M68.129,24.129V4.258a1.424,1.424,0,0,1,1.419-1.419H86.581A1.424,1.424,0,0,1,88,4.258V24.129a1.424,1.424,0,0,1-1.419,1.419H69.548A1.424,1.424,0,0,1,68.129,24.129Z" fill="#e6e9ed"/>
          </g>
          <g id="Grupo_931121" data-name="Grupo 931121">
            <path id="Trazado_694525" data-name="Trazado 694525" d="M68.129,86.581V66.71a1.424,1.424,0,0,1,1.419-1.419H86.581A1.424,1.424,0,0,1,88,66.71V86.581A1.424,1.424,0,0,1,86.581,88H69.548A1.424,1.424,0,0,1,68.129,86.581Z" fill="#e6e9ed"/>
          </g>
          <g id="Grupo_931122" data-name="Grupo 931122">
            <path id="Trazado_694526" data-name="Trazado 694526" d="M11.355,70.968v5.677H9.935a4.252,4.252,0,0,1-4.258-4.258V70.968Z" fill="#f0d0b4"/>
          </g>
          <g id="Grupo_931123" data-name="Grupo 931123">
            <path id="Trazado_694527" data-name="Trazado 694527" d="M39.742,70.968v1.419a4.252,4.252,0,0,1-4.258,4.258H34.065V70.968Z" fill="#f0d0b4"/>
          </g>
          <g id="Grupo_931124" data-name="Grupo 931124">
            <path id="Trazado_694528" data-name="Trazado 694528" d="M28.387,42.581,22.71,45.419l-5.677-2.839,1.008-3.037a8.717,8.717,0,0,0,1.831.2h5.677a8.717,8.717,0,0,0,1.831-.2Z" fill="#f0d0b4"/>
          </g>
          <g id="Grupo_931125" data-name="Grupo 931125">
            <path id="Trazado_694529" data-name="Trazado 694529" d="M38.621,24.1a4.254,4.254,0,0,1-3.137,7.125H34.065V22.71h1.419A4.21,4.21,0,0,1,38.621,24.1Z" fill="#f0d0b4"/>
          </g>
          <g id="Grupo_931126" data-name="Grupo 931126">
            <path id="Trazado_694530" data-name="Trazado 694530" d="M34.065,22.71v8.516a8.524,8.524,0,0,1-6.685,8.317,8.717,8.717,0,0,1-1.831.2H19.871a8.717,8.717,0,0,1-1.831-.2,8.524,8.524,0,0,1-6.685-8.317V19.871a5.676,5.676,0,0,1,5.677-5.677h1.419a7.11,7.11,0,0,0,5.677,2.839h7.1a2.847,2.847,0,0,1,2.839,2.839Z" fill="#f0d0b4"/>
          </g>
          <g id="Grupo_931127" data-name="Grupo 931127">
            <path id="Trazado_694531" data-name="Trazado 694531" d="M6.8,24.1A4.21,4.21,0,0,1,9.935,22.71h1.419v8.516H9.935A4.249,4.249,0,0,1,6.8,24.1Z" fill="#f0d0b4"/>
          </g>
          <g id="Grupo_931128" data-name="Grupo 931128">
            <path id="Trazado_694532" data-name="Trazado 694532" d="M17.032,28.387H28.387a5.677,5.677,0,1,1-11.355,0Z" fill="#ff826e"/>
          </g>
        </g>
        <g id="Grupo_931130" data-name="Grupo 931130">
          <circle id="Elipse_4847" data-name="Elipse 4847" cx="1.419" cy="1.419" r="1.419" transform="translate(15.613 21.29)"/>
          <circle id="Elipse_4848" data-name="Elipse 4848" cx="1.419" cy="1.419" r="1.419" transform="translate(26.968 21.29)"/>
          <path id="Trazado_694533" data-name="Trazado 694533" d="M29.806,28.387V26.968H15.613v1.419a7.1,7.1,0,1,0,14.194,0ZM18.694,29.806h8.029a4.258,4.258,0,0,1-8.029,0Z"/>
          <path id="Trazado_694534" data-name="Trazado 694534" d="M69.548,26.968H86.581a2.842,2.842,0,0,0,2.839-2.839V4.258a2.842,2.842,0,0,0-2.839-2.839H69.548A2.842,2.842,0,0,0,66.71,4.258v8.516H58.194a2.842,2.842,0,0,0-2.839,2.839V44H37.523a14.079,14.079,0,0,0-4.932-2.025l-3.117-.623-.3-.886a9.952,9.952,0,0,0,6.193-7.819h.112a5.666,5.666,0,0,0,4.658-8.908l.717-3.581A15.632,15.632,0,0,0,25.536,1.466H20.417A12.645,12.645,0,0,0,8.791,9.04,10.371,10.371,0,0,0,4.46,19.647l.818,4.091a5.666,5.666,0,0,0,4.658,8.908h.114a9.95,9.95,0,0,0,6.193,7.819l-.3.886-3.117.623A14.233,14.233,0,0,0,1.419,55.891V69.548a2.842,2.842,0,0,0,2.839,2.839,5.683,5.683,0,0,0,5.677,5.677v8.516a2.842,2.842,0,0,0,2.839,2.839h8.491a2.807,2.807,0,0,0,1.445-.409,2.8,2.8,0,0,0,1.445.409h8.491a2.842,2.842,0,0,0,2.839-2.839V78.065a5.683,5.683,0,0,0,5.677-5.677A2.842,2.842,0,0,0,44,69.548V55.891a14.173,14.173,0,0,0-3.28-9.053H55.355V75.226a2.842,2.842,0,0,0,2.839,2.839H66.71v8.516a2.842,2.842,0,0,0,2.839,2.839H86.581a2.842,2.842,0,0,0,2.839-2.839V66.71a2.842,2.842,0,0,0-2.839-2.839H69.548A2.842,2.842,0,0,0,66.71,66.71v8.516H58.194V46.839H66.71v8.516a2.842,2.842,0,0,0,2.839,2.839H86.581a2.842,2.842,0,0,0,2.839-2.839V35.484a2.842,2.842,0,0,0-2.839-2.839H69.548a2.842,2.842,0,0,0-2.839,2.839V44H58.194V15.613H66.71v8.516a2.842,2.842,0,0,0,2.839,2.839Zm0-22.71H86.581V24.129H69.548ZM23.37,49.677H22.05l-.884-1.326,1.544-1.158,1.544,1.158ZM25.4,45.662l1.57-.785v1.962Zm-6.946,1.177V44.877l1.57.785Zm.44,3.218.881,1.323L19.2,53.941a12.71,12.71,0,0,1-.715-3.582Zm3.537,2.46h.562l1.144,5.148A12.76,12.76,0,0,1,22.71,59.2a12.76,12.76,0,0,1-1.425-1.533Zm3.787,1.426-.569-2.562.881-1.323.4.3a12.759,12.759,0,0,1-.715,3.582Zm9.268-24.136V24.129a2.839,2.839,0,1,1,0,5.677ZM7.1,26.968a2.842,2.842,0,0,1,2.839-2.839v5.677A2.842,2.842,0,0,1,7.1,26.968Zm2.839-7.1V21.29a5.624,5.624,0,0,0-2.166.434l-.527-2.636A7.6,7.6,0,0,1,7.1,17.611a7.515,7.515,0,0,1,3.355-6.268l.637-.426.163-.409A9.825,9.825,0,0,1,20.417,4.3h5.118A12.787,12.787,0,0,1,38.074,19.6l-.424,2.125a5.649,5.649,0,0,0-2.166-.433V19.871a4.252,4.252,0,0,0-3.662-4.2,5.61,5.61,0,0,0,.823-2.9A5.683,5.683,0,0,0,26.968,7.1V9.935a2.839,2.839,0,0,1,0,5.677H24.129a5.683,5.683,0,0,1-5.677-5.677H15.613a8.485,8.485,0,0,0,.507,2.9,7.108,7.108,0,0,0-6.184,7.039Zm2.839,11.355V19.871a4.263,4.263,0,0,1,4.258-4.258h.755a8.494,8.494,0,0,0,6.342,2.839h7.1a1.422,1.422,0,0,1,1.419,1.419V31.226a7.1,7.1,0,0,1-7.1,7.1H19.871A7.1,7.1,0,0,1,12.774,31.226Zm7.1,9.935h5.677c.288,0,.572-.018.854-.044l.248.744L22.71,43.833l-3.942-1.97.248-.744c.282.024.566.043.854.043ZM7.1,72.387H9.935v2.839A2.842,2.842,0,0,1,7.1,72.387ZM24.13,69.548h8.515v9.977a6.99,6.99,0,0,0-8.5-.038Zm-2.839,0,.014,9.968a6.984,6.984,0,0,0-8.532,0V69.548ZM12.774,86.581V85.161a4.262,4.262,0,0,1,8.516-.247c0,.084-.026.162-.026.247h.048v1.419Zm19.871,0H24.155l0-1.418h0c0-.007,0-.013,0-.02v-.449a4.26,4.26,0,0,1,8.493.468Zm2.839-11.355V72.387h2.839A2.842,2.842,0,0,1,35.484,75.226Zm5.677-5.677H35.484V57.362a3.4,3.4,0,0,1,1-2.423L34.48,52.932a6.223,6.223,0,0,0-1.835,4.43V66.71H12.774V57.362a6.227,6.227,0,0,0-1.834-4.43L8.932,54.939a3.406,3.406,0,0,1,1,2.423V69.548H4.258V55.891a11.385,11.385,0,0,1,9.128-11.133l2.227-.446v5.365a15.691,15.691,0,0,0,6.245,12.49l.852.639.852-.639a15.687,15.687,0,0,0,6.245-12.49V44.312l2.227.446a11.385,11.385,0,0,1,9.128,11.133ZM69.548,66.71H86.581V86.581H69.548Zm0-31.226H86.581V55.355H69.548Z"/>
          <path id="Trazado_694535" data-name="Trazado 694535" d="M72.387,18.452H83.742V21.29H72.387Z"/>
          <path id="Trazado_694536" data-name="Trazado 694536" d="M72.387,12.774H83.742v2.839H72.387Z"/>
          <path id="Trazado_694537" data-name="Trazado 694537" d="M72.387,7.1h2.839V9.935H72.387Z"/>
          <path id="Trazado_694538" data-name="Trazado 694538" d="M78.065,7.1h5.677V9.935H78.065Z"/>
          <path id="Trazado_694539" data-name="Trazado 694539" d="M72.387,49.677H83.742v2.839H72.387Z"/>
          <path id="Trazado_694540" data-name="Trazado 694540" d="M72.387,44H83.742v2.839H72.387Z"/>
          <path id="Trazado_694541" data-name="Trazado 694541" d="M72.387,38.323h2.839v2.839H72.387Z"/>
          <path id="Trazado_694542" data-name="Trazado 694542" d="M78.065,38.323h5.677v2.839H78.065Z"/>
          <path id="Trazado_694543" data-name="Trazado 694543" d="M72.387,80.9H83.742v2.839H72.387Z"/>
          <path id="Trazado_694544" data-name="Trazado 694544" d="M72.387,75.226H83.742v2.839H72.387Z"/>
          <path id="Trazado_694545" data-name="Trazado 694545" d="M72.387,69.548h2.839v2.839H72.387Z"/>
          <path id="Trazado_694546" data-name="Trazado 694546" d="M78.065,69.548h5.677v2.839H78.065Z"/>
        </g>
      </g>
    </g>
  </g>
</svg>
