<svg xmlns="http://www.w3.org/2000/svg" xmlns:xlink="http://www.w3.org/1999/xlink" width="136" height="136" viewBox="0 0 136 136">
  <defs>
    <clipPath id="clip-path">
      <rect id="Rectángulo_344572" data-name="Rectángulo 344572" width="88" height="88" transform="translate(-2581 -6665)" fill="#fff" stroke="#707070" stroke-width="1"/>
    </clipPath>
  </defs>
  <g id="Grupo_1010370" data-name="Grupo 1010370" transform="translate(2601.739 6334.5)">
    <circle id="Elipse_4831" data-name="Elipse 4831" cx="68" cy="68" r="68" transform="translate(-2601.739 -6334.5)" fill="#0098e8"/>
    <g id="Enmascarar_grupo_72" data-name="Enmascarar grupo 72" transform="translate(2.913 355)" clip-path="url(#clip-path)">
      <g id="Page-1" transform="translate(-2580.984 -6665)">
        <g id="_042---Checklist-Goals" data-name="042---Checklist-Goals">
          <g id="Cartoony" transform="translate(1.466 1.466)">
            <path id="Shape" d="M55.713,38.852V13.2a4.4,4.4,0,0,0-4.4-4.4H4.4A4.4,4.4,0,0,0,0,13.2V74.772a4.4,4.4,0,0,0,4.4,4.4H55.713Z" fill="sienna"/>
            <path id="Shape-2" data-name="Shape" d="M51.314,8.8h-4.4a4.4,4.4,0,0,1,4.4,4.4V79.171h4.4V13.2A4.4,4.4,0,0,0,51.314,8.8Z" fill="#783e22"/>
            <path id="Shape-3" data-name="Shape" d="M49.848,41.257V16.127a1.466,1.466,0,0,0-1.466-1.466H7.331a1.466,1.466,0,0,0-1.466,1.466V71.84a1.466,1.466,0,0,0,1.466,1.466H49.848Z" fill="#ffe0b2"/>
            <path id="Shape-4" data-name="Shape" d="M48.382,14.661h-4.4a1.466,1.466,0,0,1,1.466,1.466V73.306h4.4V16.127A1.466,1.466,0,0,0,48.382,14.661Z" fill="#dfc49c"/>
            <path id="Shape-5" data-name="Shape" d="M11.729,11.729v2.932A1.466,1.466,0,0,0,13.2,16.127H42.518a1.466,1.466,0,0,0,1.466-1.466V11.729a4.4,4.4,0,0,0-4.4-4.4H33.721V5.864a5.864,5.864,0,1,0-11.729,0V7.331H16.127A4.4,4.4,0,0,0,11.729,11.729Z" fill="#ffdc00"/>
            <path id="Shape-6" data-name="Shape" d="M39.585,7.331h-4.4a4.4,4.4,0,0,1,4.4,4.4v2.932a1.466,1.466,0,0,1-1.466,1.466h4.4a1.466,1.466,0,0,0,1.466-1.466V11.729A4.4,4.4,0,0,0,39.585,7.331Z" fill="#fec108"/>
            <path id="Shape-7" data-name="Shape" d="M29.322,5.864V7.331h4.4V5.864A5.845,5.845,0,0,0,25.657.44a5.865,5.865,0,0,1,3.665,5.425Z" fill="#fec108"/>
            <circle id="Oval" cx="23.458" cy="23.458" r="23.458" transform="translate(38.119 38.119)" fill="#f44335"/>
            <path id="Shape-8" data-name="Shape" d="M61.577,38.119c-.742,0-1.475.044-2.2.111a23.449,23.449,0,0,1,0,46.693c.724.067,1.457.111,2.2.111a23.458,23.458,0,0,0,0-46.916Z" fill="#c81e1e"/>
            <circle id="Oval-2" data-name="Oval" cx="17.593" cy="17.593" r="17.593" transform="translate(43.984 43.984)" fill="#f5f5f5"/>
            <path id="Shape-9" data-name="Shape" d="M61.577,43.984a17.565,17.565,0,0,0-2.2.147,17.577,17.577,0,0,1,0,34.882,17.593,17.593,0,1,0,2.2-35.029Z" fill="#cfd8dc"/>
            <circle id="Oval-3" data-name="Oval" cx="11.729" cy="11.729" r="11.729" transform="translate(49.848 49.848)" fill="#f44335"/>
            <path id="Shape-10" data-name="Shape" d="M61.577,49.848a11.7,11.7,0,0,0-2.2.214,11.729,11.729,0,0,1,0,23.03,11.729,11.729,0,1,0,2.2-23.244Z" fill="#c81e1e"/>
            <circle id="Oval-4" data-name="Oval" cx="5.864" cy="5.864" r="5.864" transform="translate(55.713 55.713)" fill="#607d8b"/>
            <path id="Shape-11" data-name="Shape" d="M61.577,55.713a5.813,5.813,0,0,0-2.2.44,5.851,5.851,0,0,1,0,10.849,5.865,5.865,0,1,0,2.2-11.289Z" fill="#37474f"/>
          </g>
          <g id="Icons">
            <circle id="Oval-5" data-name="Oval" cx="1.466" cy="1.466" r="1.466" transform="translate(27.856 5.864)"/>
            <path id="Shape-12" data-name="Shape" d="M87.538,38.549a1.466,1.466,0,0,0-2.073,0l-.532.531a1.459,1.459,0,0,0-2.83.506v2.325L79.574,44.44a24.562,24.562,0,0,0-20.929-5.908V14.661A5.864,5.864,0,0,0,52.78,8.8H44.89a5.815,5.815,0,0,0-3.838-1.466h-4.4a7.331,7.331,0,0,0-14.661,0h-4.4A5.815,5.815,0,0,0,13.755,8.8H5.864A5.864,5.864,0,0,0,0,14.661V76.238A5.864,5.864,0,0,0,5.864,82.1H47.016c.5.424,1.026.82,1.569,1.2l-1.466,2.444a1.466,1.466,0,1,0,2.516,1.5l1.416-2.369a24.843,24.843,0,0,0,23.974,0l1.416,2.369a1.466,1.466,0,0,0,2.516-1.5l-1.466-2.444a24.817,24.817,0,0,0,4.145-36.792l2.541-2.529H86.5a1.466,1.466,0,0,0,.506-2.831l.531-.531a1.466,1.466,0,0,0,0-2.073ZM55.713,14.661V39.223a24.484,24.484,0,0,0-2.932,1.133V17.594a2.932,2.932,0,0,0-2.932-2.932H46.916V13.2a5.775,5.775,0,0,0-.208-1.466H52.78a2.932,2.932,0,0,1,2.932,2.932ZM14.661,13.2a2.932,2.932,0,0,1,2.932-2.932h4.4v1.466a1.466,1.466,0,0,0,2.932,0v-4.4a4.4,4.4,0,1,1,8.8,0v4.4a1.466,1.466,0,0,0,2.932,0V10.263h4.4A2.932,2.932,0,0,1,43.984,13.2v2.932H14.661ZM43.984,19.06a2.922,2.922,0,0,0,2.525-1.466h3.34V41.931a24.8,24.8,0,0,0-9.492,31.375H8.8V17.593h3.34a2.922,2.922,0,0,0,2.525,1.466ZM2.932,76.238V14.661a2.932,2.932,0,0,1,2.932-2.932h6.073a5.775,5.775,0,0,0-.208,1.466v1.466H8.8a2.932,2.932,0,0,0-2.932,2.932V73.306A2.932,2.932,0,0,0,8.8,76.238H41.931a24.907,24.907,0,0,0,2.138,2.932H5.864A2.932,2.932,0,0,1,2.932,76.238Zm82.1-13.2A22.068,22.068,0,1,1,77.5,46.513l-2.073,2.073A19.117,19.117,0,1,0,77.5,50.659l2.073-2.073a21.876,21.876,0,0,1,5.461,14.457Zm-11.729,0a10.3,10.3,0,1,1-4.129-8.21l-2.1,2.1A7.353,7.353,0,1,0,69.153,59l2.1-2.1a10.194,10.194,0,0,1,2.053,6.134Zm-5.865,0a4.4,4.4,0,1,1-4.4-4.4,4.326,4.326,0,0,1,1.884.44l-2.921,2.921a1.466,1.466,0,1,0,2.073,2.073L67,61.159A4.327,4.327,0,0,1,67.442,63.043Zm3.828-10.3a13.229,13.229,0,1,0,2.073,2.073l2.086-2.086a16.152,16.152,0,1,1-2.073-2.073Z"/>
            <path id="Shape-13" data-name="Shape" d="M15.091,30.359a1.466,1.466,0,0,0,1.037.43h.147a1.466,1.466,0,0,0,1.075-.645l2.932-4.4a1.466,1.466,0,1,0-2.44-1.627L15.9,27.029l-.2-.2A1.466,1.466,0,0,0,13.626,28.9Z"/>
            <path id="Shape-14" data-name="Shape" d="M24.924,29.322h19.06a1.466,1.466,0,0,0,0-2.932H24.924a1.466,1.466,0,0,0,0,2.932Z"/>
            <path id="Shape-15" data-name="Shape" d="M15.091,42.088a1.466,1.466,0,0,0,1.037.43h.147a1.466,1.466,0,0,0,1.075-.645l2.932-4.4a1.466,1.466,0,1,0-2.44-1.627L15.9,38.758l-.2-.2a1.466,1.466,0,0,0-2.073,2.073Z"/>
            <path id="Shape-16" data-name="Shape" d="M24.924,41.051h19.06a1.466,1.466,0,0,0,0-2.932H24.924a1.466,1.466,0,1,0,0,2.932Z"/>
            <path id="Shape-17" data-name="Shape" d="M24.924,64.509h8.8a1.466,1.466,0,0,0,0-2.932h-8.8a1.466,1.466,0,0,0,0,2.932Z"/>
            <path id="Shape-18" data-name="Shape" d="M15.091,53.817a1.466,1.466,0,0,0,1.037.43,1,1,0,0,0,.147-.007,1.466,1.466,0,0,0,1.075-.645l2.932-4.4a1.466,1.466,0,0,0-2.44-1.627L15.9,50.48l-.2-.2a1.466,1.466,0,0,0-2.073,2.073Z"/>
            <path id="Shape-19" data-name="Shape" d="M15.091,65.546a1.466,1.466,0,0,0,1.037.43,1,1,0,0,0,.147-.007,1.466,1.466,0,0,0,1.075-.645l2.932-4.4a1.466,1.466,0,0,0-2.44-1.627L15.9,62.209l-.2-.2a1.466,1.466,0,0,0-2.073,2.073Z"/>
            <path id="Shape-20" data-name="Shape" d="M24.924,52.78H36.169a1.466,1.466,0,1,0,0-2.932H24.924a1.466,1.466,0,1,0,0,2.932Z"/>
          </g>
        </g>
      </g>
    </g>
  </g>
</svg>
