<svg xmlns="http://www.w3.org/2000/svg" width="98" height="98" viewBox="0 0 98 98">
  <g id="Grupo_1010362" data-name="Grupo 1010362" transform="translate(-265 -2550.363)">
    <circle id="Elipse_4942" data-name="Elipse 4942" cx="49" cy="49" r="49" transform="translate(265 2550.363)" fill="#0098e8"/>
    <g id="objetivo_1_" data-name="objetivo (1)" transform="translate(231.871 2566.863)">
      <g id="Grupo_1010240" data-name="Grupo 1010240" transform="translate(62.011 5.056)">
        <path id="Trazado_725984" data-name="Trazado 725984" d="M119.3,39.825A19.878,19.878,0,1,0,139.18,59.7,19.878,19.878,0,0,0,119.3,39.825Zm0,35.652A15.774,15.774,0,1,1,135.077,59.7,15.792,15.792,0,0,1,119.3,75.477Z" transform="translate(-99.425 -39.825)" fill="#e278b1"/>
      </g>
      <g id="Grupo_1010241" data-name="Grupo 1010241" transform="translate(62.011 19.804)">
        <path id="Trazado_725985" data-name="Trazado 725985" d="M103.529,161.123a15.7,15.7,0,0,1,.857-5.13h-4.291a19.982,19.982,0,0,0,0,10.26h4.291A15.7,15.7,0,0,1,103.529,161.123Z" transform="translate(-99.425 -155.993)" fill="#dd5ca2"/>
      </g>
      <g id="Grupo_1010242" data-name="Grupo 1010242" transform="translate(76.759 5.056)">
        <path id="Trazado_725986" data-name="Trazado 725986" d="M215.593,40.495v4.291a15.78,15.78,0,0,1,10.26,0V40.495a19.982,19.982,0,0,0-10.26,0Z" transform="translate(-215.593 -39.825)" fill="#dd5ca2"/>
      </g>
      <g id="Grupo_1010243" data-name="Grupo 1010243" transform="translate(96.806 19.804)">
        <path id="Trazado_725987" data-name="Trazado 725987" d="M374.356,161.123a15.706,15.706,0,0,1-.857,5.13h4.291a19.982,19.982,0,0,0,0-10.26H373.5A15.707,15.707,0,0,1,374.356,161.123Z" transform="translate(-373.499 -155.993)" fill="#dd5ca2"/>
      </g>
      <g id="Grupo_1010244" data-name="Grupo 1010244" transform="translate(70.219 13.264)">
        <path id="Trazado_725988" data-name="Trazado 725988" d="M175.745,104.476a11.67,11.67,0,1,0,11.67,11.67A11.683,11.683,0,0,0,175.745,104.476Zm0,19.236a7.566,7.566,0,1,1,7.566-7.566A7.575,7.575,0,0,1,175.745,123.712Z" transform="translate(-164.075 -104.476)" fill="#ffe07d"/>
      </g>
      <g id="Grupo_1010245" data-name="Grupo 1010245" transform="translate(78.427 21.471)">
        <circle id="Elipse_4956" data-name="Elipse 4956" cx="3.463" cy="3.463" r="3.463" fill="#e278b1"/>
      </g>
      <g id="Grupo_1010246" data-name="Grupo 1010246" transform="translate(79.837 0.952)">
        <path id="Trazado_725989" data-name="Trazado 725989" d="M242.658,19.811H241.12a1.283,1.283,0,0,1-1.283-1.282V8.782A1.283,1.283,0,0,1,241.12,7.5h1.539a1.283,1.283,0,0,1,1.283,1.282v9.746A1.283,1.283,0,0,1,242.658,19.811Z" transform="translate(-239.837 -7.5)" fill="#c3247d"/>
      </g>
      <g id="Grupo_1010247" data-name="Grupo 1010247" transform="translate(57.908 22.882)">
        <path id="Trazado_725990" data-name="Trazado 725990" d="M79.411,181.519v1.539a1.283,1.283,0,0,1-1.283,1.282H68.382a1.283,1.283,0,0,1-1.282-1.282v-1.539a1.283,1.283,0,0,1,1.282-1.282h9.746A1.283,1.283,0,0,1,79.411,181.519Z" transform="translate(-67.1 -180.237)" fill="#c3247d"/>
      </g>
      <g id="Grupo_1010248" data-name="Grupo 1010248" transform="translate(93.559 22.882)">
        <path id="Trazado_725991" data-name="Trazado 725991" d="M347.926,183.058v-1.539a1.282,1.282,0,0,1,1.282-1.282h9.746a1.283,1.283,0,0,1,1.283,1.282v1.539a1.283,1.283,0,0,1-1.283,1.282h-9.746A1.282,1.282,0,0,1,347.926,183.058Z" transform="translate(-347.926 -180.237)" fill="#c3247d"/>
      </g>
      <g id="Grupo_1010254" data-name="Grupo 1010254" transform="translate(87.275 40.195)">
        <g id="Grupo_1010249" data-name="Grupo 1010249" transform="translate(14.876 18.98)">
          <path id="Trazado_725992" data-name="Trazado 725992" d="M415.606,466.114h4.1v4.873h-4.1Z" transform="translate(-415.606 -466.114)" fill="#f1d0a5"/>
        </g>
        <g id="Grupo_1010250" data-name="Grupo 1010250" transform="translate(4.745)">
          <circle id="Elipse_4957" data-name="Elipse 4957" cx="4.745" cy="4.745" r="4.745" fill="#f1d0a5"/>
        </g>
        <g id="Grupo_1010251" data-name="Grupo 1010251" transform="translate(5.292 0.547)">
          <path id="Trazado_725993" data-name="Trazado 725993" d="M346.517,320.915a4.745,4.745,0,0,1-6.409,6.409,4.745,4.745,0,1,0,6.409-6.409Z" transform="translate(-340.108 -320.915)" fill="#f1b986"/>
        </g>
        <g id="Grupo_1010252" data-name="Grupo 1010252" transform="translate(0 9.49)">
          <path id="Trazado_725994" data-name="Trazado 725994" d="M312.276,391.362h-8.721a5.13,5.13,0,0,0-5.13,5.13v4.36h4.1v4.873H313.3v-4.873h4.1v-4.36A5.13,5.13,0,0,0,312.276,391.362Z" transform="translate(-298.426 -391.362)" fill="#a2f4c1"/>
        </g>
        <g id="Grupo_1010253" data-name="Grupo 1010253" transform="translate(0 9.49)">
          <path id="Trazado_725995" data-name="Trazado 725995" d="M305.352,405.725v-11.8a7.91,7.91,0,0,0-.427-2.565h-1.368a5.13,5.13,0,0,0-5.13,5.13v4.36h4.1v4.873Z" transform="translate(-298.427 -391.362)" fill="#78d0b1"/>
        </g>
      </g>
      <g id="Grupo_1010260" data-name="Grupo 1010260" transform="translate(57.523 40.195)">
        <g id="Grupo_1010255" data-name="Grupo 1010255" transform="translate(0 18.98)">
          <path id="Trazado_725996" data-name="Trazado 725996" d="M0,0H4.1V4.873H0Z" transform="translate(4.104 4.873) rotate(180)" fill="#f1d0a5"/>
        </g>
        <g id="Grupo_1010256" data-name="Grupo 1010256" transform="translate(4.745)">
          <circle id="Elipse_4958" data-name="Elipse 4958" cx="4.745" cy="4.745" r="4.745" fill="#f1d0a5"/>
        </g>
        <g id="Grupo_1010257" data-name="Grupo 1010257" transform="translate(5.292 0.547)">
          <path id="Trazado_725997" data-name="Trazado 725997" d="M105.75,327.324a4.745,4.745,0,0,0,6.409-6.409,4.745,4.745,0,1,1-6.409,6.409Z" transform="translate(-105.75 -320.915)" fill="#f1b986"/>
        </g>
        <g id="Grupo_1010258" data-name="Grupo 1010258" transform="translate(0 9.49)">
          <path id="Trazado_725998" data-name="Trazado 725998" d="M69.2,391.362h8.721a5.13,5.13,0,0,1,5.13,5.13v4.36h-4.1v4.873H68.173v-4.873h-4.1v-4.36A5.13,5.13,0,0,1,69.2,391.362Z" transform="translate(-64.069 -391.362)" fill="#ffe07d"/>
        </g>
        <g id="Grupo_1010259" data-name="Grupo 1010259" transform="translate(12.055 9.49)">
          <path id="Trazado_725999" data-name="Trazado 725999" d="M159.024,405.725v-11.8a7.911,7.911,0,0,1,.427-2.565h1.368a5.13,5.13,0,0,1,5.13,5.13v4.36h-4.1v4.873Z" transform="translate(-159.024 -391.362)" fill="#ffd064"/>
        </g>
      </g>
      <g id="Grupo_1010267" data-name="Grupo 1010267" transform="translate(72.399 37.63)">
        <g id="Grupo_1010261" data-name="Grupo 1010261" transform="translate(14.876 18.98)">
          <path id="Trazado_726000" data-name="Trazado 726000" d="M298.427,445.911h4.1v7.438h-4.1Z" transform="translate(-298.427 -445.911)" fill="#f1d0a5"/>
        </g>
        <g id="Grupo_1010262" data-name="Grupo 1010262" transform="translate(0 18.98)">
          <path id="Trazado_726001" data-name="Trazado 726001" d="M0,0H4.1V7.438H0Z" transform="translate(4.104 7.438) rotate(180)" fill="#f1d0a5"/>
        </g>
        <g id="Grupo_1010263" data-name="Grupo 1010263" transform="translate(4.745)">
          <circle id="Elipse_4959" data-name="Elipse 4959" cx="4.745" cy="4.745" r="4.745" fill="#f1d0a5"/>
        </g>
        <g id="Grupo_1010264" data-name="Grupo 1010264" transform="translate(5.292 0.547)">
          <path id="Trazado_726002" data-name="Trazado 726002" d="M229.338,300.712a4.745,4.745,0,0,1-6.409,6.409,4.745,4.745,0,1,0,6.409-6.409Z" transform="translate(-222.929 -300.712)" fill="#f1b986"/>
        </g>
        <g id="Grupo_1010265" data-name="Grupo 1010265" transform="translate(0 9.49)">
          <path id="Trazado_726003" data-name="Trazado 726003" d="M195.1,371.159h-8.721a5.13,5.13,0,0,0-5.13,5.13v4.36h4.1v7.438h10.772v-7.438h4.1v-4.36A5.13,5.13,0,0,0,195.1,371.159Z" transform="translate(-181.249 -371.159)" fill="#80b4fb"/>
        </g>
        <g id="Grupo_1010266" data-name="Grupo 1010266" transform="translate(4.104 9.779)">
          <path id="Trazado_726004" data-name="Trazado 726004" d="M225.018,373.437a21.4,21.4,0,0,1-11.445,11.643v5h10.772v-7.438h4.1v-4.36a5.131,5.131,0,0,0-3.431-4.84Z" transform="translate(-213.573 -373.437)" fill="#61a2f9"/>
        </g>
      </g>
      <g id="Grupo_1010268" data-name="Grupo 1010268" transform="translate(56.571 0)">
        <path id="Trazado_726005" data-name="Trazado 726005" d="M197.419,146.337a8.519,8.519,0,1,0-8.519-8.519A8.528,8.528,0,0,0,197.419,146.337Zm0-15.133a6.614,6.614,0,1,1-6.614,6.614A6.622,6.622,0,0,1,197.419,131.2Z" transform="translate(-172.1 -112.885)"/>
        <path id="Trazado_726006" data-name="Trazado 726006" d="M225.641,170.456a4.415,4.415,0,1,0-4.415-4.415A4.42,4.42,0,0,0,225.641,170.456Zm0-6.925a2.51,2.51,0,1,1-2.51,2.51A2.513,2.513,0,0,1,225.641,163.531Z" transform="translate(-200.322 -141.108)"/>
        <path id="Trazado_726007" data-name="Trazado 726007" d="M107.207,54.815a6.089,6.089,0,0,0-6.082-6.082h-.113a5.693,5.693,0,0,0-3.993-9.483c.132-.139.262-.28.391-.423A20.648,20.648,0,0,0,102.5,27.938h2.085a2.237,2.237,0,0,0,2.235-2.235V24.164a2.237,2.237,0,0,0-2.235-2.235H102.5A20.838,20.838,0,0,0,84.893,4.321V2.235A2.237,2.237,0,0,0,82.659,0H81.12a2.237,2.237,0,0,0-2.235,2.235V4.321A20.838,20.838,0,0,0,61.275,21.93H59.19a2.237,2.237,0,0,0-2.235,2.235V25.7a2.237,2.237,0,0,0,2.235,2.235h2.085a20.647,20.647,0,0,0,5.094,10.888c.128.143.259.284.391.423a5.693,5.693,0,0,0-3.993,9.483h-.113a6.089,6.089,0,0,0-6.082,6.082v9.233a.952.952,0,0,0,.952.952H64a.952.952,0,1,0,0-1.9H62.578V56.61a.952.952,0,0,0-1.9,0v1.612h-2.2V54.815a4.183,4.183,0,0,1,4.178-4.178h8.72c.1,0,.193,0,.289.011a6.064,6.064,0,0,0-.216,1.6V63.1H68.438a.952.952,0,0,0,0,1.9H94.951a.952.952,0,0,0,0-1.9h-2.62V52.25a6.069,6.069,0,0,0-.216-1.6c.1-.006.192-.011.289-.011h8.72a4.183,4.183,0,0,1,4.178,4.178v3.407h-2.2V56.61a.952.952,0,1,0-1.9,0V63.1H99.395a.952.952,0,1,0,0,1.9h6.861a.952.952,0,0,0,.952-.952ZM60.674,60.126V63.1h-2.2V60.126ZM100.558,44.94a3.8,3.8,0,0,1-3.783,3.793h-.02a3.793,3.793,0,1,1,3.8-3.793ZM87.551,43a5.658,5.658,0,0,0-.2-2.256,16.763,16.763,0,0,0,11-12.805h2.235A18.866,18.866,0,0,1,87.551,43ZM81.889,14.216a10.718,10.718,0,1,1-10.718,10.72v0A10.73,10.73,0,0,1,81.889,14.216Zm3-2.235v-1.56A14.82,14.82,0,0,1,96.4,21.93H94.842a2.228,2.228,0,0,0-.668.1,12.665,12.665,0,0,0-9.383-9.383A2.223,2.223,0,0,0,84.893,11.981Zm-.434,25.312a12.663,12.663,0,0,0,9.715-9.457,2.227,2.227,0,0,0,.668.1h1.563a14.777,14.777,0,0,1-9.914,11.085,5.736,5.736,0,0,0-2.032-1.729Zm-5.14,0a5.734,5.734,0,0,0-2.032,1.729,14.777,14.777,0,0,1-9.914-11.085h1.563a2.226,2.226,0,0,0,.667-.1A12.663,12.663,0,0,0,79.319,37.293ZM78.1,42.375a3.793,3.793,0,1,1,3.793,3.793A3.8,3.8,0,0,1,78.1,42.375Zm26.822-18.211V25.7a.331.331,0,0,1-.33.33H94.842a.331.331,0,0,1-.33-.33V24.164a.331.331,0,0,1,.33-.33h9.747A.331.331,0,0,1,104.919,24.164Zm-4.342-2.235H98.344A16.727,16.727,0,0,0,84.893,8.48V6.248A18.985,18.985,0,0,1,100.576,21.93ZM81.12,1.9h1.539a.331.331,0,0,1,.33.33V9.267s0,0,0,.007v2.707a.331.331,0,0,1-.33.33H81.12a.331.331,0,0,1-.33-.33V2.235a.331.331,0,0,1,.33-.33ZM78.885,6.248V8.482a16.675,16.675,0,0,0-7.3,3.287.952.952,0,1,0,1.176,1.5,14.776,14.776,0,0,1,6.128-2.846v1.56a2.226,2.226,0,0,0,.1.668A12.665,12.665,0,0,0,69.6,22.031a2.227,2.227,0,0,0-.667-.1H67.376a14.815,14.815,0,0,1,2.493-5.658.952.952,0,1,0-1.543-1.116,16.72,16.72,0,0,0-2.89,6.773H63.2A18.985,18.985,0,0,1,78.885,6.248ZM58.86,25.7V24.164a.331.331,0,0,1,.33-.33h9.746a.331.331,0,0,1,.33.33V25.7a.331.331,0,0,1-.33.33H59.19a.331.331,0,0,1-.33-.33ZM63.2,27.938h2.235a16.763,16.763,0,0,0,11,12.805,5.657,5.657,0,0,0-.2,2.256A18.865,18.865,0,0,1,63.2,27.938Zm.019,17a3.793,3.793,0,1,1,3.8,3.793H67A3.8,3.8,0,0,1,63.22,44.94Zm8.154,3.793h-.114a5.685,5.685,0,0,0,1.28-5.175,20.721,20.721,0,0,0,4.387,1.612,5.732,5.732,0,0,0,.716,1h-.114A6.08,6.08,0,0,0,72.5,48.837a6.1,6.1,0,0,0-1.124-.1ZM75.551,63.1h-2.2V57.562h2.2Zm1.9-9.051a.952.952,0,1,0-1.9,0v1.613h-2.2V52.25a4.182,4.182,0,0,1,4.178-4.178h8.721a4.182,4.182,0,0,1,4.178,4.178v3.408h-2.2V54.045a.952.952,0,1,0-1.9,0V63.1H77.455V54.045ZM90.427,63.1h-2.2V57.562h2.2Zm.854-14.259a6.08,6.08,0,0,0-5.031-2.669h-.114a5.725,5.725,0,0,0,.716-1,20.713,20.713,0,0,0,4.387-1.612,5.685,5.685,0,0,0,1.28,5.175H92.4A6.1,6.1,0,0,0,91.281,48.837ZM103.1,63.1V60.126h2.2V63.1Z" transform="translate(-56.571 0)"/>
      </g>
    </g>
  </g>
</svg>
