<svg xmlns="http://www.w3.org/2000/svg" width="98" height="98" viewBox="0 0 98 98">
  <g id="Grupo_1010363" data-name="Grupo 1010363" transform="translate(-580 -2550.363)">
    <circle id="Elipse_4954" data-name="Elipse 4954" cx="49" cy="49" r="49" transform="translate(580 2550.363)" fill="#0098e8"/>
    <g id="evaluar_1_" data-name="evaluar (1)" transform="translate(598 2568.363)">
      <path id="Trazado_726008" data-name="Trazado 726008" d="M51.274,55.129V6.919A4.919,4.919,0,0,0,46.355,2H7a4.919,4.919,0,0,1,4.919,4.919V54.881a6.067,6.067,0,0,0,5.721,6.151,5.9,5.9,0,0,0,6.085-5.9Z" transform="translate(-0.097 -0.016)" fill="#e2e7f6"/>
      <path id="Trazado_726009" data-name="Trazado 726009" d="M56.629,27.919l-17.71,17.71L34,40.71,51.71,23Z" transform="translate(-0.532 -0.355)" fill="#559b2d"/>
      <path id="Trazado_726010" data-name="Trazado 726010" d="M38.855,45.919,33.935,41,30,49.855Z" transform="translate(-0.468 -0.645)" fill="#fadfb2"/>
      <path id="Trazado_726011" data-name="Trazado 726011" d="M35.449,47.488l-3.026-3.026L30,49.911Z" transform="translate(-0.468 -0.701)" fill="#474747"/>
      <path id="Trazado_726012" data-name="Trazado 726012" d="M0,0H4.175V6.957H0Z" transform="translate(51.169 22.648) rotate(-45)" fill="#f0ae42"/>
      <path id="Trazado_726013" data-name="Trazado 726013" d="M55,19.968l4.919,4.919.949-.95a3.478,3.478,0,0,0-4.919-4.918Z" transform="translate(-0.871 -0.274)" fill="#ccc"/>
      <g id="Grupo_1010269" data-name="Grupo 1010269" transform="translate(1.984 1.984)">
        <path id="Trazado_726014" data-name="Trazado 726014" d="M11.839,18.726H3.968A1.968,1.968,0,0,1,2,16.758V6.919a4.919,4.919,0,0,1,9.839,0Z" transform="translate(-2 -2)" fill="#c8cded"/>
        <path id="Trazado_726015" data-name="Trazado 726015" d="M17.815,61.9A5.9,5.9,0,0,0,23.9,56H55.384a5.9,5.9,0,0,1-5.9,5.9Z" transform="translate(-2.255 -2.871)" fill="#c8cded"/>
        <path id="Trazado_726016" data-name="Trazado 726016" d="M16,18h9.839v9.839H16Z" transform="translate(-2.226 -2.258)" fill="#c8cded"/>
      </g>
      <path id="Trazado_726017" data-name="Trazado 726017" d="M21.94,25.827a.984.984,0,0,1-.7-.287l-2.952-2.952L19.684,21.2,21.94,23.45,30.1,15.291l1.392,1.392-8.855,8.855A.984.984,0,0,1,21.94,25.827Z" transform="translate(-0.279 -0.23)" fill="#6bc13b"/>
      <path id="Trazado_726018" data-name="Trazado 726018" d="M16,34h9.839v9.839H16Z" transform="translate(-0.242 -0.532)" fill="#c8cded"/>
      <path id="Trazado_726019" data-name="Trazado 726019" d="M21.94,41.827a.984.984,0,0,1-.7-.287l-2.952-2.952L19.684,37.2,21.94,39.45,30.1,31.291l1.392,1.392-8.855,8.855A.984.984,0,0,1,21.94,41.827Z" transform="translate(-0.279 -0.489)" fill="#6bc13b"/>
      <rect id="Rectángulo_348069" data-name="Rectángulo 348069" width="27" height="6" rx="3" transform="translate(18 6)" fill="#78a0d4"/>
      <path id="Trazado_726020" data-name="Trazado 726020" d="M46.726,27.935H30V24H50.661" transform="translate(-0.468 -0.371)" fill="#78a0d4"/>
      <path id="Trazado_726021" data-name="Trazado 726021" d="M41,51h7.87v1.967H41Z" transform="translate(-0.645 -0.806)" fill="#78a0d4"/>
      <path id="Trazado_726022" data-name="Trazado 726022" d="M20.952,6a2.952,2.952,0,0,0,0,5.9H37.9A18.161,18.161,0,0,0,42.181,6Z" transform="translate(-0.274 -0.081)" fill="#99bbe0"/>
      <path id="Trazado_726023" data-name="Trazado 726023" d="M60.692,24.358a4.463,4.463,0,1,0-6.312-6.311l-2.219,2.22V6.9a5.91,5.91,0,0,0-5.9-5.9H6.9A5.9,5.9,0,0,0,1,6.9v9.839a2.952,2.952,0,0,0,2.952,2.952h6.887V54.865A7.068,7.068,0,0,0,17.514,62h31.7A6.9,6.9,0,0,0,56.1,55.113a.984.984,0,0,0-.984-.984H52.161V32.89ZM32.269,45.471l1,1-1.8.8Zm2.929.145-2.072-2.072.657-1.476,2.893,2.893Zm3.189-1.735-3.529-3.526L51.177,24.036,54.7,27.565Zm7.463-17.3H30.516V24.613h17.3Zm6.719-3.935,1.56-1.56,3.526,3.528L56.1,26.171Zm4.969-3.935A2.494,2.494,0,0,1,59.3,22.967l-.252.252L55.52,19.694l.253-.253a2.477,2.477,0,0,1,1.764-.731Zm-46.7-.984H3.952a.984.984,0,0,1-.984-.984V6.9a3.935,3.935,0,0,1,7.871,0ZM49.21,60.032H22.547a6.819,6.819,0,0,0,2-3.935H54.031a4.927,4.927,0,0,1-4.821,3.935Zm.984-5.9H23.629a.984.984,0,0,0-.984.984,4.919,4.919,0,0,1-4.755,4.919H17.56a5.089,5.089,0,0,1-4.753-5.167V6.9a5.873,5.873,0,0,0-1.515-3.935H46.258A3.935,3.935,0,0,1,50.194,6.9V22.235l-.409.41H29.532a.984.984,0,0,0-.984.984v3.935a.984.984,0,0,0,.984.984H43.881L32.77,39.657a1,1,0,0,0-.2.3l-3.935,8.855a.984.984,0,0,0,.9,1.386.962.962,0,0,0,.4-.086l8.855-3.935a1,1,0,0,0,.3-.2L50.194,34.857Z" transform="translate(0)"/>
      <path id="Trazado_726024" data-name="Trazado 726024" d="M15.984,28.779h9.839a.984.984,0,0,0,.984-.984v-6.48l4.631-4.632-1.394-1.392L26.806,18.53v-.574a.984.984,0,0,0-.984-.984H15.984a.984.984,0,0,0-.984.984V27.8A.984.984,0,0,0,15.984,28.779Zm.984-9.839h7.871V20.5l-2.952,2.952L19.632,21.2,18.24,22.587l2.952,2.952a.984.984,0,0,0,1.392,0l2.255-2.256v3.528H16.968Z" transform="translate(-0.226 -0.23)"/>
      <path id="Trazado_726025" data-name="Trazado 726025" d="M31.436,32.684l-1.392-1.392-3.237,3.239v-.575a.984.984,0,0,0-.984-.984H15.984a.984.984,0,0,0-.984.984V43.8a.984.984,0,0,0,.984.984h9.839a.984.984,0,0,0,.984-.984v-6.48Zm-6.6,10.127H16.968V34.94h7.871V36.5L21.887,39.45l-2.255-2.256L18.24,38.586l2.952,2.952a.984.984,0,0,0,1.392,0l2.255-2.255Z" transform="translate(-0.226 -0.489)"/>
      <path id="Trazado_726026" data-name="Trazado 726026" d="M20.935,12.871H42.581a3.935,3.935,0,0,0,0-7.871H20.935a3.935,3.935,0,0,0,0,7.871Zm0-5.9H42.581a1.968,1.968,0,0,1,0,3.935H20.935a1.968,1.968,0,1,1,0-3.935Z" transform="translate(-0.258 -0.065)"/>
      <path id="Trazado_726027" data-name="Trazado 726027" d="M41,51h7.87v1.967H41Z" transform="translate(-0.645 -0.806)"/>
    </g>
  </g>
</svg>
