<svg xmlns="http://www.w3.org/2000/svg" width="98" height="98" viewBox="0 0 98 98">
  <g id="Grupo_1010364" data-name="Grupo 1010364" transform="translate(-909 -2554.863)">
    <circle id="Elipse_4950" data-name="Elipse 4950" cx="49" cy="49" r="49" transform="translate(909 2554.863)" fill="#0098e8"/>
    <g id="investigacion" transform="translate(924.501 2569.363)">
      <path id="Trazado_726098" data-name="Trazado 726098" d="M42.556,105.562H10.568A3.068,3.068,0,0,1,7.5,102.494V57.162a3.068,3.068,0,0,1,3.068-3.068H42.556a3.068,3.068,0,0,1,3.068,3.068v45.332A3.068,3.068,0,0,1,42.556,105.562Z" transform="translate(0 -40.875)" fill="#fd6930"/>
      <rect id="Rectángulo_348070" data-name="Rectángulo 348070" width="30.5" height="43.843" transform="translate(11.312 17.031)" fill="#fff"/>
      <path id="Trazado_726099" data-name="Trazado 726099" d="M98.5,11.313a3.812,3.812,0,0,0-7.625,0H85.156v7.625A1.841,1.841,0,0,0,87,20.779h15.38a1.841,1.841,0,0,0,1.841-1.841V11.313Z" transform="translate(-68.125 -0.001)" fill="#528fd8"/>
      <path id="Trazado_726100" data-name="Trazado 726100" d="M183.9,7.5a20.975,20.975,0,0,0-18.575,30.929,3.069,3.069,0,0,1-.527,3.631l-1.822,1.822,1.743,3.649,3.649,1.743,1.822-1.822a3.069,3.069,0,0,1,3.631-.527A20.97,20.97,0,1,0,183.9,7.5Z" transform="translate(-136.251 0)" fill="#b2caec"/>
      <path id="Trazado_726101" data-name="Trazado 726101" d="M213.817,36.485a20.978,20.978,0,0,0-14.137-19.712,20.972,20.972,0,0,1-21.7,35.832,3.069,3.069,0,0,0-3.631.527l-1.2,1.2.638,1.335,3.649,1.743,1.822-1.822a3.069,3.069,0,0,1,3.631-.527,20.975,20.975,0,0,0,30.929-18.575Z" transform="translate(-145.318 -8.135)" fill="#82aee3"/>
      <circle id="Elipse_4963" data-name="Elipse 4963" cx="15.25" cy="15.25" r="15.25" transform="translate(32.281 13.219)" fill="#f2fbff"/>
      <path id="Trazado_726102" data-name="Trazado 726102" d="M320.5,54.094a15.423,15.423,0,0,0-1.841.11,15.252,15.252,0,0,1,0,30.28,15.251,15.251,0,1,0,1.841-30.39Z" transform="translate(-272.966 -40.875)" fill="#dff6fd"/>
      <path id="Trazado_726103" data-name="Trazado 726103" d="M261.663,118.542l-1.874-1.874a1.534,1.534,0,0,0-2.17,0l-8.351,8.351-4.307-4.307a1.534,1.534,0,0,0-2.17,0l-1.874,1.874a1.534,1.534,0,0,0,0,2.17l7.266,7.266a1.534,1.534,0,0,0,2.17,0l11.309-11.309A1.534,1.534,0,0,0,261.663,118.542Z" transform="translate(-204.375 -95.375)" fill="#80d261"/>
      <path id="Trazado_726104" data-name="Trazado 726104" d="M30.907,312.95l1.21-3.631-5.392-5.392-3.631,1.21a1.84,1.84,0,0,0-.72.445L8.4,319.558a3.068,3.068,0,0,0,0,4.339l3.748,3.748a3.068,3.068,0,0,0,4.339,0l13.976-13.976A1.839,1.839,0,0,0,30.907,312.95Z" transform="translate(0 -260.045)" fill="#01c0fa"/>
      <path id="Trazado_726105" data-name="Trazado 726105" d="M41.2,317.855,22.056,337l2.86,2.86a3.068,3.068,0,0,0,4.339,0l13.976-13.976a1.842,1.842,0,0,0,.445-.72l1.21-3.632Z" transform="translate(-12.77 -272.263)" fill="#08a9f1"/>
      <rect id="Rectángulo_348071" data-name="Rectángulo 348071" width="3.812" height="3.812" transform="translate(15.125 24.656)" fill="#01c0fa"/>
      <rect id="Rectángulo_348072" data-name="Rectángulo 348072" width="3.812" height="3.812" transform="translate(15.125 32.281)" fill="#01c0fa"/>
      <rect id="Rectángulo_348073" data-name="Rectángulo 348073" width="3.812" height="3.812" transform="translate(15.125 39.906)" fill="#01c0fa"/>
      <path id="Trazado_726106" data-name="Trazado 726106" d="M259.432,122.942l2.231-2.231a1.534,1.534,0,0,0,0-2.17l-1.874-1.874a1.534,1.534,0,0,0-2.17,0l-8.351,8.351-4.307-4.307a1.534,1.534,0,0,0-2.17,0l-1.874,1.874a1.534,1.534,0,0,0,0,2.17l7.266,7.266a1.534,1.534,0,0,0,2.17,0l5.95-5.95" transform="translate(-204.375 -95.374)" fill="none" stroke="#000" stroke-linecap="round" stroke-linejoin="round" stroke-miterlimit="10" stroke-width="2"/>
      <circle id="Elipse_4964" data-name="Elipse 4964" cx="15.25" cy="15.25" r="15.25" transform="translate(32.281 13.219)" fill="none" stroke="#000" stroke-linecap="round" stroke-linejoin="round" stroke-miterlimit="10" stroke-width="2"/>
      <line id="Línea_157" data-name="Línea 157" x2="9.132" transform="translate(20.843 17.031)" fill="none" stroke="#000" stroke-linecap="round" stroke-linejoin="round" stroke-miterlimit="10" stroke-width="2"/>
      <g id="Grupo_1010335" data-name="Grupo 1010335" transform="translate(26.562 11.313)">
        <g id="Grupo_1010334" data-name="Grupo 1010334">
          <line id="Línea_158" data-name="Línea 158" fill="none" stroke="#000" stroke-linecap="round" stroke-linejoin="round" stroke-miterlimit="10" stroke-width="2"/>
        </g>
      </g>
      <path id="Trazado_726107" data-name="Trazado 726107" d="M168.368,49.274l1.822-1.822a3.069,3.069,0,0,1,3.631-.527,20.958,20.958,0,1,0-8.5-8.5,3.069,3.069,0,0,1-.527,3.631l-1.822,1.822" transform="translate(-136.251 0)" fill="none" stroke="#000" stroke-linecap="round" stroke-linejoin="round" stroke-miterlimit="10" stroke-width="2"/>
      <path id="Trazado_726108" data-name="Trazado 726108" d="M15.125,312.831,8.4,319.557a3.068,3.068,0,0,0,0,4.339l3.748,3.748a3.068,3.068,0,0,0,4.339,0l13.976-13.976a1.842,1.842,0,0,0,.445-.72l1.21-3.631-5.392-5.392-3.631,1.21a1.839,1.839,0,0,0-.72.445L18.258,309.7" transform="translate(0 -260.044)" fill="none" stroke="#000" stroke-linecap="round" stroke-linejoin="round" stroke-miterlimit="10" stroke-width="2"/>
      <line id="Línea_159" data-name="Línea 159" x2="0.856" y2="0.856" transform="translate(32.802 42.333)" fill="none" stroke="#000" stroke-linecap="round" stroke-linejoin="round" stroke-miterlimit="10" stroke-width="2"/>
      <rect id="Rectángulo_348074" data-name="Rectángulo 348074" width="3.812" height="3.812" transform="translate(15.125 24.656)" fill="none" stroke="#000" stroke-linecap="round" stroke-linejoin="round" stroke-miterlimit="10" stroke-width="2"/>
      <line id="Línea_160" data-name="Línea 160" x2="4.161" transform="translate(22.75 24.656)" fill="none" stroke="#000" stroke-linecap="round" stroke-linejoin="round" stroke-miterlimit="10" stroke-width="2"/>
      <line id="Línea_161" data-name="Línea 161" x2="3.813" transform="translate(22.75 28.469)" fill="none" stroke="#000" stroke-linecap="round" stroke-linejoin="round" stroke-miterlimit="10" stroke-width="2"/>
      <rect id="Rectángulo_348075" data-name="Rectángulo 348075" width="3.812" height="3.812" transform="translate(15.125 32.281)" fill="none" stroke="#000" stroke-linecap="round" stroke-linejoin="round" stroke-miterlimit="10" stroke-width="2"/>
      <line id="Línea_162" data-name="Línea 162" x2="4.158" transform="translate(22.75 32.281)" fill="none" stroke="#000" stroke-linecap="round" stroke-linejoin="round" stroke-miterlimit="10" stroke-width="2"/>
      <line id="Línea_163" data-name="Línea 163" x2="5.242" transform="translate(22.75 36.094)" fill="none" stroke="#000" stroke-linecap="round" stroke-linejoin="round" stroke-miterlimit="10" stroke-width="2"/>
      <rect id="Rectángulo_348076" data-name="Rectángulo 348076" width="3.812" height="3.812" transform="translate(15.125 39.906)" fill="none" stroke="#000" stroke-linecap="round" stroke-linejoin="round" stroke-miterlimit="10" stroke-width="2"/>
      <line id="Línea_164" data-name="Línea 164" x2="6.695" transform="translate(22.75 39.906)" fill="none" stroke="#000" stroke-linecap="round" stroke-linejoin="round" stroke-miterlimit="10" stroke-width="2"/>
      <line id="Línea_165" data-name="Línea 165" x2="4.14" transform="translate(22.75 43.719)" fill="none" stroke="#000" stroke-linecap="round" stroke-linejoin="round" stroke-miterlimit="10" stroke-width="2"/>
      <line id="Línea_166" data-name="Línea 166" x2="2.06" y2="2.06" transform="translate(25.696 48.244)" fill="none" stroke="#000" stroke-linecap="round" stroke-linejoin="round" stroke-miterlimit="10" stroke-width="2"/>
      <path id="Trazado_726109" data-name="Trazado 726109" d="M103.634,11.313H98.5a3.812,3.812,0,0,0-7.625,0H85.156v7.625A1.841,1.841,0,0,0,87,20.779h9.156" transform="translate(-68.125 -0.001)" fill="none" stroke="#000" stroke-linecap="round" stroke-linejoin="round" stroke-miterlimit="10" stroke-width="2"/>
      <path id="Trazado_726110" data-name="Trazado 726110" d="M104.456,363.826h23.156a3.068,3.068,0,0,0,3.068-3.068V348.491" transform="translate(-85.056 -299.139)" fill="none" stroke="#000" stroke-linecap="round" stroke-linejoin="round" stroke-miterlimit="10" stroke-width="2"/>
      <path id="Trazado_726111" data-name="Trazado 726111" d="M135.518,354.983h18.6V342.756" transform="translate(-112.306 -294.108)" fill="none" stroke="#000" stroke-linecap="round" stroke-linejoin="round" stroke-miterlimit="10" stroke-width="2"/>
      <path id="Trazado_726112" data-name="Trazado 726112" d="M11.1,54.094h-.535A3.068,3.068,0,0,0,7.5,57.162v45.332" transform="translate(0 -40.875)" fill="none" stroke="#000" stroke-linecap="round" stroke-linejoin="round" stroke-miterlimit="10" stroke-width="2"/>
      <line id="Línea_167" data-name="Línea 167" x1="1.632" transform="translate(15.399 13.219)" fill="none" stroke="#000" stroke-linecap="round" stroke-linejoin="round" stroke-miterlimit="10" stroke-width="2"/>
      <path id="Trazado_726113" data-name="Trazado 726113" d="M44.282,85.156H38.563v39.568" transform="translate(-27.251 -68.125)" fill="none" stroke="#000" stroke-linecap="round" stroke-linejoin="round" stroke-miterlimit="10" stroke-width="2"/>
    </g>
  </g>
</svg>
