<svg xmlns="http://www.w3.org/2000/svg" width="60.002" height="60.018" viewBox="0 0 60.002 60.018">
  <g id="Page-1" transform="translate(0.002 0.011)">
    <g id="_027---Open-Mind" data-name="027---Open-Mind" transform="translate(-1 -1)">
      <path id="Shape" d="M47.26,38.71a17.99,17.99,0,0,0-1.39,9.3,34.947,34.947,0,0,0,1.22,6.09,19.932,19.932,0,0,0,1.19,3,26.017,26.017,0,0,1,1.6,2.83L24.78,60v-.01c-.08-.3-1.59-6.18-4.93-7.69-.62.22-1.28.44-1.95.67a67.669,67.669,0,0,1-6.77,1.96,2.574,2.574,0,0,1-1.86-.26,3.143,3.143,0,0,1-1.35-1.73,4.983,4.983,0,0,1-.28-2.23,6.2,6.2,0,0,0,.23-2.38c-.26-1.01-1.22-1.26-1.98-1.8-.62-.44.49-1.85.49-1.85s-1.18-.87-1.6-1.25c-.44-.36.18-.98.73-2.15a2.73,2.73,0,0,0,.19-1.62c-.21-1.07-1.83-1.48-2.63-2.07-.38-.28-.99-.7-1.06-1.21-.11-.71.73-1.71,1.14-2.21a39.332,39.332,0,0,0,4.46-7.25,2.062,2.062,0,0,0,.28-.89c-.02-1.43-2.09-2.02-2.28-3.41a2.466,2.466,0,0,1,.21-1.19A30.527,30.527,0,0,0,7.3,17.65a30.138,30.138,0,0,1,.95-3.5,18.277,18.277,0,0,1,3.8-6.2c2.45-2.59,6.07-3.87,9.49-4.55a66.668,66.668,0,0,1,9.23-1.35c.1-.01.2-.01.3-.02,6.4-.32,11.46,1.85,16.42,5.73a15.579,15.579,0,0,1,5.63,8.09,29.081,29.081,0,0,1,1.01,8.2,14.377,14.377,0,0,1-2.3,7.7C50.34,34.1,48.39,36.14,47.26,38.71Z" fill="#e0b188"/>
      <path id="Shape-2" data-name="Shape" d="M44.26,38.71a17.99,17.99,0,0,0-1.39,9.3,34.947,34.947,0,0,0,1.22,6.09,19.932,19.932,0,0,0,1.19,3,26.017,26.017,0,0,1,1.6,2.83l-22.1.06c-.08-.3-1.59-6.18-4.93-7.69-.62.22-1.28.44-1.95.67a4.547,4.547,0,0,0-1.05-.67c-2.41.84-5.35,1.81-7.58,2.37a3.143,3.143,0,0,1-1.35-1.73,4.983,4.983,0,0,1-.28-2.23,6.2,6.2,0,0,0,.23-2.38c-.26-1.01-1.22-1.26-1.98-1.8-.62-.44.49-1.85.49-1.85s-1.18-.87-1.6-1.25c-.44-.36.18-.98.73-2.15a2.73,2.73,0,0,0,.19-1.62c-.21-1.07-1.83-1.48-2.63-2.07-.38-.28-.99-.7-1.06-1.21-.11-.71.73-1.71,1.14-2.21a39.332,39.332,0,0,0,4.46-7.25,2.062,2.062,0,0,0,.28-.89c-.02-1.43-2.09-2.02-2.28-3.41a2.466,2.466,0,0,1,.21-1.19A30.527,30.527,0,0,0,7.3,17.65a30.138,30.138,0,0,1,.95-3.5,18.277,18.277,0,0,1,3.8-6.2c2.45-2.59,6.07-3.87,9.49-4.55a66.668,66.668,0,0,1,9.23-1.35c5.16.32,9.48,2.39,13.72,5.71a15.579,15.579,0,0,1,5.63,8.09,29.081,29.081,0,0,1,1.01,8.2,14.377,14.377,0,0,1-2.3,7.7C47.34,34.1,45.39,36.14,44.26,38.71Z" fill="#f0d0b4"/>
      <path id="Shape-3" data-name="Shape" d="M55,7V39a1,1,0,0,1-1,1H48V6h6A1,1,0,0,1,55,7Z" fill="#99cd55"/>
      <path id="Shape-4" data-name="Shape" d="M52,7V39a1,1,0,0,1-1,1H48V6h3A1,1,0,0,1,52,7Z" fill="#b4dd7f"/>
      <path id="Shape-5" data-name="Shape" d="M48,3.2V42.8a1,1,0,0,1-1.18.99l-2.03-.37L26.82,40.15a1.006,1.006,0,0,1-.82-.98V6.83a1.006,1.006,0,0,1,.82-.98L44.79,2.58l2.03-.37A1,1,0,0,1,48,3.2Z" fill="#b5942c"/>
      <path id="Shape-6" data-name="Shape" d="M45,3.2V42.8a1.008,1.008,0,0,1-.21.62L26.82,40.15a1.006,1.006,0,0,1-.82-.98V6.83a1.006,1.006,0,0,1,.82-.98L44.79,2.58A1.008,1.008,0,0,1,45,3.2Z" fill="#e7c763"/>
      <path id="Shape-7" data-name="Shape" d="M30,35.827V10.173a1,1,0,0,1,.821-.984l12-2.182A1,1,0,0,1,44,7.991V38.009a1,1,0,0,1-1.179.984l-12-2.182A1,1,0,0,1,30,35.827Z" fill="#ffeaa7"/>
      <circle id="Oval" cx="3" cy="3" r="3" transform="translate(38 20)" fill="#99cd55"/>
      <path id="Shape-8" data-name="Shape" d="M10.511,56a3.746,3.746,0,0,1-3.534-2.725,5.951,5.951,0,0,1-.329-2.694c.034-.263.091-.531.15-.8a2.755,2.755,0,0,0,.1-1.2c-.081-.314-.312-.471-.9-.807-.233-.133-.47-.269-.692-.425a1.444,1.444,0,0,1-.593-.984,2.519,2.519,0,0,1,.325-1.443c-.34-.261-.713-.555-.929-.75-.924-.755-.311-1.839.055-2.486.135-.237.291-.512.44-.832a1.737,1.737,0,0,0,.114-1.009c-.051-.259-.776-.629-1.208-.85a7.226,7.226,0,0,1-1.038-.6A3.056,3.056,0,0,1,1.02,36.517c-.16-1.03.6-2.059,1.325-2.942A38.686,38.686,0,0,0,6.72,26.464a1.645,1.645,0,0,0,.17-.434c0-.275-.325-.591-.814-1.039a3.822,3.822,0,0,1-1.457-2.236,3.339,3.339,0,0,1,.264-1.672c.179-.472.383-.928.587-1.384a13.05,13.05,0,0,0,.856-2.278l.1-.422a27.124,27.124,0,0,1,.886-3.192,19.16,19.16,0,0,1,4.011-6.543C13.559,4.9,16.836,3.316,21.345,2.419a66.745,66.745,0,0,1,9.673-1.388,22.207,22.207,0,0,1,9.436,1.478,1,1,0,1,1-.728,1.862,20.38,20.38,0,0,0-8.6-1.343A65,65,0,0,0,21.74,4.38c-4.036.8-7.051,2.235-8.964,4.257A17.15,17.15,0,0,0,9.188,14.5a25,25,0,0,0-.815,2.955l-.1.426A14.609,14.609,0,0,1,7.3,20.516c-.189.421-.377.841-.54,1.27a1.8,1.8,0,0,0-.156.684c.045.326.426.676.83,1.047a3.5,3.5,0,0,1,1.461,2.5,2.975,2.975,0,0,1-.385,1.351A40.372,40.372,0,0,1,3.925,34.8c-.762.927-.92,1.3-.925,1.447a4.332,4.332,0,0,0,.6.485,5.79,5.79,0,0,0,.825.479c.852.436,2.021,1.034,2.261,2.254A3.749,3.749,0,0,1,6.419,41.7c-.175.37-.354.69-.511.965-.049.087-.1.183-.15.27.414.334.98.758,1.22.934A1,1,0,0,1,7.165,45.3a3.749,3.749,0,0,0-.385.618l.207.118a3.317,3.317,0,0,1,1.852,2.046,4.377,4.377,0,0,1-.087,2.128c-.046.209-.094.417-.12.627a3.976,3.976,0,0,0,.235,1.784,1.769,1.769,0,0,0,2.059,1.331,77.809,77.809,0,0,0,8.6-2.6,1,1,0,1,1,.657,1.89,78.731,78.731,0,0,1-8.847,2.665A4.016,4.016,0,0,1,10.511,56Zm-5.1-13.341.032.029a.3.3,0,0,0-.03-.032Z"/>
      <path id="Shape-9" data-name="Shape" d="M24.78,61a1,1,0,0,1-.971-.762c-.388-1.581-1.929-5.924-4.371-7.027a1,1,0,0,1,.09-1.858c1.042-.354,1.987-.684,2.73-.944.693-.242,1.215-.424,1.486-.511,4.157-1.315,5-2.816,4.976-3.845a1,1,0,0,1,.98-1.023h.024a1,1,0,0,1,1,.976c.058,2.492-2.084,4.443-6.368,5.8-.259.083-.764.259-1.434.493l-.9.315A15.931,15.931,0,0,1,25.536,59l22.682-.063-.067-.1a11.093,11.093,0,0,1-.775-1.307,20.96,20.96,0,0,1-1.241-3.13,35.65,35.65,0,0,1-1.258-6.267,18.81,18.81,0,0,1,.032-4.64,1,1,0,1,1,1.983.26,16.851,16.851,0,0,0-.029,4.144,33.565,33.565,0,0,0,1.183,5.912,18.845,18.845,0,0,0,1.129,2.846,9.349,9.349,0,0,0,.647,1.082,7.716,7.716,0,0,1,1.013,1.9,1,1,0,0,1-.952,1.3l-25.1.07Z"/>
      <path id="Shape-10" data-name="Shape" d="M11.194,19.567a1,1,0,0,1-.974-1.229l.1-.433a23.735,23.735,0,0,1,.74-2.706,15.19,15.19,0,0,1,3.167-5.186,12.384,12.384,0,0,1,5.481-3.071,1,1,0,1,1,.582,1.913,10.473,10.473,0,0,0-4.609,2.531,13.209,13.209,0,0,0-2.744,4.5,22.242,22.242,0,0,0-.669,2.47l-.1.435A1,1,0,0,1,11.194,19.567Z"/>
      <circle id="Oval-2" data-name="Oval" cx="1" cy="1" r="1" transform="translate(9 21)"/>
      <path id="Shape-11" data-name="Shape" d="M54,41H48a1,1,0,0,1,0-2h6V7H48a1,1,0,0,1,0-2h6a2,2,0,0,1,2,2V39A2,2,0,0,1,54,41Z"/>
      <path id="Shape-12" data-name="Shape" d="M26,41a1,1,0,0,1-1-1V6a1,1,0,0,1,2,0V40A1,1,0,0,1,26,41Z"/>
      <path id="Shape-13" data-name="Shape" d="M47,44.8a2,2,0,0,1-.36-.032L25.821,40.984A1,1,0,0,1,25,40V6a1,1,0,0,1,.821-.984L46.643,1.23A2,2,0,0,1,49,3.2V42.8A2,2,0,0,1,47,44.8ZM27,39.166,47,42.8V3.2L27,6.834Z"/>
      <path id="Shape-14" data-name="Shape" d="M44,40.207a.987.987,0,0,1-.179-.016l-14-2.545A1,1,0,0,1,29,36.662V9.338a1,1,0,0,1,.821-.984l14-2.545A1,1,0,0,1,45,6.793V39.207A1,1,0,0,1,44,40.207Zm-13-4.38,12,2.182V7.991L31,10.173Z"/>
      <path id="Shape-15" data-name="Shape" d="M41,27a4,4,0,1,1,4-4A4,4,0,0,1,41,27Zm0-6a2,2,0,1,0,2,2A2,2,0,0,0,41,21Z"/>
      <path id="Shape-16" data-name="Shape" d="M60,24H52a1,1,0,0,1,0-2h8a1,1,0,0,1,0,2Z"/>
      <path id="Shape-17" data-name="Shape" d="M52,17a1,1,0,0,1-.582-1.814l7-5a1,1,0,0,1,1.162,1.628l-7,5A1,1,0,0,1,52,17Z"/>
      <path id="Shape-18" data-name="Shape" d="M59,36a1,1,0,0,1-.58-.186l-7-5a1,1,0,0,1,1.162-1.628l7,5A1,1,0,0,1,59,36Z"/>
    </g>
  </g>
</svg>
