<svg xmlns="http://www.w3.org/2000/svg" xmlns:xlink="http://www.w3.org/1999/xlink" width="98" height="98" viewBox="0 0 98 98">
  <defs>
    <clipPath id="clip-path">
      <rect id="Rectángulo_344477" data-name="Rectángulo 344477" width="61" height="61" transform="translate(878 3150)" fill="#fff" stroke="#707070" stroke-width="1"/>
    </clipPath>
  </defs>
  <g id="Grupo_931529" data-name="Grupo 931529" transform="translate(-859 -3146)">
    <circle id="Elipse_4816" data-name="Elipse 4816" cx="49" cy="49" r="49" transform="translate(859 3146)" fill="#0098e8"/>
    <g id="Enmascarar_grupo_59" data-name="Enmascarar grupo 59" transform="translate(0 15)" clip-path="url(#clip-path)">
      <g id="satisfaccion" transform="translate(878 3152.776)">
        <path id="Trazado_694078" data-name="Trazado 694078" d="M59.511,4.421H49.029V6.986a1.011,1.011,0,0,1-1.01,1.007h-29.1a4.713,4.713,0,0,1-1.9-.483L12.337,4.956c-.268-.146-.387-.343-.361-.535H1.489a.6.6,0,0,0-.6.6V53.9a.6.6,0,0,0,.6.6H59.511a.6.6,0,0,0,.6-.6V5.017a.6.6,0,0,0-.6-.6Zm0,0" fill="#e6e9ed"/>
        <path id="Trazado_694079" data-name="Trazado 694079" d="M37.255,42.976A6.757,6.757,0,1,1,30.5,36.148,6.792,6.792,0,0,1,37.255,42.976Zm0,0" fill="#ffc502"/>
        <path id="Trazado_694080" data-name="Trazado 694080" d="M20.272,42.976a6.757,6.757,0,1,1-6.757-6.827A6.792,6.792,0,0,1,20.272,42.976Zm0,0" fill="#89c947"/>
        <path id="Trazado_694081" data-name="Trazado 694081" d="M54.241,42.976a6.757,6.757,0,1,1-6.757-6.827A6.793,6.793,0,0,1,54.241,42.976Zm0,0" fill="#ef5050"/>
        <g id="Grupo_930835" data-name="Grupo 930835">
          <path id="Trazado_694082" data-name="Trazado 694082" d="M13.669,19.415a.358.358,0,0,1-.357.357H7.116a.358.358,0,0,1-.357-.357V13.2a.358.358,0,0,1,.357-.357h6.195a.359.359,0,0,1,.357.357Zm0,0" fill="#fcdb67"/>
          <path id="Trazado_694083" data-name="Trazado 694083" d="M13.669,30.764a.359.359,0,0,1-.357.357H7.116a.358.358,0,0,1-.357-.357v-6.22a.358.358,0,0,1,.357-.357h6.195a.358.358,0,0,1,.357.357Zm0,0" fill="#fcdb67"/>
          <path id="Trazado_694084" data-name="Trazado 694084" d="M39.893,19.415a.358.358,0,0,1-.357.357H33.341a.358.358,0,0,1-.357-.357V13.2a.358.358,0,0,1,.357-.357h6.195a.359.359,0,0,1,.357.357Zm0,0" fill="#fcdb67"/>
          <path id="Trazado_694085" data-name="Trazado 694085" d="M39.893,30.764a.359.359,0,0,1-.357.357H33.341a.358.358,0,0,1-.357-.357v-6.22a.358.358,0,0,1,.357-.357h6.195a.358.358,0,0,1,.357.357Zm0,0" fill="#fcdb67"/>
        </g>
        <path id="Trazado_694086" data-name="Trazado 694086" d="M48.019.953a1.012,1.012,0,0,1,1.01,1.007V6.986a1.012,1.012,0,0,1-1.01,1.007h-29.1a4.706,4.706,0,0,1-1.9-.483L12.337,4.956c-.488-.266-.488-.7,0-.966l4.689-2.554a4.706,4.706,0,0,1,1.9-.483Zm0,0" fill="#ffc502"/>
        <path id="Trazado_694087" data-name="Trazado 694087" d="M19.33.953h-.407a4.706,4.706,0,0,0-1.9.483L12.337,3.99c-.488.266-.488.7,0,.966L17.025,7.51a4.706,4.706,0,0,0,1.9.483h.407Zm0,0" fill="#ffd5b3"/>
        <path id="Trazado_694088" data-name="Trazado 694088" d="M15.488,2.273,12.337,3.99c-.488.266-.488.7,0,.966l3.152,1.717Zm0,0" fill="#775436"/>
        <path id="Trazado_694089" data-name="Trazado 694089" d="M49.029,6.986V1.96A1.012,1.012,0,0,0,48.019.953H43.17v7.04h4.849a1.012,1.012,0,0,0,1.01-1.007Zm0,0" fill="#fb8276"/>
        <path id="Trazado_694090" data-name="Trazado 694090" d="M59.511,3.528H56.234a.894.894,0,1,0,0,1.787h2.979V53.6H13.105a.894.894,0,1,0,0,1.787H59.511A1.491,1.491,0,0,0,61,53.9V5.017a1.491,1.491,0,0,0-1.489-1.489Zm0,0"/>
        <path id="Trazado_694091" data-name="Trazado 694091" d="M8.816,53.6H1.787V5.315h9.6a1.748,1.748,0,0,0,.524.425L16.6,8.294a5.568,5.568,0,0,0,2.324.592h29.1a1.9,1.9,0,0,0,1.9-1.9V5.315h2.142a.894.894,0,1,0,0-1.787H49.923V1.96a1.9,1.9,0,0,0-1.9-1.9h-29.1A5.568,5.568,0,0,0,16.6.652L11.909,3.205a1.82,1.82,0,0,0-.431.323H1.489A1.491,1.491,0,0,0,0,5.017V53.9a1.491,1.491,0,0,0,1.489,1.489H8.816a.894.894,0,0,0,0-1.787ZM44.063,1.847h3.955a.118.118,0,0,1,.117.113V6.986a.118.118,0,0,1-.117.114H44.063Zm-23.84,0H42.276V3.579H20.223Zm0,3.52H42.276V7.1H20.223ZM16.382,2.8l1.071-.583a3.727,3.727,0,0,1,.983-.32V7.045a3.754,3.754,0,0,1-.983-.32l-1.071-.583Zm-1.787.974V5.168l-1.277-.7Zm0,0"/>
        <path id="Trazado_694092" data-name="Trazado 694092" d="M30.5,50.7a7.622,7.622,0,0,0,7.309-5.435.894.894,0,0,0-1.708-.524,5.844,5.844,0,0,1-5.6,4.172A5.934,5.934,0,1,1,36.03,41a.894.894,0,0,0,1.688-.587A7.665,7.665,0,1,0,30.5,50.7Zm0,0"/>
        <path id="Trazado_694093" data-name="Trazado 694093" d="M28.516,41.963v-.7a.894.894,0,0,0-1.787,0v.7a.894.894,0,0,0,1.787,0Zm0,0"/>
        <path id="Trazado_694094" data-name="Trazado 694094" d="M34.269,41.963v-.7a.894.894,0,0,0-1.787,0v.7a.894.894,0,0,0,1.787,0Zm0,0"/>
        <path id="Trazado_694095" data-name="Trazado 694095" d="M28.518,46.086h3.961a.894.894,0,0,0,0-1.787H28.518a.894.894,0,1,0,0,1.787Zm0,0"/>
        <path id="Trazado_694096" data-name="Trazado 694096" d="M13.516,50.7a7.721,7.721,0,1,0-7.651-7.72A7.694,7.694,0,0,0,13.516,50.7Zm0-13.654a5.934,5.934,0,1,1-5.863,5.934,5.905,5.905,0,0,1,5.863-5.934Zm0,0"/>
        <path id="Trazado_694097" data-name="Trazado 694097" d="M10.639,42.856a.893.893,0,0,0,.894-.894v-.7a.894.894,0,0,0-1.787,0v.7A.894.894,0,0,0,10.639,42.856Zm0,0"/>
        <path id="Trazado_694098" data-name="Trazado 694098" d="M16.393,42.856a.893.893,0,0,0,.894-.894v-.7a.894.894,0,1,0-1.787,0v.7A.893.893,0,0,0,16.393,42.856Zm0,0"/>
        <path id="Trazado_694099" data-name="Trazado 694099" d="M10.471,44.608a2.947,2.947,0,0,0,3.045,2.83,2.947,2.947,0,0,0,3.045-2.83.894.894,0,0,0-1.787,0,1.167,1.167,0,0,1-1.257,1.043,1.167,1.167,0,0,1-1.258-1.043.894.894,0,0,0-1.787,0Zm0,0"/>
        <path id="Trazado_694100" data-name="Trazado 694100" d="M47.484,50.7a7.721,7.721,0,1,0-7.65-7.72A7.694,7.694,0,0,0,47.484,50.7Zm0-13.654a5.934,5.934,0,1,1-5.863,5.934A5.906,5.906,0,0,1,47.484,37.042Zm0,0"/>
        <path id="Trazado_694101" data-name="Trazado 694101" d="M44.607,42.856a.893.893,0,0,0,.894-.894v-.7a.894.894,0,0,0-1.787,0v.7A.894.894,0,0,0,44.607,42.856Zm0,0"/>
        <path id="Trazado_694102" data-name="Trazado 694102" d="M50.361,42.856a.893.893,0,0,0,.894-.894v-.7a.894.894,0,0,0-1.787,0v.7A.893.893,0,0,0,50.361,42.856Zm0,0"/>
        <path id="Trazado_694103" data-name="Trazado 694103" d="M44.439,46.162a.894.894,0,0,0,1.787,0,1.28,1.28,0,0,1,2.516,0,.894.894,0,1,0,1.787,0,3.053,3.053,0,0,0-6.09,0Zm0,0"/>
        <path id="Trazado_694104" data-name="Trazado 694104" d="M7.116,20.666h6.195a1.252,1.252,0,0,0,1.251-1.251V14.257l.352-.355a.893.893,0,0,0-.657-1.522,1.247,1.247,0,0,0-.947-.436H7.116A1.252,1.252,0,0,0,5.865,13.2v6.22a1.252,1.252,0,0,0,1.251,1.251Zm.536-6.935h4.913l-2.192,2.207-.722-.727A.894.894,0,1,0,8.384,16.47l1.1,1.112a1.238,1.238,0,0,0,.886.37h0a1.238,1.238,0,0,0,.886-.369l1.515-1.526v2.822H7.652Zm0,0"/>
        <path id="Trazado_694105" data-name="Trazado 694105" d="M17.37,15.736H28.017a.894.894,0,0,0,0-1.787H17.37a.894.894,0,0,0,0,1.787Zm0,0"/>
        <path id="Trazado_694106" data-name="Trazado 694106" d="M17.37,18.662h6.063a.894.894,0,0,0,0-1.787H17.37a.894.894,0,0,0,0,1.787Zm0,0"/>
        <path id="Trazado_694107" data-name="Trazado 694107" d="M5.865,30.764a1.252,1.252,0,0,0,1.251,1.251h6.195a1.252,1.252,0,0,0,1.251-1.251v-6.22a1.252,1.252,0,0,0-1.251-1.251H7.116a1.252,1.252,0,0,0-1.251,1.251Zm1.787-5.684h5.123v5.147H7.652Zm0,0"/>
        <path id="Trazado_694108" data-name="Trazado 694108" d="M17.37,27.085H28.017a.894.894,0,0,0,0-1.787H17.37a.894.894,0,1,0,0,1.787Zm0,0"/>
        <path id="Trazado_694109" data-name="Trazado 694109" d="M24.327,29.117a.893.893,0,0,0-.894-.894H17.37a.894.894,0,0,0,0,1.787h6.063A.894.894,0,0,0,24.327,29.117Zm0,0"/>
        <path id="Trazado_694110" data-name="Trazado 694110" d="M33.341,20.666h6.195a1.252,1.252,0,0,0,1.251-1.251V13.2a1.252,1.252,0,0,0-1.251-1.251H33.341A1.252,1.252,0,0,0,32.09,13.2v6.22A1.252,1.252,0,0,0,33.341,20.666Zm.536-6.935H39v5.148H33.877Zm0,0"/>
        <path id="Trazado_694111" data-name="Trazado 694111" d="M42.7,14.842a.893.893,0,0,0,.894.894H54.241a.894.894,0,0,0,0-1.787H43.594A.893.893,0,0,0,42.7,14.842Zm0,0"/>
        <path id="Trazado_694112" data-name="Trazado 694112" d="M43.594,18.662h6.063a.894.894,0,0,0,0-1.787H43.594a.894.894,0,0,0,0,1.787Zm0,0"/>
        <path id="Trazado_694113" data-name="Trazado 694113" d="M40.787,30.764v-6.22a1.252,1.252,0,0,0-1.251-1.251H33.341a1.252,1.252,0,0,0-1.251,1.251v6.22a1.252,1.252,0,0,0,1.251,1.251h6.195A1.252,1.252,0,0,0,40.787,30.764ZM39,30.228H33.877V25.081H39Zm0,0"/>
        <path id="Trazado_694114" data-name="Trazado 694114" d="M54.241,25.3H43.595a.894.894,0,1,0,0,1.787H54.241a.894.894,0,0,0,0-1.787Zm0,0"/>
        <path id="Trazado_694115" data-name="Trazado 694115" d="M49.657,30.011a.894.894,0,0,0,0-1.787H43.594a.894.894,0,0,0,0,1.787Zm0,0"/>
      </g>
    </g>
  </g>
</svg>
