<svg xmlns="http://www.w3.org/2000/svg" xmlns:xlink="http://www.w3.org/1999/xlink" width="98" height="98" viewBox="0 0 98 98">
  <defs>
    <clipPath id="clip-path">
      <rect id="Rectángulo_344478" data-name="Rectángulo 344478" width="61" height="61" transform="translate(1085 3150)" fill="#fff" stroke="#707070" stroke-width="1"/>
    </clipPath>
  </defs>
  <g id="Grupo_931530" data-name="Grupo 931530" transform="translate(-1069 -3146)">
    <circle id="Elipse_4817" data-name="Elipse 4817" cx="49" cy="49" r="49" transform="translate(1069 3146)" fill="#0098e8"/>
    <g id="Enmascarar_grupo_60" data-name="Enmascarar grupo 60" transform="translate(0 15)" clip-path="url(#clip-path)">
      <g id="evaluacion" transform="translate(1084.016 3149.016)">
        <g id="Grupo_930851" data-name="Grupo 930851">
          <g id="Grupo_930836" data-name="Grupo 930836">
            <path id="Trazado_694116" data-name="Trazado 694116" d="M1.968,49.194H13.774V61H1.968Z" fill="#ffeaa7"/>
          </g>
          <g id="Grupo_930837" data-name="Grupo 930837">
            <path id="Trazado_694117" data-name="Trazado 694117" d="M19.677,13.774v5.9h-.984l-2.952,1.968,2.952,1.968h.984v5.9H1.968V13.774Z" fill="#e6e9ed"/>
          </g>
          <g id="Grupo_930838" data-name="Grupo 930838">
            <path id="Trazado_694118" data-name="Trazado 694118" d="M1.968,33.452H13.774V45.258H1.968Z" fill="#ffeaa7"/>
          </g>
          <g id="Grupo_930839" data-name="Grupo 930839">
            <path id="Trazado_694119" data-name="Trazado 694119" d="M39.355,49.194H55.1V61H39.355Z" fill="#d3a06c"/>
          </g>
          <g id="Grupo_930840" data-name="Grupo 930840">
            <path id="Trazado_694120" data-name="Trazado 694120" d="M48.426,33.668l1.751,9.622-2.952,2.952L44.274,43.29l1.751-9.622,1.2-1.2Z" fill="#e6e9ed"/>
          </g>
          <g id="Grupo_930841" data-name="Grupo 930841">
            <path id="Trazado_694121" data-name="Trazado 694121" d="M55.1,47.226v1.968H47.226V46.242l2.952-2.952-1.751-9.622L51.161,36.4,52,28.847a11.877,11.877,0,0,1,9,11.541v6.838Z" fill="#b4dd7f"/>
          </g>
          <g id="Grupo_930842" data-name="Grupo 930842">
            <path id="Trazado_694122" data-name="Trazado 694122" d="M39.355,38.371l-1.309,1.741a5.491,5.491,0,0,1-9.671-1.791l-2.794-9.79,5.9-1.968,2.479,9.927a14.648,14.648,0,0,1,8.51-7.458L43.29,36.4l2.735-2.735L44.274,43.29l2.952,2.952v2.952H39.355Z" fill="#b4dd7f"/>
          </g>
          <g id="Grupo_930843" data-name="Grupo 930843">
            <path id="Trazado_694123" data-name="Trazado 694123" d="M52,28.837v.01L51.161,36.4l-2.735-2.735-1.2-1.2,2.952-3.935A12.329,12.329,0,0,1,52,28.837Z" fill="#a0d468"/>
          </g>
          <g id="Grupo_930844" data-name="Grupo 930844">
            <path id="Trazado_694124" data-name="Trazado 694124" d="M44.274,28.532l2.952,3.935-1.2,1.2L43.29,36.4l-.817-7.369c.364-.128.738-.236,1.122-.335Z" fill="#a0d468"/>
          </g>
          <g id="Grupo_930845" data-name="Grupo 930845">
            <path id="Trazado_694125" data-name="Trazado 694125" d="M34.435,19.677A1.974,1.974,0,0,1,36.4,21.645a1.982,1.982,0,0,1-1.968,1.968H30.5V19.677Z" fill="#aab2bd"/>
          </g>
          <g id="Grupo_930846" data-name="Grupo 930846">
            <path id="Trazado_694126" data-name="Trazado 694126" d="M19.677,19.677H30.5v3.935H18.694l-2.952-1.968,2.952-1.968Z" fill="#ff826e"/>
          </g>
          <g id="Grupo_930847" data-name="Grupo 930847">
            <path id="Trazado_694127" data-name="Trazado 694127" d="M47.226,9.839H39.345a3.935,3.935,0,0,1,.01-7.871H46.5a11.556,11.556,0,0,1,5.165,21.891l-1.486.738V20.661l.207-.108a3.176,3.176,0,0,0,0-5.687l-.207-.108V12.79a2.948,2.948,0,0,0-2.952-2.952Z" fill="#656d78"/>
          </g>
          <g id="Grupo_930848" data-name="Grupo 930848">
            <path id="Trazado_694128" data-name="Trazado 694128" d="M61,47.226v1.968a3.934,3.934,0,0,1-3.935,3.935H55.1v-5.9Z" fill="#f0d0b4"/>
          </g>
          <g id="Grupo_930849" data-name="Grupo 930849">
            <path id="Trazado_694129" data-name="Trazado 694129" d="M50.177,24.6v3.935l-2.952,3.935-2.952-3.935V24.6h-.58a3.359,3.359,0,0,1-3.355-3.355V18.694l-1.387-.462a2.284,2.284,0,0,1-1.564-2.165,2.213,2.213,0,0,1,.089-.63l1.19-4.181a4.833,4.833,0,0,1,.679-1.417h7.881a2.948,2.948,0,0,1,2.952,2.952v1.968l.207.108a3.176,3.176,0,0,1,0,5.687l-.207.108Z" fill="#f0d0b4"/>
          </g>
          <g id="Grupo_930850" data-name="Grupo 930850">
            <path id="Trazado_694130" data-name="Trazado 694130" d="M32.074,23.613l-.59,2.952-5.9,1.968L23.3,25.482a3.3,3.3,0,0,1-.669-1.869h9.445Z" fill="#f0d0b4"/>
          </g>
        </g>
        <g id="Grupo_930852" data-name="Grupo 930852">
          <path id="Trazado_694131" data-name="Trazado 694131" d="M51.161,27.664V25.2l.941-.47A12.537,12.537,0,0,0,46.495.984h-7.14a4.905,4.905,0,0,0-1.475,9.588c-.052.14-.117.274-.157.417l-1.193,4.176a3.269,3.269,0,0,0,2.11,4l.715.238v1.835a4.3,4.3,0,0,0,3.935,4.3v2.223a15.623,15.623,0,0,0-8.943,6.194l-1.855-7.417.389-1.944h1.555a2.952,2.952,0,1,0,0-5.9H20.661v-5.9H.984V30.5H20.661V24.6H21.8a4.288,4.288,0,0,0,.706,1.48l2.175,2.9,2.748,9.616a6.471,6.471,0,0,0,10.939,2.657V61.984h17.71V54.113h.984a4.925,4.925,0,0,0,4.919-4.919V40.383A12.815,12.815,0,0,0,51.161,27.664ZM49.117,42.959l-1.891,1.892-1.891-1.892,1.6-8.811.289-.289.289.289Zm-5.285-13.3.048-.012,2.047,2.73L44.042,34.26l-.5-4.512c.1-.028.192-.066.291-.091Zm4.693,2.717,2.093-2.79c.1.014.206.026.307.042l-.515,4.632ZM36.4,5.9a2.955,2.955,0,0,1,2.952-2.952h7.14a10.569,10.569,0,0,1,4.728,20.023L51.161,23V21.25a4.168,4.168,0,0,0,0-7.08V12.79a3.939,3.939,0,0,0-3.935-3.935h-.181a2.918,2.918,0,0,0,.181-.984,2.955,2.955,0,0,0-2.952-2.952H42.306V6.887h1.968a.984.984,0,1,1,0,1.968H39.355A2.955,2.955,0,0,1,36.4,5.9Zm4.919,15.335V17.985l-2.06-.687a1.3,1.3,0,0,1-.841-1.594l1.192-4.175a3.771,3.771,0,0,1,.292-.707h7.32a1.97,1.97,0,0,1,1.968,1.968v2.576l.752.376a2.2,2.2,0,0,1,0,3.935l-.752.376V28.2l-1.968,2.624L45.258,28.2V25.581h1.968V23.613H43.7a2.359,2.359,0,0,1-1.678-.7,2.391,2.391,0,0,1-.7-1.679Zm-23.807.407,1.476-.984H29.516v1.968H18.992Zm17.9,0a.985.985,0,0,1-.984.984H31.484V20.661h2.952A.985.985,0,0,1,35.419,21.645ZM18.694,28.532H2.952V14.758H18.694v3.935h-.3l-4.427,2.952L18.4,24.6h.3ZM23.923,24.6h6.951l-.243,1.215-4.689,1.563L24.083,24.9A2.364,2.364,0,0,1,23.923,24.6ZM37.264,39.52a4.508,4.508,0,0,1-7.94-1.466l-2.539-8.886,4-1.334L33.48,38.609l1.909-.476-.377-1.506a13.655,13.655,0,0,1,6.623-6.2l.9,8.118,1.953-1.954-1.278,7.029,4.014,4.012,4.012-4.011L49.96,36.593l1.953,1.954.935-8.414a10.847,10.847,0,0,1,7.168,10.25v5.859H56.081V36.4H54.113V48.21H40.339V36.4H38.371v1.64Zm10.946,20.5V53.706L45.954,51.45l-1.391,1.391,1.679,1.679v5.5h-5.9V50.177H54.113v9.839Zm8.855-7.871h-.984V48.21h3.935v.984A2.955,2.955,0,0,1,57.065,52.145Z"/>
          <path id="Trazado_694132" data-name="Trazado 694132" d="M16.03,16.03,6.887,25.173,5.615,23.9,4.224,25.292l2.663,2.663L17.421,17.421Z"/>
          <path id="Trazado_694133" data-name="Trazado 694133" d="M.984,46.242H14.758V32.468H.984ZM2.952,34.435H12.79v9.839H2.952Z"/>
          <path id="Trazado_694134" data-name="Trazado 694134" d="M.984,61.984H14.758V48.21H.984ZM2.952,50.177H12.79v9.839H2.952Z"/>
          <path id="Trazado_694135" data-name="Trazado 694135" d="M16.726,48.21H32.468v1.968H16.726Z"/>
          <path id="Trazado_694136" data-name="Trazado 694136" d="M16.726,52.145H32.468v1.968H16.726Z"/>
          <path id="Trazado_694137" data-name="Trazado 694137" d="M16.726,56.081h1.968v1.968H16.726Z"/>
          <path id="Trazado_694138" data-name="Trazado 694138" d="M20.661,56.081H32.468v1.968H20.661Z"/>
          <path id="Trazado_694139" data-name="Trazado 694139" d="M16.726,60.016H32.468v1.968H16.726Z"/>
          <path id="Trazado_694140" data-name="Trazado 694140" d="M16.726,44.274H24.6v1.968H16.726Z"/>
          <path id="Trazado_694141" data-name="Trazado 694141" d="M16.726,40.339H24.6v1.968H16.726Z"/>
          <path id="Trazado_694142" data-name="Trazado 694142" d="M16.726,36.4H24.6v1.968H16.726Z"/>
          <path id="Trazado_694143" data-name="Trazado 694143" d="M16.726,32.468H24.6v1.968H16.726Z"/>
        </g>
      </g>
    </g>
  </g>
</svg>
