<svg xmlns="http://www.w3.org/2000/svg" xmlns:xlink="http://www.w3.org/1999/xlink" width="98" height="98" viewBox="0 0 98 98">
  <defs>
    <clipPath id="clip-path">
      <rect id="Rectángulo_344479" data-name="Rectángulo 344479" width="61" height="61" transform="translate(1295 3150)" fill="#fff" stroke="#707070" stroke-width="1"/>
    </clipPath>
  </defs>
  <g id="Grupo_931531" data-name="Grupo 931531" transform="translate(-1279 -3146)">
    <circle id="Elipse_4818" data-name="Elipse 4818" cx="49" cy="49" r="49" transform="translate(1279 3146)" fill="#0098e8"/>
    <g id="Enmascarar_grupo_61" data-name="Enmascarar grupo 61" transform="translate(0 15)" clip-path="url(#clip-path)">
      <g id="evaluacion_1_" data-name="evaluacion (1)" transform="translate(1295 3150)">
        <g id="Grupo_930856" data-name="Grupo 930856">
          <g id="Grupo_930855" data-name="Grupo 930855">
            <path id="Trazado_694144" data-name="Trazado 694144" d="M42.783,29.482l-27.065.01-11.86,0C2.313,23.089-1.455,8.625,10.943,3.156c9.541-4.209,19.326.364,19.326.364S51.775-.659,42.783,29.482Z" fill="#b16e3d"/>
            <path id="Trazado_694145" data-name="Trazado 694145" d="M14.279,25.534l1.44,3.958-11.86,0C2.313,23.089-1.455,8.625,10.943,3.156c9.541-4.209,19.326.364,19.326.364-17.989,0-19.083,15.558-15.99,22.013Z" fill="#985e33"/>
            <path id="Trazado_694146" data-name="Trazado 694146" d="M37.729,59.622H8.461l.714-3.477a7.233,7.233,0,0,1,7.09-5.782h13.66a7.234,7.234,0,0,1,7.09,5.782Z" fill="#90dfc3"/>
            <path id="Trazado_694147" data-name="Trazado 694147" d="M19.037,50.363a2.63,2.63,0,0,0-.892.157c-1.645.586-2.969,2.762-3.319,5.625L14.4,59.622H8.461l.714-3.477a7.233,7.233,0,0,1,7.09-5.782Z" fill="#66b49d"/>
            <path id="Trazado_694148" data-name="Trazado 694148" d="M27.144,43.6v6.762a4.049,4.049,0,0,1-8.1,0V43.6Z" fill="#ffcbbe"/>
            <g id="Grupo_930853" data-name="Grupo 930853">
              <path id="Trazado_694149" data-name="Trazado 694149" d="M24.417,54.19a4.053,4.053,0,0,1-5.372-3.828V43.6h2.644v6.762a4.049,4.049,0,0,0,2.728,3.828Z" fill="#eaac9d"/>
              <path id="Trazado_694150" data-name="Trazado 694150" d="M6.18,37.97a5.291,5.291,0,0,1-5.156-6.455,2.61,2.61,0,0,1,5.156.575H40.01a2.61,2.61,0,0,1,5.156-.575A5.291,5.291,0,0,1,40.01,37.97" fill="#eaac9d"/>
              <path id="Trazado_694151" data-name="Trazado 694151" d="M19.045,43.6h8.1V49.83h-8.1Z" fill="#eaac9d"/>
            </g>
            <path id="Trazado_694152" data-name="Trazado 694152" d="M40.009,26.736v8.622A12.329,12.329,0,0,1,27.681,47.687H18.508A12.33,12.33,0,0,1,6.179,35.358v-8.38c2.6-.355,5.361-.826,8.1-1.445,6.64-1.5,13.145-3.868,16.84-7.564,0,0,2.344,7.794,8.89,8.766Z" fill="#ffcbbe"/>
            <path id="Trazado_694153" data-name="Trazado 694153" d="M26.607,47.687h-8.1A12.33,12.33,0,0,1,6.179,35.358v-8.38c2.6-.355,5.361-.826,8.1-1.445v9.825A12.329,12.329,0,0,0,26.607,47.687Z" fill="#eaac9d"/>
            <g id="Grupo_930854" data-name="Grupo 930854">
              <ellipse id="Elipse_4820" data-name="Elipse 4820" cx="2.769" cy="1.684" rx="2.769" ry="1.684" transform="translate(30.29 34.551)" fill="#e490b7"/>
              <ellipse id="Elipse_4821" data-name="Elipse 4821" cx="2.769" cy="1.684" rx="2.769" ry="1.684" transform="translate(10.362 34.551)" fill="#e490b7"/>
            </g>
          </g>
          <path id="Trazado_694154" data-name="Trazado 694154" d="M59.242,47.414a2.958,2.958,0,0,1-4.183,0l-9.2-9.2,4.183-4.183,9.2,9.2A2.958,2.958,0,0,1,59.242,47.414Z" fill="#b16e3d"/>
          <path id="Trazado_694155" data-name="Trazado 694155" d="M59.867,46.491a2.958,2.958,0,0,1-4.808.923l-9.2-9.2L47.41,36.67l9.2,9.2a2.954,2.954,0,0,0,3.261.625Z" fill="#985e33"/>
          <circle id="Elipse_4822" data-name="Elipse 4822" cx="13.715" cy="13.715" r="13.715" transform="translate(25.943 14.115)" fill="#f4dd45"/>
          <path id="Trazado_694156" data-name="Trazado 694156" d="M40.51,41.52q-.422.027-.852.027a13.716,13.716,0,0,1,0-27.431q.429,0,.852.027a13.715,13.715,0,0,0,0,27.378Z" fill="#eab14d"/>
          <circle id="Elipse_4823" data-name="Elipse 4823" cx="10.06" cy="10.06" r="10.06" transform="translate(29.598 17.77)" fill="#d0e2e7"/>
          <path id="Trazado_694157" data-name="Trazado 694157" d="M49.719,27.831a10.061,10.061,0,0,1-10.06,10.061,9.9,9.9,0,0,1-1.012-.051,10.061,10.061,0,0,0,0-20.019,9.9,9.9,0,0,1,1.012-.051,10.06,10.06,0,0,1,10.06,10.06Z" fill="#f1f4f6"/>
          <path id="Trazado_694158" data-name="Trazado 694158" d="M42.671,37.433a10.062,10.062,0,1,1,2.2-18.207S45.985,29.63,42.671,37.433Z" fill="#eaac9d"/>
          <ellipse id="Elipse_4824" data-name="Elipse 4824" cx="2.718" cy="3.902" rx="2.718" ry="3.902" transform="translate(34.513 22.659)" fill="#544f57"/>
          <path id="Trazado_694159" data-name="Trazado 694159" d="M38.152,30.234a1.98,1.98,0,0,1-.921.23c-1.5,0-2.718-1.747-2.718-3.9s1.217-3.9,2.718-3.9a1.982,1.982,0,0,1,.921.23,4.09,4.09,0,0,0-1.8,3.672,4.09,4.09,0,0,0,1.8,3.672Z" fill="#454045"/>
        </g>
        <g id="Grupo_930857" data-name="Grupo 930857">
          <ellipse id="Elipse_4825" data-name="Elipse 4825" cx="1.595" cy="2.649" rx="1.595" ry="2.649" transform="translate(12.821 28.441)"/>
          <path id="Trazado_694160" data-name="Trazado 694160" d="M26.65,36.03a.894.894,0,0,0-1.171.476,2.587,2.587,0,0,1-4.769,0,.894.894,0,0,0-1.647.694,4.375,4.375,0,0,0,8.063,0,.893.893,0,0,0-.476-1.171Z"/>
          <path id="Trazado_694161" data-name="Trazado 694161" d="M21.448,34.33h3.294a.894.894,0,1,0,0-1.787H21.448a.894.894,0,1,0,0,1.787Z"/>
          <path id="Trazado_694162" data-name="Trazado 694162" d="M39.659,16.877A10.954,10.954,0,1,0,50.613,27.831,10.966,10.966,0,0,0,39.659,16.877ZM30.492,27.831a9.164,9.164,0,0,1,13.531-8.06c.157,2.013.611,10.372-2.013,16.919a9.166,9.166,0,0,1-11.518-8.86Zm13.752,7.933A43.8,43.8,0,0,0,45.9,21.125a9.153,9.153,0,0,1-1.656,14.638Z"/>
          <path id="Trazado_694163" data-name="Trazado 694163" d="M59.874,42.6l-2.755-2.755a.894.894,0,0,0-1.264,1.264l2.755,2.755a2.064,2.064,0,1,1-2.919,2.918l-7.269-7.269a14.732,14.732,0,0,0,2.919-2.919l2,2A.894.894,0,0,0,54.6,37.329L52.344,35.07a14.6,14.6,0,0,0-6.562-20.5c-.381-4.28-1.935-7.5-4.626-9.576-4.1-3.166-9.468-2.6-10.772-2.4A27.9,27.9,0,0,0,24.333.879a23.855,23.855,0,0,0-13.751,1.46C4.327,5.1,1.171,10.389,1.2,18.068a.894.894,0,0,0,.894.89h0a.894.894,0,0,0,.89-.9,17.474,17.474,0,0,1,1.676-8.05A13.1,13.1,0,0,1,11.3,3.974,22.46,22.46,0,0,1,23.98,2.632a25.549,25.549,0,0,1,5.91,1.7.9.9,0,0,0,.548.068c.056-.011,5.682-1.043,9.637,2.018,2.093,1.619,3.376,4.117,3.829,7.436A14.6,14.6,0,0,0,27.582,19.62c-5.854,3.716-14.921,5.571-21.524,6.473a.894.894,0,0,0-.773.885v2.035a3.542,3.542,0,0,0-.691-.281,59.663,59.663,0,0,1-1.389-7.206.894.894,0,0,0-1.775.206A58.407,58.407,0,0,0,2.741,28.67,3.406,3.406,0,0,0,.152,31.318a6.181,6.181,0,0,0,5.6,7.529,13.248,13.248,0,0,0,12.4,9.729v.893H16.265a8.126,8.126,0,0,0-7.965,6.5l-.714,3.477a.894.894,0,0,0,.875,1.073H37.729a.894.894,0,0,0,.875-1.073l-.714-3.477a8.128,8.128,0,0,0-7.965-6.5H28.037v-.894a13.269,13.269,0,0,0,10.824-6.158q.4.021.8.022A14.519,14.519,0,0,0,46.9,40.516l7.529,7.529A3.851,3.851,0,0,0,59.874,42.6ZM1.787,32.684a4.42,4.42,0,0,1,.108-.972A1.641,1.641,0,0,1,3.76,30.384a1.635,1.635,0,0,1,1.517,1.5,2.779,2.779,0,0,0-2.232-.07.894.894,0,1,0,.669,1.657c.655-.264,1.283.295,1.572.611v1.277A13.3,13.3,0,0,0,5.387,37a4.4,4.4,0,0,1-3.6-4.319Zm24.463,15.9v1.781a3.156,3.156,0,0,1-6.311,0V48.581Zm4.992,2.813a6.34,6.34,0,0,1,4.9,4.931l.494,2.4H9.557l.494-2.4a6.339,6.339,0,0,1,6.214-5.068h1.97a4.942,4.942,0,0,0,9.721,0h1.97A6.33,6.33,0,0,1,31.242,51.394Zm-3.561-4.6H18.508A11.449,11.449,0,0,1,7.072,35.358v-7.6c5.813-.837,13.254-2.392,18.975-5.232A14.609,14.609,0,0,0,36.864,42.17,11.475,11.475,0,0,1,27.681,46.794Zm-.844-18.963A12.822,12.822,0,1,1,39.659,40.652,12.836,12.836,0,0,1,26.837,27.831Z"/>
          <path id="Trazado_694164" data-name="Trazado 694164" d="M37.231,21.766c-2.025,0-3.611,2.107-3.611,4.8s1.586,4.8,3.611,4.8,3.611-2.107,3.611-4.8-1.586-4.8-3.611-4.8Zm0,7.8c-.972,0-1.824-1.406-1.824-3.009s.852-3.009,1.824-3.009,1.824,1.406,1.824,3.009S38.2,29.57,37.231,29.57Z"/>
        </g>
      </g>
    </g>
  </g>
</svg>
