<svg xmlns="http://www.w3.org/2000/svg" xmlns:xlink="http://www.w3.org/1999/xlink" width="136" height="136" viewBox="0 0 136 136">
  <defs>
    <clipPath id="clip-path">
      <rect id="Rectángulo_344567" data-name="Rectángulo 344567" width="88" height="88" transform="translate(617 5035)" fill="#fff" stroke="#707070" stroke-width="1"/>
    </clipPath>
  </defs>
  <g id="Grupo_1010365" data-name="Grupo 1010365" transform="translate(-573 -5369.628)">
    <circle id="Elipse_4826" data-name="Elipse 4826" cx="68" cy="68" r="68" transform="translate(573 5369.628)" fill="#0098e8"/>
    <g id="Enmascarar_grupo_67" data-name="Enmascarar grupo 67" transform="translate(-20 359.128)" clip-path="url(#clip-path)">
      <g id="caja-de-entrega" transform="translate(617 5035)">
        <path id="Trazado_694376" data-name="Trazado 694376" d="M27.155,11.71H75.362V65.279H27.155Z" fill="#edba94"/>
        <path id="Trazado_694377" data-name="Trazado 694377" d="M42.105,14.388a16.893,16.893,0,0,0-.213-2.678H27.155V31.124A16.866,16.866,0,0,0,42.105,14.388Z" fill="#e5a87f"/>
        <path id="Trazado_694378" data-name="Trazado 694378" d="M5.759,57.243H16.473V86.706H5.759Z" fill="#9dc6fb"/>
        <path id="Trazado_694379" data-name="Trazado 694379" d="M5.759,57.243H9.208V86.706H5.759Z" fill="#80b4fb"/>
        <path id="Trazado_694380" data-name="Trazado 694380" d="M27.155,11.71H30.6V65.279H27.155Z" fill="#e5a87f"/>
        <path id="Trazado_694381" data-name="Trazado 694381" d="M16.473,59.922h5.381V86.706H16.473Z" fill="#f1f6f7"/>
        <path id="Trazado_694382" data-name="Trazado 694382" d="M56.62,26.009l-5.362-2.46L45.9,26.009V11.71H56.62Z" fill="#fd6930"/>
        <path id="Trazado_694383" data-name="Trazado 694383" d="M46.625,42.952l-6.838-6.838-6.838,6.838h4.16V54.565h5.357V42.952Z" fill="#f1f6f7"/>
        <path id="Trazado_694384" data-name="Trazado 694384" d="M59.328,49.149H70.042v5.476H59.328Z" fill="#e5a87f"/>
        <path id="Trazado_694385" data-name="Trazado 694385" d="M21.83,65.279s5.138-5.216,15.516-5.216a16.069,16.069,0,0,1,5.792,1.08l4.109,1.588h8.134a3.443,3.443,0,0,1,3.443,3.443,6.6,6.6,0,0,1-.15,1.009h0l6.536-3.773,11.927-6.888a3.443,3.443,0,0,1,4.7,1.262,3.564,3.564,0,0,1-1.259,4.7L58.78,79.528A8.572,8.572,0,0,1,53.5,81.35H21.829V65.279Z" fill="#ffcebf"/>
        <path id="Trazado_694386" data-name="Trazado 694386" d="M38.8,60.129q-.723-.066-1.452-.066c-10.379,0-15.516,5.216-15.516,5.216V81.35h3.449V65.279S29.757,60.732,38.8,60.129Z" fill="#ffb09e"/>
        <path id="Trazado_694387" data-name="Trazado 694387" d="M11.181,66.572a1.293,1.293,0,1,1,1.293-1.293A1.293,1.293,0,0,1,11.181,66.572Z"/>
        <circle id="Elipse_4838" data-name="Elipse 4838" cx="13.392" cy="13.392" r="13.392" transform="translate(11.871 0.996)" fill="#ade194"/>
        <path id="Trazado_694388" data-name="Trazado 694388" d="M15.321,14.388A13.4,13.4,0,0,1,26.988,1.106a13.393,13.393,0,1,0-1.725,26.675,13.518,13.518,0,0,0,1.725-.11A13.4,13.4,0,0,1,15.321,14.388Z" fill="#7dce6f"/>
        <g id="Grupo_931060" data-name="Grupo 931060">
          <path id="Trazado_694389" data-name="Trazado 694389" d="M37.109,55.858h5.357a1.293,1.293,0,0,0,1.293-1.293V44.245h2.866c1.266.008,2.044-1.141.915-2.208L40.7,35.2a1.294,1.294,0,0,0-1.829,0l-6.838,6.838c-.679,1.143-.351,1.963.915,2.208h2.866v10.32A1.293,1.293,0,0,0,37.109,55.858Zm2.679-17.915L43.5,41.658H42.466a1.293,1.293,0,0,0-1.293,1.293v10.32H38.4V42.952a1.293,1.293,0,0,0-1.293-1.293H36.072Z"/>
          <path id="Trazado_694390" data-name="Trazado 694390" d="M70.042,47.855H59.328a1.293,1.293,0,0,0-1.293,1.293v5.476a1.293,1.293,0,0,0,1.293,1.293H70.042a1.293,1.293,0,0,0,1.293-1.293V49.149A1.293,1.293,0,0,0,70.042,47.855Zm-1.293,5.476H60.621V50.442h8.127Z"/>
          <path id="Trazado_694391" data-name="Trazado 694391" d="M70.042,42.558H59.328a1.293,1.293,0,1,0,0,2.587H70.042a1.293,1.293,0,0,0,0-2.587Z"/>
          <path id="Trazado_694392" data-name="Trazado 694392" d="M82.962,57.139a4.831,4.831,0,0,0-6.306-1.825V35.206a1.293,1.293,0,0,0-2.587,0V56.8l-12.44,7.183H59.577a4.738,4.738,0,0,0-4.2-2.547H47.488c-3.187-1.362-6.638-2.67-10.142-2.67a28.334,28.334,0,0,0-8.9,1.367V28.721A14.859,14.859,0,0,0,39.882,13H44.6V26.009a1.293,1.293,0,0,0,1.833,1.176l4.823-2.213,4.823,2.213a1.32,1.32,0,0,0,1.833-1.176V13H74.069V29.568a1.293,1.293,0,1,0,2.587,0V11.71a1.293,1.293,0,0,0-1.293-1.293H39.4A14.966,14.966,0,0,0,28.354.029a1.293,1.293,0,1,0-.541,2.53,12.1,12.1,0,1,1-5.1,0,1.293,1.293,0,1,0-.541-2.53,14.911,14.911,0,0,0-11.6,14.36,14.907,14.907,0,0,0,15.283,14.67V61.15a21.747,21.747,0,0,0-2.715,1.487V59.922a1.293,1.293,0,0,0-1.293-1.293H17.766V57.243a1.293,1.293,0,0,0-1.293-1.293H5.759a1.293,1.293,0,0,0-1.293,1.293V86.707A1.293,1.293,0,0,0,5.759,88H21.854a1.293,1.293,0,0,0,1.293-1.293V82.644H36.968a1.293,1.293,0,1,0,0-2.587H23.147V65.839c1.345-1.111,6.1-4.484,14.2-4.484,3.531,0,9.542,2.63,9.9,2.67h8.135c2.425,0,3.17,4.3.024,4.3H39.787a1.293,1.293,0,0,0,0,2.587H55.405a4.706,4.706,0,0,0,4.345-2.854L77.785,57.644c2.425-1.4,4.511,2.362,2.151,3.725-.052.03-21.953,17.142-21.953,17.142A7.311,7.311,0,0,1,53.5,80.057H42.606a1.293,1.293,0,0,0,0,2.587H53.5a9.908,9.908,0,0,0,6.081-2.1l21.737-16.99a4.861,4.861,0,0,0,1.647-6.419ZM55.327,23.992,51.8,22.373a1.293,1.293,0,0,0-1.079,0l-3.53,1.619V13h8.138ZM7.052,58.537h8.127V85.413H7.052ZM17.766,85.413v-24.2H20.56v24.2H17.766Z"/>
          <path id="Trazado_694393" data-name="Trazado 694393" d="M19.629,14.181a1.293,1.293,0,1,0-1.969,1.677l4.024,4.725a1.294,1.294,0,0,0,.985.455h.022a1.294,1.294,0,0,0,.991-.489l7.953-10.008a1.293,1.293,0,1,0-2.025-1.609l-6.974,8.777Z"/>
        </g>
      </g>
    </g>
  </g>
</svg>
