<svg xmlns="http://www.w3.org/2000/svg" xmlns:xlink="http://www.w3.org/1999/xlink" width="136" height="136" viewBox="0 0 136 136">
  <defs>
    <clipPath id="clip-path">
      <rect id="Rectángulo_344568" data-name="Rectángulo 344568" width="88" height="88" transform="translate(886 5035)" fill="#fff" stroke="#707070" stroke-width="1"/>
    </clipPath>
  </defs>
  <g id="Grupo_1010366" data-name="Grupo 1010366" transform="translate(-864 -5377.628)">
    <circle id="Elipse_4827" data-name="Elipse 4827" cx="68" cy="68" r="68" transform="translate(864 5377.628)" fill="#0098e8"/>
    <g id="Enmascarar_grupo_68" data-name="Enmascarar grupo 68" transform="translate(1.652 367.128)" clip-path="url(#clip-path)">
      <g id="competencia" transform="translate(884.581 5033.581)">
        <g id="Grupo_931076" data-name="Grupo 931076">
          <g id="Grupo_931061" data-name="Grupo 931061">
            <path id="Trazado_694394" data-name="Trazado 694394" d="M47.619,71.748,49.677,88H41.161l1.32-17.146a8.471,8.471,0,0,0,.1-1.306h2.839Z" fill="#ff826e"/>
          </g>
          <g id="Grupo_931062" data-name="Grupo 931062">
            <path id="Trazado_694395" data-name="Trazado 694395" d="M29.75,72.883c1.774,2.086,4.755,3.676,5.734,6.6,4.854-2.427,6.6-5.9,7-8.63L41.161,88H29.806V73.806H29.75Z" fill="#b4dd7f"/>
          </g>
          <g id="Grupo_931063" data-name="Grupo 931063">
            <path id="Trazado_694396" data-name="Trazado 694396" d="M28.387,69.548a5.008,5.008,0,0,0,1.363,3.335v.923H28.387l-7.04.88a8.889,8.889,0,0,1-9.992-8.814V51.1h8.516V64.382a2.181,2.181,0,0,0,2.172,2.186,2.755,2.755,0,0,0,.341-.028l7.31-1.121a6.477,6.477,0,0,0-1.306,4.13Z" fill="#b4dd7f"/>
          </g>
          <g id="Grupo_931064" data-name="Grupo 931064">
            <path id="Trazado_694397" data-name="Trazado 694397" d="M66.7,66.269l1.76.27a2.15,2.15,0,0,0,1.874-.61,2.18,2.18,0,0,0,.639-1.547V51.1h8.516V65.872A8.892,8.892,0,0,1,70.6,74.757a9.662,9.662,0,0,1-1.107-.071l-7.04-.88H61.032V88H49.677L47.619,71.748,51.1,75.225,53.538,64.24Z" fill="#b4dd7f"/>
          </g>
          <g id="Grupo_931065" data-name="Grupo 931065">
            <path id="Trazado_694398" data-name="Trazado 694398" d="M53.538,64.24,51.1,75.225l-3.477-3.477-2.2-2.2L51.1,63.871Z" fill="#a0d468"/>
          </g>
          <g id="Grupo_931066" data-name="Grupo 931066">
            <path id="Trazado_694399" data-name="Trazado 694399" d="M29.721,65.4c-2.257-1.859-4.173-4.3-4.173-7.21,0-5.677,4.258-7.1,4.258-7.1V40.451a14.9,14.9,0,0,1,29.806,0v.71a10.859,10.859,0,0,1,2.839,7.1c0,4.258-1.419,5.677-1.419,9.935,0,3.066,5.28,4.173,5.663,8.076L53.538,64.24,51.1,63.871V59.613l-.128-.27A9.913,9.913,0,0,0,55.355,51.1V41.161H49.124a16.951,16.951,0,0,1-9.382-2.839l-4.258,2.839V51.1a9.876,9.876,0,0,0,2.91,7.026,9.748,9.748,0,0,0,2.768,1.945v.014A5.934,5.934,0,0,1,39.969,64.1c1.419,1.419,2.612,2.612,2.612,5.45l-.1,1.306c-.4,2.725-2.143,6.2-7,8.63-.979-2.924-3.96-4.514-5.734-6.6a5.008,5.008,0,0,1-1.363-3.335,6.477,6.477,0,0,1,1.306-4.13h.043Z" fill="#656d78"/>
          </g>
          <g id="Grupo_931067" data-name="Grupo 931067">
            <path id="Trazado_694400" data-name="Trazado 694400" d="M22.71,47.122a2.74,2.74,0,0,1-.809,1.945l-2.03,2.03H11.355V42.58a2.847,2.847,0,0,1,2.839-2.839h2.839a2.847,2.847,0,0,1,2.839,2.839V44l1.32.653A2.747,2.747,0,0,1,22.71,47.122Z" fill="#f0d0b4"/>
          </g>
          <g id="Grupo_931068" data-name="Grupo 931068">
            <path id="Trazado_694401" data-name="Trazado 694401" d="M79.483,42.58V51.1H70.967l-2.03-2.03a2.757,2.757,0,0,1,.71-4.414L70.967,44V42.58a2.847,2.847,0,0,1,2.839-2.839h2.839a2.847,2.847,0,0,1,2.839,2.839Z" fill="#f0d0b4"/>
          </g>
          <g id="Grupo_931069" data-name="Grupo 931069">
            <path id="Trazado_694402" data-name="Trazado 694402" d="M51.1,59.613v4.258l-5.677,5.677H42.58c0-2.839-1.192-4.031-2.612-5.45a5.934,5.934,0,0,0,1.192-4.017v-.014a9.714,9.714,0,0,0,4.258.965,9.859,9.859,0,0,0,5.55-1.689Z" fill="#f0d0b4"/>
          </g>
          <g id="Grupo_931070" data-name="Grupo 931070">
            <path id="Trazado_694403" data-name="Trazado 694403" d="M55.355,41.161V51.1a9.924,9.924,0,0,1-9.935,9.935,10.012,10.012,0,0,1-7.026-2.91,9.876,9.876,0,0,1-2.91-7.026V41.161l4.258-2.839a16.951,16.951,0,0,0,9.382,2.839Z" fill="#f0d0b4"/>
          </g>
          <g id="Grupo_931071" data-name="Grupo 931071">
            <circle id="Elipse_4839" data-name="Elipse 4839" cx="8.516" cy="8.516" r="8.516" transform="translate(36.903 2.839)" fill="#ff826e"/>
          </g>
          <g id="Grupo_931072" data-name="Grupo 931072">
            <path id="Trazado_694404" data-name="Trazado 694404" d="M18.452,28.387v1.419a4.258,4.258,0,0,1-8.516,0V28.387h8.516Z" fill="#aab2bd"/>
          </g>
          <g id="Grupo_931073" data-name="Grupo 931073">
            <path id="Trazado_694405" data-name="Trazado 694405" d="M18.452,27.266v1.121H9.935V27.322A4.2,4.2,0,0,0,8.09,23.76a11.352,11.352,0,1,1,12.235-.014A4.154,4.154,0,0,0,18.452,27.266Z" fill="#ffeaa7"/>
          </g>
          <g id="Grupo_931074" data-name="Grupo 931074">
            <circle id="Elipse_4840" data-name="Elipse 4840" cx="2.839" cy="2.839" r="2.839" transform="translate(11.355 11.355)" fill="#fcd770"/>
          </g>
          <g id="Grupo_931075" data-name="Grupo 931075">
            <path id="Trazado_694406" data-name="Trazado 694406" d="M88,14.193v5.677l-3.591,1.192c-.085.213-.156.412-.255.61l1.7,3.392L81.84,29.082l-3.392-1.7c-.2.1-.4.17-.61.255l-1.192,3.591H70.967l-1.192-3.591c-.213-.085-.412-.156-.61-.255l-3.392,1.7-4.017-4.017,1.7-3.392c-.1-.2-.17-.4-.255-.61l-3.591-1.192V14.193L63.2,13c.085-.213.156-.412.255-.61L61.756,9l4.017-4.017,3.392,1.7c.2-.1.4-.17.61-.255l1.192-3.591h5.677L77.837,6.43c.213.085.412.156.61.255l3.392-1.7L85.856,9l-1.7,3.392c.1.2.17.4.255.61Zm-8.516,2.839a5.677,5.677,0,1,0-5.677,5.677A5.676,5.676,0,0,0,79.483,17.032Z" fill="#fcd770"/>
          </g>
        </g>
        <g id="Grupo_931077" data-name="Grupo 931077">
          <path id="Trazado_694407" data-name="Trazado 694407" d="M76.645,38.322H73.806a4.263,4.263,0,0,0-4.258,4.258v.542l-.534.267a4.169,4.169,0,0,0-1.084,6.677l1.618,1.618v12.7a.761.761,0,0,1-.876.752l-.8-.123a9.493,9.493,0,0,0-3.4-4.32c-1.256-1.053-2.02-1.749-2.02-2.5a17.193,17.193,0,0,1,.667-4.623,19.816,19.816,0,0,0,.752-5.313,12.264,12.264,0,0,0-2.839-7.635v-.172a16.322,16.322,0,0,0-32.645,0V50.2c-1.514.859-4.258,3.091-4.258,7.99a9.566,9.566,0,0,0,2.587,6.245l-4.548.7a.761.761,0,0,1-.877-.752v-12.7l1.618-1.618a4.169,4.169,0,0,0-1.086-6.675l-.534-.267V42.58a4.263,4.263,0,0,0-4.258-4.258H14.193A4.263,4.263,0,0,0,9.935,42.58V65.866A10.306,10.306,0,0,0,21.522,76.094l6.865-.857V89.419H62.451V75.237l6.865.857A10.308,10.308,0,0,0,80.9,65.866V42.58A4.263,4.263,0,0,0,76.645,38.322Zm-6.36,7.606,2.1-1.052v-2.3a1.421,1.421,0,0,1,1.419-1.419h2.839a1.421,1.421,0,0,1,1.419,1.419v7.1H71.555l-1.618-1.618a1.33,1.33,0,0,1,.348-2.13Zm-40.03,6.515.971-.324V40.451a13.484,13.484,0,0,1,26.968,0v1.3l.416.416a9.379,9.379,0,0,1,2.423,6.093,17.193,17.193,0,0,1-.667,4.623,19.816,19.816,0,0,0-.752,5.313c0,2.133,1.612,3.484,3.035,4.677a14.562,14.562,0,0,1,1.725,1.607L52.516,62.653V59.946a11.334,11.334,0,0,0,4.258-8.85V39.742H49.117a15.429,15.429,0,0,1-8.588-2.6l-.786-.525L34.064,40.4V51.1a11.353,11.353,0,0,0,5.64,9.8,3.733,3.733,0,0,1-.789,2.244l-.914,1,.959.959c1.365,1.364,2.189,2.193,2.2,4.416l-.091,1.179c-.277,1.8-1.33,4.576-4.942,6.809a15.858,15.858,0,0,0-3.368-3.683c-.593-.522-1.1-.986-1.533-1.431v0h0a4.014,4.014,0,0,1-1.417-2.839,5.927,5.927,0,0,1,.341-2.042A30.508,30.508,0,0,0,36.4,70.877l1-2.658c-2.9-1.087-10.435-5.01-10.435-10.025,0-4.523,3.165-5.707,3.287-5.75Zm15.164,7.169A8.525,8.525,0,0,1,36.9,51.1V41.92l2.861-1.908a18.254,18.254,0,0,0,9.352,2.568h4.819V51.1A8.525,8.525,0,0,1,45.419,59.613Zm0,2.839a11.277,11.277,0,0,0,4.258-.836v1.668l-4.846,4.846h-.942a7.461,7.461,0,0,0-2.1-4.194,6.614,6.614,0,0,0,.622-1.9,11.323,11.323,0,0,0,3.008.417ZM43.9,70.967h.934L46.266,72.4l1.8,14.178H42.694l1.2-15.567c0-.016,0-.03.006-.045Zm3.528-1.419,4.166-4.166.23.035-1.55,6.975ZM14.193,41.161h2.839a1.421,1.421,0,0,1,1.419,1.419v2.3l2.1,1.052a1.33,1.33,0,0,1,.348,2.13l-1.618,1.618H12.774v-7.1A1.421,1.421,0,0,1,14.193,41.161ZM21.17,73.278a7.467,7.467,0,0,1-8.4-7.412V52.516h5.677V64.387a3.576,3.576,0,0,0,1.055,2.545A3.616,3.616,0,0,0,22.6,67.944l4.667-.718a8.987,8.987,0,0,0-.3,2.322,5.907,5.907,0,0,0,.768,2.92Zm10.056,2.979a9.111,9.111,0,0,1,2.913,3.675l.517,1.553,1.463-.732a16.37,16.37,0,0,0,4.418-3.141l-.69,8.969H31.226Zm44.651-5.11a7.417,7.417,0,0,1-6.208,2.13l-7.041-.88-3.015-.011V86.58H50.928l-1.384-10.9,2.377,2.377,2.712-12.206,13.607,2.094a3.623,3.623,0,0,0,3.091-1.012,3.576,3.576,0,0,0,1.055-2.545V52.516h5.677v13.35a7.427,7.427,0,0,1-2.187,5.281Z"/>
          <path id="Trazado_694408" data-name="Trazado 694408" d="M45.419,21.29a9.935,9.935,0,1,0-9.935-9.935A9.947,9.947,0,0,0,45.419,21.29Zm0-17.032a7.1,7.1,0,1,1-7.1,7.1A7.1,7.1,0,0,1,45.419,4.258Z"/>
          <path id="Trazado_694409" data-name="Trazado 694409" d="M50.681,9.52,48.674,7.513,44,12.187l-1.835-1.835-2.007,2.007L44,16.2Z"/>
          <path id="Trazado_694410" data-name="Trazado 694410" d="M14.193,35.484a5.683,5.683,0,0,0,5.677-5.677V27.263a2.769,2.769,0,0,1,1.223-2.326,12.776,12.776,0,1,0-13.771.02,2.794,2.794,0,0,1,1.192,2.366v2.484A5.683,5.683,0,0,0,14.193,35.484Zm0-2.839a2.842,2.842,0,0,1-2.839-2.839h5.677A2.842,2.842,0,0,1,14.193,32.645ZM12.774,14.193a1.419,1.419,0,1,1,1.419,1.419A1.421,1.421,0,0,1,12.774,14.193ZM4.343,12.881A9.973,9.973,0,0,1,13.03,4.323,10.6,10.6,0,0,1,14.2,4.258,9.826,9.826,0,0,1,20.81,6.782a9.93,9.93,0,0,1-1.25,15.768,5.529,5.529,0,0,0-2.509,4.418H15.613V18.19a4.258,4.258,0,1,0-2.839,0v8.777H11.333a5.526,5.526,0,0,0-2.482-4.4A9.9,9.9,0,0,1,4.343,12.881Z"/>
          <path id="Trazado_694411" data-name="Trazado 694411" d="M89.419,13.17l-3.484-1.162,1.642-3.284L82.115,3.262,78.829,4.905,77.668,1.419H69.945L68.784,4.905,65.5,3.262,60.037,8.723l1.642,3.284L58.193,13.17v7.723l3.484,1.162L60.036,25.34,65.5,30.8l3.286-1.644,1.161,3.487h7.723l1.161-3.486L82.113,30.8l5.462-5.462-1.642-3.284,3.486-1.162ZM86.58,18.848l-3.256,1.086-.24.626c-.071.182-.142.362-.22.538l-.275.615,1.534,3.069-2.568,2.568-3.069-1.534-.615.275c-.175.078-.352.149-.532.217l-.632.238-1.087,3.262H71.989L70.9,26.545l-.632-.238c-.18-.068-.358-.139-.532-.217l-.615-.275-3.069,1.534L63.487,24.78l1.534-3.069-.275-.615c-.079-.177-.149-.356-.22-.538l-.24-.626-3.255-1.086V15.215l3.256-1.086.24-.626c.071-.182.142-.362.22-.538l.275-.615L63.489,9.283l2.568-2.568,3.069,1.534.615-.275c.175-.078.352-.149.532-.217l.632-.238,1.087-3.26h3.632L76.71,7.52l.632.238c.18.068.358.139.532.217l.615.275,3.069-1.534,2.568,2.568L82.59,12.353l.275.615c.079.177.149.356.22.538l.24.626,3.255,1.086Z"/>
          <path id="Trazado_694412" data-name="Trazado 694412" d="M73.806,9.935a7.1,7.1,0,1,0,7.1,7.1A7.1,7.1,0,0,0,73.806,9.935Zm0,11.355a4.258,4.258,0,1,1,4.258-4.258A4.263,4.263,0,0,1,73.806,21.29Z"/>
        </g>
      </g>
    </g>
  </g>
</svg>
