<svg xmlns="http://www.w3.org/2000/svg" xmlns:xlink="http://www.w3.org/1999/xlink" width="136" height="136" viewBox="0 0 136 136">
  <defs>
    <clipPath id="clip-path">
      <rect id="Rectángulo_344569" data-name="Rectángulo 344569" width="88" height="88" transform="translate(1159 5035)" fill="#fff" stroke="#707070" stroke-width="1"/>
    </clipPath>
  </defs>
  <g id="Grupo_1010367" data-name="Grupo 1010367" transform="translate(-1132.174 -5366.628)">
    <circle id="Elipse_4828" data-name="Elipse 4828" cx="68" cy="68" r="68" transform="translate(1132.174 5366.628)" fill="#0098e8"/>
    <g id="Enmascarar_grupo_69" data-name="Enmascarar grupo 69" transform="translate(-3 356.128)" clip-path="url(#clip-path)">
      <g id="habilidades" transform="translate(1157.581 5033.581)">
        <g id="Grupo_931094" data-name="Grupo 931094">
          <g id="Grupo_931078" data-name="Grupo 931078">
            <path id="Trazado_694413" data-name="Trazado 694413" d="M65.29,18.267a15.486,15.486,0,0,1-2.228,7.991,14.3,14.3,0,0,1-1.675,2.257l-6.018,6.77a5.712,5.712,0,0,0-1.434,3.775v3.52H36.9v-3.52a5.712,5.712,0,0,0-1.434-3.775l-6.018-6.77a14.3,14.3,0,0,1-1.675-2.257,15.53,15.53,0,0,1-2.228-7.991A15.4,15.4,0,0,1,40.977,2.839h8.885A15.43,15.43,0,0,1,65.29,18.267Z" fill="#ffeaa7"/>
          </g>
          <g id="Grupo_931079" data-name="Grupo 931079">
            <path id="Trazado_694414" data-name="Trazado 694414" d="M58.194,17.032,45.419,31.226l4.258-14.194Z" fill="#69d6f4"/>
          </g>
          <g id="Grupo_931080" data-name="Grupo 931080">
            <path id="Trazado_694415" data-name="Trazado 694415" d="M53.935,11.355l-4.258,5.677-4.258-5.677Z" fill="#69d6f4"/>
          </g>
          <g id="Grupo_931081" data-name="Grupo 931081">
            <path id="Trazado_694416" data-name="Trazado 694416" d="M45.419,11.355l-4.258,5.677L36.9,11.355Z" fill="#69d6f4"/>
          </g>
          <g id="Grupo_931082" data-name="Grupo 931082">
            <path id="Trazado_694417" data-name="Trazado 694417" d="M41.161,17.032l4.258,14.194L32.645,17.032Z" fill="#69d6f4"/>
          </g>
          <g id="Grupo_931083" data-name="Grupo 931083">
            <path id="Trazado_694418" data-name="Trazado 694418" d="M49.677,17.032,45.419,31.226,41.161,17.032Z" fill="#4fc1e9"/>
          </g>
          <g id="Grupo_931084" data-name="Grupo 931084">
            <path id="Trazado_694419" data-name="Trazado 694419" d="M53.935,11.355l4.258,5.677H49.677Z" fill="#4fc1e9"/>
          </g>
          <g id="Grupo_931085" data-name="Grupo 931085">
            <path id="Trazado_694420" data-name="Trazado 694420" d="M45.419,11.355l4.258,5.677H41.161Z" fill="#4fc1e9"/>
          </g>
          <g id="Grupo_931086" data-name="Grupo 931086">
            <path id="Trazado_694421" data-name="Trazado 694421" d="M36.9,11.355l4.258,5.677H32.645Z" fill="#4fc1e9"/>
          </g>
          <g id="Grupo_931087" data-name="Grupo 931087">
            <path id="Trazado_694422" data-name="Trazado 694422" d="M88,73.806v5.677H84.665c-.17.4-.17.426-.341.823l2.356,2.356L82.663,86.68l-2.356-2.356c-.4.17-.426.17-.823.341V88H73.806V84.665c-.4-.17-.426-.185-.823-.341L70.627,86.68,66.61,82.663l2.356-2.356c-.156-.4-.17-.426-.341-.823H65.29V73.806h3.335c.17-.4.17-.426.341-.823L66.61,70.627l4.017-4.017,2.356,2.356c.4-.17.426-.17.823-.341V65.29h5.677v3.335c.4.17.426.17.823.341l2.356-2.356,4.017,4.017-2.356,2.356c.17.4.17.426.341.823Zm-8.516,2.839a2.839,2.839,0,1,0-2.839,2.839A2.847,2.847,0,0,0,79.484,76.645Z" fill="#fcd770"/>
          </g>
          <g id="Grupo_931088" data-name="Grupo 931088">
            <path id="Trazado_694423" data-name="Trazado 694423" d="M20.212,43.9,25.421,49.1a5.681,5.681,0,0,0-1.05,8.857,5.976,5.976,0,0,0,1.05.823L20.212,63.97l-2.356-2.356c-.4.17-.426.17-.823.341V65.29H11.355V61.955c-.4-.17-.426-.185-.823-.341L8.175,63.97,4.159,59.954,6.515,57.6c-.156-.4-.17-.426-.341-.823H2.839V51.1H6.174c.17-.4.17-.426.341-.823L4.159,47.917,8.175,43.9l2.356,2.356c.4-.17.426-.17.823-.341V42.581h5.677v3.335c.4.17.426.17.823.341ZM17.032,53.935a2.839,2.839,0,1,0-2.839,2.839A2.847,2.847,0,0,0,17.032,53.935Z" fill="#fcd770"/>
          </g>
          <g id="Grupo_931089" data-name="Grupo 931089">
            <path id="Trazado_694424" data-name="Trazado 694424" d="M62.452,48.258a5.677,5.677,0,1,1,0,11.355Z" fill="#f0d0b4"/>
          </g>
          <g id="Grupo_931090" data-name="Grupo 931090">
            <path id="Trazado_694425" data-name="Trazado 694425" d="M51.1,76.361A26.959,26.959,0,0,0,53.935,88H36.9a26.959,26.959,0,0,0,2.839-11.639,14.262,14.262,0,0,0,2.839.284h5.677A14.262,14.262,0,0,0,51.1,76.361Z" fill="#f0d0b4"/>
          </g>
          <g id="Grupo_931091" data-name="Grupo 931091">
            <path id="Trazado_694426" data-name="Trazado 694426" d="M62.452,59.613v2.839A14.178,14.178,0,0,1,48.258,76.645H42.581A14.178,14.178,0,0,1,28.387,62.452V42.581H62.452V59.613Z" fill="#f0d0b4"/>
          </g>
          <g id="Grupo_931092" data-name="Grupo 931092">
            <path id="Trazado_694427" data-name="Trazado 694427" d="M28.387,48.258V59.613a5.727,5.727,0,0,1-2.966-.837,5.976,5.976,0,0,1-1.05-.823,5.68,5.68,0,0,1,4.017-9.694Z" fill="#f0d0b4"/>
          </g>
          <g id="Grupo_931093" data-name="Grupo 931093">
            <path id="Trazado_694428" data-name="Trazado 694428" d="M39.742,65.29H51.1a5.677,5.677,0,1,1-11.355,0Z" fill="#ff826e"/>
          </g>
        </g>
        <g id="Grupo_931095" data-name="Grupo 931095">
          <path id="Trazado_694429" data-name="Trazado 694429" d="M38.323,65.29a7.1,7.1,0,0,0,14.194,0V63.871H38.323ZM49.435,66.71a4.259,4.259,0,0,1-8.031,0Z"/>
          <path id="Trazado_694430" data-name="Trazado 694430" d="M44,55.355h2.839v5.677H44Z"/>
          <path id="Trazado_694431" data-name="Trazado 694431" d="M41.161,51.1V49.677H38.323V51.1a1.419,1.419,0,1,1-2.839,0V49.677H32.645V51.1a4.258,4.258,0,0,0,8.516,0Z"/>
          <path id="Trazado_694432" data-name="Trazado 694432" d="M55.355,51.1a1.419,1.419,0,1,1-2.839,0V49.677H49.677V51.1a4.258,4.258,0,0,0,8.516,0V49.677H55.355Z"/>
          <path id="Trazado_694433" data-name="Trazado 694433" d="M63.871,62.452V60.889a7.1,7.1,0,0,0,0-13.907V41.161H55.355v-2.1a4.261,4.261,0,0,1,1.076-2.829l6.024-6.777A16.845,16.845,0,0,0,49.865,1.419H40.974a16.844,16.844,0,0,0-12.59,28.035l6.024,6.777a4.262,4.262,0,0,1,1.076,2.83v2.1H26.968v5.821a6.965,6.965,0,0,0-1.269.393l-5.483-5.483-1.764,1.763V41.161H9.935v2.494L8.173,41.892,2.15,47.915l1.763,1.763H1.419v8.516H3.913L2.15,59.956l6.022,6.022,1.763-1.763V66.71h8.516V64.216l1.763,1.763L25.7,60.5a6.965,6.965,0,0,0,1.269.393v1.563A15.628,15.628,0,0,0,38.271,77.446a25.647,25.647,0,0,1-2.639,9.918l-1.026,2.055H56.232L55.2,87.366a25.647,25.647,0,0,1-2.639-9.918,15.631,15.631,0,0,0,11.305-15Zm2.839-8.516a4.252,4.252,0,0,1-2.839,4V49.94A4.249,4.249,0,0,1,66.71,53.935ZM36.529,34.347,30.5,27.57A14.007,14.007,0,0,1,40.974,4.258h8.891A14.007,14.007,0,0,1,60.334,27.57L54.31,34.346a7.086,7.086,0,0,0-1.794,4.717v2.1H38.323v-2.1A7.08,7.08,0,0,0,36.529,34.347ZM18.189,59.938l-2.576,1.069v2.864H12.774V61.005L10.2,59.937,8.173,61.965,6.164,59.956,8.19,57.931,7.124,55.355H4.258V52.516H7.122L8.191,49.94,6.164,47.915l2.008-2.008L10.2,47.933l2.576-1.069V44h2.839v2.864l2.576,1.069,2.025-2.027L23.307,49a7.051,7.051,0,0,0,0,9.874l-3.093,3.093Zm5.94-6a4.252,4.252,0,0,1,2.839-4v7.992a4.249,4.249,0,0,1-2.839-4ZM51.741,86.581H39.1a28.532,28.532,0,0,0,1.963-8.593c.5.048,1.006.077,1.52.077h5.677c.514,0,1.021-.028,1.52-.077a28.532,28.532,0,0,0,1.963,8.593ZM48.258,75.226H42.581A12.788,12.788,0,0,1,29.806,62.452V44H61.032V62.452A12.788,12.788,0,0,1,48.258,75.226Z"/>
          <path id="Trazado_694434" data-name="Trazado 694434" d="M78.065,61.032V58.194H80.9V55.355H78.065V52.516H75.226v2.839H72.387v2.839h2.839v2.839Z"/>
          <path id="Trazado_694435" data-name="Trazado 694435" d="M80.9,44H78.065V41.161H75.226V44H72.387v2.839h2.839v2.839h2.839V46.839H80.9Z"/>
          <path id="Trazado_694436" data-name="Trazado 694436" d="M15.613,69.548H12.774v2.839H9.935v2.839h2.839v2.839h2.839V75.226h2.839V72.387H15.613Z"/>
          <path id="Trazado_694437" data-name="Trazado 694437" d="M15.613,80.9H12.774v2.839H9.935v2.839h2.839v2.839h2.839V86.581h2.839V83.742H15.613Z"/>
          <path id="Trazado_694438" data-name="Trazado 694438" d="M44,35.484H41.161v2.839h8.516V35.484H46.839V31.771l13.19-14.656L54.645,9.935H36.194L30.81,17.115,44,31.771Zm3.77-17.032-2.35,7.835-2.35-7.835ZM44,15.613l1.419-1.893,1.419,1.893Zm6.733,2.839h4.274L48.6,25.573Zm1.783-2.839,1.419-1.893,1.419,1.893Zm-2.839-.945-1.419-1.893H51.1Zm-8.516,0-1.419-1.893h2.839Zm-2.839.945H35.484L36.9,13.719Zm1.783,2.839,2.136,7.121-6.41-7.121Z"/>
          <path id="Trazado_694439" data-name="Trazado 694439" d="M8.516,22.71h9.348a.588.588,0,0,1,.416,1L11.233,30.76A4.43,4.43,0,0,0,17.5,37.025l7.635-7.635-2.007-2.007-7.635,7.635a1.592,1.592,0,0,1-2.251-2.251l7.047-7.047a3.426,3.426,0,0,0-2.423-5.849H8.516a1.419,1.419,0,0,1,0-2.839h9.348a3.426,3.426,0,0,0,2.423-5.849L16.078,6.975A1.592,1.592,0,0,1,18.33,4.724l4.8,4.8,2.007-2.007-4.8-4.8a4.43,4.43,0,0,0-6.265,6.265L18.28,13.19a.588.588,0,0,1-.416,1H8.516a4.258,4.258,0,1,0,0,8.516Z"/>
          <path id="Trazado_694440" data-name="Trazado 694440" d="M72.509,4.724A1.592,1.592,0,0,1,74.76,6.975l-4.208,4.208a3.426,3.426,0,0,0,2.423,5.849h9.348a1.419,1.419,0,1,1,0,2.839H72.975a3.426,3.426,0,0,0-2.423,5.849L77.6,32.767a1.592,1.592,0,0,1-2.251,2.251l-7.635-7.635-2.007,2.007,7.635,7.635a4.43,4.43,0,0,0,6.265-6.265l-7.047-7.047a.588.588,0,0,1,.416-1h9.348a4.258,4.258,0,1,0,0-8.516H72.975a.588.588,0,0,1-.416-1l4.208-4.208A4.43,4.43,0,0,0,70.5,2.717l-4.8,4.8L67.713,9.52Z"/>
          <path id="Trazado_694441" data-name="Trazado 694441" d="M76.645,72.387A4.258,4.258,0,1,0,80.9,76.645,4.263,4.263,0,0,0,76.645,72.387Zm0,5.677a1.419,1.419,0,1,1,1.419-1.419A1.42,1.42,0,0,1,76.645,78.065Z"/>
          <path id="Trazado_694442" data-name="Trazado 694442" d="M89.419,72.387H86.926l1.763-1.763L82.666,64.6,80.9,66.365V63.871H72.387v2.494L70.624,64.6,64.6,70.624l1.763,1.763H63.871V80.9h2.494L64.6,82.666l6.022,6.022,1.763-1.763v2.494H80.9V86.926l1.763,1.763,6.022-6.022L86.926,80.9h2.494Zm-2.839,5.677H83.716l-1.069,2.576,2.027,2.025-2.008,2.008-2.025-2.027-2.576,1.069v2.864H75.226V83.715l-2.573-1.069-2.028,2.028-2.008-2.008,2.025-2.025-1.066-2.576H66.71V75.226h2.864l1.069-2.576-2.027-2.025,2.008-2.008,2.025,2.027,2.576-1.069V66.71h2.839v2.864l2.576,1.069,2.025-2.027,2.008,2.008L82.648,72.65l1.069,2.576h2.864Z"/>
          <path id="Trazado_694443" data-name="Trazado 694443" d="M14.194,49.677a4.258,4.258,0,1,0,4.258,4.258A4.263,4.263,0,0,0,14.194,49.677Zm0,5.677a1.419,1.419,0,1,1,1.419-1.419A1.42,1.42,0,0,1,14.194,55.355Z"/>
        </g>
      </g>
    </g>
  </g>
</svg>
