<svg xmlns="http://www.w3.org/2000/svg" xmlns:xlink="http://www.w3.org/1999/xlink" width="295" height="542" viewBox="0 0 295 542">
  <defs>
    <clipPath id="clip-path">
      <rect id="Rectángulo_344926" data-name="Rectángulo 344926" width="295" height="542" rx="20" transform="translate(1125 3706)" fill="#0098e8" opacity="0.34"/>
    </clipPath>
    <clipPath id="clip-path-2">
      <rect id="Rectángulo_344716" data-name="Rectángulo 344716" width="295" height="542" rx="19" transform="translate(1125 3706)" fill="#dbeffc" opacity="0.28"/>
    </clipPath>
    <clipPath id="clip-path-3">
      <rect id="Rectángulo_344715" data-name="Rectángulo 344715" width="575.03" height="531.514" fill="none"/>
    </clipPath>
    <clipPath id="clip-path-7">
      <rect id="Rectángulo_344682" data-name="Rectángulo 344682" width="37.335" height="43.053" fill="none"/>
    </clipPath>
    <clipPath id="clip-path-9">
      <rect id="Rectángulo_344686" data-name="Rectángulo 344686" width="37.336" height="51.433" fill="none"/>
    </clipPath>
    <clipPath id="clip-path-11">
      <rect id="Rectángulo_344693" data-name="Rectángulo 344693" width="35.153" height="36.116" fill="none"/>
    </clipPath>
    <clipPath id="clip-path-12">
      <rect id="Rectángulo_344694" data-name="Rectángulo 344694" width="35.155" height="36.116" fill="none"/>
    </clipPath>
    <clipPath id="clip-path-14">
      <rect id="Rectángulo_344696" data-name="Rectángulo 344696" width="35.153" height="36.115" fill="none"/>
    </clipPath>
    <clipPath id="clip-path-15">
      <rect id="Rectángulo_344697" data-name="Rectángulo 344697" width="35.155" height="36.115" fill="none"/>
    </clipPath>
    <clipPath id="clip-path-20">
      <rect id="Rectángulo_344702" data-name="Rectángulo 344702" width="21.037" height="21.612" fill="none"/>
    </clipPath>
    <clipPath id="clip-path-23">
      <rect id="Rectángulo_344705" data-name="Rectángulo 344705" width="12.118" height="26.229" fill="none"/>
    </clipPath>
    <clipPath id="clip-path-24">
      <rect id="Rectángulo_344706" data-name="Rectángulo 344706" width="37.931" height="24.301" fill="none"/>
    </clipPath>
    <clipPath id="clip-path-25">
      <rect id="Rectángulo_344707" data-name="Rectángulo 344707" width="7.624" height="19.08" fill="none"/>
    </clipPath>
    <clipPath id="clip-path-26">
      <rect id="Rectángulo_344708" data-name="Rectángulo 344708" width="6.052" height="36.38" fill="none"/>
    </clipPath>
    <clipPath id="clip-path-27">
      <rect id="Rectángulo_344709" data-name="Rectángulo 344709" width="23.148" height="28.594" fill="none"/>
    </clipPath>
    <clipPath id="clip-path-28">
      <rect id="Rectángulo_344710" data-name="Rectángulo 344710" width="22.549" height="27.892" fill="none"/>
    </clipPath>
    <clipPath id="clip-path-29">
      <rect id="Rectángulo_344711" data-name="Rectángulo 344711" width="27.18" height="11.115" fill="none"/>
    </clipPath>
    <clipPath id="clip-path-30">
      <rect id="Rectángulo_344712" data-name="Rectángulo 344712" width="23.898" height="47.871" fill="none"/>
    </clipPath>
  </defs>
  <g id="Enmascarar_grupo_103" data-name="Enmascarar grupo 103" transform="translate(-1125 -3706)" clip-path="url(#clip-path)">
    <rect id="Rectángulo_344504" data-name="Rectángulo 344504" width="295" height="542" rx="20" transform="translate(1125 3706)" fill="#ed9aa9" opacity="0.78"/>
    <g id="Enmascarar_grupo_89" data-name="Enmascarar grupo 89" clip-path="url(#clip-path-2)">
      <g id="Grupo_931605" data-name="Grupo 931605" transform="translate(1024.97 3716.486)">
        <g id="Grupo_931604" data-name="Grupo 931604" transform="translate(0 0)" clip-path="url(#clip-path-3)">
          <path id="Trazado_700322" data-name="Trazado 700322" d="M0,0H268.705V169.641H0Z" transform="translate(240.597)" fill="#f8f8f8"/>
          <g id="Grupo_931526" data-name="Grupo 931526">
            <g id="Grupo_931525" data-name="Grupo 931525" clip-path="url(#clip-path-3)">
              <path id="Trazado_695577" data-name="Trazado 695577" d="M109.625,112.32c18.632-7.207,40.064,12.723,58.329,4.6,10.628-4.729,15.448-16.992,20.656-27.56s14.179-21.715,25.713-20.49C225.956,70.1,235.361,83.841,246.6,80.53c7.082-2.087,10.618-10.1,12.394-17.4S262,47.769,267.4,42.65s16.651-3.749,17.5,3.72V136.3H74.768s28.409-21.488,34.857-23.983" transform="translate(195.845 10.337)" fill="#ebebeb"/>
              <path id="Trazado_695578" data-name="Trazado 695578" d="M65.441,116.355c0,.193,50.934.349,113.747.349,62.835,0,113.756-.156,113.756-.349s-50.922-.348-113.756-.348c-62.813,0-113.747.156-113.747.348" transform="translate(199.56 30.285)" fill="#e0e0e0"/>
              <path id="Trazado_695579" data-name="Trazado 695579" d="M65.441,85.206c0,.193,50.934.349,113.747.349,62.835,0,113.756-.156,113.756-.349s-50.922-.348-113.756-.348c-62.813,0-113.747.156-113.747.348" transform="translate(199.56 22.153)" fill="#e0e0e0"/>
              <path id="Trazado_695580" data-name="Trazado 695580" d="M65.441,54.057c0,.193,50.934.348,113.747.348,62.835,0,113.756-.155,113.756-.348s-50.922-.348-113.756-.348c-62.813,0-113.747.155-113.747.348" transform="translate(199.56 14.021)" fill="#e0e0e0"/>
              <path id="Trazado_695581" data-name="Trazado 695581" d="M65.441,24.454c0,.193,50.934.349,113.747.349,62.835,0,113.756-.156,113.756-.349s-50.922-.348-113.756-.348c-62.813,0-113.747.155-113.747.348" transform="translate(199.56 6.293)" fill="#e0e0e0"/>
              <rect id="Rectángulo_344674" data-name="Rectángulo 344674" width="18.361" height="57.347" transform="translate(207.507 136.298)" fill="#f5f5f5"/>
              <rect id="Rectángulo_344675" data-name="Rectángulo 344675" width="18.361" height="44.247" transform="translate(180.092 149.398)" fill="#f5f5f5"/>
              <rect id="Rectángulo_344676" data-name="Rectángulo 344676" width="18.361" height="26.277" transform="translate(154.712 167.368)" fill="#f5f5f5"/>
            </g>
          </g>
          <g id="Grupo_931528" data-name="Grupo 931528">
            <g id="Grupo_931527" data-name="Grupo 931527" clip-path="url(#clip-path-3)">
              <path id="Trazado_695582" data-name="Trazado 695582" d="M321.694,203.516l-.472-2.549c-3.98-21.482-18.7-38.72-38.633-44.189a50.934,50.934,0,0,0-7.836-1.507c-19.116-2.129-39.49,6.764-52.234,22.8-7.494,9.43-12.848,21.429-22.944,27.471-13.14,7.864-29.013,2.729-42.7-2.551s-29.588-10.375-42.7-2.453c-8.211,4.962-13.5,14.241-16.285,23.745-7.375,25.159,1.119,52.908,17.881,71.064s40.66,27.579,64.875,30.587c33.922,4.214,70.416-3.937,98.46-26.386s46.233-60,42.59-96.032" transform="translate(132.803 40.454)" fill="#f5f5f5"/>
            </g>
          </g>
          <rect id="Rectángulo_344679" data-name="Rectángulo 344679" width="37.335" height="72.854" transform="translate(517.089 457.98)" fill="#ff725e"/>
          <rect id="Rectángulo_344680" data-name="Rectángulo 344680" width="37.336" height="43.054" transform="translate(436.027 487.78)" fill="#ff725e"/>
          <g id="Grupo_931533" data-name="Grupo 931533">
            <g id="Grupo_931532" data-name="Grupo 931532" clip-path="url(#clip-path-3)">
              <g id="Grupo_931531" data-name="Grupo 931531" transform="translate(436.027 487.781)" opacity="0.79">
                <g id="Grupo_931530" data-name="Grupo 931530">
                  <g id="Grupo_931529" data-name="Grupo 931529" clip-path="url(#clip-path-7)">
                    <rect id="Rectángulo_344681" data-name="Rectángulo 344681" width="37.335" height="43.053" transform="translate(0 0.001)" fill="#fff"/>
                  </g>
                </g>
              </g>
            </g>
          </g>
          <path id="Trazado_695583" data-name="Trazado 695583" d="M177.688,343.691V441.36l-37.334-.242V343.691Z" transform="translate(220.348 89.724)" fill="#be5668"/>
          <rect id="Rectángulo_344684" data-name="Rectángulo 344684" width="37.336" height="51.434" transform="translate(281.842 479.4)" fill="#ff725e"/>
          <g id="Grupo_931538" data-name="Grupo 931538">
            <g id="Grupo_931537" data-name="Grupo 931537" clip-path="url(#clip-path-3)">
              <g id="Grupo_931536" data-name="Grupo 931536" transform="translate(281.841 479.401)" opacity="0.79">
                <g id="Grupo_931535" data-name="Grupo 931535">
                  <g id="Grupo_931534" data-name="Grupo 931534" clip-path="url(#clip-path-9)">
                    <rect id="Rectángulo_344685" data-name="Rectángulo 344685" width="37.336" height="51.434" transform="translate(0 0)" fill="#fff"/>
                  </g>
                </g>
              </g>
            </g>
          </g>
          <rect id="Rectángulo_344688" data-name="Rectángulo 344688" width="37.335" height="97.418" transform="translate(204.313 433.416)" fill="#ff725e"/>
          <g id="Grupo_931573" data-name="Grupo 931573">
            <g id="Grupo_931572" data-name="Grupo 931572" clip-path="url(#clip-path-3)">
              <g id="Grupo_931541" data-name="Grupo 931541" transform="translate(127.523 308.838)" opacity="0.79">
                <path id="Trazado_700321" data-name="Trazado 700321" d="M321.694,203.516l-.472-2.549c-3.98-21.482-18.7-38.72-38.633-44.189a50.934,50.934,0,0,0-7.836-1.507c-19.116-2.129-39.49,6.764-52.234,22.8-7.494,9.43-12.848,21.429-22.944,27.471-13.14,7.864-29.013,2.729-42.7-2.551s-29.588-10.375-42.7-2.453c-8.211,4.962-13.5,14.241-16.285,23.745-7.375,25.159,1.119,52.908,17.881,71.064s40.66,27.579,64.875,30.587c33.922,4.214,70.416-3.937,98.46-26.386s46.233-60,42.59-96.032" transform="translate(-269.72 -135.385)" fill="#f5f5f5"/>
              </g>
              <path id="Trazado_695584" data-name="Trazado 695584" d="M16.461,390.675c-.291.3,7.8,9.095,18.063,19.643s18.831,18.859,19.123,18.559-7.8-9.092-18.066-19.644-18.829-18.858-19.12-18.559" transform="translate(500.628 101.987)" fill="#fff"/>
              <path id="Trazado_695585" data-name="Trazado 695585" d="M80.548,391.183c-.291.3,7.8,9.095,18.065,19.644s18.83,18.859,19.121,18.56-7.8-9.093-18.066-19.645-18.829-18.858-19.12-18.559" transform="translate(355.723 102.12)" fill="#ff725e"/>
              <path id="Trazado_695586" data-name="Trazado 695586" d="M202.949,390.65c-.291.3,7.8,9.095,18.065,19.644s18.83,18.859,19.121,18.56-7.8-9.094-18.066-19.645-18.829-18.858-19.12-18.559" transform="translate(78.967 101.981)" fill="#ff725e"/>
              <path id="Trazado_695587" data-name="Trazado 695587" d="M16.061,363.765c-.291.3,7.8,9.095,18.065,19.642s18.83,18.86,19.121,18.56-7.8-9.092-18.066-19.643-18.829-18.858-19.12-18.559" transform="translate(501.532 94.962)" fill="#fff"/>
              <path id="Trazado_695588" data-name="Trazado 695588" d="M140.927,391.114c-.291.3,7.8,9.095,18.063,19.643s18.831,18.859,19.123,18.56-7.8-9.094-18.066-19.645-18.829-18.858-19.12-18.559" transform="translate(219.203 102.102)" fill="#fff"/>
              <path id="Trazado_695589" data-name="Trazado 695589" d="M140.528,364.2c-.291.3,7.8,9.095,18.065,19.643s18.829,18.859,19.121,18.56-7.8-9.094-18.066-19.645S140.819,363.9,140.528,364.2" transform="translate(220.105 95.077)" fill="#fff"/>
              <path id="Trazado_695590" data-name="Trazado 695590" d="M140.529,343.694c-.291.3,5.193,6.419,12.247,13.666s13.012,12.883,13.3,12.584-5.191-6.418-12.247-13.667-13.012-12.882-13.3-12.583" transform="translate(231.738 89.722)" fill="#fff"/>
              <path id="Trazado_695591" data-name="Trazado 695591" d="M325.225,390.65c-.291.3,7.8,9.095,18.065,19.644s18.83,18.859,19.121,18.56-7.8-9.094-18.066-19.645-18.829-18.858-19.12-18.559" transform="translate(-197.506 91.981)" fill="#be5668"/>
              <path id="Trazado_695592" data-name="Trazado 695592" d="M324.826,363.74c-.291.3,7.8,9.095,18.065,19.643s18.83,18.859,19.121,18.559-7.8-9.092-18.066-19.645-18.829-18.857-19.12-18.558" transform="translate(-196.604 89.955)" fill="#be5668"/>
              <path id="Trazado_695593" data-name="Trazado 695593" d="M324.826,333.751c-.291.3,7.8,9.095,18.065,19.642s18.83,18.86,19.121,18.56-7.8-9.092-18.066-19.643-18.829-18.859-19.12-18.559" transform="translate(-196.604 87.127)" fill="#be5668"/>
              <path id="Trazado_695594" data-name="Trazado 695594" d="M265.208,390.65c-.291.3,7.8,9.095,18.065,19.644s18.83,18.859,19.121,18.56-7.8-9.094-18.066-19.645-18.829-18.858-19.12-18.559" transform="translate(-61.804 101.981)" fill="#fff"/>
              <path id="Trazado_695595" data-name="Trazado 695595" d="M264.808,363.74c-.291.3,7.8,9.095,18.065,19.643s18.83,18.859,19.121,18.559-7.8-9.092-18.066-19.645-18.829-18.857-19.12-18.558" transform="translate(-60.9 94.955)" fill="#fff"/>
              <path id="Trazado_695596" data-name="Trazado 695596" d="M264.809,343.434c-.291.3,5.136,6.361,12.123,13.538s12.887,12.756,13.178,12.456-5.135-6.361-12.124-13.539-12.885-12.754-13.177-12.454" transform="translate(-49.017 89.654)" fill="#fff"/>
              <path id="Trazado_695597" data-name="Trazado 695597" d="M325.225,304.748c-.291.3,7.8,9.095,18.065,19.643s18.83,18.859,19.121,18.56-7.8-9.093-18.066-19.645-18.829-18.858-19.12-18.559" transform="translate(-197.506 79.555)" fill="#be5668"/>
              <path id="Trazado_695598" data-name="Trazado 695598" d="M325.225,250.819c-.291.3,7.8,9.095,18.065,19.644s18.83,18.859,19.121,18.559-7.8-9.092-18.066-19.644-18.829-18.858-19.12-18.559" transform="translate(-197.506 65.477)" fill="#be5668"/>
              <path id="Trazado_695599" data-name="Trazado 695599" d="M324.826,277.838c-.291.3,7.8,9.095,18.065,19.644s18.83,18.859,19.121,18.56-7.8-9.094-18.066-19.645-18.829-18.858-19.12-18.559" transform="translate(-196.604 72.53)" fill="#be5668"/>
              <rect id="Rectángulo_344692" data-name="Rectángulo 344692" width="35.281" height="355.858" transform="translate(48.497 174.976)" fill="#be5668"/>
              <g id="Grupo_931544" data-name="Grupo 931544" transform="translate(48.323 494.726)" opacity="0.6">
                <g id="Grupo_931543" data-name="Grupo 931543">
                  <g id="Grupo_931542" data-name="Grupo 931542" clip-path="url(#clip-path-11)">
                    <path id="Trazado_695600" data-name="Trazado 695600" d="M389.8,392.317c-.275.282,7.368,8.594,17.07,18.561s17.795,17.823,18.07,17.539-7.366-8.593-17.072-18.563-17.792-17.82-18.067-17.538" transform="translate(-389.794 -392.31)" fill="#fff"/>
                  </g>
                </g>
              </g>
              <g id="Grupo_931547" data-name="Grupo 931547" transform="translate(48.798 462.658)" opacity="0.6">
                <g id="Grupo_931546" data-name="Grupo 931546">
                  <g id="Grupo_931545" data-name="Grupo 931545" clip-path="url(#clip-path-12)">
                    <path id="Trazado_695601" data-name="Trazado 695601" d="M389.425,366.888c-.276.284,7.368,8.594,17.07,18.562s17.795,17.823,18.07,17.54-7.366-8.593-17.072-18.564-17.792-17.82-18.067-17.538" transform="translate(-389.417 -366.881)" fill="#fff"/>
                  </g>
                </g>
              </g>
              <g id="Grupo_931550" data-name="Grupo 931550" transform="translate(48.798 426.921)" opacity="0.6">
                <g id="Grupo_931549" data-name="Grupo 931549">
                  <g id="Grupo_931548" data-name="Grupo 931548" clip-path="url(#clip-path-12)">
                    <path id="Trazado_695602" data-name="Trazado 695602" d="M389.425,338.55c-.276.284,7.368,8.594,17.07,18.561s17.795,17.823,18.07,17.539-7.366-8.592-17.072-18.563-17.792-17.82-18.067-17.538" transform="translate(-389.417 -338.542)" fill="#fff"/>
                  </g>
                </g>
              </g>
              <g id="Grupo_931553" data-name="Grupo 931553" transform="translate(48.323 392.36)" opacity="0.6">
                <g id="Grupo_931552" data-name="Grupo 931552">
                  <g id="Grupo_931551" data-name="Grupo 931551" clip-path="url(#clip-path-14)">
                    <path id="Trazado_695603" data-name="Trazado 695603" d="M389.8,311.143c-.275.282,7.368,8.594,17.07,18.562s17.795,17.823,18.07,17.539-7.366-8.592-17.072-18.563-17.792-17.82-18.067-17.538" transform="translate(-389.794 -311.135)" fill="#fff"/>
                  </g>
                </g>
              </g>
              <g id="Grupo_931556" data-name="Grupo 931556" transform="translate(48.798 360.292)" opacity="0.6">
                <g id="Grupo_931555" data-name="Grupo 931555">
                  <g id="Grupo_931554" data-name="Grupo 931554" clip-path="url(#clip-path-15)">
                    <path id="Trazado_695604" data-name="Trazado 695604" d="M389.425,285.714c-.276.282,7.368,8.594,17.07,18.562s17.795,17.823,18.07,17.539-7.366-8.593-17.072-18.563-17.792-17.82-18.067-17.538" transform="translate(-389.417 -285.706)" fill="#fff"/>
                  </g>
                </g>
              </g>
              <g id="Grupo_931559" data-name="Grupo 931559" transform="translate(48.798 324.555)" opacity="0.6">
                <g id="Grupo_931558" data-name="Grupo 931558">
                  <g id="Grupo_931557" data-name="Grupo 931557" clip-path="url(#clip-path-15)">
                    <path id="Trazado_695605" data-name="Trazado 695605" d="M389.425,257.375c-.276.282,7.368,8.594,17.07,18.562s17.795,17.823,18.07,17.539-7.366-8.593-17.072-18.563-17.792-17.821-18.067-17.538" transform="translate(-389.417 -257.367)" fill="#fff"/>
                  </g>
                </g>
              </g>
              <g id="Grupo_931562" data-name="Grupo 931562" transform="translate(48.798 282.605)" opacity="0.6">
                <g id="Grupo_931561" data-name="Grupo 931561">
                  <g id="Grupo_931560" data-name="Grupo 931560" clip-path="url(#clip-path-15)">
                    <path id="Trazado_695606" data-name="Trazado 695606" d="M389.425,224.109c-.276.284,7.368,8.594,17.07,18.562s17.795,17.823,18.07,17.539-7.366-8.592-17.072-18.563-17.792-17.82-18.067-17.538" transform="translate(-389.417 -224.101)" fill="#fff"/>
                  </g>
                </g>
              </g>
              <g id="Grupo_931565" data-name="Grupo 931565" transform="translate(48.323 238.688)" opacity="0.6">
                <g id="Grupo_931564" data-name="Grupo 931564">
                  <g id="Grupo_931563" data-name="Grupo 931563" clip-path="url(#clip-path-14)">
                    <path id="Trazado_695607" data-name="Trazado 695607" d="M389.8,189.283c-.275.284,7.368,8.594,17.07,18.562s17.795,17.823,18.07,17.54-7.366-8.593-17.072-18.564S390.076,189,389.8,189.283" transform="translate(-389.794 -189.276)" fill="#fff"/>
                  </g>
                </g>
              </g>
              <g id="Grupo_931568" data-name="Grupo 931568" transform="translate(48.795 195.552)" opacity="0.6">
                <g id="Grupo_931567" data-name="Grupo 931567">
                  <g id="Grupo_931566" data-name="Grupo 931566" clip-path="url(#clip-path-15)">
                    <path id="Trazado_695608" data-name="Trazado 695608" d="M389.427,155.078c-.276.282,7.368,8.594,17.07,18.562s17.795,17.823,18.07,17.539-7.367-8.593-17.072-18.563-17.792-17.821-18.067-17.538" transform="translate(-389.419 -155.07)" fill="#fff"/>
                  </g>
                </g>
              </g>
              <g id="Grupo_931571" data-name="Grupo 931571" transform="translate(62.918 174.324)" opacity="0.6">
                <g id="Grupo_931570" data-name="Grupo 931570">
                  <g id="Grupo_931569" data-name="Grupo 931569" clip-path="url(#clip-path-20)">
                    <path id="Trazado_695609" data-name="Trazado 695609" d="M389.428,138.248c-.276.282,4.206,5.346,10.008,11.305s10.73,10.565,11.005,10.283-4.2-5.344-10.009-11.307-10.729-10.564-11-10.281" transform="translate(-389.416 -138.236)" fill="#fff"/>
                  </g>
                </g>
              </g>
              <path id="Trazado_695610" data-name="Trazado 695610" d="M16.053,140.151s.538-.359,1.567-1.086l1.917-1.356,2.728-1.76a94.541,94.541,0,0,1,19.309-9.338,85.1,85.1,0,0,1,15.037-3.767A69.911,69.911,0,0,1,75,122.427c13.159,1.407,27.62,7.628,40.213,18.574a121.007,121.007,0,0,1,17.741,19.172c5.361,7.358,10.7,15.211,16.229,23.325,11.012,16.266,22.328,33.948,34.08,52.649s23.936,38.437,36.979,58.635c6.542,10.085,13.265,20.308,20.285,30.55,3.521,5.1,6.849,10.395,10.266,15.681s6.869,10.6,10.443,15.884a318.4,318.4,0,0,0,22.681,30.217,109.909,109.909,0,0,0,13.138,13.051,44.639,44.639,0,0,0,7.6,5.151,19.854,19.854,0,0,0,8.748,2.58c3.135-.1,5.962-1.324,8.692-2.516a89.054,89.054,0,0,0,7.89-4.165c5.109-2.982,9.975-6.238,14.725-9.545,9.484-6.638,18.468-13.546,27.11-20.434q6.479-5.168,12.685-10.341,6.184-5.194,12.3-10.109c8.163-6.541,16.183-12.782,24.169-18.49,7.916-5.779,16.207-10.58,24.982-13.051a56.828,56.828,0,0,1,25.857-.921,71.371,71.371,0,0,1,21.959,8.766,106.692,106.692,0,0,1,16.93,12.725c9.777,8.975,18.032,16.883,24.728,23.4s11.827,11.645,15.3,15.13c1.728,1.74,3.045,3.069,3.942,3.971s1.352,1.346,1.352,1.346-.433-.482-1.3-1.392l-3.9-4.018c-3.441-3.516-8.547-8.671-15.213-15.218s-14.9-14.482-24.659-23.485a106.742,106.742,0,0,0-16.965-12.814,71.7,71.7,0,0,0-22.08-8.863,57.279,57.279,0,0,0-26.085.888c-8.85,2.474-17.232,7.319-25.162,13.095-8.006,5.709-16.038,11.945-24.215,18.483q-6.131,4.9-12.316,10.1-6.208,5.156-12.684,10.323c-8.639,6.875-17.621,13.772-27.091,20.393-4.743,3.3-9.6,6.544-14.688,9.51a88.249,88.249,0,0,1-7.835,4.132c-2.686,1.179-5.515,2.375-8.428,2.455a19.274,19.274,0,0,1-8.448-2.509,44.037,44.037,0,0,1-7.488-5.082,109.335,109.335,0,0,1-13.054-12.976,318.146,318.146,0,0,1-22.631-30.157c-3.569-5.275-7.023-10.584-10.435-15.872s-6.749-10.579-10.279-15.694c-7.018-10.236-13.739-20.453-20.284-30.532-13.046-20.187-25.246-39.906-37.006-58.608s-23.106-36.371-34.143-52.632c-5.541-8.117-10.884-15.95-16.274-23.326a121.308,121.308,0,0,0-17.844-19.219c-12.671-10.976-27.233-17.207-40.474-18.588a70.124,70.124,0,0,0-18.479.473,85.138,85.138,0,0,0-15.073,3.835,93.107,93.107,0,0,0-19.3,9.468l-2.713,1.791-1.9,1.383c-1.018.745-1.528,1.14-1.528,1.14" transform="translate(-1.236 31.76)" fill="#be5668"/>
              <path id="Trazado_695611" data-name="Trazado 695611" d="M85.534,280.355a7.34,7.34,0,1,0,7.338-7.52,7.431,7.431,0,0,0-7.338,7.52" transform="translate(366.956 71.226)" fill="#ff725e"/>
              <path id="Trazado_695612" data-name="Trazado 695612" d="M94.077,295.054a13.471,13.471,0,1,0-13.158-13.467,13.331,13.331,0,0,0,13.158,13.467m0-25.674a12.21,12.21,0,1,1-11.9,12.207,12.069,12.069,0,0,1,11.9-12.207" transform="translate(365.752 69.995)" fill="#ff725e"/>
              <path id="Trazado_695613" data-name="Trazado 695613" d="M398.329,123.329a7.34,7.34,0,1,0,7.338-7.52,7.431,7.431,0,0,0-7.338,7.52" transform="translate(-340.291 30.233)" fill="#ff725e"/>
              <path id="Trazado_695614" data-name="Trazado 695614" d="M406.873,138.028a13.471,13.471,0,1,0-13.159-13.467,13.331,13.331,0,0,0,13.159,13.467m0-25.674a12.21,12.21,0,1,1-11.9,12.207,12.068,12.068,0,0,1,11.9-12.207" transform="translate(-341.497 29.002)" fill="#ff725e"/>
            </g>
          </g>
          <path id="Trazado_695615" data-name="Trazado 695615" d="M362.9,42.482h104.02v59.029h-17.2l1.289.233-14.735,18.778.965-19.012H362.9Z" transform="translate(-246.539 -13.91)" fill="#fafafa"/>
          <g id="Grupo_931575" data-name="Grupo 931575" transform="translate(103 -25)">
            <g id="Grupo_931574" data-name="Grupo 931574" clip-path="url(#clip-path-3)">
              <path id="Trazado_695616" data-name="Trazado 695616" d="M362.891,42.544s-.016.338-.025,1.02q-.009,1.061-.026,3.045c-.014,2.709-.035,6.665-.062,11.746-.03,10.252-.074,25.027-.13,43.218v.243h.245l74.339.074-.317-.334c-.308,6.033-.637,12.463-.972,19.012l-.052,1.021.632-.8,14.738-18.776.337-.429-.537-.1-1.289-.233-.058.651h17.525v-.327c-.01-21.016-.02-40.936-.029-59.029v-.3h-.3l-75.178.148-21.3.079-5.626.035-1.436.018c-.322.006-.475.018-.475.018s.178.011.509.018l1.47.018,5.685.035,21.37.079,74.984.148-.3-.3c-.009,18.092-.019,38.013-.029,59.029l.327-.328h-17.2l-.059.652,1.29.233-.2-.526-14.732,18.781.58.217c.329-6.549.653-12.98.957-19.012l.016-.334h-.334l-74.339.074.243.243c-.054-18.128-.1-32.852-.13-43.069-.026-5.1-.047-9.078-.062-11.8q-.017-2.013-.026-3.088c-.009-.7-.025-1.071-.025-1.071" transform="translate(-349.525 11.028)" fill="#263238"/>
              <path id="Trazado_695617" data-name="Trazado 695617" d="M443.291,61.5c0-.18-14.52-.327-32.428-.327s-32.431.146-32.431.327,14.517.329,32.431.329,32.428-.146,32.428-.329" transform="translate(-345.486 15.969)" fill="#263238"/>
              <path id="Trazado_695618" data-name="Trazado 695618" d="M443.291,71.527c0-.182-14.52-.328-32.428-.328s-32.431.146-32.431.328,14.517.328,32.431.328,32.428-.146,32.428-.328" transform="translate(-345.486 18.587)" fill="#263238"/>
            </g>
          </g>
          <g id="Grupo_931601" data-name="Grupo 931601">
            <g id="Grupo_931600" data-name="Grupo 931600" clip-path="url(#clip-path-3)">
              <path id="Trazado_695619" data-name="Trazado 695619" d="M215.121,277.345l-4.99,14.128s-23.085,21.192-26.491,49.581-3.406,34.576-3.406,34.576l7.15,82.8h153.9s5.1-66.928,3.206-85.854-12.879-40.341-12.879-40.341l-11.732-28.389-.348-14.29Z" transform="translate(2.83 72.403)" fill="#263238"/>
              <path id="Trazado_695620" data-name="Trazado 695620" d="M201.67,289.7a6.823,6.823,0,0,0,1.078.236l3.112.55,11.468,1.883c9.691,1.55,23.091,3.607,37.92,5.684s28.3,3.728,38.065,4.7c4.882.5,8.84.831,11.578,1.026l3.155.2a6.87,6.87,0,0,0,1.1.024,6.918,6.918,0,0,0-1.092-.156l-3.143-.32c-2.73-.274-6.679-.673-11.551-1.233-9.749-1.091-23.192-2.825-38.023-4.89s-28.233-4.059-37.94-5.492l-11.5-1.677-3.131-.427a6.808,6.808,0,0,0-1.1-.1" transform="translate(11.564 75.626)" fill="#455a64"/>
              <path id="Trazado_695621" data-name="Trazado 695621" d="M200.205,329.422a6.59,6.59,0,0,0,.564,1.385c.4.874,1.02,2.117,1.83,3.632a105.018,105.018,0,0,0,15.617,21.76c1.175,1.252,2.154,2.24,2.855,2.9a6.455,6.455,0,0,0,1.13.977,6.521,6.521,0,0,0-.947-1.155l-2.694-3.029c-2.256-2.571-5.271-6.214-8.317-10.453s-5.525-8.261-7.238-11.222L201,330.69a6.569,6.569,0,0,0-.791-1.267" transform="translate(100.363 85.998)" fill="#455a64"/>
              <path id="Trazado_695622" data-name="Trazado 695622" d="M346.177,159.784s-3.158,53.045-4.1,59.045,4.1,13.577,4.1,13.577,11.682,1.264,19.577-13.261l5.052-11.367a72.382,72.382,0,0,1-2.841-30c1.894-17.051,2.841-24.945,2.841-24.945Z" transform="translate(-226.999 39.899)" fill="#ffbe9d"/>
              <path id="Trazado_695623" data-name="Trazado 695623" d="M329.881,104.735c-1.386,12.8-1.207,23.874,5.1,26.134.53.189,4.763.354,5.324.416,7.26.786,14.362-9.827,15.864-23.705s-3.165-25.763-10.425-26.549a47.76,47.76,0,0,0-5.226-.509c-6.508,1.16-9.278,11.637-10.638,24.214" transform="translate(-196.535 21.016)" fill="#455a64"/>
              <path id="Trazado_695624" data-name="Trazado 695624" d="M345.123,140.2s-5.323,1.767-4.359,6.907,4.359,14.249,4.359,14.249l6.612,7.332,24.016-7.332a14.807,14.807,0,0,0,1.638-7.18c-.161-4.015.01-13.975.01-13.975a23.792,23.792,0,0,1-4.348-9.157c-.8-4.154-1.385-8.979-1.555-10.464a.436.436,0,0,0-.527-.38,6.2,6.2,0,0,0-4.665,4.259c-1.285,4.015-.963,5.14-.963,5.14Z" transform="translate(-231.944 31.378)" fill="#ffbe9d"/>
              <path id="Trazado_695625" data-name="Trazado 695625" d="M346.992,123.631l3.434-5.484,3.6,2.779-6.679,13.2-1.822-5.534Z" transform="translate(-214.727 30.843)" fill="#455a64"/>
              <path id="Trazado_695626" data-name="Trazado 695626" d="M368.775,123.262s-3.757-5.676-7.244-2.972-2.684,4.314,0,9.278c0,0-6.841-.939-5.232,6.3,0,0-6.783-1.333-6.61,4.5,0,0-5.6,4.624-3.182,8.111s11.67,10.2,14.22,9.39,2.861-4.293,2.861-4.293,3.04-1.072,3.98-2.549-.269-3.755-.269-3.755,2.682-2.317,3.353-2.969,0-4.006,0-4.006l-3.622-4.159s5.232,2.817,6.439,2.011,2.549-1.475,1.475-3.218a55.219,55.219,0,0,0-5.072-5.781Z" transform="translate(-236.51 31.212)" fill="#ffbe9d"/>
              <path id="Trazado_695627" data-name="Trazado 695627" d="M369,149.628a18.752,18.752,0,0,0-1.6-2.31,20.853,20.853,0,0,0-4.629-5.018,48.5,48.5,0,0,1-5.333-4.1,26.956,26.956,0,0,1-1.757-2.14,5.03,5.03,0,0,0,1.419,2.458,33.418,33.418,0,0,0,5.275,4.305,25.257,25.257,0,0,1,4.658,4.777A8.886,8.886,0,0,0,369,149.628" transform="translate(-242.508 35.52)" fill="#eb996e"/>
              <path id="Trazado_695628" data-name="Trazado 695628" d="M363.276,144.924c.139-.117-2.155-3.054-5.124-6.56-1.492-1.729-2.757-3.394-3.878-4.441a5.094,5.094,0,0,0-2.009-1.426c-.054.084.694.629,1.675,1.749,1,1.095,2.2,2.795,3.711,4.542,2.967,3.506,5.486,6.254,5.624,6.136" transform="translate(-232.477 34.587)" fill="#eb996e"/>
              <path id="Trazado_695629" data-name="Trazado 695629" d="M357.927,134.131c.143-.153-1.311-1.521-2.9-3.314a41.276,41.276,0,0,1-2.5-3.557c-.19.025.308,2.114,2.008,3.986a11.061,11.061,0,0,0,3.4,2.885" transform="translate(-227.406 33.222)" fill="#eb996e"/>
              <path id="Trazado_695630" data-name="Trazado 695630" d="M353.9,138.164a4.715,4.715,0,0,0-2.237.918,12.755,12.755,0,0,0-3.991,4.251,24.259,24.259,0,0,0-2.279,5.343,8.013,8.013,0,0,0-.537,2.339,9.466,9.466,0,0,0,.975-2.185,34.877,34.877,0,0,1,2.4-5.159,14.573,14.573,0,0,1,3.695-4.207c1.158-.866,2.013-1.2,1.972-1.3" transform="translate(-213.739 36.065)" fill="#eb996e"/>
              <path id="Trazado_695631" data-name="Trazado 695631" d="M334.794,104.459c-1.5,13.878,2.3,25.671,8.5,26.341s12.434-10.036,13.935-23.913-2.3-25.67-8.5-26.341S336.3,90.582,334.794,104.459" transform="translate(-204.307 21.019)" fill="#263238"/>
              <path id="Trazado_695632" data-name="Trazado 695632" d="M342.713,130.335c-5.8-2.911-9.268-13.584-7.945-25.805,1.315-12.157,6.93-21.807,13.181-23.486,4.922,2.808,7.719,13.414,6.395,25.64-1.314,12.152-6.261,21.871-11.631,23.651" transform="translate(-201.449 21.157)" fill="#e0e0e0"/>
              <path id="Trazado_695633" data-name="Trazado 695633" d="M343.073,117.137c.182.011.646-5.313,1.037-11.889s.562-11.92.382-11.93-.646,5.312-1.038,11.891-.561,11.917-.381,11.928" transform="translate(-202.078 24.362)" fill="#fff"/>
              <path id="Trazado_695634" data-name="Trazado 695634" d="M341.257,110.581a15.562,15.562,0,0,0,.643-3.308c.293-2.058.6-4.917.772-8.086s.18-6.046.113-8.124a15.642,15.642,0,0,0-.279-3.357,18.985,18.985,0,0,0-.185,3.358c-.053,2.072-.135,4.931-.305,8.087s-.4,6.005-.578,8.07a19.089,19.089,0,0,0-.182,3.359" transform="translate(-198.094 22.897)" fill="#fff"/>
              <path id="Trazado_695635" data-name="Trazado 695635" d="M368.914,123.276a1.777,1.777,0,0,0,.037.4c.047.3.1.676.177,1.144q.269,1.579.745,4.373l.008.04.032.034c.735.764,1.557,1.641,2.445,2.628a23.519,23.519,0,0,1,2.668,3.378,1.651,1.651,0,0,1,.214,1.02,1.585,1.585,0,0,1-.608.883,10.684,10.684,0,0,1-1.034.718,1.462,1.462,0,0,1-1.114.125,21.026,21.026,0,0,1-5.188-2.1l-1.227-.632.9,1.04,3.607,4.172-.052-.09a5.036,5.036,0,0,1-.134,4.013,11.211,11.211,0,0,1-3.377,2.907l-.284.179.193.271c.773,1.087,1.246,2.74.04,3.634a14.618,14.618,0,0,1-3.937,2.235l.44.3v-.093c-.09.088.2-.212-.211.264-.851-.493-.243-.194-.43-.279v0l-.006.151-.03.32a5.857,5.857,0,0,1-.115.642,5.059,5.059,0,0,1-.445,1.217,3.316,3.316,0,0,1-.786.986,1.962,1.962,0,0,1-1.068.5,6.247,6.247,0,0,1-2.555-.73,23.29,23.29,0,0,1-2.482-1.377,42.484,42.484,0,0,1-4.357-3.163,26.88,26.88,0,0,1-3.738-3.633,3.263,3.263,0,0,1-.869-2.155,5.034,5.034,0,0,1,.617-2.277,13.213,13.213,0,0,1,3.033-3.7l.106-.095.006-.153a4.964,4.964,0,0,1,.421-2.237,3.367,3.367,0,0,1,1.522-1.518,7.425,7.425,0,0,1,4.305-.455l.392.058-.062-.4c-.068-.438-.154-.871-.207-1.3a7.106,7.106,0,0,1,.008-1.27,3.516,3.516,0,0,1,.9-2.175,5.176,5.176,0,0,1,4.226-1.257l.459.04-.214-.395a38.343,38.343,0,0,1-1.909-3.8,5.331,5.331,0,0,1-.412-1.835,2.934,2.934,0,0,1,.493-1.634,7.45,7.45,0,0,1,2.358-2.165,3.184,3.184,0,0,1,2.591-.047,8.634,8.634,0,0,1,3.028,2.27c.3.323.509.585.656.759a1.552,1.552,0,0,0,.227.259,1.094,1.094,0,0,0-.17-.3,9.673,9.673,0,0,0-.608-.81,10.489,10.489,0,0,0-1.14-1.19,6.56,6.56,0,0,0-1.894-1.237,3.461,3.461,0,0,0-2.832,0l-.7.426c-.209.169-.424.343-.643.518a6.8,6.8,0,0,0-1.2,1.308,3.327,3.327,0,0,0-.581,1.842,5.688,5.688,0,0,0,.415,1.992,37.962,37.962,0,0,0,1.892,3.87l.246-.354a7.2,7.2,0,0,0-2.424.14,4.443,4.443,0,0,0-2.255,1.236,4.054,4.054,0,0,0-1.054,2.475,7.732,7.732,0,0,0-.018,1.378c.052.456.139.912.209,1.376l.33-.339a7.949,7.949,0,0,0-4.68.479,3.966,3.966,0,0,0-1.8,1.782,5.562,5.562,0,0,0-.494,2.523l.111-.246a13.726,13.726,0,0,0-3.2,3.884,5.654,5.654,0,0,0-.694,2.575A4.048,4.048,0,0,0,346,147.98a5.928,5.928,0,0,0,.734,1.172,27.169,27.169,0,0,0,3.829,3.737,42.853,42.853,0,0,0,4.424,3.216,23.774,23.774,0,0,0,2.554,1.415,6.721,6.721,0,0,0,2.873.788,3.252,3.252,0,0,0,2.387-1.832,5.726,5.726,0,0,0,.5-1.375,6.862,6.862,0,0,0,.125-.71l.033-.361.006-.192v-.048c-.187-.087.422.211-.43-.284-.415.473-.124.174-.213.264l0,.028v.156l0,.483.438-.188a15.087,15.087,0,0,0,4.131-2.37,3.05,3.05,0,0,0,.759-1.015,2.533,2.533,0,0,0,.16-1.264,4.879,4.879,0,0,0-.9-2.19l-.09.45a11.634,11.634,0,0,0,3.569-3.124,4.182,4.182,0,0,0,.559-2.3,7.388,7.388,0,0,0-.395-2.222l-.016-.048-.037-.042-3.637-4.146-.327.409a21.208,21.208,0,0,0,5.365,2.106,1.935,1.935,0,0,0,1.445-.209,10.926,10.926,0,0,0,1.071-.763,2.006,2.006,0,0,0,.744-1.15,2.052,2.052,0,0,0-.27-1.291,23.015,23.015,0,0,0-2.778-3.424c-.909-.977-1.75-1.839-2.506-2.589l.039.073-.887-4.368c-.1-.46-.182-.83-.246-1.124a1.512,1.512,0,0,0-.107-.372" transform="translate(-236.649 31.179)" fill="#eb996e"/>
              <path id="Trazado_695636" data-name="Trazado 695636" d="M126.806,320.489l47.625-59.132s25.328,21.326,26,22-39.616,39.86-65.487,55.031L126.806,333Z" transform="translate(214.682 68.23)" fill="#ffbe9d"/>
              <path id="Trazado_695637" data-name="Trazado 695637" d="M184.946,293.536s15.037-2.375,16.422-1.385,11.674,7.914,11.674,7.914a56.081,56.081,0,0,0,4.551,6.133s3.363,3.957,5.936,4.353a11.509,11.509,0,0,0,4.154,0l6.728,18.6s-5.144,5.342-8.31,4.946-19.983-9.694-19.983-9.694l-4.155-1.386s-16.224.594-17.015-4.352v-1.386l16.026-1.385,5.936.99-10.288-3.87s-15.037-.879-16.422-1.275-2.969-2.571-2.375-3.759l3.165-.395s-3.415-2.362-3.294-4.539l14.234-2.259s-8.565-4.284-6.982-7.251" transform="translate(116.54 76.206)" fill="#ffbe9d"/>
              <path id="Trazado_695638" data-name="Trazado 695638" d="M196.492,304.783a5.822,5.822,0,0,0,1.3-.182c.83-.149,2.034-.346,3.526-.566,2.984-.441,7.121-.963,11.7-1.475a14.706,14.706,0,0,1,1.657-.14,5.016,5.016,0,0,1,1.526.274c.966.381,1.943.837,2.839,1.248,1.8.841,3.4,1.66,4.708,2.4a35.371,35.371,0,0,1,3.01,1.892,7.186,7.186,0,0,0,1.079.748,3.945,3.945,0,0,0-.922-.948,23.785,23.785,0,0,0-2.932-2.091c-1.293-.8-2.88-1.667-4.684-2.545-.913-.438-1.832-.885-2.885-1.31a5.585,5.585,0,0,0-1.724-.318,14.363,14.363,0,0,0-1.744.14c-4.588.512-8.727,1.108-11.7,1.67-1.488.28-2.686.547-3.5.774a4.574,4.574,0,0,0-1.248.431" transform="translate(99.401 78.779)" fill="#eb996e"/>
              <path id="Trazado_695639" data-name="Trazado 695639" d="M196.285,299.8c.043.1,1.16-.39,3.062-.757a16.681,16.681,0,0,1,14.078,3.649c1.483,1.245,2.221,2.217,2.309,2.148a8,8,0,0,0-2-2.5,15.6,15.6,0,0,0-14.486-3.755,8,8,0,0,0-2.962,1.211" transform="translate(111.767 77.828)" fill="#eb996e"/>
              <path id="Trazado_695640" data-name="Trazado 695640" d="M282.772,218.857s-2.9,5.221-2.9,10.152,2.884,13.56,2.884,13.56l3.588,3.39s-2.354,10.786,11.3,13.868,90.113-40.868,90.113-40.868l2.131-58.366s-11.095,4.623-19.106,12.636-53.624,41.6-53.624,41.6-1.854-11.9-3.908-11.112-30.485,15.138-30.485,15.138" transform="translate(-167.803 41.924)" fill="#e0e0e0"/>
              <path id="Trazado_695641" data-name="Trazado 695641" d="M176.539,164.8l41.377-8.8,10.771-11.07,47.582-.454L282,154.89l35.653,21.681s-8.979,59.387-12.254,66.3-29.238,83.284-29.238,83.284L172.431,313.784l-.888-47.928-3-23.191a68.752,68.752,0,0,1-.3-14.959c1.941-21.691,8.29-62.907,8.29-62.907" transform="translate(45.553 37.716)" fill="#e0e0e0"/>
              <path id="Trazado_695642" data-name="Trazado 695642" d="M140.174,299.478l34,23.317,11.88-16.934-3.174-2.822s17.543-14.5,16.485-24.732-19.556-36.54-19.556-36.54-39.633-64.88-51.915-71.836c-1.719-.974-16.628,35.035-16.628,49.146s2.822,14.111,2.822,14.111,12,11.642,17.64,22.225,15.23,22.108,21.579,26.341Z" transform="translate(235.313 44.357)" fill="#e0e0e0"/>
              <path id="Trazado_695643" data-name="Trazado 695643" d="M152.934,252.034a2.513,2.513,0,0,0-.917-.092,17.02,17.02,0,0,0-2.5.139,24.536,24.536,0,0,0-7.9,2.395,26.1,26.1,0,0,0-6.7,4.812,11.342,11.342,0,0,0-2.169,2.637c.156.18,3.433-4.033,9.165-6.861a28.472,28.472,0,0,1,7.672-2.522c2.048-.357,3.349-.395,3.347-.507" transform="translate(254.696 65.77)" fill="#263238"/>
              <path id="Trazado_695644" data-name="Trazado 695644" d="M149.821,242.908a10.192,10.192,0,0,0-2.528,2.15,23.44,23.44,0,0,0-4.383,6.715,23.954,23.954,0,0,0-1.9,7.791,10.388,10.388,0,0,0,.137,3.317c.112,0,.084-1.267.325-3.272a27.953,27.953,0,0,1,2.043-7.574,27.313,27.313,0,0,1,4.126-6.667c1.305-1.541,2.256-2.373,2.183-2.459" transform="translate(247.44 63.412)" fill="#263238"/>
              <path id="Trazado_695645" data-name="Trazado 695645" d="M232.655,213.632a8.852,8.852,0,0,0-.308,1.718,17.081,17.081,0,0,0-.2,2.039c-.038.8-.126,1.706-.083,2.713a31.655,31.655,0,0,0,.155,3.29c.067,1.185.285,2.434.486,3.752a43.358,43.358,0,0,0,6.337,16.032c.755,1.1,1.45,2.159,2.211,3.069a31.775,31.775,0,0,0,2.136,2.507c.657.764,1.344,1.367,1.917,1.923a17.076,17.076,0,0,0,1.538,1.352,8.886,8.886,0,0,0,1.4,1.043c.091-.106-1.873-1.639-4.508-4.628-.654-.752-1.366-1.578-2.05-2.528-.733-.913-1.4-1.971-2.132-3.064a45.406,45.406,0,0,1-6.251-15.816c-.213-1.3-.449-2.526-.538-3.694-.151-1.161-.2-2.25-.233-3.246-.12-3.984.264-6.445.126-6.46" transform="translate(34.151 55.771)" fill="#263238"/>
              <path id="Trazado_695646" data-name="Trazado 695646" d="M196.243,206.929a6.069,6.069,0,0,0,.807-.605c.52-.407,1.252-1.047,2.255-1.8,1.963-1.564,4.9-3.718,8.608-6.281s8.215-5.522,13.2-8.883a160.134,160.134,0,0,0,15.753-11.743l-.484-.055c.528.755,1.068,1.584,1.578,2.44a36.067,36.067,0,0,1,4.342,11.5l.189,1,.415-.926a160.528,160.528,0,0,0,9.315-27.5c.847-3.518,1.417-6.352,1.755-8.308.182-.975.284-1.735.362-2.247a4.125,4.125,0,0,0,.084-.784,4.073,4.073,0,0,0-.2.765c-.119.56-.272,1.3-.467,2.225-.4,1.94-1.037,4.753-1.937,8.25a171.13,171.13,0,0,1-9.5,27.335l.6.073a36.414,36.414,0,0,0-4.4-11.719c-.518-.871-1.068-1.716-1.608-2.486l-.208-.3-.277.242a166.341,166.341,0,0,1-15.652,11.742c-4.958,3.386-9.442,6.382-13.123,9s-6.585,4.832-8.506,6.459c-.98.789-1.689,1.462-2.183,1.9a6.08,6.08,0,0,0-.723.7" transform="translate(73.13 39.873)" fill="#263238"/>
              <path id="Trazado_695647" data-name="Trazado 695647" d="M254.556,153.613a2.527,2.527,0,0,0-.346.521c-.208.353-.52.873-.893,1.561-.763,1.37-1.822,3.388-3.057,5.956a101.442,101.442,0,0,0-7.687,21.423l-.194.869.706-.549a46.44,46.44,0,0,0,9.2-9.525l-.589-.174c.41,7.285.783,13.94,1.09,19.4l0,.061.028.05,5.507,9.877q.961,1.674,1.547,2.7a6.006,6.006,0,0,0,.588.921,5.706,5.706,0,0,0-.454-.994l-1.425-2.763-5.308-9.985.03.11c-.269-5.462-.6-12.119-.956-19.406l-.045-.922-.544.748a46.781,46.781,0,0,1-9.07,9.4l.512.32a108.389,108.389,0,0,1,7.436-21.38c1.179-2.584,2.179-4.628,2.878-6.028.323-.654.586-1.187.8-1.61a2.588,2.588,0,0,0,.243-.576" transform="translate(8.912 40.102)" fill="#263238"/>
              <path id="Trazado_695648" data-name="Trazado 695648" d="M283.539,221.654c.18.018,1.277-9.983,2.449-22.332s1.976-22.38,1.794-22.4-1.276,9.98-2.449,22.335-1.975,22.376-1.794,22.394" transform="translate(-70.305 46.188)" fill="#263238"/>
              <path id="Trazado_695649" data-name="Trazado 695649" d="M337.458,220.99a10.637,10.637,0,0,0,2.209-2.108,33.526,33.526,0,0,0,7.022-12.868,10.535,10.535,0,0,0,.578-3c-.206-.058-1.2,4.516-3.953,9.506-2.707,5.014-6.015,8.327-5.855,8.468" transform="translate(-197.803 52.999)" fill="#263238"/>
              <path id="Trazado_695650" data-name="Trazado 695650" d="M336.753,223.119c.037.026.255-.228.62-.715a15.673,15.673,0,0,0,1.356-2.189,22.793,22.793,0,0,0,1.72-16.58,15.714,15.714,0,0,0-.878-2.421c-.257-.551-.419-.845-.46-.826-.107.044.407,1.28.888,3.362a25.283,25.283,0,0,1-1.687,16.261c-.9,1.938-1.655,3.043-1.559,3.108" transform="translate(-190.903 52.313)" fill="#263238"/>
              <path id="Trazado_695651" data-name="Trazado 695651" d="M181.948,198.8a6.077,6.077,0,0,0-.681,1.267L179.6,203.6c-1.486,3.116-3.412,7.162-5.542,11.635-2.17,4.545-4.08,8.69-5.375,11.728-.649,1.52-1.155,2.757-1.479,3.622a5.936,5.936,0,0,0-.446,1.368,6.154,6.154,0,0,0,.681-1.267q.681-1.441,1.668-3.532c1.484-3.116,3.411-7.162,5.544-11.636,2.168-4.544,4.077-8.687,5.372-11.727.649-1.518,1.156-2.755,1.48-3.62a6.041,6.041,0,0,0,.446-1.368" transform="translate(182.796 51.898)" fill="#263238"/>
              <path id="Trazado_695652" data-name="Trazado 695652" d="M251.088,253.661a7.279,7.279,0,0,0,.371,1.533c.276.975.716,2.375,1.291,4.092,1.149,3.436,2.889,8.136,5.081,13.216s4.426,9.568,6.143,12.759c.856,1.6,1.574,2.875,2.095,3.745a7.266,7.266,0,0,0,.863,1.32,7.27,7.27,0,0,0-.638-1.443c-.51-1.027-1.149-2.31-1.907-3.836-1.607-3.24-3.762-7.744-5.952-12.807s-3.987-9.72-5.246-13.11c-.591-1.6-1.088-2.943-1.487-4.018a7.27,7.27,0,0,0-.613-1.453" transform="translate(-8.533 66.22)" fill="#263238"/>
              <path id="Trazado_695653" data-name="Trazado 695653" d="M255.221,270.422a8.612,8.612,0,0,0,1.006,2.334,48,48,0,0,0,7.035,10,8.684,8.684,0,0,0,1.858,1.736c.144-.134-2.436-3.005-5.158-6.89-2.737-3.873-4.568-7.271-4.742-7.182" transform="translate(-11.931 70.596)" fill="#263238"/>
              <path id="Trazado_695654" data-name="Trazado 695654" d="M242.232,289.966a5.581,5.581,0,0,0,.143-.974q.106-1.054.281-2.8c.216-2.435.57-5.953,1.026-10.3.953-8.682,2.429-20.671,4.961-33.755a315.551,315.551,0,0,1,8.165-33.118c.622-2.093,1.232-3.972,1.773-5.621.526-1.654.995-3.073,1.4-4.226q.558-1.668.893-2.668a5.5,5.5,0,0,0,.269-.947,5.469,5.469,0,0,0-.393.9q-.38.987-1.009,2.628c-.441,1.141-.947,2.55-1.507,4.194s-1.217,3.511-1.868,5.6A282.533,282.533,0,0,0,248,242.014c-2.536,13.111-3.942,25.13-4.778,33.833-.4,4.354-.681,7.883-.82,10.324-.066,1.172-.117,2.106-.158,2.811a5.6,5.6,0,0,0-.01.984" transform="translate(8.434 51.052)" fill="#263238"/>
              <path id="Trazado_695655" data-name="Trazado 695655" d="M259.729,279.459c.193-.071-1.068-2.607-.8-5.948.206-3.347,1.811-5.68,1.629-5.777-.062-.045-.554.467-1.091,1.47a10.992,10.992,0,0,0-.609,8.647c.392,1.069.806,1.644.874,1.608" transform="translate(-11.2 69.894)" fill="#263238"/>
              <path id="Trazado_695656" data-name="Trazado 695656" d="M257.62,282.6c.18-.01.28-.821.222-1.81s-.252-1.782-.434-1.772-.28.821-.222,1.81.253,1.782.434,1.772" transform="translate(-7.135 72.84)" fill="#263238"/>
              <path id="Trazado_695657" data-name="Trazado 695657" d="M121.852,262.515a7.442,7.442,0,0,0,1.508.514c.981.279,2.391.726,4.109,1.332,1.728.581,3.737,1.41,5.946,2.366,2.194,1,4.568,2.172,7,3.525a104.094,104.094,0,0,1,11.889,7.834c1.451,1.1,2.614,2.018,3.409,2.661a7.437,7.437,0,0,0,1.285.942,7.411,7.411,0,0,0-1.119-1.136c-.745-.7-1.866-1.676-3.289-2.832a85.63,85.63,0,0,0-11.855-8.042c-2.448-1.363-4.85-2.532-7.075-3.5-2.241-.934-4.283-1.723-6.042-2.252-1.749-.554-3.187-.934-4.192-1.14a7.441,7.441,0,0,0-1.573-.266" transform="translate(264.371 68.529)" fill="#263238"/>
              <path id="Trazado_695658" data-name="Trazado 695658" d="M125.88,262.585c0,.115,1.726.061,4.481.3a46.809,46.809,0,0,1,10.531,2.218,57.232,57.232,0,0,1,9.829,4.436c2.407,1.368,3.837,2.327,3.9,2.238a4.288,4.288,0,0,0-.927-.783c-.618-.477-1.551-1.115-2.734-1.854a47.61,47.61,0,0,0-9.858-4.661,40.418,40.418,0,0,0-10.708-2.058,27.665,27.665,0,0,0-3.307.01,4.28,4.28,0,0,0-1.206.15" transform="translate(261.669 68.497)" fill="#263238"/>
              <g id="Grupo_931578" data-name="Grupo 931578" transform="translate(350.548 255.206)" opacity="0.3">
                <g id="Grupo_931577" data-name="Grupo 931577">
                  <g id="Grupo_931576" data-name="Grupo 931576" clip-path="url(#clip-path-23)">
                    <path id="Trazado_695659" data-name="Trazado 695659" d="M180.23,202.374A26.976,26.976,0,0,1,168.4,228.6c2.97-7.566,8.122-18.443,11.829-26.229" transform="translate(-168.402 -202.374)"/>
                  </g>
                </g>
              </g>
              <g id="Grupo_931581" data-name="Grupo 931581" transform="translate(276.242 217.191)" opacity="0.3">
                <g id="Grupo_931580" data-name="Grupo 931580">
                  <g id="Grupo_931579" data-name="Grupo 931579" clip-path="url(#clip-path-24)">
                    <path id="Trazado_695660" data-name="Trazado 695660" d="M244.786,180.784a28.686,28.686,0,0,1-6.469,8.6q.062-3.446.126-6.894-15.793,7.02-31.588,14.038l33.907-24.3c1.851,3.115,2.173,5.44,4.024,8.555" transform="translate(-206.855 -172.229)"/>
                  </g>
                </g>
              </g>
              <g id="Grupo_931584" data-name="Grupo 931584" transform="translate(254.318 213.781)" opacity="0.3">
                <g id="Grupo_931583" data-name="Grupo 931583">
                  <g id="Grupo_931582" data-name="Grupo 931582" clip-path="url(#clip-path-25)">
                    <path id="Trazado_695661" data-name="Trazado 695661" d="M249.807,176.12c1.352-2.122,5.086-6.6,5.086-6.6.12,3.31.41,7.84.53,11.15l.475,7.93c-.489-2.763-.854-8.1-1.342-10.863q-2.94,2.784-5.877,5.569a8.274,8.274,0,0,1,1.127-7.191" transform="translate(-248.275 -169.525)"/>
                  </g>
                </g>
              </g>
              <g id="Grupo_931587" data-name="Grupo 931587" transform="translate(211.251 228.498)" opacity="0.3">
                <g id="Grupo_931586" data-name="Grupo 931586">
                  <g id="Grupo_931585" data-name="Grupo 931585" clip-path="url(#clip-path-26)">
                    <path id="Trazado_695662" data-name="Trazado 695662" d="M289.724,181.2l-4.025,36.38c-1.755-11.835-4.976-18.266,4.025-36.38" transform="translate(-283.672 -181.195)"/>
                  </g>
                </g>
              </g>
              <g id="Grupo_931590" data-name="Grupo 931590" transform="translate(126.202 256.609)" opacity="0.3">
                <g id="Grupo_931589" data-name="Grupo 931589">
                  <g id="Grupo_931588" data-name="Grupo 931588" clip-path="url(#clip-path-27)">
                    <path id="Trazado_695663" data-name="Trazado 695663" d="M338.812,227.822c1.513-1.255,4.859-2.037,6.585-2.975,7.834-4.255,11.986-12.048,15.039-20.423l.27-.938c-.313,11.231-7.431,23.234-17.679,27.839a6,6,0,0,1-3.361.71,2.373,2.373,0,0,1-2.1-2.358,3.047,3.047,0,0,1,1.242-1.855" transform="translate(-337.558 -203.487)"/>
                  </g>
                </g>
              </g>
              <g id="Grupo_931593" data-name="Grupo 931593" transform="translate(267.348 284.953)" opacity="0.3">
                <g id="Grupo_931592" data-name="Grupo 931592">
                  <g id="Grupo_931591" data-name="Grupo 931591" clip-path="url(#clip-path-28)">
                    <path id="Trazado_695664" data-name="Trazado 695664" d="M248.655,253.148c-12.965-4.3-19.216-16.511-22.54-27.185a43.023,43.023,0,0,0,1.651,13.717,21.805,21.805,0,0,0,7.728,11.24,14.706,14.706,0,0,0,13.162,2.228" transform="translate(-226.106 -225.963)"/>
                  </g>
                </g>
              </g>
              <g id="Grupo_931596" data-name="Grupo 931596" transform="translate(388.745 331.66)" opacity="0.3">
                <g id="Grupo_931595" data-name="Grupo 931595">
                  <g id="Grupo_931594" data-name="Grupo 931594" clip-path="url(#clip-path-29)">
                    <path id="Trazado_695665" data-name="Trazado 695665" d="M126.168,263.22a37.662,37.662,0,0,1,26.248,8.472c.533.443,1.11,1.082.88,1.736a1.208,1.208,0,0,1-1.28.68,3.627,3.627,0,0,1-1.431-.6A112.834,112.834,0,0,0,126.168,263" transform="translate(-126.168 -263.001)"/>
                  </g>
                </g>
              </g>
              <g id="Grupo_931599" data-name="Grupo 931599" transform="translate(232.674 305.843)" opacity="0.3">
                <g id="Grupo_931598" data-name="Grupo 931598">
                  <g id="Grupo_931597" data-name="Grupo 931597" clip-path="url(#clip-path-30)">
                    <path id="Trazado_695666" data-name="Trazado 695666" d="M253.041,243.252a2.644,2.644,0,0,1,3.566-.064,7.687,7.687,0,0,1,2.062,3.322q7.7,19.111,15.4,38.223l2.362,5.668q-8.073-13.531-16.145-27.062c-3.221-5.4-6.5-10.95-7.619-17.135a3.621,3.621,0,0,1,.376-2.951" transform="translate(-252.532 -242.529)"/>
                  </g>
                </g>
              </g>
              <path id="Trazado_695667" data-name="Trazado 695667" d="M271.177,77.876c-9.554-13.328-25.376-21.129-41.5-24.086-6.787-1.243-11.236-.342-18,1.027s-12.988,4.552-17.313,9.928c-5.138,6.385-9.573,13.618-10.983,21.691-1.448,8.293-2.9,16.641-2.806,25.059s1.831,17,6.329,24.114l21.079,5.066c11.747,1.153,23.657,2.3,35.3.348s23.177-7.411,29.962-17.07c9.425-13.419,7.492-32.748-2.062-46.077" transform="translate(67.921 13.888)" fill="#263238"/>
              <path id="Trazado_695668" data-name="Trazado 695668" d="M266.824,132.524c.039.054-.381.5-1.344,1.038a10.449,10.449,0,0,1-4.486,1.2,11.4,11.4,0,0,1-6.689-1.8,11.394,11.394,0,0,1-3.132-15.432,11.405,11.405,0,0,1,5.454-4.272,10.465,10.465,0,0,1,4.6-.642,3.267,3.267,0,0,1,1.641.43c0,.256-2.465-.433-5.9,1.048a10.987,10.987,0,0,0-4.807,4.076,10.491,10.491,0,0,0,2.806,13.819,10.984,10.984,0,0,0,6.016,1.876c3.742.024,5.744-1.571,5.844-1.338" transform="translate(-6.318 29.387)" fill="#e0e0e0"/>
              <path id="Trazado_695669" data-name="Trazado 695669" d="M206.407,123.878c-.222-4.842-2.44-9.73-6.449-12.457s-9.845-2.845-13.53.306l-3.6,3.778a13.785,13.785,0,0,0-8.8,13.368,15.106,15.106,0,0,0,9.666,13,16.722,16.722,0,0,0,16.135-2.825,18.748,18.748,0,0,0,6.583-15.174" transform="translate(149.169 28.552)" fill="#263238"/>
              <path id="Trazado_695670" data-name="Trazado 695670" d="M191.361,136.972a7.2,7.2,0,0,0,1.419-4.167c-.005-2.739-1.757-6.442-4.266-9.893a28.9,28.9,0,0,0-8.1-7.395c-2.412-1.5-4.1-2.1-4.033-2.271.028-.1,1.821.252,4.4,1.628a25.764,25.764,0,0,1,8.576,7.411,25.2,25.2,0,0,1,3.11,5.462,11.521,11.521,0,0,1,1.057,5.082,6.013,6.013,0,0,1-1.172,3.317c-.526.662-.951.875-.989.826" transform="translate(159.072 29.56)" fill="#455a64"/>
              <path id="Trazado_695671" data-name="Trazado 695671" d="M190.707,142.172c-.347-.043,1.515-6.395-.05-14.138-1.451-7.768-5.559-12.957-5.254-13.126.09-.074,1.235,1.1,2.614,3.343a29.724,29.724,0,0,1,3.86,19.84c-.436,2.6-1.059,4.116-1.17,4.081" transform="translate(149.012 29.997)" fill="#455a64"/>
              <path id="Trazado_695672" data-name="Trazado 695672" d="M217.179,173.67c.62-7.471,1.188-13.584,1.184-13.55,0,0-17.258-3.024-20.637-25.607-1.68-11.231-.952-29.613.13-44.635.974-13.522,13.67-31.207,30.378-30.2l7.478-.388L263.406,72.4a7.935,7.935,0,0,1,7.025,8.11l-6.069,96.6-51.494,54.217-2.955-15.3Z" transform="translate(56.506 15.478)" fill="#ffbe9d"/>
              <path id="Trazado_695673" data-name="Trazado 695673" d="M237.8,117.412a4.752,4.752,0,0,0-1.453-3.03,4.857,4.857,0,0,0-5.858-.71,6.5,6.5,0,0,0-2.855,5.936,5.913,5.913,0,0,0,4.067,2.719,6.931,6.931,0,0,0,.791.076,5.305,5.305,0,0,0,3.662-1.185,4.73,4.73,0,0,0,1.646-3.8" transform="translate(50.175 29.499)" fill="#eb996e"/>
              <path id="Trazado_695674" data-name="Trazado 695674" d="M244.99,96.237a2.893,2.893,0,0,0,2.763,2.943,2.766,2.766,0,0,0,3.005-2.58A2.894,2.894,0,0,0,248,93.655a2.768,2.768,0,0,0-3.009,2.581" transform="translate(15.327 24.448)" fill="#263238"/>
              <path id="Trazado_695675" data-name="Trazado 695675" d="M241.3,91.059c.356.381,2.561-1.221,5.673-1.185,3.109-.009,5.378,1.613,5.719,1.235.169-.168-.192-.851-1.179-1.584a7.938,7.938,0,0,0-4.575-1.455,7.623,7.623,0,0,0-4.52,1.415c-.963.725-1.294,1.4-1.119,1.575" transform="translate(18.06 22.991)" fill="#263238"/>
              <path id="Trazado_695676" data-name="Trazado 695676" d="M242.626,115.423c.016-.177-1.916-.528-5.047-.957-.793-.09-1.545-.253-1.673-.8a4.046,4.046,0,0,1,.551-2.351q1.146-2.875,2.4-6.03c3.341-8.587,5.767-15.65,5.42-15.781s-3.337,6.721-6.677,15.308q-1.207,3.176-2.306,6.067a4.6,4.6,0,0,0-.44,3.115,2,2,0,0,0,1.3,1.174,5.355,5.355,0,0,0,1.348.2c3.154.2,5.11.23,5.124.053" transform="translate(34.723 23.366)" fill="#263238"/>
              <path id="Trazado_695677" data-name="Trazado 695677" d="M214.48,140.858a57.363,57.363,0,0,0,30.273-7.786s-8.186,15.559-30.737,13.247Z" transform="translate(60.39 34.74)" fill="#eb996e"/>
              <path id="Trazado_695678" data-name="Trazado 695678" d="M238.414,111.83c-.506-.034-.542,3.344-3.455,5.716s-6.506,1.967-6.536,2.439c-.049.212.8.663,2.315.719a8.408,8.408,0,0,0,5.454-1.846,7.317,7.317,0,0,0,2.681-4.795c.141-1.41-.227-2.251-.459-2.233" transform="translate(48.075 29.194)" fill="#263238"/>
              <path id="Trazado_695679" data-name="Trazado 695679" d="M240.83,80.911c.541.711,2.692,0,5.27-.014,2.578-.1,4.757.517,5.266-.218.224-.357-.115-1.068-1.062-1.745a7.63,7.63,0,0,0-8.489.187c-.917.719-1.223,1.444-.985,1.791" transform="translate(19.995 20.294)" fill="#263238"/>
              <path id="Trazado_695680" data-name="Trazado 695680" d="M227.586,96.811a2.892,2.892,0,0,1-2.921,2.786,2.765,2.765,0,0,1-2.858-2.743,2.892,2.892,0,0,1,2.918-2.787,2.768,2.768,0,0,1,2.86,2.744" transform="translate(67.731 24.557)" fill="#263238"/>
              <path id="Trazado_695681" data-name="Trazado 695681" d="M229.353,92.963c-.376.361-2.489-1.361-5.6-1.5-3.1-.182-5.459,1.313-5.779.916-.158-.175.24-.839,1.265-1.516a7.953,7.953,0,0,1,4.65-1.2,7.63,7.63,0,0,1,4.434,1.662c.922.778,1.214,1.474,1.03,1.636" transform="translate(70.787 23.405)" fill="#263238"/>
              <path id="Trazado_695682" data-name="Trazado 695682" d="M228.5,89.551c-.579.68-2.687-.151-5.261-.305-2.568-.245-4.778.253-5.246-.508-.2-.369.173-1.061,1.156-1.685a7.63,7.63,0,0,1,8.465.656c.878.768,1.143,1.509.885,1.842" transform="translate(71.597 22.47)" fill="#263238"/>
              <path id="Trazado_695683" data-name="Trazado 695683" d="M190.4,107.392c.019-1.68,2-5.622,3.657-5.865,4.435-.651,12.414-.223,12.387,11.024-.035,15.376-15.466,12.168-15.492,11.728-.02-.346-.618-11.088-.552-16.887" transform="translate(128.484 26.455)" fill="#ffbe9d"/>
              <path id="Trazado_695684" data-name="Trazado 695684" d="M192.456,117.327c.067-.049.267.188.719.4a2.683,2.683,0,0,0,2,.045c1.627-.591,3-3.168,3.081-5.94a8.844,8.844,0,0,0-.74-3.837,3.087,3.087,0,0,0-2.01-2.059,1.365,1.365,0,0,0-1.583.729c-.207.43-.11.738-.192.763-.043.039-.329-.257-.2-.892a1.711,1.711,0,0,1,.608-.963,2.027,2.027,0,0,1,1.482-.388,3.767,3.767,0,0,1,2.793,2.391,9.1,9.1,0,0,1,.918,4.289c-.106,3.1-1.7,5.994-3.923,6.631a2.871,2.871,0,0,1-2.449-.414c-.475-.38-.555-.724-.5-.752" transform="translate(133.016 27.455)" fill="#eb996e"/>
              <path id="Trazado_695685" data-name="Trazado 695685" d="M238.915,112.743l-4.149,3.788C218.989,99.374,188.72,57,190.4,59.518c0,0,11.815-4,24.174-1.073s35.66,10.7,34.355,25.409-10.014,28.89-10.014,28.89" transform="translate(86.028 14.978)" fill="#263238"/>
              <path id="Trazado_695686" data-name="Trazado 695686" d="M185.856,135.457c-.045.047.314.549,1.2,1.2a10.482,10.482,0,0,0,4.3,1.764,11.414,11.414,0,0,0,6.864-.941,11.391,11.391,0,0,0,5.072-14.907,11.422,11.422,0,0,0-4.868-4.932,10.463,10.463,0,0,0-4.481-1.221,3.27,3.27,0,0,0-1.682.217c-.033.253,2.5-.116,5.721,1.789a10.994,10.994,0,0,1,4.25,4.655,10.491,10.491,0,0,1-4.541,13.35,11,11,0,0,1-6.206,1.1c-3.715-.453-5.5-2.29-5.627-2.071" transform="translate(136.291 30.392)" fill="#e0e0e0"/>
              <path id="Trazado_695687" data-name="Trazado 695687" d="M237.189,126.7a32.573,32.573,0,0,1,.076-3.568,53.714,53.714,0,0,0-.668-9.643c-1.177-8.057-5.135-18.956-12.7-28.9s-16.6-17.031-23.27-21.734c-3.356-2.357-6.149-4.158-8.086-5.39a25.174,25.174,0,0,1-2.97-1.989,3.1,3.1,0,0,1,.85.375c.537.281,1.332.69,2.33,1.265,2.006,1.127,4.868,2.837,8.3,5.127a98.421,98.421,0,0,1,23.686,21.713c7.677,10.088,11.594,21.229,12.6,29.426a46.638,46.638,0,0,1,.343,9.769c-.048,1.153-.224,2.038-.294,2.639a3.076,3.076,0,0,1-.189.909" transform="translate(98.18 14.481)" fill="#455a64"/>
              <path id="Trazado_695688" data-name="Trazado 695688" d="M185.8,55.251a3.249,3.249,0,0,1,.876.351c.56.257,1.372.663,2.407,1.208,2.069,1.09,5.027,2.748,8.545,5.018a129.913,129.913,0,0,1,11.892,8.653A75.475,75.475,0,0,1,222.3,83.207a34.96,34.96,0,0,1,4.614,8.2,32.524,32.524,0,0,1,1.974,8.545,50.871,50.871,0,0,1-.979,14.709c-.832,4.114-1.787,7.366-2.47,9.6-.343,1.117-.631,1.979-.836,2.559a3.168,3.168,0,0,1-.364.87,26.548,26.548,0,0,1,.807-3.54c.562-2.264,1.4-5.535,2.135-9.627a52.407,52.407,0,0,0,.747-14.473,32.06,32.06,0,0,0-1.971-8.273,34.485,34.485,0,0,0-4.5-7.95A77.629,77.629,0,0,0,208.9,71.225a145.657,145.657,0,0,0-11.685-8.779c-3.448-2.335-6.334-4.083-8.336-5.28a28.4,28.4,0,0,1-3.085-1.914" transform="translate(111.654 14.422)" fill="#455a64"/>
              <path id="Trazado_695689" data-name="Trazado 695689" d="M241.791,113.131a14.2,14.2,0,0,1-1.879-2.066L235.1,105.2c-4.028-4.982-9.535-11.907-15.565-19.594s-11.448-14.689-15.327-19.789c-1.829-2.438-3.356-4.476-4.551-6.072a14.228,14.228,0,0,1-1.559-2.317,14.081,14.081,0,0,1,1.875,2.061l4.812,5.864c4.029,4.982,9.539,11.911,15.574,19.6s11.45,14.693,15.329,19.791l4.55,6.071a14.161,14.161,0,0,1,1.555,2.313" transform="translate(83.429 14.991)" fill="#e0e0e0"/>
              <path id="Trazado_695690" data-name="Trazado 695690" d="M225.316,111.187c.071.179,1.33-.266,2.855.084,1.533.313,2.5,1.24,2.633,1.106.16-.078-.723-1.375-2.493-1.748-1.767-.395-3.107.42-3,.557" transform="translate(60.079 28.853)" fill="#eb996e"/>
              <path id="Trazado_695691" data-name="Trazado 695691" d="M212.441,95.812c-.019.175,1.277.448,2.894.347s2.87-.526,2.83-.7-1.311-.05-2.87.042-2.837.124-2.854.309" transform="translate(88.963 24.897)" fill="#eb996e"/>
              <path id="Trazado_695692" data-name="Trazado 695692" d="M213.261,96.586c-.025.184.866.448,1.942.788s1.958.627,2.044.463-.71-.735-1.847-1.09-2.119-.338-2.139-.161" transform="translate(88.843 25.182)" fill="#eb996e"/>
              <path id="Trazado_695693" data-name="Trazado 695693" d="M250.975,94.345c-.062.17.671.6,1.639.952s1.8.5,1.865.333-.672-.6-1.639-.951-1.8-.5-1.865-.334" transform="translate(4.058 24.612)" fill="#eb996e"/>
              <path id="Trazado_695694" data-name="Trazado 695694" d="M250.886,96.985c.059.172.865.049,1.8-.272s1.647-.721,1.588-.893-.865-.049-1.8.272-1.647.721-1.588.893" transform="translate(4.375 24.994)" fill="#eb996e"/>
            </g>
          </g>
          <g id="Grupo_931603" data-name="Grupo 931603">
            <g id="Grupo_931602" data-name="Grupo 931602" clip-path="url(#clip-path-3)">
              <path id="Trazado_695695" data-name="Trazado 695695" d="M0,421.011c0,.182,128.735.328,287.5.328,158.822,0,287.529-.146,287.529-.328s-128.707-.328-287.529-.328c-158.766,0-287.5.146-287.5.328" transform="translate(0 109.823)" fill="#263238"/>
            </g>
          </g>
        </g>
      </g>
    </g>
  </g>
</svg>
