<svg xmlns="http://www.w3.org/2000/svg" xmlns:xlink="http://www.w3.org/1999/xlink" width="95" height="95" viewBox="0 0 95 95">
  <defs>
    <clipPath id="clip-path">
      <rect id="Rectángulo_344573" data-name="Rectángulo 344573" width="60" height="60" transform="translate(561 1137)" fill="#fff" stroke="#707070" stroke-width="1"/>
    </clipPath>
    <clipPath id="clip-path-2">
      <path id="path6375" d="M0-60H60V0H0Z"/>
    </clipPath>
  </defs>
  <g id="Grupo_931526" data-name="Grupo 931526" transform="translate(-543 -2942)">
    <circle id="Elipse_4712" data-name="Elipse 4712" cx="47.5" cy="47.5" r="47.5" transform="translate(543 2942)" fill="#4db1f0"/>
    <g id="Enmascarar_grupo_73" data-name="Enmascarar grupo 73" transform="translate(0 1823)" clip-path="url(#clip-path)">
      <g id="g6369" transform="translate(561 1197)">
        <g id="g6371">
          <g id="g6373" clip-path="url(#clip-path-2)">
            <g id="g6379" transform="translate(42.418 -41.138)">
              <path id="path6381" d="M0,0H-39.734a1.813,1.813,0,0,0-1.806,1.809V27.67a1.813,1.813,0,0,0,1.806,1.808H-33.8v7.136c0,.995.575,1.233,1.277.53l7.656-7.666H0A1.813,1.813,0,0,0,1.806,27.67V1.809A1.813,1.813,0,0,0,0,0" fill="#fda613"/>
            </g>
            <g id="g6383" transform="translate(4.57 -13.468)">
              <path id="path6385" d="M0,0V-25.862A1.813,1.813,0,0,1,1.806-27.67H-1.886a1.813,1.813,0,0,0-1.806,1.809V0A1.813,1.813,0,0,0-1.886,1.808H1.806A1.813,1.813,0,0,1,0,0" fill="#fa8701"/>
            </g>
            <g id="g6387" transform="translate(44.224 -27.656)">
              <path id="path6389" d="M0,0V-11.673a1.813,1.813,0,0,0-1.806-1.809H-41.54a1.813,1.813,0,0,0-1.806,1.809V14.188A1.813,1.813,0,0,0-41.54,16h5.929v7.136c0,.995.575,1.233,1.277.53L-26.678,16h3.9" fill="none" stroke="#000" stroke-linecap="round" stroke-linejoin="round" stroke-miterlimit="10" stroke-width="1.758"/>
            </g>
            <g id="g6391" transform="translate(25.547 -11.66)">
              <path id="path6393" d="M0,0H16.871a1.813,1.813,0,0,0,1.806-1.808V-11.895" fill="none" stroke="#000" stroke-linecap="round" stroke-linejoin="round" stroke-miterlimit="10" stroke-width="1.758"/>
            </g>
            <g id="g6395" transform="translate(35.111 -31.628)">
              <path id="path6397" d="M0,0H-25.119" fill="none" stroke="#000" stroke-linecap="round" stroke-linejoin="round" stroke-miterlimit="10" stroke-width="1.758"/>
            </g>
            <g id="g6399" transform="translate(35.111 -26.333)">
              <path id="path6401" d="M0,0H-25.119" fill="none" stroke="#000" stroke-linecap="round" stroke-linejoin="round" stroke-miterlimit="10" stroke-width="1.758"/>
            </g>
            <g id="g6403" transform="translate(23.251 -21.037)">
              <path id="path6405" d="M0,0H-13.259" fill="none" stroke="#000" stroke-linecap="round" stroke-linejoin="round" stroke-miterlimit="10" stroke-width="1.758"/>
            </g>
            <g id="g6407" transform="translate(0.879 -46.843)">
              <path id="path6409" d="M0,0A.588.588,0,0,0,.586.586H23.807A.588.588,0,0,0,24.392,0V-6.967a.588.588,0,0,0-.586-.586H.586A.588.588,0,0,0,0-6.967Z" fill="#0592fb"/>
            </g>
            <g id="g6411" transform="translate(4.553 -46.843)">
              <path id="path6413" d="M0,0V-6.967a.588.588,0,0,1,.586-.586H-3.088a.588.588,0,0,0-.586.586V0a.588.588,0,0,0,.586.586H.586A.588.588,0,0,1,0,0" fill="#0181fb"/>
            </g>
            <g id="g6415" transform="translate(21.563 -46.257)">
              <path id="path6417" d="M0,0H3.123a.588.588,0,0,0,.586-.586V-7.553a.588.588,0,0,0-.586-.586H-20.1a.588.588,0,0,0-.586.586V-.586A.588.588,0,0,0-20.1,0H-4.219" fill="none" stroke="#000" stroke-linecap="round" stroke-linejoin="round" stroke-miterlimit="10" stroke-width="1.758"/>
            </g>
            <g id="g6419" transform="translate(4.98 -50.326)">
              <path id="path6421" d="M0,0H15.441" fill="none" stroke="#000" stroke-linecap="round" stroke-linejoin="round" stroke-miterlimit="10" stroke-width="1.758"/>
            </g>
            <g id="g6423" transform="translate(59.121 -44.186)">
              <path id="path6425" d="M0,0A12.225,12.225,0,0,1-12.225,12.225,12.225,12.225,0,0,1-24.449,0,12.225,12.225,0,0,1-12.225-12.225,12.224,12.224,0,0,1,0,0" fill="#fd646f"/>
            </g>
            <g id="g6427" transform="translate(38.32 -44.186)">
              <path id="path6429" d="M0,0A12.227,12.227,0,0,1,10.4-12.089a12.32,12.32,0,0,0-1.824-.136A12.225,12.225,0,0,0-3.649,0,12.225,12.225,0,0,0,8.576,12.225a12.32,12.32,0,0,0,1.824-.136A12.227,12.227,0,0,1,0,0" fill="#fc4755"/>
            </g>
            <g id="g6431" transform="translate(59.121 -44.186)">
              <path id="path6433" d="M0,0A12.225,12.225,0,0,1-12.225,12.225,12.225,12.225,0,0,1-24.449,0,12.225,12.225,0,0,1-12.225-12.225,12.224,12.224,0,0,1,0,0Z" fill="none" stroke="#000" stroke-linecap="round" stroke-miterlimit="10" stroke-width="1.758"/>
            </g>
            <g id="g6435" transform="translate(42.751 -39.071)">
              <path id="path6437" d="M0,0A5.9,5.9,0,0,1,8.29,0" fill="none" stroke="#000" stroke-linecap="round" stroke-miterlimit="10" stroke-width="1.758"/>
            </g>
            <g id="g6439" transform="translate(43.96 -47.279)">
              <path id="path6441" d="M0,0A2.083,2.083,0,0,1-2.1,2.069,2.083,2.083,0,0,1-4.194,0" fill="none" stroke="#000" stroke-linecap="round" stroke-miterlimit="10" stroke-width="1.758"/>
            </g>
            <g id="g6443" transform="translate(54.027 -47.279)">
              <path id="path6445" d="M0,0A2.083,2.083,0,0,1-2.1,2.069,2.083,2.083,0,0,1-4.195,0" fill="none" stroke="#000" stroke-linecap="round" stroke-miterlimit="10" stroke-width="1.758"/>
            </g>
          </g>
        </g>
      </g>
    </g>
  </g>
</svg>
