<svg xmlns="http://www.w3.org/2000/svg" width="98" height="98" viewBox="0 0 98 98">
  <g id="Grupo_1010365" data-name="Grupo 1010365" transform="translate(-1224 -2554.863)">
    <circle id="Elipse_4952" data-name="Elipse 4952" cx="49" cy="49" r="49" transform="translate(1224 2554.863)" fill="#0098e8"/>
    <g id="g843" transform="translate(1230.665 3245.738)">
      <g id="g845" transform="translate(11.334 -672.665)">
        <g id="Grupo_1010333" data-name="Grupo 1010333" transform="translate(0 0)">
          <g id="g853" transform="translate(26.667 43.936)">
            <path id="path855" d="M-36.456,0c-4.638,2.68-6.656,15.849,5.52,15.622H-7.792a1.286,1.286,0,0,0,.6-1.136V0h-.575c-.155.01-.341,0-.554,0Z" transform="translate(40.072)" fill="#cecece" fill-rule="evenodd"/>
          </g>
          <g id="g857" transform="translate(22.635 27.058)">
            <path id="path859" d="M-215.341-170.191h14.983c.368-.024.575-.162.575-.806v-7.5c0-4.4-4.508-7.7-8.5-8.551l-18.8-.024a12.731,12.731,0,0,0-4.425,1.849s-5.642,6.952-5.167,11.635l1.263,3.2c1.3.194,10.337.194,10.337.194h9.728Z" transform="translate(236.697 187.07)" fill="#7bacdf" fill-rule="evenodd"/>
          </g>
          <g id="g861" transform="translate(37.302 30.746)">
            <path id="path863" d="M-25.126-12.953l-2.466,8.224c-.024.072-.041.076-.007.138l1.87,3.544h4.8l1.873-3.544c.031-.062.014-.065-.007-.138l-2.469-8.224-1.715-1.285Z" transform="translate(27.617 14.237)" fill="#fe9737" fill-rule="evenodd"/>
          </g>
          <g id="g865" transform="translate(39.057 26.741)">
            <path id="path867" d="M-26.388,0l-1.88.74L-29.005,2.4l.737,2.886h3.6l.768-3.007L-24.673.5Z" transform="translate(29.005)" fill="#fe7600" fill-rule="evenodd"/>
          </g>
          <g id="g869" transform="translate(32.249 23.731)">
            <path id="path871" d="M-36.284-5.556c-1.3.988-3.123,2.428-3.6,2.769l.007.007L-35.461.5c.937.586.282.665,1.718-.579l.668-.613,2.617-2.4h-.083l-1.829-3.01Z" transform="translate(39.883 6.107)" fill="#0078c8" fill-rule="evenodd"/>
          </g>
          <g id="g873" transform="translate(41.674 23.858)">
            <path id="path875" d="M0-29.065l2.483,2.283.8.734c1.439,1.243.785,1.164,1.722.579L9.38-28.724l.041-.031C8.94-29.107,7.045-30.6,5.74-31.59l-3.747-.358Z" transform="translate(0 31.948)" fill="#0078c8" fill-rule="evenodd"/>
          </g>
          <g id="g877" transform="translate(31.729 5.761)">
            <path id="path879" d="M0-110.255a6.527,6.527,0,0,0,.176,1.481,11.939,11.939,0,0,0,3.943,6.106,11.151,11.151,0,0,0,3.275,1.956,6.969,6.969,0,0,0,2.469.5h.083a7.033,7.033,0,0,0,2.39-.5,11.269,11.269,0,0,0,3.351-2.022,11.937,11.937,0,0,0,3.867-6.041,6.73,6.73,0,0,0,.176-1.481v-6.2H17.913c-3.84,0-4.642-4.732-9.335-4.732H5.458c-3.6,0-.858,5.455-4.993,5.455H0Z" transform="translate(0 121.189)" fill="#ffe5c1" fill-rule="evenodd"/>
          </g>
          <g id="g881" transform="translate(31.723 0.001)">
            <path id="path883" d="M-44.572-21.58c-4.766.42-4.415,6.767-4.415,7.6v3.919h.465c4.136,0,1.4-5.455,4.993-5.455h3.12c4.694,0,5.5,4.735,9.335,4.735h1.815v-4.687c0-7.239-11.663-10.852-15.313-6.113" transform="translate(48.992 23.72)" fill="#838383" fill-rule="evenodd"/>
          </g>
          <g id="g885" transform="translate(40.717 26.741)">
            <path id="path887" d="M0-8.855l1.2,1.55c.42.465.307.393.083,1.274L.875-4.444h1.8L3.44-7.45.957-9.733Z" transform="translate(0 9.733)" fill="#e6581f" fill-rule="evenodd"/>
          </g>
          <g id="g889" transform="translate(41.498 32.031)">
            <path id="path891" d="M0,0,2.466,8.224c.024.072.041.076.007.138L.6,11.906H2.493L4.366,8.362C4.4,8.3,4.38,8.3,4.359,8.224L1.891,0Z" fill="#f36b37" fill-rule="evenodd"/>
          </g>
          <g id="g893" transform="translate(33.778 24.282)">
            <path id="path895" d="M0-16.079a14.948,14.948,0,0,0,4.525,2.748q.439.165.858.289l.114.031,1.443-1.326.957-.878H7.813a6.969,6.969,0,0,1-2.469-.5A11.148,11.148,0,0,1,2.07-17.673C1.433-17.191.668-16.6,0-16.079" transform="translate(0 17.673)" fill="#0067b4" fill-rule="evenodd"/>
          </g>
          <g id="g897" transform="translate(41.674 24.217)">
            <path id="path899" d="M-57.882,0a11.267,11.267,0,0,1-3.351,2.022,7.033,7.033,0,0,1-2.39.5l2.359,2.17.065-.021c.255-.076.517-.165.785-.265a15.04,15.04,0,0,0,4.6-2.814C-56.491,1.068-57.255.475-57.882,0" transform="translate(63.623)" fill="#0067b4" fill-rule="evenodd"/>
          </g>
          <g id="g901" transform="translate(40.341)">
            <path id="path903" d="M-83.055-104.478v2.445a4.184,4.184,0,0,0,1.064.134h1.815v-4.687c0-5.331-6.326-8.7-11.116-8.207,4.112.747,8.237,3.768,8.237,8.076Z" transform="translate(91.292 114.84)" fill="#595959" fill-rule="evenodd"/>
          </g>
          <g id="g905" transform="translate(39.883 12.807)">
            <path id="path907" d="M-87.673-37.885a6.527,6.527,0,0,1-.176,1.481A12.311,12.311,0,0,1-93.7-28.972a9.659,9.659,0,0,1-2.665,1.012,6.179,6.179,0,0,0,1.708.251h.083a7.037,7.037,0,0,0,2.39-.5,11.27,11.27,0,0,0,3.351-2.022,11.938,11.938,0,0,0,3.867-6.041,6.735,6.735,0,0,0,.176-1.481v-3.754h-1.815a4.19,4.19,0,0,1-1.064-.134Z" transform="translate(96.368 41.643)" fill="#fed1a3" fill-rule="evenodd"/>
          </g>
          <g id="g909" transform="translate(27.173 27.058)">
            <path id="path911" d="M0-23.371a12.746,12.746,0,0,1,5.083-2.318" transform="translate(0 25.689)" fill="none" stroke="#000" stroke-linecap="round" stroke-linejoin="round" stroke-miterlimit="10" stroke-width="2"/>
          </g>
          <g id="g913" transform="translate(39.057 29.024)">
            <path id="path915" d="M-51.424,0l-.768,3.007h-3.6L-56.524.121" transform="translate(56.524)" fill="none" stroke="#000" stroke-linecap="round" stroke-linejoin="round" stroke-miterlimit="10" stroke-width="2"/>
          </g>
          <g id="g917" transform="translate(37.302 32.031)">
            <path id="path919" d="M-25.126,0l-1.405,4.687-1.061,3.537c-.024.072-.041.076-.007.138l1.87,3.544" transform="translate(27.617)" fill="none" stroke="#000" stroke-linecap="round" stroke-linejoin="round" stroke-miterlimit="10" stroke-width="2"/>
          </g>
          <g id="g921" transform="translate(43.389 32.031)">
            <path id="path923" d="M0,0,2.469,8.224c.021.072.038.076.007.138L.6,11.906" fill="none" stroke="#000" stroke-linecap="round" stroke-linejoin="round" stroke-miterlimit="10" stroke-width="2"/>
          </g>
          <g id="g925" transform="translate(32.249 24.282)">
            <path id="path927" d="M-94.2-24.794h.083L-97.4-21.777c-1.436,1.243-.782,1.164-1.718.579l-4.422-3.285c.475-.341,2.3-1.781,3.6-2.769" transform="translate(103.544 27.253)" fill="none" stroke="#000" stroke-linecap="round" stroke-linejoin="round" stroke-miterlimit="10" stroke-width="2"/>
          </g>
          <g id="g929" transform="translate(31.729 11.357)">
            <path id="path931" d="M0,0V5.338A6.526,6.526,0,0,0,.176,6.819a12.253,12.253,0,0,0,7.218,8.062,6.969,6.969,0,0,0,2.469.5,6.986,6.986,0,0,0,2.472-.5,12.27,12.27,0,0,0,7.218-8.062,6.729,6.729,0,0,0,.176-1.481V.148" fill="none" stroke="#000" stroke-linecap="round" stroke-linejoin="round" stroke-miterlimit="10" stroke-width="2"/>
          </g>
          <g id="g941" transform="translate(31.723 0.001)">
            <path id="path943" d="M-.058-137.738H.406c4.136,0,1.4-5.455,4.993-5.455H8.52c4.693,0,5.5,4.735,9.335,4.735H19.67v-4.687c0-7.239-11.663-10.852-15.313-6.113-4.766.42-4.415,6.767-4.415,7.6Z" transform="translate(0.064 151.398)" fill="none" stroke="#000" stroke-linecap="round" stroke-linejoin="round" stroke-miterlimit="10" stroke-width="2"/>
          </g>
          <g id="g945" transform="translate(52.738 38.64)">
            <path id="path947" d="M0,0V5.3" fill="none" stroke="#000" stroke-linecap="round" stroke-linejoin="round" stroke-miterlimit="10" stroke-width="2"/>
          </g>
          <g id="g949" transform="translate(0 41.976)">
            <path id="path951" d="M-86.909-9.388c-4.019.806-8.619,4.126-8.619,8.575v7.5a1.184,1.184,0,0,0,.107.579c.169.282.527.227,1.019.227h33.657c.214,0,.4.01.554,0a.521.521,0,0,0,.465-.227,1.139,1.139,0,0,0,.11-.579v-7.5c0-3.358-2.621-6.068-5.63-7.546a12.438,12.438,0,0,0-2.992-1.03c-3.943-1.329-16.2-1.15-18.671,0" transform="translate(95.528 10.319)" fill="#f9f7f7" fill-rule="evenodd"/>
          </g>
          <g id="g957" transform="translate(6.253 54.489)">
            <path id="path959" d="M0,0V5.3" fill="none" stroke="#000" stroke-linecap="round" stroke-linejoin="round" stroke-miterlimit="10" stroke-width="2"/>
          </g>
          <g id="g961" transform="translate(29.101 54.489)">
            <path id="path963" d="M0,0V5.3" fill="none" stroke="#000" stroke-linecap="round" stroke-linejoin="round" stroke-miterlimit="10" stroke-width="2"/>
          </g>
          <g id="g965" transform="translate(8.092 31.304)">
            <path id="path967" d="M-198.922,0H-218.65a6.534,6.534,0,0,0,.176,1.481A12.112,12.112,0,0,0-214,8.014l4.759,2.015,5.661-2.015a12.1,12.1,0,0,0,4.48-6.533A6.738,6.738,0,0,0-198.922,0" transform="translate(218.65)" fill="#ffe5c1" fill-rule="evenodd"/>
          </g>
          <g id="g969" transform="translate(8.087 14.61)">
            <path id="path971" d="M-.058-114.506v5.338c3.4,4.715,14.714,5.489,19.728,0l.01-2.4.031-6.044c.034-7.239-11.7-10.852-15.355-6.113-4.766.42-4.415,6.764-4.415,7.6Z" transform="translate(0.064 125.862)" fill="#838383" fill-rule="evenodd"/>
          </g>
          <g id="g973" transform="translate(8.573 39.318)">
            <path id="path975" d="M-147.132,0h-11.829c-.338,0-.42.338-.616.613l-2.1,2.976c-.2.275.275.613.616.613h17.442c.337,0,.789-.324.613-.613L-144.8.613c-.172-.289-.275-.613-.613-.613Z" transform="translate(161.724)" fill="#cecece" fill-rule="evenodd"/>
          </g>
          <g id="g977" transform="translate(24.291 42.907)">
            <path id="path979" d="M-24.063-6.182h-2.386c.313.127.627.265.937.417,3.01,1.477,5.63,4.188,5.63,7.546v7.5a1.139,1.139,0,0,1-.11.579.521.521,0,0,1-.465.227h4.5c.214,0,.4.01.554,0a.521.521,0,0,0,.465-.227,1.14,1.14,0,0,0,.11-.579v-7.5c0-3.358-2.621-6.068-5.63-7.546a12.439,12.439,0,0,0-2.992-1.03c.176.289-.275.613-.613.613" transform="translate(26.449 6.795)" fill="#e2e2e2" fill-rule="evenodd"/>
          </g>
          <g id="g981" transform="translate(19.831 39.318)">
            <path id="path983" d="M-7.951-9.133l.265.437.857,1.426.5.82c.172.289-.279.613-.616.613h5.055c.337,0,.788-.324.613-.613L-3.072-9.426c-.172-.289-.275-.613-.613-.613H-8.74c.337,0,.441.324.613.613Z" transform="translate(8.74 10.039)" fill="#b5adb6" fill-rule="evenodd"/>
          </g>
          <g id="g985" transform="translate(14.294 14.61)">
            <path id="path987" d="M-91.284-89.711l-.031,6.044-.01,1.753,0,.644a6.534,6.534,0,0,1-.176,1.481,8.959,8.959,0,0,1-.269.937,11.441,11.441,0,0,0,4.962-3.062l.01-2.4.031-6.044c.031-6.3-8.857-9.853-13.568-7.546,4.377.475,9.074,3.606,9.053,8.19" transform="translate(100.337 98.609)" fill="#595959" fill-rule="evenodd"/>
          </g>
          <g id="g989" transform="translate(19.432 31.304)">
            <path id="path991" d="M-84.583,0a11.441,11.441,0,0,1-4.962,3.062,12.394,12.394,0,0,1-3.426,4.952h3.733a12.1,12.1,0,0,0,4.48-6.533A6.737,6.737,0,0,0-84.583,0" transform="translate(92.972)" fill="#fed1a3" fill-rule="evenodd"/>
          </g>
          <g id="g993" transform="translate(48.434 27.082)">
            <path id="path995" d="M-26.423,0l-2.621,1.949c3.736,1.116,7.607,4.246,7.607,8.327v6.578H-18.5c.368-.024.575-.162.575-.806v-7.5c0-4.4-4.508-7.7-8.5-8.551" transform="translate(29.044)" fill="#3987d0" fill-rule="evenodd"/>
          </g>
          <g id="g997" transform="translate(41.674 24.216)">
            <path id="path999" d="M0-25.454H0l3.282,3.017c1.439,1.243.785,1.164,1.722.579l4.418-3.285C8.94-25.5,7.045-26.99,5.74-27.979" transform="translate(0 27.979)" fill="none" stroke="#000" stroke-linecap="round" stroke-linejoin="round" stroke-miterlimit="10" stroke-width="2"/>
          </g>
          <g id="g1001" transform="translate(0 42.907)">
            <path id="path1003" d="M-37.082-22.293A12.752,12.752,0,0,1-32.141-24.5m9.336,16.879H-39.634c-.7,0-1.126.114-1.126-.806v-7.5a6.723,6.723,0,0,1,.875-3.279" transform="translate(40.76 24.504)" fill="none" stroke="#000" stroke-linecap="round" stroke-linejoin="round" stroke-miterlimit="10" stroke-width="2"/>
          </g>
          <g id="g1005" transform="translate(8.087 14.61)">
            <path id="path1007" d="M-.058-168.331c3.4,4.715,14.714,5.49,19.728,0l.041-8.441c.034-7.239-11.7-10.852-15.355-6.113-4.766.42-4.415,6.764-4.415,7.6Z" transform="translate(0.064 185.026)" fill="none" stroke="#000" stroke-linecap="round" stroke-linejoin="round" stroke-miterlimit="10" stroke-width="2"/>
          </g>
          <g id="g1009" transform="translate(8.573 39.318)">
            <path id="path1011" d="M-6.682-42.366H10.76c.337,0,.789-.324.613-.613L9.582-45.955c-.172-.289-.275-.613-.613-.613H-4.581c-.338,0-.42.338-.616.613l-2.1,2.976C-7.494-42.7-7.022-42.366-6.682-42.366Z" transform="translate(7.344 46.568)" fill="none" stroke="#000" stroke-linecap="round" stroke-linejoin="round" stroke-miterlimit="10" stroke-width="2"/>
          </g>
          <g id="g1013" transform="translate(8.092 31.304)">
            <path id="path1015" d="M-151.978-80.807a12.118,12.118,0,0,0,4.48-6.533,6.731,6.731,0,0,0,.176-1.481m-19.728,0a6.533,6.533,0,0,0,.176,1.481,12.112,12.112,0,0,0,4.477,6.533" transform="translate(167.05 88.821)" fill="none" stroke="#000" stroke-linecap="round" stroke-linejoin="round" stroke-miterlimit="10" stroke-width="2"/>
          </g>
          <g id="g1017" transform="translate(48.072 43.936)">
            <path id="path1019" d="M-49.132-119.943a14.547,14.547,0,0,1-4.873,3.726H-43.13a1.286,1.286,0,0,0,.6-1.137v-14.485H-43.1c-.155.01-.341,0-.554,0h-2.328a13.647,13.647,0,0,1-3.147,11.9" transform="translate(54.005 131.838)" fill="#b5adb6" fill-rule="evenodd"/>
          </g>
          <g id="g1021" transform="translate(41.591 27.058)">
            <path id="path1023" d="M-141.319-20.384A12.76,12.76,0,0,0-146-22.405m-9.336,16.879h16.829c.706,0,1.129.114,1.129-.806v-7.5a6.73,6.73,0,0,0-.9-3.316" transform="translate(155.334 22.405)" fill="none" stroke="#000" stroke-linecap="round" stroke-linejoin="round" stroke-miterlimit="10" stroke-width="2"/>
          </g>
          <g id="g1025" transform="translate(17.955 42.907)">
            <path id="path1027" d="M0-170.191H16.829c.706,0,1.129.114,1.129-.806v-7.5c0-4.449-4.6-7.769-8.623-8.575" transform="translate(0 187.07)" fill="none" stroke="#000" stroke-linecap="round" stroke-linejoin="round" stroke-miterlimit="10" stroke-width="2"/>
          </g>
          <g id="g1029" transform="translate(21.908 43.936)">
            <path id="path1031" d="M0-159.808H36.106a1.348,1.348,0,0,0,1.536-1.364v-14.485H8.375" transform="translate(0 175.657)" fill="none" stroke="#000" stroke-linecap="round" stroke-linejoin="round" stroke-miterlimit="10" stroke-width="2"/>
          </g>
        </g>
      </g>
    </g>
  </g>
</svg>
