<svg id="Page-1" xmlns="http://www.w3.org/2000/svg" width="61.975" height="61.998" viewBox="0 0 61.975 61.998">
  <g id="_042---Checklist-Goals" data-name="042---Checklist-Goals" transform="translate(0 0)">
    <g id="Cartoony" transform="translate(1.033 1.033)">
      <path id="Shape" d="M39.251,27.175V9.1a3.1,3.1,0,0,0-3.1-3.1H3.1A3.1,3.1,0,0,0,0,9.1V52.481a3.1,3.1,0,0,0,3.1,3.1H39.251Z" transform="translate(0 0.198)" fill="sienna"/>
      <path id="Shape-2" data-name="Shape" d="M35.1,6H32a3.1,3.1,0,0,1,3.1,3.1V55.58h3.1V9.1A3.1,3.1,0,0,0,35.1,6Z" transform="translate(1.053 0.198)" fill="#783e22"/>
      <path id="Shape-3" data-name="Shape" d="M34.988,28.737v-17.7A1.033,1.033,0,0,0,33.955,10H5.033A1.033,1.033,0,0,0,4,11.033V50.284a1.033,1.033,0,0,0,1.033,1.033H34.988Z" transform="translate(0.132 0.329)" fill="#ffe0b2"/>
      <path id="Shape-4" data-name="Shape" d="M33.1,10H30a1.033,1.033,0,0,1,1.033,1.033V51.317h3.1V11.033A1.033,1.033,0,0,0,33.1,10Z" transform="translate(0.988 0.329)" fill="#dfc49c"/>
      <path id="Shape-5" data-name="Shape" d="M8,8.263v2.066a1.033,1.033,0,0,0,1.033,1.033H29.691a1.033,1.033,0,0,0,1.033-1.033V8.263a3.1,3.1,0,0,0-3.1-3.1H23.494V4.132a4.132,4.132,0,0,0-8.263,0V5.165H11.1A3.1,3.1,0,0,0,8,8.263Z" transform="translate(0.263)" fill="#ffdc00"/>
      <path id="Shape-6" data-name="Shape" d="M27.1,5H24a3.1,3.1,0,0,1,3.1,3.1v2.066A1.033,1.033,0,0,1,26.066,11.2h3.1A1.033,1.033,0,0,0,30.2,10.165V8.1A3.1,3.1,0,0,0,27.1,5Z" transform="translate(0.79 0.165)" fill="#fec108"/>
      <path id="Shape-7" data-name="Shape" d="M20.082,4.132V5.165h3.1V4.132A4.118,4.118,0,0,0,17.5.31a4.132,4.132,0,0,1,2.582,3.822Z" transform="translate(0.576 0)" fill="#fec108"/>
      <circle id="Oval" cx="16.527" cy="16.527" r="16.527" transform="translate(26.856 26.856)" fill="#f44335"/>
      <path id="Shape-8" data-name="Shape" d="M42.049,26c-.523,0-1.039.031-1.549.079a16.521,16.521,0,0,1,0,32.9c.51.048,1.027.079,1.549.079a16.527,16.527,0,1,0,0-33.053Z" transform="translate(1.333 0.856)" fill="#c81e1e"/>
      <circle id="Oval-2" data-name="Oval" cx="12.395" cy="12.395" r="12.395" transform="translate(30.988 30.988)" fill="#f5f5f5"/>
      <path id="Shape-9" data-name="Shape" d="M42.049,30a12.374,12.374,0,0,0-1.549.1,12.384,12.384,0,0,1,0,24.575A12.4,12.4,0,1,0,42.049,30Z" transform="translate(1.333 0.988)" fill="#cfd8dc"/>
      <circle id="Oval-3" data-name="Oval" cx="8.263" cy="8.263" r="8.263" transform="translate(35.119 35.119)" fill="#f44335"/>
      <path id="Shape-10" data-name="Shape" d="M42.049,34a8.242,8.242,0,0,0-1.549.151,8.263,8.263,0,0,1,0,16.225A8.263,8.263,0,1,0,42.049,34Z" transform="translate(1.333 1.119)" fill="#c81e1e"/>
      <circle id="Oval-4" data-name="Oval" cx="4.132" cy="4.132" r="4.132" transform="translate(39.251 39.251)" fill="#607d8b"/>
      <path id="Shape-11" data-name="Shape" d="M42.049,38a4.1,4.1,0,0,0-1.549.31,4.122,4.122,0,0,1,0,7.644A4.132,4.132,0,1,0,42.049,38Z" transform="translate(1.333 1.251)" fill="#37474f"/>
    </g>
    <g id="Icons">
      <circle id="Oval-5" data-name="Oval" cx="1.033" cy="1.033" r="1.033" transform="translate(19.625 4.132)"/>
      <path id="Shape-12" data-name="Shape" d="M61.673,27.159a1.033,1.033,0,0,0-1.461,0l-.375.374a1.028,1.028,0,0,0-1.994.356v1.638l-1.782,1.782a17.3,17.3,0,0,0-14.745-4.163V10.329A4.132,4.132,0,0,0,37.185,6.2H31.626a4.1,4.1,0,0,0-2.7-1.033h-3.1a5.165,5.165,0,1,0-10.329,0H12.4A4.1,4.1,0,0,0,9.691,6.2H4.132A4.132,4.132,0,0,0,0,10.329V53.712a4.132,4.132,0,0,0,4.132,4.132H33.124c.355.3.723.577,1.105.847L33.2,60.412a1.033,1.033,0,1,0,1.772,1.06l1-1.669a17.5,17.5,0,0,0,16.89,0l1,1.669a1.033,1.033,0,0,0,1.772-1.06L54.594,58.69a17.484,17.484,0,0,0,2.92-25.921l1.79-1.782h1.638a1.033,1.033,0,0,0,.356-1.995l.374-.374a1.033,1.033,0,0,0,0-1.461ZM39.251,10.329v17.3a17.25,17.25,0,0,0-2.066.8V12.4a2.066,2.066,0,0,0-2.066-2.066H33.053V9.3a4.069,4.069,0,0,0-.147-1.033h4.278a2.066,2.066,0,0,1,2.066,2.066ZM10.329,9.3A2.066,2.066,0,0,1,12.4,7.23h3.1V8.263a1.033,1.033,0,1,0,2.066,0v-3.1a3.1,3.1,0,0,1,6.2,0v3.1a1.033,1.033,0,1,0,2.066,0V7.23h3.1A2.066,2.066,0,0,1,30.988,9.3v2.066H10.329Zm20.658,4.132A2.059,2.059,0,0,0,32.766,12.4h2.353V29.541a17.472,17.472,0,0,0-6.687,22.1H6.2V12.4H8.551a2.059,2.059,0,0,0,1.779,1.033ZM2.066,53.712V10.329A2.066,2.066,0,0,1,4.132,8.263H8.41A4.069,4.069,0,0,0,8.263,9.3v1.033H6.2A2.066,2.066,0,0,0,4.132,12.4V51.646A2.066,2.066,0,0,0,6.2,53.712H29.541a17.547,17.547,0,0,0,1.506,2.066H4.132A2.066,2.066,0,0,1,2.066,53.712Zm57.843-9.3A15.547,15.547,0,1,1,54.6,32.769L53.141,34.23A13.468,13.468,0,1,0,54.6,35.69l1.461-1.461a15.412,15.412,0,0,1,3.848,10.186Zm-8.263,0a7.259,7.259,0,1,1-2.909-5.784l-1.478,1.478A5.18,5.18,0,1,0,48.72,41.57l1.48-1.476a7.182,7.182,0,0,1,1.446,4.322Zm-4.132,0a3.1,3.1,0,1,1-3.1-3.1,3.048,3.048,0,0,1,1.327.31l-2.058,2.058a1.033,1.033,0,1,0,1.461,1.461L47.2,43.088A3.048,3.048,0,0,1,47.514,44.416Zm2.7-7.256a9.32,9.32,0,1,0,1.461,1.461l1.47-1.47a11.38,11.38,0,1,1-1.461-1.461Z" transform="translate(0 0)"/>
      <path id="Shape-13" data-name="Shape" d="M10.335,20.862a1.033,1.033,0,0,0,.73.3h.1a1.033,1.033,0,0,0,.757-.454l2.066-3.1a1.033,1.033,0,0,0-1.719-1.147l-1.367,2.051-.143-.143A1.033,1.033,0,0,0,9.3,19.834Z" transform="translate(0.297 0.527)"/>
      <path id="Shape-14" data-name="Shape" d="M17.033,20.066H30.461a1.033,1.033,0,0,0,0-2.066H17.033a1.033,1.033,0,1,0,0,2.066Z" transform="translate(0.527 0.593)"/>
      <path id="Shape-15" data-name="Shape" d="M10.335,28.862a1.033,1.033,0,0,0,.73.3h.1a1.033,1.033,0,0,0,.757-.454l2.066-3.1a1.033,1.033,0,1,0-1.719-1.147l-1.367,2.051-.143-.143A1.033,1.033,0,0,0,9.3,27.834Z" transform="translate(0.297 0.79)"/>
      <path id="Shape-16" data-name="Shape" d="M17.033,28.066H30.461a1.033,1.033,0,0,0,0-2.066H17.033a1.033,1.033,0,1,0,0,2.066Z" transform="translate(0.527 0.856)"/>
      <path id="Shape-17" data-name="Shape" d="M17.033,44.066h6.2a1.033,1.033,0,0,0,0-2.066h-6.2a1.033,1.033,0,0,0,0,2.066Z" transform="translate(0.527 1.383)"/>
      <path id="Shape-18" data-name="Shape" d="M10.335,36.862a1.033,1.033,0,0,0,.73.3.706.706,0,0,0,.1-.005,1.033,1.033,0,0,0,.757-.454l2.066-3.1a1.033,1.033,0,0,0-1.719-1.147l-1.367,2.051-.143-.143A1.033,1.033,0,0,0,9.3,35.829Z" transform="translate(0.297 1.053)"/>
      <path id="Shape-19" data-name="Shape" d="M10.335,44.862a1.033,1.033,0,0,0,.73.3.705.705,0,0,0,.1-.005,1.033,1.033,0,0,0,.757-.454l2.066-3.1a1.033,1.033,0,0,0-1.719-1.147l-1.367,2.051-.143-.143A1.033,1.033,0,0,0,9.3,43.829Z" transform="translate(0.297 1.317)"/>
      <path id="Shape-20" data-name="Shape" d="M17.033,36.066h7.922a1.033,1.033,0,1,0,0-2.066H17.033a1.033,1.033,0,1,0,0,2.066Z" transform="translate(0.527 1.119)"/>
    </g>
  </g>
</svg>
