<svg xmlns="http://www.w3.org/2000/svg" width="62" height="62" viewBox="0 0 62 62">
  <g id="aprendizaje-automatico" transform="translate(-1 -1)">
    <g id="Grupo_1010348" data-name="Grupo 1010348">
      <g id="Grupo_1010338" data-name="Grupo 1010338">
        <path id="Trazado_726114" data-name="Trazado 726114" d="M8.24,36.33a6.016,6.016,0,0,1-2.69-7.85,6,6,0,0,1,.01-10.96A5.888,5.888,0,0,1,5,15,5.983,5.983,0,0,1,8.24,9.68,6.256,6.256,0,0,1,8,8,6,6,0,1,1,20,8V38A6,6,0,0,1,8,38,5.814,5.814,0,0,1,8.24,36.33Z" fill="#ecc19c"/>
      </g>
      <g id="Grupo_1010339" data-name="Grupo 1010339">
        <path id="Trazado_726115" data-name="Trazado 726115" d="M20,38V8A6,6,0,0,1,32,8a5.814,5.814,0,0,1-.24,1.67,6.016,6.016,0,0,1,2.69,7.85,6,6,0,0,1-.01,10.96A5.888,5.888,0,0,1,35,31a5.983,5.983,0,0,1-3.24,5.32A6.256,6.256,0,0,1,32,38a6,6,0,0,1-12,0Z" fill="#ecc19c"/>
      </g>
      <g id="Grupo_1010340" data-name="Grupo 1010340">
        <path id="Trazado_726116" data-name="Trazado 726116" d="M50,8v6H46V8Z" fill="#b4dd7f"/>
      </g>
      <g id="Grupo_1010341" data-name="Grupo 1010341">
        <path id="Trazado_726117" data-name="Trazado 726117" d="M62,2V14H58V2Z" fill="#b4dd7f"/>
      </g>
      <g id="Grupo_1010342" data-name="Grupo 1010342">
        <path id="Trazado_726118" data-name="Trazado 726118" d="M58,4V14H54V4Z" fill="#b4dd7f"/>
      </g>
      <g id="Grupo_1010343" data-name="Grupo 1010343">
        <path id="Trazado_726119" data-name="Trazado 726119" d="M54,6v8H50V6Z" fill="#b4dd7f"/>
      </g>
      <g id="Grupo_1010344" data-name="Grupo 1010344">
        <path id="Trazado_726120" data-name="Trazado 726120" d="M62,52v4l-1.48.54c-.04.09-.07.19-.11.28l.66,1.42-2.83,2.83-1.42-.66c-.09.04-.19.07-.28.11L56,62H52l-.54-1.48c-.09-.04-.19-.07-.28-.11l-1.42.66-2.83-2.83.66-1.42c-.04-.09-.07-.19-.11-.28L46,56V52l1.48-.54c.04-.09.07-.19.11-.28l-.66-1.42,2.83-2.83,1.42.66c.09-.04.19-.07.28-.11L52,46h4l.54,1.48c.09.04.19.07.28.11l1.42-.66,2.83,2.83-.66,1.42c.04.09.07.19.11.28Zm-4,2a4,4,0,1,0-4,4A4,4,0,0,0,58,54Z" fill="#fcd770"/>
      </g>
      <g id="Grupo_1010345" data-name="Grupo 1010345">
        <path id="Trazado_726121" data-name="Trazado 726121" d="M57,36v1a3,3,0,0,1-6,0V36h6Z" fill="#ccd1d9"/>
      </g>
      <g id="Grupo_1010346" data-name="Grupo 1010346">
        <path id="Trazado_726122" data-name="Trazado 726122" d="M57,35.21V36H51v-.75A3.145,3.145,0,0,0,50.74,34a2.714,2.714,0,0,0-1.04-1.26,8,8,0,1,1,8.62-.01A2.927,2.927,0,0,0,57,35.21Z" fill="#ffeaa7"/>
      </g>
      <g id="Grupo_1010347" data-name="Grupo 1010347">
        <circle id="Elipse_4965" data-name="Elipse 4965" cx="2" cy="2" r="2" transform="translate(52 24)" fill="#fcd770"/>
      </g>
    </g>
    <g id="Grupo_1010349" data-name="Grupo 1010349">
      <path id="Trazado_726123" data-name="Trazado 726123" d="M38.927,24H40a3,3,0,0,0,3-3V16a1,1,0,0,1,1-1H63V1H57V3H53V5H49V7H45v6H44a3,3,0,0,0-3,3v5a1,1,0,0,1-1,1H38.92a7,7,0,0,0-3.236-4.941,6.964,6.964,0,0,0-2.795-7.875A7.1,7.1,0,0,0,33,8,7,7,0,0,0,20,4.4,7,7,0,0,0,7,8a6.892,6.892,0,0,0,.1,1.188,6.994,6.994,0,0,0-2.8,7.868,6.987,6.987,0,0,0,.007,11.885,6.964,6.964,0,0,0,2.8,7.875A7.105,7.105,0,0,0,7,38a6.989,6.989,0,0,0,12,4.883V46a1,1,0,0,1-1,1H4a3,3,0,0,0,0,6H22.171a1,1,0,0,1,.708.293l.828.828A2.978,2.978,0,0,0,25.829,55H45v1.7l1.321.479-.6,1.273,3.82,3.82,1.273-.6L51.3,63h5.4l.48-1.321,1.273.6,3.82-3.82-.6-1.273L63,56.7V51.3l-1.321-.479.6-1.273-3.82-3.82-1.273.6L56.7,45H51.3l-.48,1.321-1.273-.6-3.82,3.82.6,1.273L45,51.3V53H25.829a1,1,0,0,1-.708-.293l-.828-.828A2.983,2.983,0,0,0,22.171,51H4a1,1,0,0,1,0-2H18a3,3,0,0,0,3-3V42.883A6.973,6.973,0,0,0,26,45H39a3,3,0,0,0,3-3V36a1,1,0,0,1,1-1h6.971a2.08,2.08,0,0,1,.029.25V37a4,4,0,0,0,8,0V35.209a1.926,1.926,0,0,1,.862-1.64,9,9,0,0,0,1.132-14.283,9,9,0,0,0-14.919,5.535A8.941,8.941,0,0,0,48.374,33H43a3,3,0,0,0-3,3v6a1,1,0,0,1-1,1H30.889A6.973,6.973,0,0,0,33,38a6.892,6.892,0,0,0-.1-1.188,6.994,6.994,0,0,0,2.8-7.868A7.018,7.018,0,0,0,38.927,24ZM59,3h2V13H59ZM57,5v8H55V5ZM53,7v6H51V7ZM47,9h2v4H47Zm0,43.7.823-.3.447-.212.423-1.019-.562-1.2,1.837-1.838,1.2.56,1.08-.445L52.7,47h2.6l.3.823.2.442,1.031.426,1.2-.56,1.837,1.838-.562,1.2.447,1.077L61,52.7v2.6l-.823.3-.447.212-.423,1.019.562,1.2-1.837,1.838-1.2-.56-1.081.445L55.3,61H52.7l-.3-.823-.2-.443-1.031-.425-1.2.56-1.837-1.838.562-1.2-.447-1.077L47,55.3ZM54,39a2,2,0,0,1-2-2h4A2,2,0,0,1,54,39ZM53,26a1,1,0,1,1,1,1A1,1,0,0,1,53,26Zm-5.94-.926a7.024,7.024,0,0,1,6.12-6.027A7.253,7.253,0,0,1,54.009,19a6.918,6.918,0,0,1,4.652,1.778,7,7,0,0,1-.881,11.111A3.9,3.9,0,0,0,56.012,35H55V28.816a3,3,0,1,0-2,0V35H51.985a3.9,3.9,0,0,0-1.749-3.1,6.971,6.971,0,0,1-3.176-6.823ZM14,43a5.006,5.006,0,0,1-5-5c0-.1.015-.193.02-.29A6.966,6.966,0,0,0,11,38V36a4.984,4.984,0,0,1-4.836-6.252A6.978,6.978,0,0,0,15,23H13a5,5,0,1,1-7.82-4.118A7,7,0,0,0,11,22V20a5,5,0,0,1-2.3-9.438l.729-.379L9.2,9.4A5,5,0,1,1,19,8V38A5.006,5.006,0,0,1,14,43ZM34.821,27.118A7,7,0,0,0,29,24v2a5,5,0,0,1,2.3,9.438l-.729.379.229.788A5,5,0,1,1,21,38V8A5,5,0,0,1,31,8c0,.1-.015.193-.02.29A6.966,6.966,0,0,0,29,8v2a4.984,4.984,0,0,1,4.836,6.252A6.978,6.978,0,0,0,25,23h2a5,5,0,1,1,7.821,4.118Z"/>
      <path id="Trazado_726124" data-name="Trazado 726124" d="M8,15h2a1,1,0,0,1,1-1V12A3,3,0,0,0,8,15Z"/>
      <path id="Trazado_726125" data-name="Trazado 726125" d="M29,30a1,1,0,0,1,1,1h2a3,3,0,0,0-3-3Z"/>
      <path id="Trazado_726126" data-name="Trazado 726126" d="M24,29v2a1,1,0,0,1,1,1h2A3,3,0,0,0,24,29Z"/>
      <path id="Trazado_726127" data-name="Trazado 726127" d="M14,39v2a3,3,0,0,0,3-3H15A1,1,0,0,1,14,39Z"/>
      <path id="Trazado_726128" data-name="Trazado 726128" d="M15,33a1,1,0,0,1-1-1H12a3,3,0,0,0,3,3Z"/>
      <path id="Trazado_726129" data-name="Trazado 726129" d="M26,12h2a3,3,0,0,0-3-3v2A1,1,0,0,1,26,12Z"/>
      <path id="Trazado_726130" data-name="Trazado 726130" d="M24,16h2a3,3,0,0,0-3-3v2A1,1,0,0,1,24,16Z"/>
      <path id="Trazado_726131" data-name="Trazado 726131" d="M15,19a1,1,0,0,1-1-1H12a3,3,0,0,0,3,3Z"/>
      <path id="Trazado_726132" data-name="Trazado 726132" d="M24,37H22a3,3,0,0,0,3,3V38A1,1,0,0,1,24,37Z"/>
      <path id="Trazado_726133" data-name="Trazado 726133" d="M15,9V7a1,1,0,0,1-1-1H12A3,3,0,0,0,15,9Z"/>
      <path id="Trazado_726134" data-name="Trazado 726134" d="M54,59a5,5,0,1,0-5-5A5.006,5.006,0,0,0,54,59Zm0-8a3,3,0,1,1-3,3A3,3,0,0,1,54,51Z"/>
    </g>
  </g>
</svg>
