<svg xmlns="http://www.w3.org/2000/svg" xmlns:xlink="http://www.w3.org/1999/xlink" width="98" height="98" viewBox="0 0 98 98">
  <defs>
    <clipPath id="clip-path">
      <rect id="Rectángulo_344474" data-name="Rectángulo 344474" width="61" height="61" transform="translate(245 3150)" fill="#fff" stroke="#707070" stroke-width="1"/>
    </clipPath>
  </defs>
  <g id="Grupo_931526" data-name="Grupo 931526" transform="translate(-226 -3146)">
    <circle id="Elipse_4763" data-name="Elipse 4763" cx="49" cy="49" r="49" transform="translate(226 3146)" fill="#0098e8"/>
    <g id="Enmascarar_grupo_57" data-name="Enmascarar grupo 57" transform="translate(0 15)" clip-path="url(#clip-path)">
      <g id="pregunta_1_" data-name="pregunta (1)" transform="translate(245 3150)">
        <g id="Grupo_930798" data-name="Grupo 930798">
          <path id="Trazado_694034" data-name="Trazado 694034" d="M17.889,39.982c2.248,1.637,3.08,3.267,3.08,5.53H40.031c0-2.262.832-3.893,3.08-5.53a21.445,21.445,0,1,0-25.222,0Z" fill="#ffee80" fill-rule="evenodd"/>
          <path id="Trazado_694035" data-name="Trazado 694035" d="M40.031,45.512H20.969a2.383,2.383,0,1,0,0,4.766H40.031a2.383,2.383,0,0,0,0-4.766Z" fill="#f3eff0" fill-rule="evenodd"/>
          <path id="Trazado_694036" data-name="Trazado 694036" d="M40.031,50.277H20.969a2.383,2.383,0,1,0,0,4.766H40.031a2.383,2.383,0,0,0,0-4.766Z" fill="#f3eff0" fill-rule="evenodd"/>
          <path id="Trazado_694037" data-name="Trazado 694037" d="M40.031,55.043H20.969v2.383a2.39,2.39,0,0,0,2.383,2.383h14.3a2.39,2.39,0,0,0,2.383-2.383Z" fill="#8690af" fill-rule="evenodd"/>
          <g id="Grupo_930797" data-name="Grupo 930797">
            <path id="Trazado_694038" data-name="Trazado 694038" d="M33,28.439a2.5,2.5,0,0,1-4.991,0c0-3.478.227-3.7,3.493-6.9.226-.222.472-.462.737-.723a2.469,2.469,0,1,0-3.906-2.938A2.487,2.487,0,0,1,23.96,15.5,7.487,7.487,0,0,1,26.7,12.652a7.447,7.447,0,0,1,9.02,11.717c-.265.261-.511.5-.737.723C33.125,26.914,33,27.041,33,28.439Z" fill="#fff" fill-rule="evenodd"/>
            <circle id="Elipse_4819" data-name="Elipse 4819" cx="2.495" cy="2.495" r="2.495" transform="translate(27.629 39.065) rotate(-80.792)" fill="#fff"/>
          </g>
        </g>
        <g id="Grupo_930799" data-name="Grupo 930799">
          <path id="Trazado_694039" data-name="Trazado 694039" d="M30.5,0A22.613,22.613,0,0,0,18.962,3.159a1.191,1.191,0,1,0,1.216,2.049A20.255,20.255,0,0,1,42.41,39.019a7.558,7.558,0,0,0-3.494,5.3H22.084a7.558,7.558,0,0,0-3.494-5.3,20.258,20.258,0,0,1-5.519-26.7A1.191,1.191,0,1,0,11.023,11.1a22.626,22.626,0,0,0,6.165,29.847,5.345,5.345,0,0,1,2.519,3.606,3.571,3.571,0,0,0-1.4,5.726,3.571,3.571,0,0,0,1.47,5.752v1.4A3.578,3.578,0,0,0,23.351,61h14.3a3.578,3.578,0,0,0,3.574-3.574v-1.4a3.571,3.571,0,0,0,1.47-5.752,3.571,3.571,0,0,0-1.4-5.726,5.344,5.344,0,0,1,2.519-3.606A22.637,22.637,0,0,0,30.5,0Zm7.149,58.617h-14.3a1.193,1.193,0,0,1-1.191-1.191V56.234H38.84v1.191A1.193,1.193,0,0,1,37.648,58.617Zm2.383-4.766H20.969a1.191,1.191,0,1,1,0-2.383h4.169a1.191,1.191,0,1,0,0-2.383H20.969a1.191,1.191,0,0,1,0-2.383H40.031a1.191,1.191,0,0,1,0,2.383h-4.17a1.191,1.191,0,1,0,0,2.383h4.17a1.191,1.191,0,0,1,0,2.383Z"/>
          <path id="Trazado_694040" data-name="Trazado 694040" d="M34.31,27.545a12.413,12.413,0,0,1,1.51-1.6c.227-.223.474-.463.74-.726A8.639,8.639,0,1,0,22.914,14.934a3.678,3.678,0,0,0,6.46,3.519,1.274,1.274,0,0,1,1.126-.661,1.27,1.27,0,0,1,1.271,1.271,1.283,1.283,0,0,1-.1.5,1.253,1.253,0,0,1-.278.411c-.263.259-.507.5-.735.721-3.337,3.266-3.85,3.768-3.85,7.747a3.687,3.687,0,1,0,7.374,0C34.187,27.806,34.221,27.691,34.31,27.545Zm-2.506.894a1.3,1.3,0,0,1-2.609,0c0-2.977,0-2.977,3.137-6.047.227-.222.472-.462.737-.723a3.658,3.658,0,0,0-2.57-6.261,3.657,3.657,0,0,0-3.219,1.9,1.3,1.3,0,0,1-2.275-1.239A6.256,6.256,0,0,1,30.5,12.8a6.255,6.255,0,0,1,4.388,10.72c-.264.26-.509.5-.734.72-1.9,1.858-2.349,2.3-2.349,4.2Z"/>
          <path id="Trazado_694041" data-name="Trazado 694041" d="M26.813,37A3.687,3.687,0,1,0,30.5,33.318,3.691,3.691,0,0,0,26.813,37ZM31.8,37a1.3,1.3,0,1,1-1.3-1.3A1.306,1.306,0,0,1,31.8,37Z"/>
          <path id="Trazado_694042" data-name="Trazado 694042" d="M15.337,8.664a1.191,1.191,0,0,0,0-2.383h0a1.191,1.191,0,0,0,0,2.383Z"/>
          <path id="Trazado_694043" data-name="Trazado 694043" d="M30.5,49.086h0a1.191,1.191,0,1,0,1.192,1.191A1.191,1.191,0,0,0,30.5,49.086Z"/>
        </g>
      </g>
    </g>
  </g>
</svg>
