<svg xmlns="http://www.w3.org/2000/svg" xmlns:xlink="http://www.w3.org/1999/xlink" width="98" height="98" viewBox="0 0 98 98">
  <defs>
    <clipPath id="clip-path">
      <rect id="Rectángulo_344475" data-name="Rectángulo 344475" width="61" height="61" transform="translate(458 3150)" fill="#fff" stroke="#707070" stroke-width="1"/>
    </clipPath>
    <clipPath id="clip-path-2">
      <path id="path423" d="M0-61H61V0H0Z"/>
    </clipPath>
  </defs>
  <g id="Grupo_931527" data-name="Grupo 931527" transform="translate(-439 -3146)">
    <circle id="Elipse_4814" data-name="Elipse 4814" cx="49" cy="49" r="49" transform="translate(439 3146)" fill="#0098e8"/>
    <g id="Enmascarar_grupo_56" data-name="Enmascarar grupo 56" transform="translate(0 15)" clip-path="url(#clip-path)">
      <g id="g417" transform="translate(458 3211)">
        <g id="g419">
          <g id="g421" clip-path="url(#clip-path-2)">
            <g id="g427" transform="translate(49.476 -10.329)">
              <path id="path429" d="M0,0H0A6.094,6.094,0,0,0-6.094,6.094V9.387H6.094V6.094A6.094,6.094,0,0,0,0,0" fill="#9be69d"/>
            </g>
            <g id="g431" transform="translate(51.08 -10.116)">
              <path id="path433" d="M0,0A6.1,6.1,0,0,0-4.49,5.88V9.174H-7.7V5.88A6.094,6.094,0,0,1-1.6-.213,6.091,6.091,0,0,1,0,0" fill="#6fd7a3"/>
            </g>
            <g id="g435" transform="translate(60.104 -23.67)">
              <path id="path437" d="M0,0A3.459,3.459,0,0,1-3.225,3.3,3.435,3.435,0,0,1-6.005,2.16,3.451,3.451,0,0,1-6.73.887a6.706,6.706,0,0,1-.73.042A6.589,6.589,0,0,1-11.446-.407a8.2,8.2,0,0,1-2.925.144c0,.04,0,.081,0,.123A3.445,3.445,0,0,1-18.037,3.3a3.463,3.463,0,0,1-3.22-3.346,3.444,3.444,0,0,1,1.691-3.058,8.183,8.183,0,0,1-1-9.044,1.9,1.9,0,0,1,3.021-.46l4.1,4.1A6.618,6.618,0,0,1-7.1-12.3,6.638,6.638,0,0,1-.855-6.086a6.6,6.6,0,0,1-.585,3.143A3.438,3.438,0,0,1,0,0" fill="#7a6d79"/>
            </g>
            <g id="g439" transform="translate(54.098 -21.511)">
              <path id="path441" d="M0,0A3.451,3.451,0,0,1-.725-1.273a6.706,6.706,0,0,1-.73.042A6.59,6.59,0,0,1-5.441-2.567a8.2,8.2,0,0,1-2.925.144c0,.04,0,.081,0,.123a3.445,3.445,0,0,1-3.667,3.437,3.463,3.463,0,0,1-3.221-3.346,3.444,3.444,0,0,1,1.691-3.057,8.184,8.184,0,0,1-1-9.044,1.9,1.9,0,0,1,3.021-.46l.282.282c-.172,3.848.71,10.376,8.312,11.861C-.431-2.136.326-1.18,0,0" fill="#685e68"/>
            </g>
            <g id="g443" transform="translate(57.04 -20.416)">
              <path id="path445" d="M0,0H-.144V-1.34A7.42,7.42,0,0,0-4.631-8.157a7.244,7.244,0,0,1-6.382,3.811A7.209,7.209,0,0,1-14.02-5a7.385,7.385,0,0,0-.963,3.659V0h-.144a2,2,0,0,0-2,2,2,2,0,0,0,2,2h.526a7.418,7.418,0,0,0,1.79,2.894A7.406,7.406,0,0,0-9.82,8.71v1.782a2.247,2.247,0,0,0,.661,1.6,2.249,2.249,0,0,0,1.6.661,2.257,2.257,0,0,0,2.257-2.256V8.71A7.437,7.437,0,0,0-.524,3.993H0A2,2,0,0,0,2,2,2,2,0,0,0,0,0" fill="#ffdfcf"/>
            </g>
            <g id="g447" transform="translate(57.04 -20.416)">
              <path id="path449" d="M0,0H-.144V-1.34A7.42,7.42,0,0,0-4.631-8.157a7.244,7.244,0,0,1-6.382,3.811A7.209,7.209,0,0,1-14.02-5a7.385,7.385,0,0,0-.963,3.659V0h-.144a2,2,0,0,0-2,2,2,2,0,0,0,2,2h.526a7.418,7.418,0,0,0,1.79,2.894A7.406,7.406,0,0,0-9.82,8.71v1.782a2.247,2.247,0,0,0,.661,1.6,2.249,2.249,0,0,0,1.6.661,2.257,2.257,0,0,0,2.257-2.256V8.71A7.437,7.437,0,0,0-.524,3.993H0A2,2,0,0,0,2,2,2,2,0,0,0,0,0Z" fill="none" stroke="#ffdfcf" stroke-miterlimit="10" stroke-width="0.119"/>
            </g>
            <g id="g451" transform="translate(51.733 -11.516)">
              <path id="path453" d="M0,0V1.593A2.257,2.257,0,0,1-2.257,3.849a2.249,2.249,0,0,1-1.6-.661,2.247,2.247,0,0,1-.661-1.6V-.189A7.4,7.4,0,0,1-7.5-2.012a7.411,7.411,0,0,1-1.79-2.894H-9.82a1.994,1.994,0,0,1-1.412-.585A1.994,1.994,0,0,1-11.817-6.9a2,2,0,0,1,2-2h.143v-1.339A7.385,7.385,0,0,1-8.714-13.9a7.209,7.209,0,0,0,3.008.652c.157,0,.312,0,.467-.015a7.393,7.393,0,0,0-.64,3.022v2.98A7.4,7.4,0,0,0-3.708-2.012,7.4,7.4,0,0,0,0,0" fill="#ffcebf"/>
            </g>
            <g id="g455" transform="translate(32.507 -38.738)">
              <path id="path457" d="M0,0A2.381,2.381,0,0,1-2.381-2.381V-5.62A2.381,2.381,0,0,1,0-8,4.239,4.239,0,0,0,3.1-9.335a4.248,4.248,0,0,0,1.17-3.175A4.287,4.287,0,0,0,.089-16.557a4.278,4.278,0,0,0-4.326,3.678,4.345,4.345,0,0,0-.041.6A2.381,2.381,0,0,1-6.659-9.9a2.381,2.381,0,0,1-2.381-2.381,9.115,9.115,0,0,1,.087-1.258A9.045,9.045,0,0,1,.185-21.318a9.067,9.067,0,0,1,8.843,8.561,8.967,8.967,0,0,1-2.472,6.7A9.079,9.079,0,0,1,2.381-3.561v1.18A2.381,2.381,0,0,1,0,0" fill="#fe646f"/>
            </g>
            <g id="g459" transform="translate(32.507 -31.016)">
              <path id="path461" d="M0,0A2.381,2.381,0,0,1-2.381-2.381v-.059A2.381,2.381,0,0,1,0-4.822,2.381,2.381,0,0,1,2.381-2.441v.059A2.381,2.381,0,0,1,0,0" fill="#fe646f"/>
            </g>
            <g id="g463" transform="translate(28.931 -18.291)">
              <path id="path465" d="M0,0A5.437,5.437,0,0,0,1.367-3.612h0a5.461,5.461,0,0,0-4.14-5.3A5.44,5.44,0,0,0-1.35-12.586h0a5.46,5.46,0,0,0-5.46-5.46H-17.989a5.46,5.46,0,0,0-5.46,5.46h0A5.44,5.44,0,0,0-22.025-8.91a5.461,5.461,0,0,0-4.14,5.3h0A5.437,5.437,0,0,0-24.8,0a6.2,6.2,0,0,0-3.24,5.45,6.2,6.2,0,0,0,6.2,6.2H-2.962a6.2,6.2,0,0,0,6.2-6.2A6.2,6.2,0,0,0,0,0" fill="#fea95c"/>
            </g>
            <g id="g467" transform="translate(7.937 -8.454)">
              <path id="path469" d="M0,0A6.184,6.184,0,0,0,4.386,1.817H-.841A6.18,6.18,0,0,1-5.226,0,6.184,6.184,0,0,1-7.043-4.386,6.2,6.2,0,0,1-3.8-9.837a5.479,5.479,0,0,1-1-1.647,5.437,5.437,0,0,1-.364-1.965,5.461,5.461,0,0,1,4.14-5.3,5.47,5.47,0,0,1-1.044-1.67,5.453,5.453,0,0,1-.38-2.006,5.46,5.46,0,0,1,5.46-5.459H8.233a5.46,5.46,0,0,0-5.46,5.459,5.451,5.451,0,0,0,.38,2.006A5.466,5.466,0,0,0,4.2-18.746a5.462,5.462,0,0,0-4.14,5.3A5.465,5.465,0,0,0,.42-11.483a5.477,5.477,0,0,0,1,1.647,6.2,6.2,0,0,0-3.24,5.451A6.184,6.184,0,0,0,0,0" fill="#fe9738"/>
            </g>
            <g id="g471" transform="translate(16.533 -10.329)">
              <path id="path473" d="M0,0H0A6.094,6.094,0,0,0-6.094,6.094V9.387H6.094V6.094A6.094,6.094,0,0,0,0,0" fill="#8ac9fe"/>
            </g>
            <g id="g475" transform="translate(18.136 -10.116)">
              <path id="path477" d="M0,0A6.1,6.1,0,0,0-4.49,5.88V9.174H-7.7V5.88A6.094,6.094,0,0,1-1.6-.213,6.091,6.091,0,0,1,0,0" fill="#60b7ff"/>
            </g>
            <g id="g479" transform="translate(16.532 -26.196)">
              <path id="path481" d="M0,0V-.561A3.924,3.924,0,0,1-2.705.516,3.93,3.93,0,0,1-5.653-.81,7.389,7.389,0,0,0-7.42,4V5.78h-.143a2,2,0,0,0-2,2,2,2,0,0,0,2,2h.524a7.438,7.438,0,0,0,4.782,4.717v1.782A2.257,2.257,0,0,0,0,18.529H0a2.257,2.257,0,0,0,2.257-2.257V14.489A7.423,7.423,0,0,0,7.42,7.42,7.42,7.42,0,0,1,0,0" fill="#ffdfcf"/>
            </g>
            <g id="g483" transform="translate(16.532 -26.196)">
              <path id="path485" d="M0,0V-.561A3.924,3.924,0,0,1-2.705.516,3.93,3.93,0,0,1-5.653-.81,7.389,7.389,0,0,0-7.42,4V5.78h-.143a2,2,0,0,0-2,2,2,2,0,0,0,2,2h.524a7.438,7.438,0,0,0,4.782,4.717v1.782A2.257,2.257,0,0,0,0,18.529H0a2.257,2.257,0,0,0,2.257-2.257V14.489A7.423,7.423,0,0,0,7.42,7.42,7.42,7.42,0,0,1,0,0Z" fill="none" stroke="#ffdfcf" stroke-miterlimit="10" stroke-width="0.119"/>
            </g>
            <g id="g487" transform="translate(18.789 -11.516)">
              <path id="path489" d="M0,0V1.593a2.248,2.248,0,0,1-.661,1.6,2.248,2.248,0,0,1-1.6.661A2.257,2.257,0,0,1-4.514,1.593V-.189A7.439,7.439,0,0,1-9.3-4.906H-9.82a1.994,1.994,0,0,1-1.412-.585A1.994,1.994,0,0,1-11.817-6.9a2,2,0,0,1,2-2h.144v-1.784a7.389,7.389,0,0,1,1.767-4.805,3.93,3.93,0,0,0,2.948,1.325c.069,0,.138,0,.207-.006a7.375,7.375,0,0,0-1.126,3.93v2.98A7.4,7.4,0,0,0-3.706-2.012,7.4,7.4,0,0,0,0,0" fill="#ffcebf"/>
            </g>
            <g id="g491" transform="translate(57.039 -17.316)">
              <path id="path493" d="M0,0H-.524a.894.894,0,0,0-.848.61A6.545,6.545,0,0,1-5.577,4.759a.893.893,0,0,0-.622.851V7.393A1.365,1.365,0,0,1-7.563,8.756a1.353,1.353,0,0,1-.963-.4,1.354,1.354,0,0,1-.4-.964V5.611a.894.894,0,0,0-.623-.851,6.54,6.54,0,0,1-2.63-1.6A6.559,6.559,0,0,1-13.753.61.893.893,0,0,0-14.6,0h-.526a1.1,1.1,0,0,1-1.1-1.1,1.1,1.1,0,0,1,1.1-1.1h.144A.893.893,0,0,0-14.09-3.1v-1.34a6.543,6.543,0,0,1,.507-2.527,8.086,8.086,0,0,0,2.57.414A8.134,8.134,0,0,0-4.3-10.091,6.522,6.522,0,0,1-1.037-4.439V-3.1a.893.893,0,0,0,.894.894H0A1.1,1.1,0,0,1,1.1-1.1,1.1,1.1,0,0,1,0,0M-2.363,13.081v2.4h-10.4v-2.4a5.172,5.172,0,0,1,2.346-4.35,3.155,3.155,0,0,0,.626.89,3.129,3.129,0,0,0,2.227.922A3.155,3.155,0,0,0-4.711,8.73a5.171,5.171,0,0,1,2.348,4.351M-16.71-18.092a.985.985,0,0,1,.732-.523,1,1,0,0,1,.864.283l4.1,4.1a.894.894,0,0,0,.785.249.894.894,0,0,0,.655-.5,5.712,5.712,0,0,1,5.488-3.276,5.779,5.779,0,0,1,5.4,5.371A5.664,5.664,0,0,1,.811-9.669a.893.893,0,0,0,.293,1.1A2.55,2.55,0,0,1,2.172-6.39,2.556,2.556,0,0,1,.75-4.209v-.23a8.308,8.308,0,0,0-5.028-7.638.894.894,0,0,0-1.14.4,6.351,6.351,0,0,1-5.6,3.342,6.288,6.288,0,0,1-2.636-.571.893.893,0,0,0-1.149.371,8.317,8.317,0,0,0-1.08,4.1v.227A2.587,2.587,0,0,1-17.3-6.426a2.559,2.559,0,0,1,1.253-2.265.893.893,0,0,0,.426-.62.894.894,0,0,0-.2-.725,7.251,7.251,0,0,1-.891-8.055M3.957-6.317A4.329,4.329,0,0,0,2.692-9.56,7.551,7.551,0,0,0,3.1-12.493,7.488,7.488,0,0,0,.893-17.366a7.485,7.485,0,0,0-4.886-2.177,7.492,7.492,0,0,0-6.58,3.226l-3.277-3.277a2.765,2.765,0,0,0-2.4-.786A2.755,2.755,0,0,0-18.3-18.917a9.028,9.028,0,0,0,.546,9.29A4.349,4.349,0,0,0-19.086-6.38a4.338,4.338,0,0,0,1.776,3.388A2.875,2.875,0,0,0-18.017-1.1a2.894,2.894,0,0,0,2.8,2.889A8.358,8.358,0,0,0-13.442,4.42a8.352,8.352,0,0,0,2.729,1.816v.607a6.949,6.949,0,0,0-3.837,6.238v3.293a.893.893,0,0,0,.894.894H-1.469a.894.894,0,0,0,.894-.894V13.081A6.948,6.948,0,0,0-4.412,6.844V6.236a8.348,8.348,0,0,0,4.5-4.45A2.894,2.894,0,0,0,2.89-1.1a2.876,2.876,0,0,0-.709-1.891A4.345,4.345,0,0,0,3.957-6.317"/>
            </g>
            <g id="g495" transform="translate(48.401 -19.901)">
              <path id="path497" d="M0,0V-1.425a.893.893,0,0,0-.894-.894.893.893,0,0,0-.894.894V0A.893.893,0,0,0-.894.894.893.893,0,0,0,0,0"/>
            </g>
            <g id="g499" transform="translate(51.444 -22.219)">
              <path id="path501" d="M0,0A.893.893,0,0,0-.894.894V2.319A.893.893,0,0,0,0,3.212a.893.893,0,0,0,.894-.894V.894A.893.893,0,0,0,0,0"/>
            </g>
            <g id="g503" transform="translate(50.574 -17.111)">
              <path id="path505" d="M0,0A2.176,2.176,0,0,1-2.107,0,.893.893,0,0,0-3.32.353a.894.894,0,0,0,.353,1.214,3.969,3.969,0,0,0,1.914.494A3.97,3.97,0,0,0,.861,1.566.894.894,0,1,0,0,0"/>
            </g>
            <g id="g507" transform="translate(21.732 -1.836)">
              <path id="path509" d="M0,0H-10.4V-2.4a5.163,5.163,0,0,1,.419-2.05,5.249,5.249,0,0,1,1.931-2.3A3.154,3.154,0,0,0-5.2-4.938a3.154,3.154,0,0,0,2.85-1.81A5.25,5.25,0,0,1-.419-4.45,5.162,5.162,0,0,1,0-2.4ZM-11.391-14.87a.894.894,0,0,0-.847-.61h-.524a1.1,1.1,0,0,1-1.1-1.1,1.1,1.1,0,0,1,1.1-1.1h.143a.894.894,0,0,0,.894-.894v-1.784a6.531,6.531,0,0,1,1.01-3.488,4.839,4.839,0,0,0,2.811.9,4.825,4.825,0,0,0,1.875-.377,8.33,8.33,0,0,0,7.3,7.228,6.5,6.5,0,0,1-4.488,5.378.894.894,0,0,0-.622.851v1.783A1.365,1.365,0,0,1-5.2-6.725,1.365,1.365,0,0,1-6.563-8.088V-9.871a.894.894,0,0,0-.622-.851,6.547,6.547,0,0,1-4.206-4.148M8.486-16.688a6.343,6.343,0,0,0,.974-3.379,6.284,6.284,0,0,0-1.372-3.942A6.39,6.39,0,0,0,5.852-25.8a6.338,6.338,0,0,0,.89-3.246,6.312,6.312,0,0,0-1.861-4.493A6.311,6.311,0,0,0,.39-35.395H-10.789a6.36,6.36,0,0,0-6.352,6.354,6.355,6.355,0,0,0,.441,2.334,6.332,6.332,0,0,0,.447.909,6.341,6.341,0,0,0-3.605,5.731,6.315,6.315,0,0,0,.425,2.287,6.334,6.334,0,0,0,.549,1.092A7.1,7.1,0,0,0-21.732-11a7.031,7.031,0,0,0,.7,3.073.893.893,0,0,0,1.192.418.893.893,0,0,0,.418-1.192,5.259,5.259,0,0,1-.522-2.3,5.313,5.313,0,0,1,2.773-4.666.894.894,0,0,0,.452-.629.894.894,0,0,0-.209-.746,4.6,4.6,0,0,1-.84-1.38,4.534,4.534,0,0,1-.3-1.642A4.557,4.557,0,0,1-14.61-24.5a.893.893,0,0,0,.64-.608.894.894,0,0,0-.195-.861,4.543,4.543,0,0,1-.872-1.395,4.573,4.573,0,0,1-.317-1.678,4.571,4.571,0,0,1,4.565-4.567H.39A4.536,4.536,0,0,1,3.618-32.27a4.537,4.537,0,0,1,1.337,3.23,4.547,4.547,0,0,1-1.189,3.073.894.894,0,0,0-.2.861.893.893,0,0,0,.64.608,4.585,4.585,0,0,1,2.476,1.6,4.515,4.515,0,0,1,.986,2.832,4.559,4.559,0,0,1-1.144,3.021.893.893,0,0,0-.21.747.894.894,0,0,0,.453.63,5.317,5.317,0,0,1,2.007,1.917A5.287,5.287,0,0,1,9.546-11,5.315,5.315,0,0,1,4.237-5.7H.96A7.064,7.064,0,0,0-2.05-8.636v-.61A8.282,8.282,0,0,0,3.113-16.94a.894.894,0,0,0-.894-.894A6.534,6.534,0,0,1-4.307-24.36v-.561a.894.894,0,0,0-.54-.821.894.894,0,0,0-.967.172,3.031,3.031,0,0,1-2.091.832,3.049,3.049,0,0,1-2.28-1.025.9.9,0,0,0-.678-.3.894.894,0,0,0-.671.314,8.316,8.316,0,0,0-1.98,5.384v.989a2.9,2.9,0,0,0-2.14,2.791,2.894,2.894,0,0,0,2.8,2.889A8.35,8.35,0,0,0-8.35-9.246v.61A7.065,7.065,0,0,0-11.36-5.7h-3.276a5.26,5.26,0,0,1-2.3-.522.894.894,0,0,0-1.192.418.894.894,0,0,0,.418,1.193,7.033,7.033,0,0,0,3.073.7h2.614A7,7,0,0,0-12.187-2.4V.894a.894.894,0,0,0,.894.894H.894A.894.894,0,0,0,1.787.894V-2.4a7,7,0,0,0-.165-1.509H4.237a7.1,7.1,0,0,0,7.1-7.1,7.073,7.073,0,0,0-1.026-3.676,7.1,7.1,0,0,0-1.821-2.008"/>
            </g>
            <g id="g511" transform="translate(16.532 -15.141)">
              <path id="path513" d="M0,0A3.968,3.968,0,0,0,1.914-.494a.894.894,0,0,0,.353-1.214A.894.894,0,0,0,1.053-2.06a2.176,2.176,0,0,1-2.107,0,.894.894,0,0,0-1.214.353A.894.894,0,0,0-1.914-.494,3.97,3.97,0,0,0,0,0"/>
            </g>
            <g id="g515" transform="translate(15.195 -20.178)">
              <path id="path517" d="M0,0V-1.425a.894.894,0,0,0-.894-.894.894.894,0,0,0-.894.894V0A.894.894,0,0,0-.894.894.894.894,0,0,0,0,0"/>
            </g>
            <g id="g519" transform="translate(39.71 -44.179)">
              <path id="path521" d="M0,0A9.854,9.854,0,0,0,2.717-7.362a9.835,9.835,0,0,0-.424-2.391.893.893,0,0,0-1.118-.59.893.893,0,0,0-.59,1.118A8.038,8.038,0,0,1,.932-7.269,8.082,8.082,0,0,1-1.3-1.23,8.171,8.171,0,0,1-5.059,1.018a.893.893,0,0,0-.657.862V3.06A1.489,1.489,0,0,1-7.2,4.547,1.488,1.488,0,0,1-8.691,3.06V-.179A1.489,1.489,0,0,1-7.2-1.667,5.123,5.123,0,0,0-3.454-3.279,5.135,5.135,0,0,0-2.04-7.115,5.183,5.183,0,0,0-7.1-12.008a5.17,5.17,0,0,0-5.229,4.447,5.254,5.254,0,0,0-.05.724,1.489,1.489,0,0,1-1.487,1.487,1.489,1.489,0,0,1-1.488-1.487,8.335,8.335,0,0,1,.078-1.134,8.149,8.149,0,0,1,8.236-7.011A8.088,8.088,0,0,1-1.32-12.459a.894.894,0,0,0,1.263.028.894.894,0,0,0,.028-1.263A9.864,9.864,0,0,0-7-16.77,9.942,9.942,0,0,0-17.043-8.218a10.1,10.1,0,0,0-.1,1.38,3.278,3.278,0,0,0,3.275,3.274,3.278,3.278,0,0,0,3.274-3.274,3.466,3.466,0,0,1,.033-.477A3.383,3.383,0,0,1-7.2-10.222h.07a3.389,3.389,0,0,1,3.308,3.2A3.363,3.363,0,0,1-4.75-4.509,3.351,3.351,0,0,1-7.2-3.454,3.278,3.278,0,0,0-10.478-.179V3.06A3.278,3.278,0,0,0-7.2,6.334,3.278,3.278,0,0,0-3.929,3.06V2.536A9.945,9.945,0,0,0,0,0"/>
            </g>
            <g id="g523" transform="translate(33.994 -33.397)">
              <path id="path525" d="M0,0A1.489,1.489,0,0,1-1.488,1.488,1.489,1.489,0,0,1-2.975,0V-.06A1.489,1.489,0,0,1-1.488-1.547,1.489,1.489,0,0,1,0-.06ZM-1.488-3.334A3.278,3.278,0,0,0-4.762-.06V0A3.278,3.278,0,0,0-1.488,3.275,3.278,3.278,0,0,0,1.787,0V-.06A3.278,3.278,0,0,0-1.488-3.334"/>
            </g>
            <g id="g527" transform="translate(46.045 -51.7)">
              <path id="path529" d="M0,0A.893.893,0,0,0,.894-.894,2.962,2.962,0,0,1,.922-1.3,2.9,2.9,0,0,1,3.856-3.8,2.909,2.909,0,0,1,6.695-1.049,2.881,2.881,0,0,1,5.9,1.1a2.877,2.877,0,0,1-2.105.9A.894.894,0,0,0,2.9,2.9v1.94a.894.894,0,0,0,1.787,0V3.709A4.714,4.714,0,0,0,7.2,2.335,4.652,4.652,0,0,0,8.479-1.142,4.7,4.7,0,0,0,3.893-5.582H3.8A4.691,4.691,0,0,0-.848-1.546a4.763,4.763,0,0,0-.045.653A.893.893,0,0,0,0,0"/>
            </g>
            <g id="g531" transform="translate(49.841 -44.841)">
              <path id="path533" d="M0,0A.893.893,0,0,0-.894.894v.06A.893.893,0,0,0,0,1.847.893.893,0,0,0,.894.953V.894A.893.893,0,0,0,0,0"/>
            </g>
            <g id="g535" transform="translate(12.409 -51.7)">
              <path id="path537" d="M0,0A.894.894,0,0,0,.894-.894,2.937,2.937,0,0,1,.922-1.3,2.9,2.9,0,0,1,3.857-3.8,2.91,2.91,0,0,1,6.695-1.049,2.882,2.882,0,0,1,5.9,1.1a2.877,2.877,0,0,1-2.1.9A.894.894,0,0,0,2.9,2.9v1.94a.894.894,0,0,0,1.787,0V3.712A4.645,4.645,0,0,0,7.2,2.335,4.652,4.652,0,0,0,8.479-1.142a4.7,4.7,0,0,0-4.587-4.44A4.688,4.688,0,0,0-.848-1.546a4.755,4.755,0,0,0-.045.653A.894.894,0,0,0,0,0"/>
            </g>
            <g id="g539" transform="translate(16.205 -44.841)">
              <path id="path541" d="M0,0A.894.894,0,0,0-.894.894v.06A.894.894,0,0,0,0,1.847.894.894,0,0,0,.894.953V.894A.894.894,0,0,0,0,0"/>
            </g>
          </g>
        </g>
      </g>
    </g>
  </g>
</svg>
