<svg xmlns="http://www.w3.org/2000/svg" xmlns:xlink="http://www.w3.org/1999/xlink" width="98" height="98" viewBox="0 0 98 98">
  <defs>
    <clipPath id="clip-path">
      <rect id="Rectángulo_344476" data-name="Rectángulo 344476" width="61" height="61" transform="translate(665 3150)" fill="#fff" stroke="#707070" stroke-width="1"/>
    </clipPath>
  </defs>
  <g id="Grupo_931528" data-name="Grupo 931528" transform="translate(-649 -3146)">
    <circle id="Elipse_4815" data-name="Elipse 4815" cx="49" cy="49" r="49" transform="translate(649 3146)" fill="#0098e8"/>
    <g id="Enmascarar_grupo_58" data-name="Enmascarar grupo 58" transform="translate(3 15)" clip-path="url(#clip-path)">
      <g id="encogimiento-de-hombros" transform="translate(665 3150)">
        <g id="Grupo_930834" data-name="Grupo 930834">
          <g id="Grupo_930800" data-name="Grupo 930800">
            <path id="Trazado_694044" data-name="Trazado 694044" d="M24.462,36.842,17.9,39.436c-1.6,3.3-2.965,14.407.071,17.687H43.036c2.35-2.385,1.452-14.046.068-17.687l-6.562-2.594v.37Z" fill="#6fd7a3" fill-rule="evenodd"/>
          </g>
          <g id="Grupo_930801" data-name="Grupo 930801">
            <path id="Trazado_694045" data-name="Trazado 694045" d="M35.1,39.958l4.083,1.7c.912.384.608,1.166.5,2.21l-.949,9.239c-.216,1.314-.253,4.012.692,4.008l3.61,0c1.938-2.56,1.993-14.114.068-17.687l-6.562-2.594c-.983-.286-4.032-.077-1.442,3.116Z" fill="#3ec3a4" fill-rule="evenodd"/>
          </g>
          <g id="Grupo_930802" data-name="Grupo 930802">
            <path id="Trazado_694046" data-name="Trazado 694046" d="M16.61,38.688V34.215a4.991,4.991,0,0,0-4.981-4.968H6.1l-2.688-.788A1.968,1.968,0,0,0,.974,29.786a1.916,1.916,0,0,0-.078.532v.03A1.963,1.963,0,0,0,2.3,32.214l4.873,1.428H9.916v5.046Z" fill="#fed2a4" fill-rule="evenodd"/>
          </g>
          <g id="Grupo_930803" data-name="Grupo 930803">
            <path id="Trazado_694047" data-name="Trazado 694047" d="M24.462,37.213c0,5.413,12.08,5.413,12.08,0V31.837a13.773,13.773,0,0,1-2.881,1.5,9,9,0,0,1-3.161.633,9.018,9.018,0,0,1-3.161-.633,13.753,13.753,0,0,1-2.877-1.5v5.376Z" fill="#ffbd86" fill-rule="evenodd"/>
          </g>
          <g id="Grupo_930804" data-name="Grupo 930804">
            <path id="Trazado_694048" data-name="Trazado 694048" d="M35.1,39.958a3.352,3.352,0,0,0,1.442-2.745V31.837c-4.434,1.954-6.872,2.082-12.08,0v3.911a13.436,13.436,0,0,0,2.877,1.5,8.206,8.206,0,0,0,6.322,0c1.489-.552,1.439-.094,1.439,1.469v1.246Z" fill="#f6a96c" fill-rule="evenodd"/>
          </g>
          <g id="Grupo_930805" data-name="Grupo 930805">
            <path id="Trazado_694049" data-name="Trazado 694049" d="M16.61,34.215a4.991,4.991,0,0,0-4.981-4.968H6.1l-2.688-.788A1.968,1.968,0,0,0,.974,29.786L6.5,31.126H11.23c2.739,0,2.806,2.237,2.806,4.972v2.59H16.61V34.215Z" fill="#ffbd86" fill-rule="evenodd"/>
          </g>
          <g id="Grupo_930806" data-name="Grupo 930806">
            <path id="Trazado_694050" data-name="Trazado 694050" d="M44.39,34.215v4.473h6.694V33.642h2.742L58.7,32.214a1.958,1.958,0,1,0-1.108-3.756l-2.688.788H49.371a4.991,4.991,0,0,0-4.981,4.968Z" fill="#fed2a4" fill-rule="evenodd"/>
          </g>
          <g id="Grupo_930807" data-name="Grupo 930807">
            <path id="Trazado_694051" data-name="Trazado 694051" d="M48.622,33.875v4.814h2.462V33.642h2.742L58.7,32.214a1.952,1.952,0,0,0,.557-3.486,2.145,2.145,0,0,1-1.4,1.822l-4.11,1.6h-3.2c-.56,0-1.922.051-1.922,1.721Z" fill="#ffbd86" fill-rule="evenodd"/>
          </g>
          <g id="Grupo_930808" data-name="Grupo 930808">
            <path id="Trazado_694052" data-name="Trazado 694052" d="M42.141,54.008a4.844,4.844,0,0,0,.895,3.116,5.688,5.688,0,0,0,4.61,2.375,5.391,5.391,0,0,0,5.5-5.491l-.527-8L52.06,37.5H43.232L43.1,39.436Z" fill="#6fd7a3" fill-rule="evenodd"/>
          </g>
          <g id="Grupo_930809" data-name="Grupo 930809">
            <path id="Trazado_694053" data-name="Trazado 694053" d="M48.622,37.5l.564,8.509.527,8a5.257,5.257,0,0,1-3.786,5.221,5.647,5.647,0,0,0,1.719.269,5.391,5.391,0,0,0,5.5-5.491l-.527-8L52.059,37.5H48.622Z" fill="#3ec3a4" fill-rule="evenodd"/>
          </g>
          <g id="Grupo_930810" data-name="Grupo 930810">
            <path id="Trazado_694054" data-name="Trazado 694054" d="M18.859,54.008,17.9,39.436,17.768,37.5H8.94L7.849,54.008a5.391,5.391,0,0,0,5.5,5.491,5.688,5.688,0,0,0,4.61-2.375h0a4.861,4.861,0,0,0,.892-3.116Z" fill="#6fd7a3" fill-rule="evenodd"/>
          </g>
          <g id="Grupo_930811" data-name="Grupo 930811">
            <path id="Trazado_694055" data-name="Trazado 694055" d="M18.859,54.008,17.9,39.436,17.768,37.5H14.016l.128,1.933.962,14.572a4.822,4.822,0,0,1-.892,3.116h0a5.657,5.657,0,0,1-2.735,2.051,5.644,5.644,0,0,0,6.484-2.051h0a4.861,4.861,0,0,0,.892-3.116Z" fill="#3ec3a4" fill-rule="evenodd"/>
          </g>
          <g id="Grupo_930812" data-name="Grupo 930812">
            <path id="Trazado_694056" data-name="Trazado 694056" d="M18.4,25.333a6.17,6.17,0,0,0-.523-6.744h-.6c-5.062,0-4.2,7.144,1.128,6.744Z" fill="#f6a96c" fill-rule="evenodd"/>
          </g>
          <g id="Grupo_930813" data-name="Grupo 930813">
            <path id="Trazado_694057" data-name="Trazado 694057" d="M17.876,18.589c2.35-.283,7.322-1.543,6.548-6.562-2.09-1.839-2.134-5.595-1.192-7.791-4.657.815-5.356,4.362-5.356,9.138v5.214Z" fill="#554e56" fill-rule="evenodd"/>
          </g>
          <g id="Grupo_930814" data-name="Grupo 930814">
            <path id="Trazado_694058" data-name="Trazado 694058" d="M23.891,13.732c4.8,5.979,14.562,6.353,19.233,4.857V12.28c0-2.722-.361-4.642-1.857-6.37C36.393.288,25.2.4,23.232,4.236c-.942,2.2-1.428,7.657.659,9.5Z" fill="#554e56" fill-rule="evenodd"/>
          </g>
          <g id="Grupo_930815" data-name="Grupo 930815">
            <path id="Trazado_694059" data-name="Trazado 694059" d="M42.6,25.333c5.326.4,6.19-6.744,1.131-6.744h-.608c-1.459,1.8-1.594,4.008-.524,6.744Z" fill="#f6a96c" fill-rule="evenodd"/>
          </g>
          <g id="Grupo_930816" data-name="Grupo 930816">
            <path id="Trazado_694060" data-name="Trazado 694060" d="M24.424,12.027c-2.09-1.839-2.134-5.595-1.192-7.791a7.261,7.261,0,0,0-2.209.728c-1.081,3.069-.881,7.821,1.827,10.223,1.378-.256,2.009-1.263,1.574-3.16Z" fill="#433f43" fill-rule="evenodd"/>
          </g>
          <g id="Grupo_930817" data-name="Grupo 930817">
            <path id="Trazado_694061" data-name="Trazado 694061" d="M43.124,18.589V12.28c0-2.722-.361-4.642-1.857-6.37-2.773-3.2-7.6-4.544-11.6-4.4a13.512,13.512,0,0,1,7.575,4.066c1.5,1.728,1.857,3.645,1.857,6.37v7.232c1.563.327,3.428.162,4.022-.589Z" fill="#433f43" fill-rule="evenodd"/>
          </g>
          <g id="Grupo_930818" data-name="Grupo 930818">
            <path id="Trazado_694062" data-name="Trazado 694062" d="M36.542,33.026A15.979,15.979,0,0,0,42.6,25.333a9.159,9.159,0,0,0,.523-2.924v-3.82c-4.211-.283-13.39-2.57-18.7-6.562-.517,3.914-5.133,5.48-6.548,6.562v3.82a9.159,9.159,0,0,0,.523,2.924,15.987,15.987,0,0,0,6.062,7.693,13.576,13.576,0,0,0,2.877,1.492,8.953,8.953,0,0,0,3.161.637,8.935,8.935,0,0,0,3.161-.637,13.6,13.6,0,0,0,2.881-1.492Z" fill="#fed2a4" fill-rule="evenodd"/>
          </g>
          <g id="Grupo_930819" data-name="Grupo 930819">
            <path id="Trazado_694063" data-name="Trazado 694063" d="M36.542,33.026A15.979,15.979,0,0,0,42.6,25.333a9.159,9.159,0,0,0,.523-2.924v-3.82a30.791,30.791,0,0,1-4.022-.6v3.816c0,3.887-3.039,8.515-6.153,10.617a14.157,14.157,0,0,1-5.64,2.082l.03.01a8.953,8.953,0,0,0,3.161.637,8.933,8.933,0,0,0,3.161-.637,13.607,13.607,0,0,0,2.881-1.492Z" fill="#ffbd86" fill-rule="evenodd"/>
          </g>
          <g id="Grupo_930820" data-name="Grupo 930820">
            <path id="Trazado_694064" data-name="Trazado 694064" d="M51.083,38.4a.893.893,0,0,1-.894-.894v-3.86a.893.893,0,0,1,.894-.894H53.7l4.75-1.392a1.069,1.069,0,0,0,.722-1.318,1.07,1.07,0,0,0-1.326-.723l-2.688.788a.893.893,0,0,1-.251.036H49.371a4.086,4.086,0,0,0-4.088,4.075V37.5a.894.894,0,0,1-1.787,0V34.215a5.875,5.875,0,0,1,5.875-5.862h5.4L57.34,27.6a2.859,2.859,0,0,1,3.544,1.933,2.856,2.856,0,0,1-1.933,3.538L54.077,34.5a.891.891,0,0,1-.251.036H51.977V37.5A.893.893,0,0,1,51.083,38.4Z"/>
          </g>
          <g id="Grupo_930821" data-name="Grupo 930821">
            <path id="Trazado_694065" data-name="Trazado 694065" d="M47.646,60.392a6.59,6.59,0,0,1-4.793-2.08,5.786,5.786,0,0,1-1.6-4.363L42.34,37.444a.893.893,0,0,1,.892-.835H52.06a.894.894,0,0,1,.892.834l.422,6.363a.893.893,0,0,1-1.783.118L51.223,38.4H44.068L43.033,54.067a4.017,4.017,0,0,0,1.125,3.024,4.776,4.776,0,0,0,6.977,0,4.018,4.018,0,0,0,1.124-3.025l-.392-5.925a.894.894,0,1,1,1.783-.118l.392,5.925a5.787,5.787,0,0,1-1.6,4.364A6.59,6.59,0,0,1,47.646,60.392Z"/>
          </g>
          <g id="Grupo_930822" data-name="Grupo 930822">
            <path id="Trazado_694066" data-name="Trazado 694066" d="M16.61,38.4a.894.894,0,0,1-.894-.894V34.215a4.086,4.086,0,0,0-4.088-4.075H6.1a.9.9,0,0,1-.251-.036l-2.688-.788a1.069,1.069,0,0,0-1.326.722,1.068,1.068,0,0,0,.724,1.319l4.751,1.392H9.916a.894.894,0,0,1,.894.894V37.5a.894.894,0,0,1-1.787,0V34.536H7.177a.9.9,0,0,1-.251-.036L2.053,33.072A2.851,2.851,0,1,1,3.66,27.6l2.565.752h5.4A5.875,5.875,0,0,1,17.5,34.215V37.5A.893.893,0,0,1,16.61,38.4Z"/>
          </g>
          <g id="Grupo_930823" data-name="Grupo 930823">
            <path id="Trazado_694067" data-name="Trazado 694067" d="M13.354,60.392a6.589,6.589,0,0,1-4.793-2.079,5.787,5.787,0,0,1-1.6-4.364l.405-6.144a.894.894,0,0,1,1.783.118l-.405,6.144a4.018,4.018,0,0,0,1.124,3.025,4.777,4.777,0,0,0,6.977,0,4.017,4.017,0,0,0,1.124-3.024L16.932,38.4H9.777L9.41,43.935a.893.893,0,0,1-1.783-.118l.422-6.373a.893.893,0,0,1,.892-.834h8.828a.894.894,0,0,1,.892.835L19.75,53.949a5.786,5.786,0,0,1-1.6,4.363A6.589,6.589,0,0,1,13.354,60.392Z"/>
          </g>
          <g id="Grupo_930824" data-name="Grupo 930824">
            <path id="Trazado_694068" data-name="Trazado 694068" d="M43.124,19.482a.894.894,0,0,1-.894-.894V12.28c0-2.837-.444-4.4-1.639-5.785-2.939-3.391-8.31-4.45-12.057-4-2.27.273-3.955,1.076-4.506,2.149a.894.894,0,0,1-.641.472c-3.881.679-4.617,3.426-4.617,8.258v5.214a.894.894,0,1,1-1.787,0V13.375c0-4.224.448-8.8,5.688-9.939.961-1.414,2.986-2.394,5.649-2.714a18.04,18.04,0,0,1,7.209.666,13.6,13.6,0,0,1,6.412,3.938c1.723,1.99,2.076,4.219,2.076,6.955v6.309A.893.893,0,0,1,43.124,19.482Z"/>
          </g>
          <g id="Grupo_930825" data-name="Grupo 930825">
            <path id="Trazado_694069" data-name="Trazado 694069" d="M25.127,23.356a.894.894,0,0,1-.894-.894V21.314a.894.894,0,0,1,1.787,0v1.149A.894.894,0,0,1,25.127,23.356Z"/>
          </g>
          <g id="Grupo_930826" data-name="Grupo 930826">
            <path id="Trazado_694070" data-name="Trazado 694070" d="M35.873,23.356a.894.894,0,0,1-.894-.894V21.314a.894.894,0,1,1,1.787,0v1.149A.893.893,0,0,1,35.873,23.356Z"/>
          </g>
          <g id="Grupo_930827" data-name="Grupo 930827">
            <path id="Trazado_694071" data-name="Trazado 694071" d="M32.377,30.073a.889.889,0,0,1-.45-.122,3.219,3.219,0,0,0-2.853,0,.894.894,0,0,1-.9-1.543,5.021,5.021,0,0,1,4.657,0,.894.894,0,0,1-.452,1.665Z"/>
          </g>
          <g id="Grupo_930828" data-name="Grupo 930828">
            <path id="Trazado_694072" data-name="Trazado 694072" d="M17.977,26.242a4.866,4.866,0,0,1-4.232-2.17,4.337,4.337,0,0,1-.262-4.363A4.113,4.113,0,0,1,17.272,17.7h.6a.894.894,0,0,1,0,1.787h-.6a2.333,2.333,0,0,0-2.219,1.081,2.533,2.533,0,0,0,.193,2.539,3.146,3.146,0,0,0,3.087,1.339.894.894,0,1,1,.134,1.782Q18.219,26.242,17.977,26.242Z"/>
          </g>
          <g id="Grupo_930829" data-name="Grupo 930829">
            <path id="Trazado_694073" data-name="Trazado 694073" d="M43.023,26.242q-.242,0-.49-.019a.894.894,0,0,1,.134-1.782A3.146,3.146,0,0,0,45.754,23.1a2.533,2.533,0,0,0,.193-2.539,2.33,2.33,0,0,0-2.216-1.08h-.608a.894.894,0,0,1,0-1.787h.608a4.11,4.11,0,0,1,3.786,2.013,4.338,4.338,0,0,1-.262,4.364A4.866,4.866,0,0,1,43.023,26.242Z"/>
          </g>
          <g id="Grupo_930830" data-name="Grupo 930830">
            <path id="Trazado_694074" data-name="Trazado 694074" d="M30.5,36.048a9.806,9.806,0,0,1-3.472-.692c-5.445-2.012-10.046-7.941-10.046-12.947v-3.82a.893.893,0,0,1,.351-.71,12.864,12.864,0,0,1,1.426-.873c1.872-1.049,4.435-2.486,4.779-5.1a.894.894,0,0,1,1.423-.6c5.326,4,14.5,6.134,18.222,6.384a.894.894,0,0,1,.834.891v3.82c0,5.006-4.6,10.935-10.046,12.948A9.769,9.769,0,0,1,30.5,36.048ZM18.77,19.063v3.346c0,4.256,4.149,9.523,8.879,11.271a8.1,8.1,0,0,0,2.851.581,8.061,8.061,0,0,0,2.85-.581c4.732-1.749,8.881-7.016,8.881-11.272v-3c-4.426-.475-12.1-2.515-17.261-5.906-1,2.632-3.655,4.122-5.336,5.064C19.307,18.748,19.01,18.914,18.77,19.063Z"/>
          </g>
          <g id="Grupo_930831" data-name="Grupo 930831">
            <path id="Trazado_694075" data-name="Trazado 694075" d="M24.424,12.921a.89.89,0,0,1-.59-.223c-2.334-2.053-2.556-6.174-1.423-8.814a.894.894,0,0,1,1.642.7c-.873,2.034-.692,5.313.961,6.768a.894.894,0,0,1-.591,1.564Z"/>
          </g>
          <g id="Grupo_930832" data-name="Grupo 930832">
            <path id="Trazado_694076" data-name="Trazado 694076" d="M30.5,42.166a9.121,9.121,0,0,1-4.611-1.141,4.383,4.383,0,0,1-2.323-3.812V36.4a.894.894,0,0,1,1.787,0v.809c0,2.079,2.589,3.166,5.147,3.166s5.146-1.088,5.146-3.166V36.4a.894.894,0,0,1,1.787,0v.809a4.383,4.383,0,0,1-2.323,3.812A9.122,9.122,0,0,1,30.5,42.166Z"/>
          </g>
          <g id="Grupo_930833" data-name="Grupo 930833">
            <path id="Trazado_694077" data-name="Trazado 694077" d="M43.036,58.017H17.964a.894.894,0,0,1,0-1.787H43.036a.894.894,0,0,1,0,1.787ZM43.1,40.33a.888.888,0,0,1-.328-.063l-6.562-2.594a.893.893,0,0,1-.565-.831V33.026a.894.894,0,0,1,1.787,0v3.209l6,2.37A.894.894,0,0,1,43.1,40.33Zm-25.207,0a.894.894,0,0,1-.329-1.725l6-2.37V33.026a.894.894,0,0,1,1.787,0v3.816a.894.894,0,0,1-.565.831l-6.565,2.594A.892.892,0,0,1,17.9,40.33Z"/>
          </g>
        </g>
      </g>
    </g>
  </g>
</svg>
